%TF.GenerationSoftware,KiCad,Pcbnew,7.0.8*%
%TF.CreationDate,2023-10-09T18:20:10+02:00*%
%TF.ProjectId,Z80_SBC,5a38305f-5342-4432-9e6b-696361645f70,rev?*%
%TF.SameCoordinates,Original*%
%TF.FileFunction,Copper,L2,Bot*%
%TF.FilePolarity,Positive*%
%FSLAX46Y46*%
G04 Gerber Fmt 4.6, Leading zero omitted, Abs format (unit mm)*
G04 Created by KiCad (PCBNEW 7.0.8) date 2023-10-09 18:20:10*
%MOMM*%
%LPD*%
G01*
G04 APERTURE LIST*
%TA.AperFunction,ComponentPad*%
%ADD10R,1.800000X1.800000*%
%TD*%
%TA.AperFunction,ComponentPad*%
%ADD11C,1.800000*%
%TD*%
%TA.AperFunction,ComponentPad*%
%ADD12C,1.600000*%
%TD*%
%TA.AperFunction,ComponentPad*%
%ADD13O,1.600000X1.600000*%
%TD*%
%TA.AperFunction,ComponentPad*%
%ADD14O,1.700000X1.100000*%
%TD*%
%TA.AperFunction,ComponentPad*%
%ADD15C,1.200000*%
%TD*%
%TA.AperFunction,ComponentPad*%
%ADD16R,2.400000X1.600000*%
%TD*%
%TA.AperFunction,ComponentPad*%
%ADD17O,2.400000X1.600000*%
%TD*%
%TA.AperFunction,ComponentPad*%
%ADD18R,1.600000X1.600000*%
%TD*%
%TA.AperFunction,ComponentPad*%
%ADD19R,1.200000X1.200000*%
%TD*%
%TA.AperFunction,ComponentPad*%
%ADD20R,1.000000X1.000000*%
%TD*%
%TA.AperFunction,ComponentPad*%
%ADD21O,1.000000X1.000000*%
%TD*%
%TA.AperFunction,ComponentPad*%
%ADD22C,1.500000*%
%TD*%
%TA.AperFunction,ComponentPad*%
%ADD23C,2.000000*%
%TD*%
%TA.AperFunction,ViaPad*%
%ADD24C,0.800000*%
%TD*%
%TA.AperFunction,Conductor*%
%ADD25C,0.250000*%
%TD*%
G04 APERTURE END LIST*
D10*
%TO.P,D8,1,K*%
%TO.N,Net-(D8-K)*%
X195306000Y-131059000D03*
D11*
%TO.P,D8,2,A*%
%TO.N,Net-(D8-A)*%
X195306000Y-128519000D03*
%TD*%
D10*
%TO.P,D7,1,K*%
%TO.N,Net-(D7-K)*%
X189464000Y-131059000D03*
D11*
%TO.P,D7,2,A*%
%TO.N,Net-(D7-A)*%
X189464000Y-128519000D03*
%TD*%
D12*
%TO.P,R4,1*%
%TO.N,5V*%
X102850000Y-113787000D03*
D13*
%TO.P,R4,2*%
%TO.N,~{INT}*%
X102850000Y-101087000D03*
%TD*%
D10*
%TO.P,D3,1,K*%
%TO.N,Net-(D3-K)*%
X166096000Y-131313000D03*
D11*
%TO.P,D3,2,A*%
%TO.N,Net-(D3-A)*%
X166096000Y-128773000D03*
%TD*%
D14*
%TO.P,J1,S1,SHIELD*%
%TO.N,GND*%
X104834000Y-39363000D03*
X101034000Y-39363000D03*
X104834000Y-48003000D03*
X101034000Y-48003000D03*
%TD*%
D12*
%TO.P,R5,1*%
%TO.N,5V*%
X103124000Y-76708000D03*
D13*
%TO.P,R5,2*%
%TO.N,Net-(D9-A)*%
X103124000Y-89408000D03*
%TD*%
D15*
%TO.P,C4,1*%
%TO.N,5V*%
X129516000Y-93472000D03*
%TO.P,C4,2*%
%TO.N,GND*%
X128016000Y-93472000D03*
%TD*%
D16*
%TO.P,U1,1,A11*%
%TO.N,/Address11*%
X121158000Y-40132000D03*
D17*
%TO.P,U1,2,A12*%
%TO.N,/Address12*%
X121158000Y-42672000D03*
%TO.P,U1,3,A13*%
%TO.N,A13*%
X121158000Y-45212000D03*
%TO.P,U1,4,A14*%
%TO.N,A14*%
X121158000Y-47752000D03*
%TO.P,U1,5,A15*%
%TO.N,/Address15*%
X121158000Y-50292000D03*
%TO.P,U1,6,~{CLK}*%
%TO.N,CLK*%
X121158000Y-52832000D03*
%TO.P,U1,7,D4*%
%TO.N,/Data4*%
X121158000Y-55372000D03*
%TO.P,U1,8,D3*%
%TO.N,/Data3*%
X121158000Y-57912000D03*
%TO.P,U1,9,D5*%
%TO.N,/Data5*%
X121158000Y-60452000D03*
%TO.P,U1,10,D6*%
%TO.N,/Data6*%
X121158000Y-62992000D03*
%TO.P,U1,11,VCC*%
%TO.N,5V*%
X121158000Y-65532000D03*
%TO.P,U1,12,D2*%
%TO.N,/Data2*%
X121158000Y-68072000D03*
%TO.P,U1,13,D7*%
%TO.N,/Data7*%
X121158000Y-70612000D03*
%TO.P,U1,14,D0*%
%TO.N,/Data0*%
X121158000Y-73152000D03*
%TO.P,U1,15,D1*%
%TO.N,/Data1*%
X121158000Y-75692000D03*
%TO.P,U1,16,~{INT}*%
%TO.N,~{INT}*%
X121158000Y-78232000D03*
%TO.P,U1,17,~{NMI}*%
%TO.N,5V*%
X121158000Y-80772000D03*
%TO.P,U1,18,~{HALT}*%
%TO.N,unconnected-(U1-~{HALT}-Pad18)*%
X121158000Y-83312000D03*
%TO.P,U1,19,~{MREQ}*%
%TO.N,~{MREQ}*%
X121158000Y-85852000D03*
%TO.P,U1,20,~{IORQ}*%
%TO.N,~{I{slash}O}*%
X121158000Y-88392000D03*
%TO.P,U1,21,~{RD}*%
%TO.N,~{RD}*%
X136398000Y-88392000D03*
%TO.P,U1,22,~{WR}*%
%TO.N,~{WR}*%
X136398000Y-85852000D03*
%TO.P,U1,23,~{BUSACK}*%
%TO.N,unconnected-(U1-~{BUSACK}-Pad23)*%
X136398000Y-83312000D03*
%TO.P,U1,24,~{WAIT}*%
%TO.N,5V*%
X136398000Y-80772000D03*
%TO.P,U1,25,~{BUSRQ}*%
X136398000Y-78232000D03*
%TO.P,U1,26,~{RESET}*%
%TO.N,Net-(U1-~{RESET})*%
X136398000Y-75692000D03*
%TO.P,U1,27,~{M1}*%
%TO.N,~{M1}*%
X136398000Y-73152000D03*
%TO.P,U1,28,~{RFSH}*%
%TO.N,unconnected-(U1-~{RFSH}-Pad28)*%
X136398000Y-70612000D03*
%TO.P,U1,29,GND*%
%TO.N,GND*%
X136398000Y-68072000D03*
%TO.P,U1,30,A0*%
%TO.N,A0*%
X136398000Y-65532000D03*
%TO.P,U1,31,A1*%
%TO.N,/Address1*%
X136398000Y-62992000D03*
%TO.P,U1,32,A2*%
%TO.N,/Address2*%
X136398000Y-60452000D03*
%TO.P,U1,33,A3*%
%TO.N,/Address3*%
X136398000Y-57912000D03*
%TO.P,U1,34,A4*%
%TO.N,/Address4*%
X136398000Y-55372000D03*
%TO.P,U1,35,A5*%
%TO.N,/Address5*%
X136398000Y-52832000D03*
%TO.P,U1,36,A6*%
%TO.N,A6*%
X136398000Y-50292000D03*
%TO.P,U1,37,A7*%
%TO.N,A7*%
X136398000Y-47752000D03*
%TO.P,U1,38,A8*%
%TO.N,/Address8*%
X136398000Y-45212000D03*
%TO.P,U1,39,A9*%
%TO.N,/Address9*%
X136398000Y-42672000D03*
%TO.P,U1,40,A10*%
%TO.N,/Address10*%
X136398000Y-40132000D03*
%TD*%
D18*
%TO.P,U4,1*%
%TO.N,/Address15*%
X108438000Y-101849000D03*
D13*
%TO.P,U4,2*%
%TO.N,Net-(U2-~{CS})*%
X108438000Y-104389000D03*
%TO.P,U4,3*%
%TO.N,~{I{slash}O}*%
X108438000Y-106929000D03*
%TO.P,U4,4*%
%TO.N,Net-(U6-E)*%
X108438000Y-109469000D03*
%TO.P,U4,5*%
%TO.N,Net-(U5A-O1)*%
X108438000Y-112009000D03*
%TO.P,U4,6*%
%TO.N,Net-(U7-Load)*%
X108438000Y-114549000D03*
%TO.P,U4,7,GND*%
%TO.N,GND*%
X108438000Y-117089000D03*
%TO.P,U4,8*%
%TO.N,unconnected-(U4-Pad8)*%
X116058000Y-117089000D03*
%TO.P,U4,9*%
%TO.N,GND*%
X116058000Y-114549000D03*
%TO.P,U4,10*%
%TO.N,Net-(R1-Pad1)*%
X116058000Y-112009000D03*
%TO.P,U4,11*%
%TO.N,Net-(C2-Pad1)*%
X116058000Y-109469000D03*
%TO.P,U4,12*%
%TO.N,CLK*%
X116058000Y-106929000D03*
%TO.P,U4,13*%
%TO.N,Net-(R1-Pad1)*%
X116058000Y-104389000D03*
%TO.P,U4,14,VCC*%
%TO.N,5V*%
X116058000Y-101849000D03*
%TD*%
D15*
%TO.P,C5,1*%
%TO.N,5V*%
X139424000Y-113787000D03*
%TO.P,C5,2*%
%TO.N,GND*%
X137924000Y-113787000D03*
%TD*%
D19*
%TO.P,C1,1*%
%TO.N,Net-(C1-Pad1)*%
X102596000Y-123975401D03*
D15*
%TO.P,C1,2*%
%TO.N,GND*%
X102596000Y-125975401D03*
%TD*%
%TO.P,C11,1*%
%TO.N,5V*%
X161798000Y-39128000D03*
%TO.P,C11,2*%
%TO.N,GND*%
X161798000Y-40628000D03*
%TD*%
D20*
%TO.P,J2,1,Pin_1*%
%TO.N,GND*%
X196576000Y-91181000D03*
D21*
%TO.P,J2,2,Pin_2*%
%TO.N,TX*%
X196576000Y-89911000D03*
%TO.P,J2,3,Pin_3*%
%TO.N,RX*%
X196576000Y-88641000D03*
%TO.P,J2,4,Pin_4*%
%TO.N,5V*%
X196576000Y-87371000D03*
%TD*%
D22*
%TO.P,Y1,1,1*%
%TO.N,Net-(C2-Pad1)*%
X114952000Y-124440000D03*
%TO.P,Y1,2,2*%
%TO.N,Net-(C1-Pad1)*%
X110052000Y-124440000D03*
%TD*%
D16*
%TO.P,U3,1,RDY/~{BSY}*%
%TO.N,unconnected-(U3-RDY{slash}~{BSY}-Pad1)*%
X154142000Y-44388000D03*
D17*
%TO.P,U3,2,A12*%
%TO.N,/Address12*%
X154142000Y-46928000D03*
%TO.P,U3,3,A7*%
%TO.N,A7*%
X154142000Y-49468000D03*
%TO.P,U3,4,A6*%
%TO.N,A6*%
X154142000Y-52008000D03*
%TO.P,U3,5,A5*%
%TO.N,/Address5*%
X154142000Y-54548000D03*
%TO.P,U3,6,A4*%
%TO.N,/Address4*%
X154142000Y-57088000D03*
%TO.P,U3,7,A3*%
%TO.N,/Address3*%
X154142000Y-59628000D03*
%TO.P,U3,8,A2*%
%TO.N,/Address2*%
X154142000Y-62168000D03*
%TO.P,U3,9,A1*%
%TO.N,/Address1*%
X154142000Y-64708000D03*
%TO.P,U3,10,A0*%
%TO.N,A0*%
X154142000Y-67248000D03*
%TO.P,U3,11,D0*%
%TO.N,/Data0*%
X154142000Y-69788000D03*
%TO.P,U3,12,D1*%
%TO.N,/Data1*%
X154142000Y-72328000D03*
%TO.P,U3,13,D2*%
%TO.N,/Data2*%
X154142000Y-74868000D03*
%TO.P,U3,14,GND*%
%TO.N,GND*%
X154142000Y-77408000D03*
%TO.P,U3,15,D3*%
%TO.N,/Data3*%
X169382000Y-77408000D03*
%TO.P,U3,16,D4*%
%TO.N,/Data4*%
X169382000Y-74868000D03*
%TO.P,U3,17,D5*%
%TO.N,/Data5*%
X169382000Y-72328000D03*
%TO.P,U3,18,D6*%
%TO.N,/Data6*%
X169382000Y-69788000D03*
%TO.P,U3,19,D7*%
%TO.N,/Data7*%
X169382000Y-67248000D03*
%TO.P,U3,20,~{CE}*%
%TO.N,ROM*%
X169382000Y-64708000D03*
%TO.P,U3,21,A10*%
%TO.N,/Address10*%
X169382000Y-62168000D03*
%TO.P,U3,22,~{OE}*%
%TO.N,~{MEMRD}*%
X169382000Y-59628000D03*
%TO.P,U3,23,A11*%
%TO.N,/Address11*%
X169382000Y-57088000D03*
%TO.P,U3,24,A9*%
%TO.N,/Address9*%
X169382000Y-54548000D03*
%TO.P,U3,25,A8*%
%TO.N,/Address8*%
X169382000Y-52008000D03*
%TO.P,U3,26,NC*%
%TO.N,unconnected-(U3-NC-Pad26)*%
X169382000Y-49468000D03*
%TO.P,U3,27,~{WE}*%
%TO.N,5V*%
X169382000Y-46928000D03*
%TO.P,U3,28,VCC*%
X169382000Y-44388000D03*
%TD*%
D10*
%TO.P,D2,1,K*%
%TO.N,Net-(D2-K)*%
X160254000Y-131313000D03*
D11*
%TO.P,D2,2,A*%
%TO.N,Net-(D2-A)*%
X160254000Y-128773000D03*
%TD*%
D18*
%TO.P,U8,1*%
%TO.N,GND*%
X135118000Y-118359000D03*
D13*
%TO.P,U8,2*%
X135118000Y-120899000D03*
%TO.P,U8,3*%
%TO.N,unconnected-(U8-Pad3)*%
X135118000Y-123439000D03*
%TO.P,U8,4*%
%TO.N,GND*%
X135118000Y-125979000D03*
%TO.P,U8,5*%
X135118000Y-128519000D03*
%TO.P,U8,6*%
%TO.N,unconnected-(U8-Pad6)*%
X135118000Y-131059000D03*
%TO.P,U8,7,GND*%
%TO.N,GND*%
X135118000Y-133599000D03*
%TO.P,U8,8*%
%TO.N,~{MEMRD}*%
X142738000Y-133599000D03*
%TO.P,U8,9*%
%TO.N,~{RD}*%
X142738000Y-131059000D03*
%TO.P,U8,10*%
%TO.N,~{MREQ}*%
X142738000Y-128519000D03*
%TO.P,U8,11*%
%TO.N,~{MEMWR}*%
X142738000Y-125979000D03*
%TO.P,U8,12*%
%TO.N,~{MREQ}*%
X142738000Y-123439000D03*
%TO.P,U8,13*%
%TO.N,~{WR}*%
X142738000Y-120899000D03*
%TO.P,U8,14,VCC*%
%TO.N,5V*%
X142738000Y-118359000D03*
%TD*%
D12*
%TO.P,R1,1*%
%TO.N,Net-(R1-Pad1)*%
X106152000Y-134854000D03*
D13*
%TO.P,R1,2*%
%TO.N,Net-(C1-Pad1)*%
X118852000Y-134854000D03*
%TD*%
D18*
%TO.P,RN1,1,common*%
%TO.N,GND*%
X189464000Y-135377000D03*
D13*
%TO.P,RN1,2,R1*%
%TO.N,Net-(D8-K)*%
X186924000Y-135377000D03*
%TO.P,RN1,3,R2*%
%TO.N,Net-(D7-K)*%
X184384000Y-135377000D03*
%TO.P,RN1,4,R3*%
%TO.N,Net-(D6-K)*%
X181844000Y-135377000D03*
%TO.P,RN1,5,R4*%
%TO.N,Net-(D5-K)*%
X179304000Y-135377000D03*
%TO.P,RN1,6,R5*%
%TO.N,Net-(D4-K)*%
X176764000Y-135377000D03*
%TO.P,RN1,7,R6*%
%TO.N,Net-(D3-K)*%
X174224000Y-135377000D03*
%TO.P,RN1,8,R7*%
%TO.N,Net-(D2-K)*%
X171684000Y-135377000D03*
%TO.P,RN1,9,R8*%
%TO.N,Net-(D1-K)*%
X169144000Y-135377000D03*
%TD*%
D19*
%TO.P,C3,1*%
%TO.N,5V*%
X111760000Y-42164000D03*
D15*
%TO.P,C3,2*%
%TO.N,GND*%
X111760000Y-43664000D03*
%TD*%
D23*
%TO.P,SW1,1,1*%
%TO.N,GND*%
X106120000Y-72862000D03*
X99620000Y-72862000D03*
%TO.P,SW1,2,2*%
%TO.N,Net-(U1-~{RESET})*%
X106120000Y-68362000D03*
X99620000Y-68362000D03*
%TD*%
D15*
%TO.P,C7,1*%
%TO.N,5V*%
X126218000Y-102115000D03*
%TO.P,C7,2*%
%TO.N,GND*%
X126218000Y-103615000D03*
%TD*%
D10*
%TO.P,D1,1,K*%
%TO.N,Net-(D1-K)*%
X154432000Y-131323000D03*
D11*
%TO.P,D1,2,A*%
%TO.N,Net-(D1-A)*%
X154432000Y-128783000D03*
%TD*%
D12*
%TO.P,R3,1*%
%TO.N,5V*%
X103632000Y-50800000D03*
D13*
%TO.P,R3,2*%
%TO.N,Net-(U1-~{RESET})*%
X103632000Y-63500000D03*
%TD*%
D18*
%TO.P,U6,1,VSS*%
%TO.N,GND*%
X186416000Y-90673000D03*
D13*
%TO.P,U6,2,Rx_Data*%
%TO.N,RX*%
X183876000Y-90673000D03*
%TO.P,U6,3,Rx_CLK*%
%TO.N,CLK*%
X181336000Y-90673000D03*
%TO.P,U6,4,Tx_CLK*%
X178796000Y-90673000D03*
%TO.P,U6,5,~{RTS}*%
%TO.N,unconnected-(U6-~{RTS}-Pad5)*%
X176256000Y-90673000D03*
%TO.P,U6,6,Tx_Data*%
%TO.N,TX*%
X173716000Y-90673000D03*
%TO.P,U6,7,~{IRQ}*%
%TO.N,~{INT}*%
X171176000Y-90673000D03*
%TO.P,U6,8,CS0*%
%TO.N,~{M1}*%
X168636000Y-90673000D03*
%TO.P,U6,9,CS2*%
%TO.N,A7*%
X166096000Y-90673000D03*
%TO.P,U6,10,CS1*%
%TO.N,A6*%
X163556000Y-90673000D03*
%TO.P,U6,11,RS*%
%TO.N,A0*%
X161016000Y-90673000D03*
%TO.P,U6,12,VCC*%
%TO.N,5V*%
X158476000Y-90673000D03*
%TO.P,U6,13,R/~{W}*%
%TO.N,~{WR}*%
X158476000Y-105913000D03*
%TO.P,U6,14,E*%
%TO.N,Net-(U6-E)*%
X161016000Y-105913000D03*
%TO.P,U6,15,D7*%
%TO.N,/Data7*%
X163556000Y-105913000D03*
%TO.P,U6,16,D6*%
%TO.N,/Data6*%
X166096000Y-105913000D03*
%TO.P,U6,17,D5*%
%TO.N,/Data5*%
X168636000Y-105913000D03*
%TO.P,U6,18,D4*%
%TO.N,/Data4*%
X171176000Y-105913000D03*
%TO.P,U6,19,D3*%
%TO.N,/Data3*%
X173716000Y-105913000D03*
%TO.P,U6,20,D2*%
%TO.N,/Data2*%
X176256000Y-105913000D03*
%TO.P,U6,21,D1*%
%TO.N,/Data1*%
X178796000Y-105913000D03*
%TO.P,U6,22,D0*%
%TO.N,/Data0*%
X181336000Y-105913000D03*
%TO.P,U6,23,~{DCD}*%
%TO.N,GND*%
X183876000Y-105913000D03*
%TO.P,U6,24,~{CTS}*%
X186416000Y-105913000D03*
%TD*%
D18*
%TO.P,U7,1,OE*%
%TO.N,GND*%
X186924000Y-115819000D03*
D13*
%TO.P,U7,2,D0*%
%TO.N,/Data0*%
X184384000Y-115819000D03*
%TO.P,U7,3,D1*%
%TO.N,/Data1*%
X181844000Y-115819000D03*
%TO.P,U7,4,D2*%
%TO.N,/Data2*%
X179304000Y-115819000D03*
%TO.P,U7,5,D3*%
%TO.N,/Data3*%
X176764000Y-115819000D03*
%TO.P,U7,6,D4*%
%TO.N,/Data4*%
X174224000Y-115819000D03*
%TO.P,U7,7,D5*%
%TO.N,/Data5*%
X171684000Y-115819000D03*
%TO.P,U7,8,D6*%
%TO.N,/Data6*%
X169144000Y-115819000D03*
%TO.P,U7,9,D7*%
%TO.N,/Data7*%
X166604000Y-115819000D03*
%TO.P,U7,10,GND*%
%TO.N,GND*%
X164064000Y-115819000D03*
%TO.P,U7,11,Load*%
%TO.N,Net-(U7-Load)*%
X164064000Y-123439000D03*
%TO.P,U7,12,Q7*%
%TO.N,Net-(D1-A)*%
X166604000Y-123439000D03*
%TO.P,U7,13,Q6*%
%TO.N,Net-(D2-A)*%
X169144000Y-123439000D03*
%TO.P,U7,14,Q5*%
%TO.N,Net-(D3-A)*%
X171684000Y-123439000D03*
%TO.P,U7,15,Q4*%
%TO.N,Net-(D4-A)*%
X174224000Y-123439000D03*
%TO.P,U7,16,Q3*%
%TO.N,Net-(D5-A)*%
X176764000Y-123439000D03*
%TO.P,U7,17,Q2*%
%TO.N,Net-(D6-A)*%
X179304000Y-123439000D03*
%TO.P,U7,18,Q1*%
%TO.N,Net-(D7-A)*%
X181844000Y-123439000D03*
%TO.P,U7,19,Q0*%
%TO.N,Net-(D8-A)*%
X184384000Y-123439000D03*
%TO.P,U7,20,VCC*%
%TO.N,5V*%
X186924000Y-123439000D03*
%TD*%
D18*
%TO.P,U5,1,E*%
%TO.N,/Address15*%
X130790000Y-106675000D03*
D13*
%TO.P,U5,2,A0*%
%TO.N,A13*%
X133330000Y-106675000D03*
%TO.P,U5,3,A1*%
%TO.N,A14*%
X135870000Y-106675000D03*
%TO.P,U5,4,O0*%
%TO.N,ROM*%
X138410000Y-106675000D03*
%TO.P,U5,5,O1*%
%TO.N,Net-(U5A-O1)*%
X140950000Y-106675000D03*
%TO.P,U5,6,O2*%
%TO.N,unconnected-(U5A-O2-Pad6)*%
X143490000Y-106675000D03*
%TO.P,U5,7,O3*%
%TO.N,unconnected-(U5A-O3-Pad7)*%
X146030000Y-106675000D03*
%TO.P,U5,8,GND*%
%TO.N,GND*%
X148570000Y-106675000D03*
%TO.P,U5,9,O3*%
%TO.N,unconnected-(U5B-O3-Pad9)*%
X148570000Y-99055000D03*
%TO.P,U5,10,O2*%
%TO.N,unconnected-(U5B-O2-Pad10)*%
X146030000Y-99055000D03*
%TO.P,U5,11,O1*%
%TO.N,unconnected-(U5B-O1-Pad11)*%
X143490000Y-99055000D03*
%TO.P,U5,12,O0*%
%TO.N,unconnected-(U5B-O0-Pad12)*%
X140950000Y-99055000D03*
%TO.P,U5,13,A1*%
%TO.N,GND*%
X138410000Y-99055000D03*
%TO.P,U5,14,A0*%
X135870000Y-99055000D03*
%TO.P,U5,15,E*%
X133330000Y-99055000D03*
%TO.P,U5,16,VCC*%
%TO.N,5V*%
X130790000Y-99055000D03*
%TD*%
D19*
%TO.P,C2,1*%
%TO.N,Net-(C2-Pad1)*%
X122408000Y-123975401D03*
D15*
%TO.P,C2,2*%
%TO.N,GND*%
X122408000Y-125975401D03*
%TD*%
%TO.P,C9,1*%
%TO.N,5V*%
X190754000Y-119126000D03*
%TO.P,C9,2*%
%TO.N,GND*%
X190754000Y-120626000D03*
%TD*%
D12*
%TO.P,R2,1*%
%TO.N,Net-(C2-Pad1)*%
X118852000Y-130536000D03*
D13*
%TO.P,R2,2*%
%TO.N,Net-(R1-Pad1)*%
X106152000Y-130536000D03*
%TD*%
D18*
%TO.P,U2,1,A14*%
%TO.N,A14*%
X180142000Y-44468000D03*
D13*
%TO.P,U2,2,A12*%
%TO.N,/Address12*%
X180142000Y-47008000D03*
%TO.P,U2,3,A7*%
%TO.N,A7*%
X180142000Y-49548000D03*
%TO.P,U2,4,A6*%
%TO.N,A6*%
X180142000Y-52088000D03*
%TO.P,U2,5,A5*%
%TO.N,/Address5*%
X180142000Y-54628000D03*
%TO.P,U2,6,A4*%
%TO.N,/Address4*%
X180142000Y-57168000D03*
%TO.P,U2,7,A3*%
%TO.N,/Address3*%
X180142000Y-59708000D03*
%TO.P,U2,8,A2*%
%TO.N,/Address2*%
X180142000Y-62248000D03*
%TO.P,U2,9,A1*%
%TO.N,/Address1*%
X180142000Y-64788000D03*
%TO.P,U2,10,A0*%
%TO.N,A0*%
X180142000Y-67328000D03*
%TO.P,U2,11,Q0*%
%TO.N,/Data0*%
X180142000Y-69868000D03*
%TO.P,U2,12,Q1*%
%TO.N,/Data1*%
X180142000Y-72408000D03*
%TO.P,U2,13,Q2*%
%TO.N,/Data2*%
X180142000Y-74948000D03*
%TO.P,U2,14,GND*%
%TO.N,GND*%
X180142000Y-77488000D03*
%TO.P,U2,15,Q3*%
%TO.N,/Data3*%
X195382000Y-77488000D03*
%TO.P,U2,16,Q4*%
%TO.N,/Data4*%
X195382000Y-74948000D03*
%TO.P,U2,17,Q5*%
%TO.N,/Data5*%
X195382000Y-72408000D03*
%TO.P,U2,18,Q6*%
%TO.N,/Data6*%
X195382000Y-69868000D03*
%TO.P,U2,19,Q7*%
%TO.N,/Data7*%
X195382000Y-67328000D03*
%TO.P,U2,20,~{CS}*%
%TO.N,Net-(U2-~{CS})*%
X195382000Y-64788000D03*
%TO.P,U2,21,A10*%
%TO.N,/Address10*%
X195382000Y-62248000D03*
%TO.P,U2,22,~{OE}*%
%TO.N,~{MEMRD}*%
X195382000Y-59708000D03*
%TO.P,U2,23,A11*%
%TO.N,/Address11*%
X195382000Y-57168000D03*
%TO.P,U2,24,A9*%
%TO.N,/Address9*%
X195382000Y-54628000D03*
%TO.P,U2,25,A8*%
%TO.N,/Address8*%
X195382000Y-52088000D03*
%TO.P,U2,26,A13*%
%TO.N,A13*%
X195382000Y-49548000D03*
%TO.P,U2,27,~{WE}*%
%TO.N,~{MEMWR}*%
X195382000Y-47008000D03*
%TO.P,U2,28,VCC*%
%TO.N,5V*%
X195382000Y-44468000D03*
%TD*%
D10*
%TO.P,D6,1,K*%
%TO.N,Net-(D6-K)*%
X183622000Y-131313000D03*
D11*
%TO.P,D6,2,A*%
%TO.N,Net-(D6-A)*%
X183622000Y-128773000D03*
%TD*%
D15*
%TO.P,C6,1*%
%TO.N,5V*%
X190500000Y-97802000D03*
%TO.P,C6,2*%
%TO.N,GND*%
X190500000Y-99302000D03*
%TD*%
%TO.P,C10,1*%
%TO.N,5V*%
X187960000Y-39116000D03*
%TO.P,C10,2*%
%TO.N,GND*%
X187960000Y-40616000D03*
%TD*%
%TO.P,C8,1*%
%TO.N,5V*%
X112998000Y-97536000D03*
%TO.P,C8,2*%
%TO.N,GND*%
X111498000Y-97536000D03*
%TD*%
%TO.P,C12,1*%
%TO.N,Net-(U1-~{RESET})*%
X112776000Y-71144000D03*
%TO.P,C12,2*%
%TO.N,GND*%
X112776000Y-72644000D03*
%TD*%
D10*
%TO.P,D5,1,K*%
%TO.N,Net-(D5-K)*%
X177780000Y-131313000D03*
D11*
%TO.P,D5,2,A*%
%TO.N,Net-(D5-A)*%
X177780000Y-128773000D03*
%TD*%
D10*
%TO.P,D9,1,K*%
%TO.N,GND*%
X112776000Y-78232000D03*
D11*
%TO.P,D9,2,A*%
%TO.N,Net-(D9-A)*%
X112776000Y-80772000D03*
%TD*%
D10*
%TO.P,D4,1,K*%
%TO.N,Net-(D4-K)*%
X171938000Y-131313000D03*
D11*
%TO.P,D4,2,A*%
%TO.N,Net-(D4-A)*%
X171938000Y-128773000D03*
%TD*%
D24*
%TO.N,5V*%
X103632000Y-42164000D03*
X154686000Y-94234000D03*
X122682000Y-109474000D03*
X103632000Y-45212000D03*
X130810000Y-94996000D03*
X165603701Y-46477701D03*
%TO.N,~{I{slash}O}*%
X106172000Y-95250000D03*
%TO.N,~{RD}*%
X147320000Y-102362000D03*
X147320000Y-110159500D03*
X144272000Y-92964000D03*
%TO.N,Net-(U1-~{RESET})*%
X130048000Y-74422000D03*
%TO.N,Net-(U6-E)*%
X151384000Y-108712000D03*
X154669201Y-108695201D03*
%TO.N,~{INT}*%
X150876000Y-93726000D03*
X139954000Y-86868000D03*
X133858000Y-79502000D03*
X142494000Y-87884000D03*
X169036500Y-92456000D03*
X154686000Y-95758000D03*
%TO.N,~{M1}*%
X153411701Y-92460299D03*
X150876000Y-91948000D03*
X144272000Y-83312000D03*
X146050000Y-85090000D03*
X160320424Y-85667636D03*
%TO.N,A0*%
X158387000Y-67248000D03*
%TO.N,/Data4*%
X183642000Y-82042000D03*
X142494000Y-75438000D03*
%TO.N,/Data3*%
X125984000Y-57912000D03*
X144018000Y-75438000D03*
X184150000Y-83058000D03*
%TO.N,/Data5*%
X140970000Y-75438000D03*
X182880000Y-81026000D03*
%TO.N,/Data6*%
X133096000Y-70358000D03*
X139446000Y-75438000D03*
X182118000Y-80010000D03*
%TO.N,/Data2*%
X132842000Y-60960000D03*
X132334000Y-67564000D03*
X145542000Y-75438000D03*
%TO.N,/Data7*%
X127254000Y-76962000D03*
X181102000Y-79116000D03*
%TO.N,/Data0*%
X148590000Y-72027000D03*
X148590000Y-75438000D03*
%TO.N,/Address11*%
X156101000Y-39007000D03*
%TO.N,/Address12*%
X160961701Y-46923701D03*
%TO.N,A13*%
X176784000Y-38862000D03*
X160020000Y-45720000D03*
X136906000Y-108458000D03*
%TO.N,A6*%
X157918000Y-52008000D03*
%TO.N,A7*%
X159437701Y-49463701D03*
%TO.N,/Address8*%
X139700000Y-42418000D03*
X142240000Y-39878000D03*
%TO.N,/Address9*%
X140462000Y-39878000D03*
%TO.N,/Address10*%
X159004000Y-38824500D03*
X173990000Y-39878000D03*
X156210000Y-40894000D03*
X170942000Y-39878000D03*
%TO.N,GND*%
X170676201Y-96277799D03*
X116078000Y-72390000D03*
X147320000Y-53594000D03*
X171450000Y-94234000D03*
X148165000Y-68663000D03*
X166116000Y-75184000D03*
X133350000Y-68580000D03*
X164084000Y-39624000D03*
X148844000Y-109982000D03*
X167640000Y-93472000D03*
X156718000Y-45720000D03*
X170725000Y-86905000D03*
X114300000Y-116840000D03*
X156718000Y-68834000D03*
X116078000Y-98806000D03*
X126746000Y-113284000D03*
X145288000Y-54610000D03*
X167894000Y-83820000D03*
X119380000Y-114554000D03*
X132842000Y-95758000D03*
X148844000Y-112014000D03*
X186436000Y-92964000D03*
X118867701Y-54097701D03*
X120650000Y-98806000D03*
X167132000Y-40132000D03*
X131064000Y-70866000D03*
X125984000Y-110236000D03*
%TO.N,Net-(U2-~{CS})*%
X152908000Y-96774000D03*
X159766000Y-84836000D03*
X176911000Y-76073000D03*
X166116000Y-84836000D03*
%TO.N,ROM*%
X171704000Y-79502000D03*
X150622000Y-78486000D03*
%TO.N,Net-(C2-Pad1)*%
X118364000Y-110159500D03*
%TO.N,Net-(R1-Pad1)*%
X110998000Y-109982000D03*
%TO.N,CLK*%
X118110000Y-104877000D03*
X156718000Y-111760000D03*
X146050000Y-121412000D03*
X120904000Y-104902000D03*
X121412000Y-109474000D03*
%TO.N,~{MREQ}*%
X119380000Y-103886000D03*
X119380000Y-109728000D03*
%TO.N,~{MEMRD}*%
X167132000Y-68834000D03*
X160274000Y-82550000D03*
%TO.N,~{MEMWR}*%
X188976000Y-57404000D03*
X160528000Y-112776000D03*
%TO.N,Net-(U5A-O1)*%
X131572000Y-110527500D03*
X130810000Y-114554000D03*
X111506000Y-115062000D03*
%TO.N,Net-(U7-Load)*%
X152870012Y-110494390D03*
%TD*%
D25*
%TO.N,5V*%
X103632000Y-45212000D02*
X103632000Y-42164000D01*
X139424000Y-110722000D02*
X139424000Y-113787000D01*
X138335000Y-109633000D02*
X139424000Y-110722000D01*
X132422604Y-109474000D02*
X132581604Y-109633000D01*
X119126000Y-67564000D02*
X121158000Y-65532000D01*
X132581604Y-109633000D02*
X138335000Y-109633000D01*
X119126000Y-78740000D02*
X119126000Y-67564000D01*
X103124000Y-76708000D02*
X103124000Y-67564000D01*
X193553000Y-87371000D02*
X190500000Y-90424000D01*
X102108000Y-50800000D02*
X103632000Y-50800000D01*
X167058000Y-44388000D02*
X161798000Y-39128000D01*
X103632000Y-50800000D02*
X103632000Y-45212000D01*
X196576000Y-87371000D02*
X193553000Y-87371000D01*
X139424000Y-115045000D02*
X142738000Y-118359000D01*
X100330000Y-64770000D02*
X100330000Y-52578000D01*
X158476000Y-90673000D02*
X154915000Y-94234000D01*
X167058000Y-44388000D02*
X169382000Y-44388000D01*
X190500000Y-90424000D02*
X190500000Y-97802000D01*
X169382000Y-46928000D02*
X166054000Y-46928000D01*
X100330000Y-52578000D02*
X102108000Y-50800000D01*
X121158000Y-80772000D02*
X119126000Y-78740000D01*
X103124000Y-67564000D02*
X100330000Y-64770000D01*
X166054000Y-46928000D02*
X165603701Y-46477701D01*
X154915000Y-94234000D02*
X154686000Y-94234000D01*
X130790000Y-99055000D02*
X130790000Y-95003000D01*
X122682000Y-109474000D02*
X132422604Y-109474000D01*
X130790000Y-95003000D02*
X129254000Y-93467000D01*
X139424000Y-113787000D02*
X139424000Y-115045000D01*
%TO.N,~{I{slash}O}*%
X108438000Y-106929000D02*
X106172000Y-104663000D01*
X106172000Y-104663000D02*
X106172000Y-95250000D01*
%TO.N,~{RD}*%
X147320000Y-96012000D02*
X144272000Y-92964000D01*
X147320000Y-110159500D02*
X147320000Y-126477000D01*
X147320000Y-102362000D02*
X147320000Y-96012000D01*
X147320000Y-126477000D02*
X142738000Y-131059000D01*
%TO.N,Net-(U1-~{RESET})*%
X130048000Y-74422000D02*
X131318000Y-75692000D01*
X131318000Y-75692000D02*
X136398000Y-75692000D01*
X106120000Y-68362000D02*
X106120000Y-65988000D01*
X106120000Y-65988000D02*
X103632000Y-63500000D01*
%TO.N,Net-(U6-E)*%
X117183000Y-110164439D02*
X116603439Y-110744000D01*
X117183000Y-110164439D02*
X117202561Y-110164439D01*
X154669201Y-108695201D02*
X158233799Y-108695201D01*
X113030000Y-108712000D02*
X109195000Y-108712000D01*
X150913000Y-109183000D02*
X132768000Y-109183000D01*
X158233799Y-108695201D02*
X161016000Y-105913000D01*
X115062000Y-110744000D02*
X113030000Y-108712000D01*
X132334000Y-108749000D02*
X118618000Y-108749000D01*
X117202561Y-110164439D02*
X118618000Y-108749000D01*
X116603439Y-110744000D02*
X115062000Y-110744000D01*
X132768000Y-109183000D02*
X132334000Y-108749000D01*
X151384000Y-108712000D02*
X150913000Y-109183000D01*
X109195000Y-108712000D02*
X108438000Y-109469000D01*
%TO.N,~{INT}*%
X146050000Y-88900000D02*
X150876000Y-93726000D01*
X168656000Y-94488000D02*
X168656000Y-92836500D01*
X139954000Y-86868000D02*
X139954000Y-80772000D01*
X139954000Y-80772000D02*
X138684000Y-79502000D01*
X146050000Y-88900000D02*
X145034000Y-87884000D01*
X167386000Y-95758000D02*
X168656000Y-94488000D01*
X168656000Y-92836500D02*
X169036500Y-92456000D01*
X133858000Y-79502000D02*
X138684000Y-79502000D01*
X145034000Y-87884000D02*
X142494000Y-87884000D01*
X154686000Y-95758000D02*
X167386000Y-95758000D01*
%TO.N,~{M1}*%
X153411701Y-92460299D02*
X160020000Y-85852000D01*
X146050000Y-85090000D02*
X146050000Y-87122000D01*
X138430000Y-77470000D02*
X138430000Y-73406000D01*
X160020000Y-85852000D02*
X160204364Y-85667636D01*
X144272000Y-83312000D02*
X138430000Y-77470000D01*
X146050000Y-87122000D02*
X150876000Y-91948000D01*
X138176000Y-73152000D02*
X136398000Y-73152000D01*
X138430000Y-73406000D02*
X138176000Y-73152000D01*
X160204364Y-85667636D02*
X160320424Y-85667636D01*
%TO.N,A0*%
X161016000Y-90673000D02*
X161290000Y-90399000D01*
X161290000Y-70151000D02*
X158387000Y-67248000D01*
X161290000Y-90399000D02*
X161290000Y-70151000D01*
%TO.N,/Data4*%
X130048000Y-64262000D02*
X121158000Y-55372000D01*
X177381000Y-88303000D02*
X177381000Y-97701000D01*
X177381000Y-97701000D02*
X171176000Y-103906000D01*
X142494000Y-69342000D02*
X137414000Y-64262000D01*
X171176000Y-103906000D02*
X171176000Y-105913000D01*
X183642000Y-82042000D02*
X177381000Y-88303000D01*
X142494000Y-75438000D02*
X142494000Y-69342000D01*
X137414000Y-64262000D02*
X130048000Y-64262000D01*
%TO.N,/Data3*%
X179921000Y-99708000D02*
X179921000Y-87376000D01*
X144018000Y-68072000D02*
X137813000Y-61867000D01*
X144018000Y-75438000D02*
X144018000Y-68072000D01*
X184150000Y-83147000D02*
X184150000Y-83058000D01*
X137813000Y-61867000D02*
X129939000Y-61867000D01*
X179921000Y-87376000D02*
X184150000Y-83147000D01*
X173716000Y-105913000D02*
X179921000Y-99708000D01*
X129939000Y-61867000D02*
X125984000Y-57912000D01*
%TO.N,/Data5*%
X131318000Y-66802000D02*
X124968000Y-60452000D01*
X140970000Y-75438000D02*
X140970000Y-70358000D01*
X124968000Y-60452000D02*
X121158000Y-60452000D01*
X140970000Y-70358000D02*
X137414000Y-66802000D01*
X168636000Y-102636000D02*
X168636000Y-105913000D01*
X182880000Y-81026000D02*
X175131000Y-88775000D01*
X175131000Y-96141000D02*
X168636000Y-102636000D01*
X137414000Y-66802000D02*
X131318000Y-66802000D01*
X175131000Y-88775000D02*
X175131000Y-96141000D01*
%TO.N,/Data6*%
X133096000Y-70358000D02*
X134112000Y-69342000D01*
X134112000Y-69342000D02*
X137414000Y-69342000D01*
X166096000Y-105913000D02*
X166096000Y-102128000D01*
X172466000Y-89662000D02*
X182118000Y-80010000D01*
X137414000Y-69342000D02*
X139446000Y-71374000D01*
X166096000Y-102128000D02*
X172466000Y-95758000D01*
X172466000Y-95758000D02*
X172466000Y-89662000D01*
X139446000Y-71374000D02*
X139446000Y-75438000D01*
%TO.N,/Data2*%
X176256000Y-105913000D02*
X182105500Y-100063500D01*
X145542000Y-75438000D02*
X145542000Y-67310000D01*
X131826000Y-68072000D02*
X121158000Y-68072000D01*
X184875000Y-79681000D02*
X180142000Y-74948000D01*
X134620000Y-59182000D02*
X132842000Y-60960000D01*
X153841000Y-74567000D02*
X154142000Y-74868000D01*
X137414000Y-59182000D02*
X134620000Y-59182000D01*
X184875000Y-87591000D02*
X184875000Y-79681000D01*
X182461000Y-99708000D02*
X182461000Y-90005000D01*
X145542000Y-67310000D02*
X137414000Y-59182000D01*
X182105500Y-100063500D02*
X182461000Y-99708000D01*
X182461000Y-90005000D02*
X184875000Y-87591000D01*
X132334000Y-67564000D02*
X131826000Y-68072000D01*
%TO.N,/Data7*%
X127254000Y-76708000D02*
X124968000Y-74422000D01*
X169761000Y-90457000D02*
X181102000Y-79116000D01*
X163556000Y-105913000D02*
X163556000Y-102636000D01*
X163556000Y-102636000D02*
X169761000Y-96431000D01*
X124968000Y-74422000D02*
X121158000Y-70612000D01*
X169761000Y-96431000D02*
X169761000Y-90457000D01*
X127254000Y-76962000D02*
X127254000Y-76708000D01*
%TO.N,/Data0*%
X186436000Y-87630000D02*
X186436000Y-76162000D01*
X186436000Y-76162000D02*
X180142000Y-69868000D01*
X181336000Y-105913000D02*
X187541000Y-99708000D01*
X187541000Y-88735000D02*
X186436000Y-87630000D01*
X187541000Y-99708000D02*
X187541000Y-88735000D01*
X148590000Y-75438000D02*
X148590000Y-72027000D01*
%TO.N,/Data1*%
X185674000Y-87630000D02*
X185674000Y-77940000D01*
X178796000Y-105913000D02*
X185001000Y-99708000D01*
X185001000Y-88303000D02*
X185674000Y-87630000D01*
X185001000Y-99708000D02*
X185001000Y-88303000D01*
X185674000Y-77940000D02*
X180142000Y-72408000D01*
%TO.N,/Address11*%
X167831000Y-55563000D02*
X166624000Y-54356000D01*
X166624000Y-54356000D02*
X166624000Y-49530000D01*
X166624000Y-49530000D02*
X156101000Y-39007000D01*
X169382000Y-57088000D02*
X167857000Y-55563000D01*
X167857000Y-55563000D02*
X167831000Y-55563000D01*
%TO.N,/Address12*%
X160961701Y-46923701D02*
X160957402Y-46928000D01*
X160957402Y-46928000D02*
X154142000Y-46928000D01*
%TO.N,A13*%
X143256000Y-41910000D02*
X138684000Y-46482000D01*
X121158000Y-45212000D02*
X122428000Y-46482000D01*
X160020000Y-45720000D02*
X156210000Y-41910000D01*
X149860000Y-108458000D02*
X136906000Y-108458000D01*
X178562000Y-40640000D02*
X176784000Y-38862000D01*
X195382000Y-49548000D02*
X187470000Y-49548000D01*
X138684000Y-46482000D02*
X151696000Y-59494000D01*
X151696000Y-59494000D02*
X151696000Y-106622000D01*
X122428000Y-46482000D02*
X138684000Y-46482000D01*
X187470000Y-49548000D02*
X178562000Y-40640000D01*
X151696000Y-106622000D02*
X149860000Y-108458000D01*
X156210000Y-41910000D02*
X143256000Y-41910000D01*
%TO.N,A14*%
X107188000Y-104902000D02*
X108090000Y-105804000D01*
X107950000Y-60960000D02*
X107950000Y-99822000D01*
X111646000Y-105804000D02*
X114046000Y-108204000D01*
X114046000Y-108204000D02*
X134341000Y-108204000D01*
X121158000Y-47752000D02*
X107950000Y-60960000D01*
X108090000Y-105804000D02*
X111646000Y-105804000D01*
X107188000Y-100584000D02*
X107188000Y-104902000D01*
X134341000Y-108204000D02*
X135870000Y-106675000D01*
X107950000Y-99822000D02*
X107188000Y-100584000D01*
%TO.N,/Address15*%
X121158000Y-50292000D02*
X108438000Y-63012000D01*
X112393000Y-105804000D02*
X129919000Y-105804000D01*
X108438000Y-101849000D02*
X112393000Y-105804000D01*
X129919000Y-105804000D02*
X130790000Y-106675000D01*
X108438000Y-63012000D02*
X108438000Y-101849000D01*
%TO.N,A6*%
X163556000Y-90673000D02*
X163556000Y-57646000D01*
X163556000Y-57646000D02*
X157918000Y-52008000D01*
%TO.N,A7*%
X159437701Y-49463701D02*
X159433402Y-49468000D01*
X165267000Y-89844000D02*
X165267000Y-55293000D01*
X159437701Y-49463701D02*
X157726000Y-47752000D01*
X166096000Y-90673000D02*
X165267000Y-89844000D01*
X165267000Y-55293000D02*
X159437701Y-49463701D01*
X157726000Y-47752000D02*
X155858000Y-47752000D01*
X155858000Y-47752000D02*
X154142000Y-49468000D01*
%TO.N,/Address8*%
X169382000Y-52008000D02*
X172720000Y-48670000D01*
X172259000Y-45513000D02*
X163877000Y-45513000D01*
X163877000Y-45513000D02*
X156464000Y-38100000D01*
X144018000Y-38100000D02*
X142240000Y-39878000D01*
X156464000Y-38100000D02*
X144018000Y-38100000D01*
X172720000Y-48670000D02*
X172720000Y-45974000D01*
X139700000Y-42418000D02*
X139700000Y-44450000D01*
X139700000Y-44450000D02*
X138938000Y-45212000D01*
X172720000Y-45974000D02*
X172259000Y-45513000D01*
X138938000Y-45212000D02*
X136398000Y-45212000D01*
%TO.N,/Address9*%
X173170000Y-40074000D02*
X173170000Y-50760000D01*
X173170000Y-50760000D02*
X169382000Y-54548000D01*
X140462000Y-39878000D02*
X142690000Y-37650000D01*
X170746000Y-37650000D02*
X173170000Y-40074000D01*
X142690000Y-37650000D02*
X170746000Y-37650000D01*
%TO.N,/Address10*%
X159625500Y-38203000D02*
X169267000Y-38203000D01*
X136398000Y-40132000D02*
X137160000Y-40894000D01*
X169267000Y-38203000D02*
X170942000Y-39878000D01*
X169382000Y-62168000D02*
X173990000Y-57560000D01*
X159004000Y-38824500D02*
X159625500Y-38203000D01*
X137160000Y-40894000D02*
X156210000Y-40894000D01*
X173990000Y-57560000D02*
X173990000Y-39878000D01*
%TO.N,GND*%
X116078000Y-98806000D02*
X112768000Y-98806000D01*
X117094000Y-55626000D02*
X118622299Y-54097701D01*
X166624000Y-39624000D02*
X164084000Y-39624000D01*
X116078000Y-72390000D02*
X117094000Y-71374000D01*
X148082000Y-52832000D02*
X148082000Y-50775061D01*
X154142000Y-77408000D02*
X156718000Y-74832000D01*
X133330000Y-96246000D02*
X132842000Y-95758000D01*
X122408000Y-125975401D02*
X120650000Y-124217401D01*
X137924000Y-113787000D02*
X137924000Y-115553000D01*
X166116000Y-75184000D02*
X166116000Y-82042000D01*
X114300000Y-115316000D02*
X115067000Y-114549000D01*
X186436000Y-90693000D02*
X186416000Y-90673000D01*
X127979000Y-93242000D02*
X127754000Y-93467000D01*
X196576000Y-94762000D02*
X196576000Y-91181000D01*
X144780000Y-55118000D02*
X145288000Y-54610000D01*
X148082000Y-50775061D02*
X153137061Y-45720000D01*
X120650000Y-115824000D02*
X119380000Y-114554000D01*
X197612000Y-127484000D02*
X197612000Y-133604000D01*
X120650000Y-124217401D02*
X120650000Y-115824000D01*
X170676201Y-96277799D02*
X170676201Y-95007799D01*
X184633000Y-118110000D02*
X166355000Y-118110000D01*
X112768000Y-98806000D02*
X111498000Y-97536000D01*
X186924000Y-115819000D02*
X186924000Y-116796000D01*
X186924000Y-115819000D02*
X184633000Y-118110000D01*
X148844000Y-112014000D02*
X148844000Y-109982000D01*
X190754000Y-120626000D02*
X197612000Y-127484000D01*
X197612000Y-133604000D02*
X195839000Y-135377000D01*
X133330000Y-99055000D02*
X133330000Y-96246000D01*
X195839000Y-135377000D02*
X189464000Y-135377000D01*
X167132000Y-40132000D02*
X166624000Y-39624000D01*
X156718000Y-69088000D02*
X156718000Y-68834000D01*
X180142000Y-77488000D02*
X170725000Y-86905000D01*
X144780000Y-65278000D02*
X148165000Y-68663000D01*
X166355000Y-118110000D02*
X164064000Y-115819000D01*
X125459000Y-103615000D02*
X120650000Y-98806000D01*
X115067000Y-114549000D02*
X116058000Y-114549000D01*
X147320000Y-53594000D02*
X148082000Y-52832000D01*
X167511000Y-90119000D02*
X167511000Y-93343000D01*
X133350000Y-68580000D02*
X131064000Y-70866000D01*
X144780000Y-65278000D02*
X144780000Y-55118000D01*
X126746000Y-113284000D02*
X126746000Y-110998000D01*
X170725000Y-86905000D02*
X167511000Y-90119000D01*
X156718000Y-74832000D02*
X156718000Y-69088000D01*
X126746000Y-110998000D02*
X125984000Y-110236000D01*
X118622299Y-54097701D02*
X118867701Y-54097701D01*
X131064000Y-70866000D02*
X127979000Y-73951000D01*
X170676201Y-95007799D02*
X171450000Y-94234000D01*
X153137061Y-45720000D02*
X156718000Y-45720000D01*
X114300000Y-116840000D02*
X114300000Y-115316000D01*
X167511000Y-93343000D02*
X167640000Y-93472000D01*
X127979000Y-73951000D02*
X127979000Y-93242000D01*
X117094000Y-71374000D02*
X117094000Y-55626000D01*
X192036000Y-99302000D02*
X196576000Y-94762000D01*
X186436000Y-92964000D02*
X186436000Y-90693000D01*
X126218000Y-103615000D02*
X125459000Y-103615000D01*
X166116000Y-82042000D02*
X167894000Y-83820000D01*
X137924000Y-115553000D02*
X135118000Y-118359000D01*
X190500000Y-99302000D02*
X192036000Y-99302000D01*
X186924000Y-116796000D02*
X190754000Y-120626000D01*
%TO.N,Net-(U2-~{CS})*%
X159766000Y-84836000D02*
X152654000Y-91948000D01*
X176911000Y-76073000D02*
X168148000Y-84836000D01*
X168148000Y-84836000D02*
X166116000Y-84836000D01*
X152654000Y-91948000D02*
X152654000Y-96520000D01*
X152654000Y-96520000D02*
X152908000Y-96774000D01*
%TO.N,ROM*%
X139700000Y-89408000D02*
X139700000Y-105385000D01*
X150622000Y-78486000D02*
X139700000Y-89408000D01*
X169382000Y-64708000D02*
X171704000Y-67030000D01*
X171704000Y-67030000D02*
X171704000Y-79502000D01*
X139700000Y-105385000D02*
X138410000Y-106675000D01*
%TO.N,Net-(C2-Pad1)*%
X118364000Y-119634000D02*
X118364000Y-110159500D01*
X114952000Y-124440000D02*
X114952000Y-123046000D01*
X114952000Y-123046000D02*
X118364000Y-119634000D01*
%TO.N,Net-(R1-Pad1)*%
X116058000Y-112009000D02*
X106152000Y-121915000D01*
X106152000Y-121915000D02*
X106152000Y-130536000D01*
X113025000Y-112009000D02*
X116058000Y-112009000D01*
X110998000Y-109982000D02*
X113025000Y-112009000D01*
%TO.N,CLK*%
X158750000Y-109728000D02*
X156718000Y-111760000D01*
X118135000Y-104902000D02*
X118110000Y-104877000D01*
X177800000Y-99822000D02*
X172301000Y-105321000D01*
X178796000Y-90673000D02*
X178796000Y-98826000D01*
X172301000Y-105321000D02*
X172301000Y-109385000D01*
X172301000Y-109385000D02*
X171958000Y-109728000D01*
X121158000Y-52832000D02*
X118110000Y-55880000D01*
X171958000Y-109728000D02*
X158750000Y-109728000D01*
X120904000Y-104902000D02*
X118135000Y-104902000D01*
X178796000Y-98826000D02*
X177800000Y-99822000D01*
X118110000Y-55880000D02*
X118110000Y-104877000D01*
X146050000Y-121412000D02*
X144122000Y-119484000D01*
X131422000Y-119484000D02*
X121412000Y-109474000D01*
X144122000Y-119484000D02*
X131422000Y-119484000D01*
%TO.N,~{MREQ}*%
X141473000Y-122174000D02*
X142738000Y-123439000D01*
X131826000Y-122174000D02*
X141473000Y-122174000D01*
X141613000Y-124564000D02*
X141613000Y-127394000D01*
X119380000Y-87630000D02*
X119380000Y-103886000D01*
X121158000Y-85852000D02*
X119380000Y-87630000D01*
X119380000Y-104140000D02*
X119380000Y-103886000D01*
X141613000Y-127394000D02*
X142738000Y-128519000D01*
X142738000Y-123439000D02*
X141613000Y-124564000D01*
X119380000Y-109728000D02*
X131826000Y-122174000D01*
%TO.N,~{MEMRD}*%
X152183000Y-97074305D02*
X152400000Y-97291305D01*
X167448000Y-59628000D02*
X169382000Y-59628000D01*
X152400000Y-108721305D02*
X151892000Y-109229305D01*
X151892000Y-124445000D02*
X142738000Y-133599000D01*
X167132000Y-68834000D02*
X167132000Y-59944000D01*
X160274000Y-82550000D02*
X152183000Y-90641000D01*
X167132000Y-59944000D02*
X167448000Y-59628000D01*
X152400000Y-97291305D02*
X152400000Y-108721305D01*
X151892000Y-109229305D02*
X151892000Y-124445000D01*
X152183000Y-90641000D02*
X152183000Y-97074305D01*
%TO.N,~{MEMWR}*%
X186182000Y-112776000D02*
X188976000Y-109982000D01*
X188976000Y-109982000D02*
X188976000Y-57404000D01*
X160528000Y-112776000D02*
X186182000Y-112776000D01*
%TO.N,Net-(U5A-O1)*%
X130810000Y-114554000D02*
X130810000Y-111289500D01*
X111491000Y-115062000D02*
X111506000Y-115062000D01*
X130810000Y-111289500D02*
X131572000Y-110527500D01*
X108438000Y-112009000D02*
X111491000Y-115062000D01*
%TO.N,Net-(U7-Load)*%
X164064000Y-121138000D02*
X164064000Y-123439000D01*
X153420390Y-110494390D02*
X164064000Y-121138000D01*
X152870012Y-110494390D02*
X153420390Y-110494390D01*
%TD*%
M02*
