%TF.GenerationSoftware,KiCad,Pcbnew,7.0.8*%
%TF.CreationDate,2023-10-09T15:42:04+02:00*%
%TF.ProjectId,Z80_SBC,5a38305f-5342-4432-9e6b-696361645f70,rev?*%
%TF.SameCoordinates,Original*%
%TF.FileFunction,Legend,Top*%
%TF.FilePolarity,Positive*%
%FSLAX46Y46*%
G04 Gerber Fmt 4.6, Leading zero omitted, Abs format (unit mm)*
G04 Created by KiCad (PCBNEW 7.0.8) date 2023-10-09 15:42:04*
%MOMM*%
%LPD*%
G01*
G04 APERTURE LIST*
G04 Aperture macros list*
%AMRoundRect*
0 Rectangle with rounded corners*
0 $1 Rounding radius*
0 $2 $3 $4 $5 $6 $7 $8 $9 X,Y pos of 4 corners*
0 Add a 4 corners polygon primitive as box body*
4,1,4,$2,$3,$4,$5,$6,$7,$8,$9,$2,$3,0*
0 Add four circle primitives for the rounded corners*
1,1,$1+$1,$2,$3*
1,1,$1+$1,$4,$5*
1,1,$1+$1,$6,$7*
1,1,$1+$1,$8,$9*
0 Add four rect primitives between the rounded corners*
20,1,$1+$1,$2,$3,$4,$5,0*
20,1,$1+$1,$4,$5,$6,$7,0*
20,1,$1+$1,$6,$7,$8,$9,0*
20,1,$1+$1,$8,$9,$2,$3,0*%
G04 Aperture macros list end*
%ADD10C,0.150000*%
%ADD11C,0.120000*%
%ADD12C,1.200000*%
%ADD13R,1.800000X1.800000*%
%ADD14C,1.800000*%
%ADD15C,1.600000*%
%ADD16O,1.600000X1.600000*%
%ADD17RoundRect,0.175000X-0.425000X0.175000X-0.425000X-0.175000X0.425000X-0.175000X0.425000X0.175000X0*%
%ADD18RoundRect,0.190000X0.410000X-0.190000X0.410000X0.190000X-0.410000X0.190000X-0.410000X-0.190000X0*%
%ADD19RoundRect,0.200000X0.400000X-0.200000X0.400000X0.200000X-0.400000X0.200000X-0.400000X-0.200000X0*%
%ADD20RoundRect,0.175000X0.425000X-0.175000X0.425000X0.175000X-0.425000X0.175000X-0.425000X-0.175000X0*%
%ADD21RoundRect,0.190000X-0.410000X0.190000X-0.410000X-0.190000X0.410000X-0.190000X0.410000X0.190000X0*%
%ADD22RoundRect,0.200000X-0.400000X0.200000X-0.400000X-0.200000X0.400000X-0.200000X0.400000X0.200000X0*%
%ADD23O,1.700000X1.100000*%
%ADD24R,2.400000X1.600000*%
%ADD25O,2.400000X1.600000*%
%ADD26R,1.600000X1.600000*%
%ADD27R,1.200000X1.200000*%
%ADD28R,1.000000X1.000000*%
%ADD29O,1.000000X1.000000*%
%ADD30C,1.500000*%
G04 APERTURE END LIST*
D10*
X128337333Y-97076580D02*
X128289714Y-97124200D01*
X128289714Y-97124200D02*
X128146857Y-97171819D01*
X128146857Y-97171819D02*
X128051619Y-97171819D01*
X128051619Y-97171819D02*
X127908762Y-97124200D01*
X127908762Y-97124200D02*
X127813524Y-97028961D01*
X127813524Y-97028961D02*
X127765905Y-96933723D01*
X127765905Y-96933723D02*
X127718286Y-96743247D01*
X127718286Y-96743247D02*
X127718286Y-96600390D01*
X127718286Y-96600390D02*
X127765905Y-96409914D01*
X127765905Y-96409914D02*
X127813524Y-96314676D01*
X127813524Y-96314676D02*
X127908762Y-96219438D01*
X127908762Y-96219438D02*
X128051619Y-96171819D01*
X128051619Y-96171819D02*
X128146857Y-96171819D01*
X128146857Y-96171819D02*
X128289714Y-96219438D01*
X128289714Y-96219438D02*
X128337333Y-96267057D01*
X129194476Y-96505152D02*
X129194476Y-97171819D01*
X128956381Y-96124200D02*
X128718286Y-96838485D01*
X128718286Y-96838485D02*
X129337333Y-96838485D01*
X192800819Y-130527094D02*
X191800819Y-130527094D01*
X191800819Y-130527094D02*
X191800819Y-130288999D01*
X191800819Y-130288999D02*
X191848438Y-130146142D01*
X191848438Y-130146142D02*
X191943676Y-130050904D01*
X191943676Y-130050904D02*
X192038914Y-130003285D01*
X192038914Y-130003285D02*
X192229390Y-129955666D01*
X192229390Y-129955666D02*
X192372247Y-129955666D01*
X192372247Y-129955666D02*
X192562723Y-130003285D01*
X192562723Y-130003285D02*
X192657961Y-130050904D01*
X192657961Y-130050904D02*
X192753200Y-130146142D01*
X192753200Y-130146142D02*
X192800819Y-130288999D01*
X192800819Y-130288999D02*
X192800819Y-130527094D01*
X192229390Y-129384237D02*
X192181771Y-129479475D01*
X192181771Y-129479475D02*
X192134152Y-129527094D01*
X192134152Y-129527094D02*
X192038914Y-129574713D01*
X192038914Y-129574713D02*
X191991295Y-129574713D01*
X191991295Y-129574713D02*
X191896057Y-129527094D01*
X191896057Y-129527094D02*
X191848438Y-129479475D01*
X191848438Y-129479475D02*
X191800819Y-129384237D01*
X191800819Y-129384237D02*
X191800819Y-129193761D01*
X191800819Y-129193761D02*
X191848438Y-129098523D01*
X191848438Y-129098523D02*
X191896057Y-129050904D01*
X191896057Y-129050904D02*
X191991295Y-129003285D01*
X191991295Y-129003285D02*
X192038914Y-129003285D01*
X192038914Y-129003285D02*
X192134152Y-129050904D01*
X192134152Y-129050904D02*
X192181771Y-129098523D01*
X192181771Y-129098523D02*
X192229390Y-129193761D01*
X192229390Y-129193761D02*
X192229390Y-129384237D01*
X192229390Y-129384237D02*
X192277009Y-129479475D01*
X192277009Y-129479475D02*
X192324628Y-129527094D01*
X192324628Y-129527094D02*
X192419866Y-129574713D01*
X192419866Y-129574713D02*
X192610342Y-129574713D01*
X192610342Y-129574713D02*
X192705580Y-129527094D01*
X192705580Y-129527094D02*
X192753200Y-129479475D01*
X192753200Y-129479475D02*
X192800819Y-129384237D01*
X192800819Y-129384237D02*
X192800819Y-129193761D01*
X192800819Y-129193761D02*
X192753200Y-129098523D01*
X192753200Y-129098523D02*
X192705580Y-129050904D01*
X192705580Y-129050904D02*
X192610342Y-129003285D01*
X192610342Y-129003285D02*
X192419866Y-129003285D01*
X192419866Y-129003285D02*
X192324628Y-129050904D01*
X192324628Y-129050904D02*
X192277009Y-129098523D01*
X192277009Y-129098523D02*
X192229390Y-129193761D01*
X186958819Y-130527094D02*
X185958819Y-130527094D01*
X185958819Y-130527094D02*
X185958819Y-130288999D01*
X185958819Y-130288999D02*
X186006438Y-130146142D01*
X186006438Y-130146142D02*
X186101676Y-130050904D01*
X186101676Y-130050904D02*
X186196914Y-130003285D01*
X186196914Y-130003285D02*
X186387390Y-129955666D01*
X186387390Y-129955666D02*
X186530247Y-129955666D01*
X186530247Y-129955666D02*
X186720723Y-130003285D01*
X186720723Y-130003285D02*
X186815961Y-130050904D01*
X186815961Y-130050904D02*
X186911200Y-130146142D01*
X186911200Y-130146142D02*
X186958819Y-130288999D01*
X186958819Y-130288999D02*
X186958819Y-130527094D01*
X185958819Y-129622332D02*
X185958819Y-128955666D01*
X185958819Y-128955666D02*
X186958819Y-129384237D01*
X100584819Y-107603666D02*
X100108628Y-107936999D01*
X100584819Y-108175094D02*
X99584819Y-108175094D01*
X99584819Y-108175094D02*
X99584819Y-107794142D01*
X99584819Y-107794142D02*
X99632438Y-107698904D01*
X99632438Y-107698904D02*
X99680057Y-107651285D01*
X99680057Y-107651285D02*
X99775295Y-107603666D01*
X99775295Y-107603666D02*
X99918152Y-107603666D01*
X99918152Y-107603666D02*
X100013390Y-107651285D01*
X100013390Y-107651285D02*
X100061009Y-107698904D01*
X100061009Y-107698904D02*
X100108628Y-107794142D01*
X100108628Y-107794142D02*
X100108628Y-108175094D01*
X99918152Y-106746523D02*
X100584819Y-106746523D01*
X99537200Y-106984618D02*
X100251485Y-107222713D01*
X100251485Y-107222713D02*
X100251485Y-106603666D01*
X163590819Y-130781094D02*
X162590819Y-130781094D01*
X162590819Y-130781094D02*
X162590819Y-130542999D01*
X162590819Y-130542999D02*
X162638438Y-130400142D01*
X162638438Y-130400142D02*
X162733676Y-130304904D01*
X162733676Y-130304904D02*
X162828914Y-130257285D01*
X162828914Y-130257285D02*
X163019390Y-130209666D01*
X163019390Y-130209666D02*
X163162247Y-130209666D01*
X163162247Y-130209666D02*
X163352723Y-130257285D01*
X163352723Y-130257285D02*
X163447961Y-130304904D01*
X163447961Y-130304904D02*
X163543200Y-130400142D01*
X163543200Y-130400142D02*
X163590819Y-130542999D01*
X163590819Y-130542999D02*
X163590819Y-130781094D01*
X162590819Y-129876332D02*
X162590819Y-129257285D01*
X162590819Y-129257285D02*
X162971771Y-129590618D01*
X162971771Y-129590618D02*
X162971771Y-129447761D01*
X162971771Y-129447761D02*
X163019390Y-129352523D01*
X163019390Y-129352523D02*
X163067009Y-129304904D01*
X163067009Y-129304904D02*
X163162247Y-129257285D01*
X163162247Y-129257285D02*
X163400342Y-129257285D01*
X163400342Y-129257285D02*
X163495580Y-129304904D01*
X163495580Y-129304904D02*
X163543200Y-129352523D01*
X163543200Y-129352523D02*
X163590819Y-129447761D01*
X163590819Y-129447761D02*
X163590819Y-129733475D01*
X163590819Y-129733475D02*
X163543200Y-129828713D01*
X163543200Y-129828713D02*
X163495580Y-129876332D01*
X107479180Y-43349666D02*
X106764895Y-43349666D01*
X106764895Y-43349666D02*
X106622038Y-43302047D01*
X106622038Y-43302047D02*
X106526800Y-43206809D01*
X106526800Y-43206809D02*
X106479180Y-43063952D01*
X106479180Y-43063952D02*
X106479180Y-42968714D01*
X106479180Y-44349666D02*
X106479180Y-43778238D01*
X106479180Y-44063952D02*
X107479180Y-44063952D01*
X107479180Y-44063952D02*
X107336323Y-43968714D01*
X107336323Y-43968714D02*
X107241085Y-43873476D01*
X107241085Y-43873476D02*
X107193466Y-43778238D01*
X128016095Y-37256819D02*
X128016095Y-38066342D01*
X128016095Y-38066342D02*
X128063714Y-38161580D01*
X128063714Y-38161580D02*
X128111333Y-38209200D01*
X128111333Y-38209200D02*
X128206571Y-38256819D01*
X128206571Y-38256819D02*
X128397047Y-38256819D01*
X128397047Y-38256819D02*
X128492285Y-38209200D01*
X128492285Y-38209200D02*
X128539904Y-38161580D01*
X128539904Y-38161580D02*
X128587523Y-38066342D01*
X128587523Y-38066342D02*
X128587523Y-37256819D01*
X129587523Y-38256819D02*
X129016095Y-38256819D01*
X129301809Y-38256819D02*
X129301809Y-37256819D01*
X129301809Y-37256819D02*
X129206571Y-37399676D01*
X129206571Y-37399676D02*
X129111333Y-37494914D01*
X129111333Y-37494914D02*
X129016095Y-37542533D01*
X111486095Y-98973819D02*
X111486095Y-99783342D01*
X111486095Y-99783342D02*
X111533714Y-99878580D01*
X111533714Y-99878580D02*
X111581333Y-99926200D01*
X111581333Y-99926200D02*
X111676571Y-99973819D01*
X111676571Y-99973819D02*
X111867047Y-99973819D01*
X111867047Y-99973819D02*
X111962285Y-99926200D01*
X111962285Y-99926200D02*
X112009904Y-99878580D01*
X112009904Y-99878580D02*
X112057523Y-99783342D01*
X112057523Y-99783342D02*
X112057523Y-98973819D01*
X112962285Y-99307152D02*
X112962285Y-99973819D01*
X112724190Y-98926200D02*
X112486095Y-99640485D01*
X112486095Y-99640485D02*
X113105142Y-99640485D01*
X141809333Y-114146580D02*
X141761714Y-114194200D01*
X141761714Y-114194200D02*
X141618857Y-114241819D01*
X141618857Y-114241819D02*
X141523619Y-114241819D01*
X141523619Y-114241819D02*
X141380762Y-114194200D01*
X141380762Y-114194200D02*
X141285524Y-114098961D01*
X141285524Y-114098961D02*
X141237905Y-114003723D01*
X141237905Y-114003723D02*
X141190286Y-113813247D01*
X141190286Y-113813247D02*
X141190286Y-113670390D01*
X141190286Y-113670390D02*
X141237905Y-113479914D01*
X141237905Y-113479914D02*
X141285524Y-113384676D01*
X141285524Y-113384676D02*
X141380762Y-113289438D01*
X141380762Y-113289438D02*
X141523619Y-113241819D01*
X141523619Y-113241819D02*
X141618857Y-113241819D01*
X141618857Y-113241819D02*
X141761714Y-113289438D01*
X141761714Y-113289438D02*
X141809333Y-113337057D01*
X142714095Y-113241819D02*
X142237905Y-113241819D01*
X142237905Y-113241819D02*
X142190286Y-113718009D01*
X142190286Y-113718009D02*
X142237905Y-113670390D01*
X142237905Y-113670390D02*
X142333143Y-113622771D01*
X142333143Y-113622771D02*
X142571238Y-113622771D01*
X142571238Y-113622771D02*
X142666476Y-113670390D01*
X142666476Y-113670390D02*
X142714095Y-113718009D01*
X142714095Y-113718009D02*
X142761714Y-113813247D01*
X142761714Y-113813247D02*
X142761714Y-114051342D01*
X142761714Y-114051342D02*
X142714095Y-114146580D01*
X142714095Y-114146580D02*
X142666476Y-114194200D01*
X142666476Y-114194200D02*
X142571238Y-114241819D01*
X142571238Y-114241819D02*
X142333143Y-114241819D01*
X142333143Y-114241819D02*
X142237905Y-114194200D01*
X142237905Y-114194200D02*
X142190286Y-114146580D01*
X106003580Y-124860666D02*
X106051200Y-124908285D01*
X106051200Y-124908285D02*
X106098819Y-125051142D01*
X106098819Y-125051142D02*
X106098819Y-125146380D01*
X106098819Y-125146380D02*
X106051200Y-125289237D01*
X106051200Y-125289237D02*
X105955961Y-125384475D01*
X105955961Y-125384475D02*
X105860723Y-125432094D01*
X105860723Y-125432094D02*
X105670247Y-125479713D01*
X105670247Y-125479713D02*
X105527390Y-125479713D01*
X105527390Y-125479713D02*
X105336914Y-125432094D01*
X105336914Y-125432094D02*
X105241676Y-125384475D01*
X105241676Y-125384475D02*
X105146438Y-125289237D01*
X105146438Y-125289237D02*
X105098819Y-125146380D01*
X105098819Y-125146380D02*
X105098819Y-125051142D01*
X105098819Y-125051142D02*
X105146438Y-124908285D01*
X105146438Y-124908285D02*
X105194057Y-124860666D01*
X106098819Y-123908285D02*
X106098819Y-124479713D01*
X106098819Y-124193999D02*
X105098819Y-124193999D01*
X105098819Y-124193999D02*
X105241676Y-124289237D01*
X105241676Y-124289237D02*
X105336914Y-124384475D01*
X105336914Y-124384475D02*
X105384533Y-124479713D01*
X165407580Y-40520857D02*
X165455200Y-40568476D01*
X165455200Y-40568476D02*
X165502819Y-40711333D01*
X165502819Y-40711333D02*
X165502819Y-40806571D01*
X165502819Y-40806571D02*
X165455200Y-40949428D01*
X165455200Y-40949428D02*
X165359961Y-41044666D01*
X165359961Y-41044666D02*
X165264723Y-41092285D01*
X165264723Y-41092285D02*
X165074247Y-41139904D01*
X165074247Y-41139904D02*
X164931390Y-41139904D01*
X164931390Y-41139904D02*
X164740914Y-41092285D01*
X164740914Y-41092285D02*
X164645676Y-41044666D01*
X164645676Y-41044666D02*
X164550438Y-40949428D01*
X164550438Y-40949428D02*
X164502819Y-40806571D01*
X164502819Y-40806571D02*
X164502819Y-40711333D01*
X164502819Y-40711333D02*
X164550438Y-40568476D01*
X164550438Y-40568476D02*
X164598057Y-40520857D01*
X165502819Y-39568476D02*
X165502819Y-40139904D01*
X165502819Y-39854190D02*
X164502819Y-39854190D01*
X164502819Y-39854190D02*
X164645676Y-39949428D01*
X164645676Y-39949428D02*
X164740914Y-40044666D01*
X164740914Y-40044666D02*
X164788533Y-40139904D01*
X165502819Y-38616095D02*
X165502819Y-39187523D01*
X165502819Y-38901809D02*
X164502819Y-38901809D01*
X164502819Y-38901809D02*
X164645676Y-38997047D01*
X164645676Y-38997047D02*
X164740914Y-39092285D01*
X164740914Y-39092285D02*
X164788533Y-39187523D01*
X196242666Y-92330819D02*
X196242666Y-93045104D01*
X196242666Y-93045104D02*
X196195047Y-93187961D01*
X196195047Y-93187961D02*
X196099809Y-93283200D01*
X196099809Y-93283200D02*
X195956952Y-93330819D01*
X195956952Y-93330819D02*
X195861714Y-93330819D01*
X196671238Y-92426057D02*
X196718857Y-92378438D01*
X196718857Y-92378438D02*
X196814095Y-92330819D01*
X196814095Y-92330819D02*
X197052190Y-92330819D01*
X197052190Y-92330819D02*
X197147428Y-92378438D01*
X197147428Y-92378438D02*
X197195047Y-92426057D01*
X197195047Y-92426057D02*
X197242666Y-92521295D01*
X197242666Y-92521295D02*
X197242666Y-92616533D01*
X197242666Y-92616533D02*
X197195047Y-92759390D01*
X197195047Y-92759390D02*
X196623619Y-93330819D01*
X196623619Y-93330819D02*
X197242666Y-93330819D01*
X112025809Y-127943628D02*
X112025809Y-128419819D01*
X111692476Y-127419819D02*
X112025809Y-127943628D01*
X112025809Y-127943628D02*
X112359142Y-127419819D01*
X113216285Y-128419819D02*
X112644857Y-128419819D01*
X112930571Y-128419819D02*
X112930571Y-127419819D01*
X112930571Y-127419819D02*
X112835333Y-127562676D01*
X112835333Y-127562676D02*
X112740095Y-127657914D01*
X112740095Y-127657914D02*
X112644857Y-127705533D01*
X161000095Y-41512819D02*
X161000095Y-42322342D01*
X161000095Y-42322342D02*
X161047714Y-42417580D01*
X161047714Y-42417580D02*
X161095333Y-42465200D01*
X161095333Y-42465200D02*
X161190571Y-42512819D01*
X161190571Y-42512819D02*
X161381047Y-42512819D01*
X161381047Y-42512819D02*
X161476285Y-42465200D01*
X161476285Y-42465200D02*
X161523904Y-42417580D01*
X161523904Y-42417580D02*
X161571523Y-42322342D01*
X161571523Y-42322342D02*
X161571523Y-41512819D01*
X161952476Y-41512819D02*
X162571523Y-41512819D01*
X162571523Y-41512819D02*
X162238190Y-41893771D01*
X162238190Y-41893771D02*
X162381047Y-41893771D01*
X162381047Y-41893771D02*
X162476285Y-41941390D01*
X162476285Y-41941390D02*
X162523904Y-41989009D01*
X162523904Y-41989009D02*
X162571523Y-42084247D01*
X162571523Y-42084247D02*
X162571523Y-42322342D01*
X162571523Y-42322342D02*
X162523904Y-42417580D01*
X162523904Y-42417580D02*
X162476285Y-42465200D01*
X162476285Y-42465200D02*
X162381047Y-42512819D01*
X162381047Y-42512819D02*
X162095333Y-42512819D01*
X162095333Y-42512819D02*
X162000095Y-42465200D01*
X162000095Y-42465200D02*
X161952476Y-42417580D01*
X157748819Y-130781094D02*
X156748819Y-130781094D01*
X156748819Y-130781094D02*
X156748819Y-130542999D01*
X156748819Y-130542999D02*
X156796438Y-130400142D01*
X156796438Y-130400142D02*
X156891676Y-130304904D01*
X156891676Y-130304904D02*
X156986914Y-130257285D01*
X156986914Y-130257285D02*
X157177390Y-130209666D01*
X157177390Y-130209666D02*
X157320247Y-130209666D01*
X157320247Y-130209666D02*
X157510723Y-130257285D01*
X157510723Y-130257285D02*
X157605961Y-130304904D01*
X157605961Y-130304904D02*
X157701200Y-130400142D01*
X157701200Y-130400142D02*
X157748819Y-130542999D01*
X157748819Y-130542999D02*
X157748819Y-130781094D01*
X156844057Y-129828713D02*
X156796438Y-129781094D01*
X156796438Y-129781094D02*
X156748819Y-129685856D01*
X156748819Y-129685856D02*
X156748819Y-129447761D01*
X156748819Y-129447761D02*
X156796438Y-129352523D01*
X156796438Y-129352523D02*
X156844057Y-129304904D01*
X156844057Y-129304904D02*
X156939295Y-129257285D01*
X156939295Y-129257285D02*
X157034533Y-129257285D01*
X157034533Y-129257285D02*
X157177390Y-129304904D01*
X157177390Y-129304904D02*
X157748819Y-129876332D01*
X157748819Y-129876332D02*
X157748819Y-129257285D01*
X138166095Y-115483819D02*
X138166095Y-116293342D01*
X138166095Y-116293342D02*
X138213714Y-116388580D01*
X138213714Y-116388580D02*
X138261333Y-116436200D01*
X138261333Y-116436200D02*
X138356571Y-116483819D01*
X138356571Y-116483819D02*
X138547047Y-116483819D01*
X138547047Y-116483819D02*
X138642285Y-116436200D01*
X138642285Y-116436200D02*
X138689904Y-116388580D01*
X138689904Y-116388580D02*
X138737523Y-116293342D01*
X138737523Y-116293342D02*
X138737523Y-115483819D01*
X139356571Y-115912390D02*
X139261333Y-115864771D01*
X139261333Y-115864771D02*
X139213714Y-115817152D01*
X139213714Y-115817152D02*
X139166095Y-115721914D01*
X139166095Y-115721914D02*
X139166095Y-115674295D01*
X139166095Y-115674295D02*
X139213714Y-115579057D01*
X139213714Y-115579057D02*
X139261333Y-115531438D01*
X139261333Y-115531438D02*
X139356571Y-115483819D01*
X139356571Y-115483819D02*
X139547047Y-115483819D01*
X139547047Y-115483819D02*
X139642285Y-115531438D01*
X139642285Y-115531438D02*
X139689904Y-115579057D01*
X139689904Y-115579057D02*
X139737523Y-115674295D01*
X139737523Y-115674295D02*
X139737523Y-115721914D01*
X139737523Y-115721914D02*
X139689904Y-115817152D01*
X139689904Y-115817152D02*
X139642285Y-115864771D01*
X139642285Y-115864771D02*
X139547047Y-115912390D01*
X139547047Y-115912390D02*
X139356571Y-115912390D01*
X139356571Y-115912390D02*
X139261333Y-115960009D01*
X139261333Y-115960009D02*
X139213714Y-116007628D01*
X139213714Y-116007628D02*
X139166095Y-116102866D01*
X139166095Y-116102866D02*
X139166095Y-116293342D01*
X139166095Y-116293342D02*
X139213714Y-116388580D01*
X139213714Y-116388580D02*
X139261333Y-116436200D01*
X139261333Y-116436200D02*
X139356571Y-116483819D01*
X139356571Y-116483819D02*
X139547047Y-116483819D01*
X139547047Y-116483819D02*
X139642285Y-116436200D01*
X139642285Y-116436200D02*
X139689904Y-116388580D01*
X139689904Y-116388580D02*
X139737523Y-116293342D01*
X139737523Y-116293342D02*
X139737523Y-116102866D01*
X139737523Y-116102866D02*
X139689904Y-116007628D01*
X139689904Y-116007628D02*
X139642285Y-115960009D01*
X139642285Y-115960009D02*
X139547047Y-115912390D01*
X103699333Y-135308819D02*
X103366000Y-134832628D01*
X103127905Y-135308819D02*
X103127905Y-134308819D01*
X103127905Y-134308819D02*
X103508857Y-134308819D01*
X103508857Y-134308819D02*
X103604095Y-134356438D01*
X103604095Y-134356438D02*
X103651714Y-134404057D01*
X103651714Y-134404057D02*
X103699333Y-134499295D01*
X103699333Y-134499295D02*
X103699333Y-134642152D01*
X103699333Y-134642152D02*
X103651714Y-134737390D01*
X103651714Y-134737390D02*
X103604095Y-134785009D01*
X103604095Y-134785009D02*
X103508857Y-134832628D01*
X103508857Y-134832628D02*
X103127905Y-134832628D01*
X104651714Y-135308819D02*
X104080286Y-135308819D01*
X104366000Y-135308819D02*
X104366000Y-134308819D01*
X104366000Y-134308819D02*
X104270762Y-134451676D01*
X104270762Y-134451676D02*
X104175524Y-134546914D01*
X104175524Y-134546914D02*
X104080286Y-134594533D01*
X192329523Y-135831819D02*
X191996190Y-135355628D01*
X191758095Y-135831819D02*
X191758095Y-134831819D01*
X191758095Y-134831819D02*
X192139047Y-134831819D01*
X192139047Y-134831819D02*
X192234285Y-134879438D01*
X192234285Y-134879438D02*
X192281904Y-134927057D01*
X192281904Y-134927057D02*
X192329523Y-135022295D01*
X192329523Y-135022295D02*
X192329523Y-135165152D01*
X192329523Y-135165152D02*
X192281904Y-135260390D01*
X192281904Y-135260390D02*
X192234285Y-135308009D01*
X192234285Y-135308009D02*
X192139047Y-135355628D01*
X192139047Y-135355628D02*
X191758095Y-135355628D01*
X192758095Y-135831819D02*
X192758095Y-134831819D01*
X192758095Y-134831819D02*
X193329523Y-135831819D01*
X193329523Y-135831819D02*
X193329523Y-134831819D01*
X194329523Y-135831819D02*
X193758095Y-135831819D01*
X194043809Y-135831819D02*
X194043809Y-134831819D01*
X194043809Y-134831819D02*
X193948571Y-134974676D01*
X193948571Y-134974676D02*
X193853333Y-135069914D01*
X193853333Y-135069914D02*
X193758095Y-135117533D01*
X115369580Y-43080666D02*
X115417200Y-43128285D01*
X115417200Y-43128285D02*
X115464819Y-43271142D01*
X115464819Y-43271142D02*
X115464819Y-43366380D01*
X115464819Y-43366380D02*
X115417200Y-43509237D01*
X115417200Y-43509237D02*
X115321961Y-43604475D01*
X115321961Y-43604475D02*
X115226723Y-43652094D01*
X115226723Y-43652094D02*
X115036247Y-43699713D01*
X115036247Y-43699713D02*
X114893390Y-43699713D01*
X114893390Y-43699713D02*
X114702914Y-43652094D01*
X114702914Y-43652094D02*
X114607676Y-43604475D01*
X114607676Y-43604475D02*
X114512438Y-43509237D01*
X114512438Y-43509237D02*
X114464819Y-43366380D01*
X114464819Y-43366380D02*
X114464819Y-43271142D01*
X114464819Y-43271142D02*
X114512438Y-43128285D01*
X114512438Y-43128285D02*
X114560057Y-43080666D01*
X114464819Y-42747332D02*
X114464819Y-42128285D01*
X114464819Y-42128285D02*
X114845771Y-42461618D01*
X114845771Y-42461618D02*
X114845771Y-42318761D01*
X114845771Y-42318761D02*
X114893390Y-42223523D01*
X114893390Y-42223523D02*
X114941009Y-42175904D01*
X114941009Y-42175904D02*
X115036247Y-42128285D01*
X115036247Y-42128285D02*
X115274342Y-42128285D01*
X115274342Y-42128285D02*
X115369580Y-42175904D01*
X115369580Y-42175904D02*
X115417200Y-42223523D01*
X115417200Y-42223523D02*
X115464819Y-42318761D01*
X115464819Y-42318761D02*
X115464819Y-42604475D01*
X115464819Y-42604475D02*
X115417200Y-42699713D01*
X115417200Y-42699713D02*
X115369580Y-42747332D01*
X126051333Y-106526580D02*
X126003714Y-106574200D01*
X126003714Y-106574200D02*
X125860857Y-106621819D01*
X125860857Y-106621819D02*
X125765619Y-106621819D01*
X125765619Y-106621819D02*
X125622762Y-106574200D01*
X125622762Y-106574200D02*
X125527524Y-106478961D01*
X125527524Y-106478961D02*
X125479905Y-106383723D01*
X125479905Y-106383723D02*
X125432286Y-106193247D01*
X125432286Y-106193247D02*
X125432286Y-106050390D01*
X125432286Y-106050390D02*
X125479905Y-105859914D01*
X125479905Y-105859914D02*
X125527524Y-105764676D01*
X125527524Y-105764676D02*
X125622762Y-105669438D01*
X125622762Y-105669438D02*
X125765619Y-105621819D01*
X125765619Y-105621819D02*
X125860857Y-105621819D01*
X125860857Y-105621819D02*
X126003714Y-105669438D01*
X126003714Y-105669438D02*
X126051333Y-105717057D01*
X126384667Y-105621819D02*
X127051333Y-105621819D01*
X127051333Y-105621819D02*
X126622762Y-106621819D01*
X184771819Y-99534904D02*
X185581342Y-99534904D01*
X185581342Y-99534904D02*
X185676580Y-99487285D01*
X185676580Y-99487285D02*
X185724200Y-99439666D01*
X185724200Y-99439666D02*
X185771819Y-99344428D01*
X185771819Y-99344428D02*
X185771819Y-99153952D01*
X185771819Y-99153952D02*
X185724200Y-99058714D01*
X185724200Y-99058714D02*
X185676580Y-99011095D01*
X185676580Y-99011095D02*
X185581342Y-98963476D01*
X185581342Y-98963476D02*
X184771819Y-98963476D01*
X184771819Y-98058714D02*
X184771819Y-98249190D01*
X184771819Y-98249190D02*
X184819438Y-98344428D01*
X184819438Y-98344428D02*
X184867057Y-98392047D01*
X184867057Y-98392047D02*
X185009914Y-98487285D01*
X185009914Y-98487285D02*
X185200390Y-98534904D01*
X185200390Y-98534904D02*
X185581342Y-98534904D01*
X185581342Y-98534904D02*
X185676580Y-98487285D01*
X185676580Y-98487285D02*
X185724200Y-98439666D01*
X185724200Y-98439666D02*
X185771819Y-98344428D01*
X185771819Y-98344428D02*
X185771819Y-98153952D01*
X185771819Y-98153952D02*
X185724200Y-98058714D01*
X185724200Y-98058714D02*
X185676580Y-98011095D01*
X185676580Y-98011095D02*
X185581342Y-97963476D01*
X185581342Y-97963476D02*
X185343247Y-97963476D01*
X185343247Y-97963476D02*
X185248009Y-98011095D01*
X185248009Y-98011095D02*
X185200390Y-98058714D01*
X185200390Y-98058714D02*
X185152771Y-98153952D01*
X185152771Y-98153952D02*
X185152771Y-98344428D01*
X185152771Y-98344428D02*
X185200390Y-98439666D01*
X185200390Y-98439666D02*
X185248009Y-98487285D01*
X185248009Y-98487285D02*
X185343247Y-98534904D01*
X188708819Y-120390904D02*
X189518342Y-120390904D01*
X189518342Y-120390904D02*
X189613580Y-120343285D01*
X189613580Y-120343285D02*
X189661200Y-120295666D01*
X189661200Y-120295666D02*
X189708819Y-120200428D01*
X189708819Y-120200428D02*
X189708819Y-120009952D01*
X189708819Y-120009952D02*
X189661200Y-119914714D01*
X189661200Y-119914714D02*
X189613580Y-119867095D01*
X189613580Y-119867095D02*
X189518342Y-119819476D01*
X189518342Y-119819476D02*
X188708819Y-119819476D01*
X188708819Y-119438523D02*
X188708819Y-118771857D01*
X188708819Y-118771857D02*
X189708819Y-119200428D01*
X151818819Y-130781094D02*
X150818819Y-130781094D01*
X150818819Y-130781094D02*
X150818819Y-130542999D01*
X150818819Y-130542999D02*
X150866438Y-130400142D01*
X150866438Y-130400142D02*
X150961676Y-130304904D01*
X150961676Y-130304904D02*
X151056914Y-130257285D01*
X151056914Y-130257285D02*
X151247390Y-130209666D01*
X151247390Y-130209666D02*
X151390247Y-130209666D01*
X151390247Y-130209666D02*
X151580723Y-130257285D01*
X151580723Y-130257285D02*
X151675961Y-130304904D01*
X151675961Y-130304904D02*
X151771200Y-130400142D01*
X151771200Y-130400142D02*
X151818819Y-130542999D01*
X151818819Y-130542999D02*
X151818819Y-130781094D01*
X151818819Y-129257285D02*
X151818819Y-129828713D01*
X151818819Y-129542999D02*
X150818819Y-129542999D01*
X150818819Y-129542999D02*
X150961676Y-129638237D01*
X150961676Y-129638237D02*
X151056914Y-129733475D01*
X151056914Y-129733475D02*
X151104533Y-129828713D01*
X127914819Y-103626904D02*
X128724342Y-103626904D01*
X128724342Y-103626904D02*
X128819580Y-103579285D01*
X128819580Y-103579285D02*
X128867200Y-103531666D01*
X128867200Y-103531666D02*
X128914819Y-103436428D01*
X128914819Y-103436428D02*
X128914819Y-103245952D01*
X128914819Y-103245952D02*
X128867200Y-103150714D01*
X128867200Y-103150714D02*
X128819580Y-103103095D01*
X128819580Y-103103095D02*
X128724342Y-103055476D01*
X128724342Y-103055476D02*
X127914819Y-103055476D01*
X127914819Y-102103095D02*
X127914819Y-102579285D01*
X127914819Y-102579285D02*
X128391009Y-102626904D01*
X128391009Y-102626904D02*
X128343390Y-102579285D01*
X128343390Y-102579285D02*
X128295771Y-102484047D01*
X128295771Y-102484047D02*
X128295771Y-102245952D01*
X128295771Y-102245952D02*
X128343390Y-102150714D01*
X128343390Y-102150714D02*
X128391009Y-102103095D01*
X128391009Y-102103095D02*
X128486247Y-102055476D01*
X128486247Y-102055476D02*
X128724342Y-102055476D01*
X128724342Y-102055476D02*
X128819580Y-102103095D01*
X128819580Y-102103095D02*
X128867200Y-102150714D01*
X128867200Y-102150714D02*
X128914819Y-102245952D01*
X128914819Y-102245952D02*
X128914819Y-102484047D01*
X128914819Y-102484047D02*
X128867200Y-102579285D01*
X128867200Y-102579285D02*
X128819580Y-102626904D01*
X119719580Y-124606666D02*
X119767200Y-124654285D01*
X119767200Y-124654285D02*
X119814819Y-124797142D01*
X119814819Y-124797142D02*
X119814819Y-124892380D01*
X119814819Y-124892380D02*
X119767200Y-125035237D01*
X119767200Y-125035237D02*
X119671961Y-125130475D01*
X119671961Y-125130475D02*
X119576723Y-125178094D01*
X119576723Y-125178094D02*
X119386247Y-125225713D01*
X119386247Y-125225713D02*
X119243390Y-125225713D01*
X119243390Y-125225713D02*
X119052914Y-125178094D01*
X119052914Y-125178094D02*
X118957676Y-125130475D01*
X118957676Y-125130475D02*
X118862438Y-125035237D01*
X118862438Y-125035237D02*
X118814819Y-124892380D01*
X118814819Y-124892380D02*
X118814819Y-124797142D01*
X118814819Y-124797142D02*
X118862438Y-124654285D01*
X118862438Y-124654285D02*
X118910057Y-124606666D01*
X118910057Y-124225713D02*
X118862438Y-124178094D01*
X118862438Y-124178094D02*
X118814819Y-124082856D01*
X118814819Y-124082856D02*
X118814819Y-123844761D01*
X118814819Y-123844761D02*
X118862438Y-123749523D01*
X118862438Y-123749523D02*
X118910057Y-123701904D01*
X118910057Y-123701904D02*
X119005295Y-123654285D01*
X119005295Y-123654285D02*
X119100533Y-123654285D01*
X119100533Y-123654285D02*
X119243390Y-123701904D01*
X119243390Y-123701904D02*
X119814819Y-124273332D01*
X119814819Y-124273332D02*
X119814819Y-123654285D01*
X190599333Y-117187580D02*
X190551714Y-117235200D01*
X190551714Y-117235200D02*
X190408857Y-117282819D01*
X190408857Y-117282819D02*
X190313619Y-117282819D01*
X190313619Y-117282819D02*
X190170762Y-117235200D01*
X190170762Y-117235200D02*
X190075524Y-117139961D01*
X190075524Y-117139961D02*
X190027905Y-117044723D01*
X190027905Y-117044723D02*
X189980286Y-116854247D01*
X189980286Y-116854247D02*
X189980286Y-116711390D01*
X189980286Y-116711390D02*
X190027905Y-116520914D01*
X190027905Y-116520914D02*
X190075524Y-116425676D01*
X190075524Y-116425676D02*
X190170762Y-116330438D01*
X190170762Y-116330438D02*
X190313619Y-116282819D01*
X190313619Y-116282819D02*
X190408857Y-116282819D01*
X190408857Y-116282819D02*
X190551714Y-116330438D01*
X190551714Y-116330438D02*
X190599333Y-116378057D01*
X191075524Y-117282819D02*
X191266000Y-117282819D01*
X191266000Y-117282819D02*
X191361238Y-117235200D01*
X191361238Y-117235200D02*
X191408857Y-117187580D01*
X191408857Y-117187580D02*
X191504095Y-117044723D01*
X191504095Y-117044723D02*
X191551714Y-116854247D01*
X191551714Y-116854247D02*
X191551714Y-116473295D01*
X191551714Y-116473295D02*
X191504095Y-116378057D01*
X191504095Y-116378057D02*
X191456476Y-116330438D01*
X191456476Y-116330438D02*
X191361238Y-116282819D01*
X191361238Y-116282819D02*
X191170762Y-116282819D01*
X191170762Y-116282819D02*
X191075524Y-116330438D01*
X191075524Y-116330438D02*
X191027905Y-116378057D01*
X191027905Y-116378057D02*
X190980286Y-116473295D01*
X190980286Y-116473295D02*
X190980286Y-116711390D01*
X190980286Y-116711390D02*
X191027905Y-116806628D01*
X191027905Y-116806628D02*
X191075524Y-116854247D01*
X191075524Y-116854247D02*
X191170762Y-116901866D01*
X191170762Y-116901866D02*
X191361238Y-116901866D01*
X191361238Y-116901866D02*
X191456476Y-116854247D01*
X191456476Y-116854247D02*
X191504095Y-116806628D01*
X191504095Y-116806628D02*
X191551714Y-116711390D01*
X103699333Y-130990819D02*
X103366000Y-130514628D01*
X103127905Y-130990819D02*
X103127905Y-129990819D01*
X103127905Y-129990819D02*
X103508857Y-129990819D01*
X103508857Y-129990819D02*
X103604095Y-130038438D01*
X103604095Y-130038438D02*
X103651714Y-130086057D01*
X103651714Y-130086057D02*
X103699333Y-130181295D01*
X103699333Y-130181295D02*
X103699333Y-130324152D01*
X103699333Y-130324152D02*
X103651714Y-130419390D01*
X103651714Y-130419390D02*
X103604095Y-130467009D01*
X103604095Y-130467009D02*
X103508857Y-130514628D01*
X103508857Y-130514628D02*
X103127905Y-130514628D01*
X104080286Y-130086057D02*
X104127905Y-130038438D01*
X104127905Y-130038438D02*
X104223143Y-129990819D01*
X104223143Y-129990819D02*
X104461238Y-129990819D01*
X104461238Y-129990819D02*
X104556476Y-130038438D01*
X104556476Y-130038438D02*
X104604095Y-130086057D01*
X104604095Y-130086057D02*
X104651714Y-130181295D01*
X104651714Y-130181295D02*
X104651714Y-130276533D01*
X104651714Y-130276533D02*
X104604095Y-130419390D01*
X104604095Y-130419390D02*
X104032667Y-130990819D01*
X104032667Y-130990819D02*
X104651714Y-130990819D01*
X187000095Y-41592819D02*
X187000095Y-42402342D01*
X187000095Y-42402342D02*
X187047714Y-42497580D01*
X187047714Y-42497580D02*
X187095333Y-42545200D01*
X187095333Y-42545200D02*
X187190571Y-42592819D01*
X187190571Y-42592819D02*
X187381047Y-42592819D01*
X187381047Y-42592819D02*
X187476285Y-42545200D01*
X187476285Y-42545200D02*
X187523904Y-42497580D01*
X187523904Y-42497580D02*
X187571523Y-42402342D01*
X187571523Y-42402342D02*
X187571523Y-41592819D01*
X188000095Y-41688057D02*
X188047714Y-41640438D01*
X188047714Y-41640438D02*
X188142952Y-41592819D01*
X188142952Y-41592819D02*
X188381047Y-41592819D01*
X188381047Y-41592819D02*
X188476285Y-41640438D01*
X188476285Y-41640438D02*
X188523904Y-41688057D01*
X188523904Y-41688057D02*
X188571523Y-41783295D01*
X188571523Y-41783295D02*
X188571523Y-41878533D01*
X188571523Y-41878533D02*
X188523904Y-42021390D01*
X188523904Y-42021390D02*
X187952476Y-42592819D01*
X187952476Y-42592819D02*
X188571523Y-42592819D01*
X181116819Y-130781094D02*
X180116819Y-130781094D01*
X180116819Y-130781094D02*
X180116819Y-130542999D01*
X180116819Y-130542999D02*
X180164438Y-130400142D01*
X180164438Y-130400142D02*
X180259676Y-130304904D01*
X180259676Y-130304904D02*
X180354914Y-130257285D01*
X180354914Y-130257285D02*
X180545390Y-130209666D01*
X180545390Y-130209666D02*
X180688247Y-130209666D01*
X180688247Y-130209666D02*
X180878723Y-130257285D01*
X180878723Y-130257285D02*
X180973961Y-130304904D01*
X180973961Y-130304904D02*
X181069200Y-130400142D01*
X181069200Y-130400142D02*
X181116819Y-130542999D01*
X181116819Y-130542999D02*
X181116819Y-130781094D01*
X180116819Y-129352523D02*
X180116819Y-129542999D01*
X180116819Y-129542999D02*
X180164438Y-129638237D01*
X180164438Y-129638237D02*
X180212057Y-129685856D01*
X180212057Y-129685856D02*
X180354914Y-129781094D01*
X180354914Y-129781094D02*
X180545390Y-129828713D01*
X180545390Y-129828713D02*
X180926342Y-129828713D01*
X180926342Y-129828713D02*
X181021580Y-129781094D01*
X181021580Y-129781094D02*
X181069200Y-129733475D01*
X181069200Y-129733475D02*
X181116819Y-129638237D01*
X181116819Y-129638237D02*
X181116819Y-129447761D01*
X181116819Y-129447761D02*
X181069200Y-129352523D01*
X181069200Y-129352523D02*
X181021580Y-129304904D01*
X181021580Y-129304904D02*
X180926342Y-129257285D01*
X180926342Y-129257285D02*
X180688247Y-129257285D01*
X180688247Y-129257285D02*
X180593009Y-129304904D01*
X180593009Y-129304904D02*
X180545390Y-129352523D01*
X180545390Y-129352523D02*
X180497771Y-129447761D01*
X180497771Y-129447761D02*
X180497771Y-129638237D01*
X180497771Y-129638237D02*
X180545390Y-129733475D01*
X180545390Y-129733475D02*
X180593009Y-129781094D01*
X180593009Y-129781094D02*
X180688247Y-129828713D01*
X190587333Y-95875580D02*
X190539714Y-95923200D01*
X190539714Y-95923200D02*
X190396857Y-95970819D01*
X190396857Y-95970819D02*
X190301619Y-95970819D01*
X190301619Y-95970819D02*
X190158762Y-95923200D01*
X190158762Y-95923200D02*
X190063524Y-95827961D01*
X190063524Y-95827961D02*
X190015905Y-95732723D01*
X190015905Y-95732723D02*
X189968286Y-95542247D01*
X189968286Y-95542247D02*
X189968286Y-95399390D01*
X189968286Y-95399390D02*
X190015905Y-95208914D01*
X190015905Y-95208914D02*
X190063524Y-95113676D01*
X190063524Y-95113676D02*
X190158762Y-95018438D01*
X190158762Y-95018438D02*
X190301619Y-94970819D01*
X190301619Y-94970819D02*
X190396857Y-94970819D01*
X190396857Y-94970819D02*
X190539714Y-95018438D01*
X190539714Y-95018438D02*
X190587333Y-95066057D01*
X191444476Y-94970819D02*
X191254000Y-94970819D01*
X191254000Y-94970819D02*
X191158762Y-95018438D01*
X191158762Y-95018438D02*
X191111143Y-95066057D01*
X191111143Y-95066057D02*
X191015905Y-95208914D01*
X191015905Y-95208914D02*
X190968286Y-95399390D01*
X190968286Y-95399390D02*
X190968286Y-95780342D01*
X190968286Y-95780342D02*
X191015905Y-95875580D01*
X191015905Y-95875580D02*
X191063524Y-95923200D01*
X191063524Y-95923200D02*
X191158762Y-95970819D01*
X191158762Y-95970819D02*
X191349238Y-95970819D01*
X191349238Y-95970819D02*
X191444476Y-95923200D01*
X191444476Y-95923200D02*
X191492095Y-95875580D01*
X191492095Y-95875580D02*
X191539714Y-95780342D01*
X191539714Y-95780342D02*
X191539714Y-95542247D01*
X191539714Y-95542247D02*
X191492095Y-95447009D01*
X191492095Y-95447009D02*
X191444476Y-95399390D01*
X191444476Y-95399390D02*
X191349238Y-95351771D01*
X191349238Y-95351771D02*
X191158762Y-95351771D01*
X191158762Y-95351771D02*
X191063524Y-95399390D01*
X191063524Y-95399390D02*
X191015905Y-95447009D01*
X191015905Y-95447009D02*
X190968286Y-95542247D01*
X191569580Y-40508857D02*
X191617200Y-40556476D01*
X191617200Y-40556476D02*
X191664819Y-40699333D01*
X191664819Y-40699333D02*
X191664819Y-40794571D01*
X191664819Y-40794571D02*
X191617200Y-40937428D01*
X191617200Y-40937428D02*
X191521961Y-41032666D01*
X191521961Y-41032666D02*
X191426723Y-41080285D01*
X191426723Y-41080285D02*
X191236247Y-41127904D01*
X191236247Y-41127904D02*
X191093390Y-41127904D01*
X191093390Y-41127904D02*
X190902914Y-41080285D01*
X190902914Y-41080285D02*
X190807676Y-41032666D01*
X190807676Y-41032666D02*
X190712438Y-40937428D01*
X190712438Y-40937428D02*
X190664819Y-40794571D01*
X190664819Y-40794571D02*
X190664819Y-40699333D01*
X190664819Y-40699333D02*
X190712438Y-40556476D01*
X190712438Y-40556476D02*
X190760057Y-40508857D01*
X191664819Y-39556476D02*
X191664819Y-40127904D01*
X191664819Y-39842190D02*
X190664819Y-39842190D01*
X190664819Y-39842190D02*
X190807676Y-39937428D01*
X190807676Y-39937428D02*
X190902914Y-40032666D01*
X190902914Y-40032666D02*
X190950533Y-40127904D01*
X190664819Y-38937428D02*
X190664819Y-38842190D01*
X190664819Y-38842190D02*
X190712438Y-38746952D01*
X190712438Y-38746952D02*
X190760057Y-38699333D01*
X190760057Y-38699333D02*
X190855295Y-38651714D01*
X190855295Y-38651714D02*
X191045771Y-38604095D01*
X191045771Y-38604095D02*
X191283866Y-38604095D01*
X191283866Y-38604095D02*
X191474342Y-38651714D01*
X191474342Y-38651714D02*
X191569580Y-38699333D01*
X191569580Y-38699333D02*
X191617200Y-38746952D01*
X191617200Y-38746952D02*
X191664819Y-38842190D01*
X191664819Y-38842190D02*
X191664819Y-38937428D01*
X191664819Y-38937428D02*
X191617200Y-39032666D01*
X191617200Y-39032666D02*
X191569580Y-39080285D01*
X191569580Y-39080285D02*
X191474342Y-39127904D01*
X191474342Y-39127904D02*
X191283866Y-39175523D01*
X191283866Y-39175523D02*
X191045771Y-39175523D01*
X191045771Y-39175523D02*
X190855295Y-39127904D01*
X190855295Y-39127904D02*
X190760057Y-39080285D01*
X190760057Y-39080285D02*
X190712438Y-39032666D01*
X190712438Y-39032666D02*
X190664819Y-38937428D01*
X115383333Y-97895580D02*
X115335714Y-97943200D01*
X115335714Y-97943200D02*
X115192857Y-97990819D01*
X115192857Y-97990819D02*
X115097619Y-97990819D01*
X115097619Y-97990819D02*
X114954762Y-97943200D01*
X114954762Y-97943200D02*
X114859524Y-97847961D01*
X114859524Y-97847961D02*
X114811905Y-97752723D01*
X114811905Y-97752723D02*
X114764286Y-97562247D01*
X114764286Y-97562247D02*
X114764286Y-97419390D01*
X114764286Y-97419390D02*
X114811905Y-97228914D01*
X114811905Y-97228914D02*
X114859524Y-97133676D01*
X114859524Y-97133676D02*
X114954762Y-97038438D01*
X114954762Y-97038438D02*
X115097619Y-96990819D01*
X115097619Y-96990819D02*
X115192857Y-96990819D01*
X115192857Y-96990819D02*
X115335714Y-97038438D01*
X115335714Y-97038438D02*
X115383333Y-97086057D01*
X115954762Y-97419390D02*
X115859524Y-97371771D01*
X115859524Y-97371771D02*
X115811905Y-97324152D01*
X115811905Y-97324152D02*
X115764286Y-97228914D01*
X115764286Y-97228914D02*
X115764286Y-97181295D01*
X115764286Y-97181295D02*
X115811905Y-97086057D01*
X115811905Y-97086057D02*
X115859524Y-97038438D01*
X115859524Y-97038438D02*
X115954762Y-96990819D01*
X115954762Y-96990819D02*
X116145238Y-96990819D01*
X116145238Y-96990819D02*
X116240476Y-97038438D01*
X116240476Y-97038438D02*
X116288095Y-97086057D01*
X116288095Y-97086057D02*
X116335714Y-97181295D01*
X116335714Y-97181295D02*
X116335714Y-97228914D01*
X116335714Y-97228914D02*
X116288095Y-97324152D01*
X116288095Y-97324152D02*
X116240476Y-97371771D01*
X116240476Y-97371771D02*
X116145238Y-97419390D01*
X116145238Y-97419390D02*
X115954762Y-97419390D01*
X115954762Y-97419390D02*
X115859524Y-97467009D01*
X115859524Y-97467009D02*
X115811905Y-97514628D01*
X115811905Y-97514628D02*
X115764286Y-97609866D01*
X115764286Y-97609866D02*
X115764286Y-97800342D01*
X115764286Y-97800342D02*
X115811905Y-97895580D01*
X115811905Y-97895580D02*
X115859524Y-97943200D01*
X115859524Y-97943200D02*
X115954762Y-97990819D01*
X115954762Y-97990819D02*
X116145238Y-97990819D01*
X116145238Y-97990819D02*
X116240476Y-97943200D01*
X116240476Y-97943200D02*
X116288095Y-97895580D01*
X116288095Y-97895580D02*
X116335714Y-97800342D01*
X116335714Y-97800342D02*
X116335714Y-97609866D01*
X116335714Y-97609866D02*
X116288095Y-97514628D01*
X116288095Y-97514628D02*
X116240476Y-97467009D01*
X116240476Y-97467009D02*
X116145238Y-97419390D01*
X175274819Y-130781094D02*
X174274819Y-130781094D01*
X174274819Y-130781094D02*
X174274819Y-130542999D01*
X174274819Y-130542999D02*
X174322438Y-130400142D01*
X174322438Y-130400142D02*
X174417676Y-130304904D01*
X174417676Y-130304904D02*
X174512914Y-130257285D01*
X174512914Y-130257285D02*
X174703390Y-130209666D01*
X174703390Y-130209666D02*
X174846247Y-130209666D01*
X174846247Y-130209666D02*
X175036723Y-130257285D01*
X175036723Y-130257285D02*
X175131961Y-130304904D01*
X175131961Y-130304904D02*
X175227200Y-130400142D01*
X175227200Y-130400142D02*
X175274819Y-130542999D01*
X175274819Y-130542999D02*
X175274819Y-130781094D01*
X174274819Y-129304904D02*
X174274819Y-129781094D01*
X174274819Y-129781094D02*
X174751009Y-129828713D01*
X174751009Y-129828713D02*
X174703390Y-129781094D01*
X174703390Y-129781094D02*
X174655771Y-129685856D01*
X174655771Y-129685856D02*
X174655771Y-129447761D01*
X174655771Y-129447761D02*
X174703390Y-129352523D01*
X174703390Y-129352523D02*
X174751009Y-129304904D01*
X174751009Y-129304904D02*
X174846247Y-129257285D01*
X174846247Y-129257285D02*
X175084342Y-129257285D01*
X175084342Y-129257285D02*
X175179580Y-129304904D01*
X175179580Y-129304904D02*
X175227200Y-129352523D01*
X175227200Y-129352523D02*
X175274819Y-129447761D01*
X175274819Y-129447761D02*
X175274819Y-129685856D01*
X175274819Y-129685856D02*
X175227200Y-129781094D01*
X175227200Y-129781094D02*
X175179580Y-129828713D01*
X169432819Y-130781094D02*
X168432819Y-130781094D01*
X168432819Y-130781094D02*
X168432819Y-130542999D01*
X168432819Y-130542999D02*
X168480438Y-130400142D01*
X168480438Y-130400142D02*
X168575676Y-130304904D01*
X168575676Y-130304904D02*
X168670914Y-130257285D01*
X168670914Y-130257285D02*
X168861390Y-130209666D01*
X168861390Y-130209666D02*
X169004247Y-130209666D01*
X169004247Y-130209666D02*
X169194723Y-130257285D01*
X169194723Y-130257285D02*
X169289961Y-130304904D01*
X169289961Y-130304904D02*
X169385200Y-130400142D01*
X169385200Y-130400142D02*
X169432819Y-130542999D01*
X169432819Y-130542999D02*
X169432819Y-130781094D01*
X168766152Y-129352523D02*
X169432819Y-129352523D01*
X168385200Y-129590618D02*
X169099485Y-129828713D01*
X169099485Y-129828713D02*
X169099485Y-129209666D01*
D11*
%TO.C,C4*%
X130624000Y-93467000D02*
G75*
G03*
X130624000Y-93467000I-2120000J0D01*
G01*
%TO.C,D8*%
X194070000Y-131349000D02*
X194226000Y-131349000D01*
X196386000Y-131349000D02*
X196542000Y-131349000D01*
X194227392Y-128116666D02*
G75*
G03*
X194070485Y-131348999I1078608J-1672334D01*
G01*
X194226164Y-128747871D02*
G75*
G03*
X194226001Y-130829960I1079836J-1041129D01*
G01*
X196385999Y-130829960D02*
G75*
G03*
X196385836Y-128747871I-1079999J1040960D01*
G01*
X196541515Y-131348999D02*
G75*
G03*
X196384608Y-128116666I-1235515J1559999D01*
G01*
%TO.C,D7*%
X188228000Y-131349000D02*
X188384000Y-131349000D01*
X190544000Y-131349000D02*
X190700000Y-131349000D01*
X188385392Y-128116666D02*
G75*
G03*
X188228485Y-131348999I1078608J-1672334D01*
G01*
X188384164Y-128747871D02*
G75*
G03*
X188384001Y-130829960I1079836J-1041129D01*
G01*
X190543999Y-130829960D02*
G75*
G03*
X190543836Y-128747871I-1079999J1040960D01*
G01*
X190699515Y-131348999D02*
G75*
G03*
X190542608Y-128116666I-1235515J1559999D01*
G01*
%TO.C,R4*%
X102850000Y-112747000D02*
X102850000Y-112057000D01*
X101130000Y-112057000D02*
X104570000Y-112057000D01*
X104570000Y-112057000D02*
X104570000Y-102817000D01*
X101130000Y-102817000D02*
X101130000Y-112057000D01*
X104570000Y-102817000D02*
X101130000Y-102817000D01*
X102850000Y-102127000D02*
X102850000Y-102817000D01*
%TO.C,D3*%
X164860000Y-131603000D02*
X165016000Y-131603000D01*
X167176000Y-131603000D02*
X167332000Y-131603000D01*
X165017392Y-128370666D02*
G75*
G03*
X164860485Y-131602999I1078608J-1672334D01*
G01*
X165016164Y-129001871D02*
G75*
G03*
X165016001Y-131083960I1079836J-1041129D01*
G01*
X167175999Y-131083960D02*
G75*
G03*
X167175836Y-129001871I-1079999J1040960D01*
G01*
X167331515Y-131602999D02*
G75*
G03*
X167174608Y-128370666I-1235515J1559999D01*
G01*
%TO.C,J1*%
X102084000Y-39013000D02*
X103784000Y-39013000D01*
X102084000Y-48353000D02*
X103784000Y-48353000D01*
%TO.C,U1*%
X122718000Y-38802000D02*
X122718000Y-89722000D01*
X122718000Y-89722000D02*
X134838000Y-89722000D01*
X127778000Y-38802000D02*
X122718000Y-38802000D01*
X134838000Y-38802000D02*
X129778000Y-38802000D01*
X134838000Y-89722000D02*
X134838000Y-38802000D01*
X127778000Y-38802000D02*
G75*
G03*
X129778000Y-38802000I1000000J0D01*
G01*
%TO.C,U4*%
X109598000Y-100519000D02*
X109598000Y-118419000D01*
X109598000Y-118419000D02*
X114898000Y-118419000D01*
X111248000Y-100519000D02*
X109598000Y-100519000D01*
X114898000Y-100519000D02*
X113248000Y-100519000D01*
X114898000Y-118419000D02*
X114898000Y-100519000D01*
X111248000Y-100519000D02*
G75*
G03*
X113248000Y-100519000I1000000J0D01*
G01*
%TO.C,C5*%
X140794000Y-113787000D02*
G75*
G03*
X140794000Y-113787000I-2120000J0D01*
G01*
%TO.C,C1*%
X103791000Y-122705600D02*
X103791000Y-123105600D01*
X103991000Y-122905600D02*
X103591000Y-122905600D01*
X104676000Y-124975401D02*
X100516000Y-124975401D01*
X104676000Y-125015401D02*
X100516000Y-125015401D01*
X104675000Y-125055401D02*
X100517000Y-125055401D01*
X104673000Y-125095401D02*
X100519000Y-125095401D01*
X104670000Y-125135401D02*
X100522000Y-125135401D01*
X104667000Y-125175401D02*
X103436000Y-125175401D01*
X101756000Y-125175401D02*
X100525000Y-125175401D01*
X104663000Y-125215401D02*
X103436000Y-125215401D01*
X101756000Y-125215401D02*
X100529000Y-125215401D01*
X104658000Y-125255401D02*
X103436000Y-125255401D01*
X101756000Y-125255401D02*
X100534000Y-125255401D01*
X104652000Y-125295401D02*
X103436000Y-125295401D01*
X101756000Y-125295401D02*
X100540000Y-125295401D01*
X104646000Y-125335401D02*
X103436000Y-125335401D01*
X101756000Y-125335401D02*
X100546000Y-125335401D01*
X104638000Y-125375401D02*
X103436000Y-125375401D01*
X101756000Y-125375401D02*
X100554000Y-125375401D01*
X104630000Y-125415401D02*
X103436000Y-125415401D01*
X101756000Y-125415401D02*
X100562000Y-125415401D01*
X104621000Y-125455401D02*
X103436000Y-125455401D01*
X101756000Y-125455401D02*
X100571000Y-125455401D01*
X104612000Y-125495401D02*
X103436000Y-125495401D01*
X101756000Y-125495401D02*
X100580000Y-125495401D01*
X104601000Y-125535401D02*
X103436000Y-125535401D01*
X101756000Y-125535401D02*
X100591000Y-125535401D01*
X104590000Y-125575401D02*
X103436000Y-125575401D01*
X101756000Y-125575401D02*
X100602000Y-125575401D01*
X104578000Y-125615401D02*
X103436000Y-125615401D01*
X101756000Y-125615401D02*
X100614000Y-125615401D01*
X104564000Y-125655401D02*
X103436000Y-125655401D01*
X101756000Y-125655401D02*
X100628000Y-125655401D01*
X104550000Y-125696401D02*
X103436000Y-125696401D01*
X101756000Y-125696401D02*
X100642000Y-125696401D01*
X104536000Y-125736401D02*
X103436000Y-125736401D01*
X101756000Y-125736401D02*
X100656000Y-125736401D01*
X104520000Y-125776401D02*
X103436000Y-125776401D01*
X101756000Y-125776401D02*
X100672000Y-125776401D01*
X104503000Y-125816401D02*
X103436000Y-125816401D01*
X101756000Y-125816401D02*
X100689000Y-125816401D01*
X104485000Y-125856401D02*
X103436000Y-125856401D01*
X101756000Y-125856401D02*
X100707000Y-125856401D01*
X104466000Y-125896401D02*
X103436000Y-125896401D01*
X101756000Y-125896401D02*
X100726000Y-125896401D01*
X104447000Y-125936401D02*
X103436000Y-125936401D01*
X101756000Y-125936401D02*
X100745000Y-125936401D01*
X104426000Y-125976401D02*
X103436000Y-125976401D01*
X101756000Y-125976401D02*
X100766000Y-125976401D01*
X104404000Y-126016401D02*
X103436000Y-126016401D01*
X101756000Y-126016401D02*
X100788000Y-126016401D01*
X104381000Y-126056401D02*
X103436000Y-126056401D01*
X101756000Y-126056401D02*
X100811000Y-126056401D01*
X104356000Y-126096401D02*
X103436000Y-126096401D01*
X101756000Y-126096401D02*
X100836000Y-126096401D01*
X104331000Y-126136401D02*
X103436000Y-126136401D01*
X101756000Y-126136401D02*
X100861000Y-126136401D01*
X104304000Y-126176401D02*
X103436000Y-126176401D01*
X101756000Y-126176401D02*
X100888000Y-126176401D01*
X104276000Y-126216401D02*
X103436000Y-126216401D01*
X101756000Y-126216401D02*
X100916000Y-126216401D01*
X104246000Y-126256401D02*
X103436000Y-126256401D01*
X101756000Y-126256401D02*
X100946000Y-126256401D01*
X104215000Y-126296401D02*
X103436000Y-126296401D01*
X101756000Y-126296401D02*
X100977000Y-126296401D01*
X104183000Y-126336401D02*
X103436000Y-126336401D01*
X101756000Y-126336401D02*
X101009000Y-126336401D01*
X104148000Y-126376401D02*
X103436000Y-126376401D01*
X101756000Y-126376401D02*
X101044000Y-126376401D01*
X104112000Y-126416401D02*
X103436000Y-126416401D01*
X101756000Y-126416401D02*
X101080000Y-126416401D01*
X104074000Y-126456401D02*
X103436000Y-126456401D01*
X101756000Y-126456401D02*
X101118000Y-126456401D01*
X104034000Y-126496401D02*
X103436000Y-126496401D01*
X101756000Y-126496401D02*
X101158000Y-126496401D01*
X103992000Y-126536401D02*
X103436000Y-126536401D01*
X101756000Y-126536401D02*
X101200000Y-126536401D01*
X103947000Y-126576401D02*
X103436000Y-126576401D01*
X101756000Y-126576401D02*
X101245000Y-126576401D01*
X103900000Y-126616401D02*
X103436000Y-126616401D01*
X101756000Y-126616401D02*
X101292000Y-126616401D01*
X103850000Y-126656401D02*
X103436000Y-126656401D01*
X101756000Y-126656401D02*
X101342000Y-126656401D01*
X103796000Y-126696401D02*
X103436000Y-126696401D01*
X101756000Y-126696401D02*
X101396000Y-126696401D01*
X103738000Y-126736401D02*
X103436000Y-126736401D01*
X101756000Y-126736401D02*
X101454000Y-126736401D01*
X103676000Y-126776401D02*
X103436000Y-126776401D01*
X101756000Y-126776401D02*
X101516000Y-126776401D01*
X103609000Y-126816401D02*
X101583000Y-126816401D01*
X103536000Y-126856401D02*
X101656000Y-126856401D01*
X103455000Y-126896401D02*
X101737000Y-126896401D01*
X103364000Y-126936401D02*
X101828000Y-126936401D01*
X103260000Y-126976401D02*
X101932000Y-126976401D01*
X103133000Y-127016401D02*
X102059000Y-127016401D01*
X102966000Y-127056401D02*
X102226000Y-127056401D01*
X104716000Y-124975401D02*
G75*
G03*
X104716000Y-124975401I-2120000J0D01*
G01*
%TO.C,C11*%
X163918000Y-39878000D02*
G75*
G03*
X163918000Y-39878000I-2120000J0D01*
G01*
%TO.C,J2*%
X197686000Y-91941000D02*
X196576000Y-91941000D01*
X197686000Y-91181000D02*
X197686000Y-91941000D01*
X197686000Y-90421000D02*
X197686000Y-86676000D01*
X197686000Y-90421000D02*
X197139471Y-90421000D01*
X197686000Y-86676000D02*
X196883530Y-86676000D01*
X196268470Y-86676000D02*
X195466000Y-86676000D01*
X196012529Y-90421000D02*
X195466000Y-90421000D01*
X195466000Y-90421000D02*
X195466000Y-86676000D01*
%TO.C,Y1*%
X115627000Y-126965000D02*
X109377000Y-126965000D01*
X115627000Y-121915000D02*
X109377000Y-121915000D01*
X115627000Y-126965000D02*
G75*
G03*
X115627000Y-121915000I0J2525000D01*
G01*
X109377000Y-121915000D02*
G75*
G03*
X109377000Y-126965000I0J-2525000D01*
G01*
%TO.C,U3*%
X155702000Y-43058000D02*
X155702000Y-78738000D01*
X155702000Y-78738000D02*
X167822000Y-78738000D01*
X160762000Y-43058000D02*
X155702000Y-43058000D01*
X167822000Y-43058000D02*
X162762000Y-43058000D01*
X167822000Y-78738000D02*
X167822000Y-43058000D01*
X160762000Y-43058000D02*
G75*
G03*
X162762000Y-43058000I1000000J0D01*
G01*
%TO.C,D2*%
X159018000Y-131603000D02*
X159174000Y-131603000D01*
X161334000Y-131603000D02*
X161490000Y-131603000D01*
X159175392Y-128370666D02*
G75*
G03*
X159018485Y-131602999I1078608J-1672334D01*
G01*
X159174164Y-129001871D02*
G75*
G03*
X159174001Y-131083960I1079836J-1041129D01*
G01*
X161333999Y-131083960D02*
G75*
G03*
X161333836Y-129001871I-1079999J1040960D01*
G01*
X161489515Y-131602999D02*
G75*
G03*
X161332608Y-128370666I-1235515J1559999D01*
G01*
%TO.C,U8*%
X136278000Y-117029000D02*
X136278000Y-134929000D01*
X136278000Y-134929000D02*
X141578000Y-134929000D01*
X137928000Y-117029000D02*
X136278000Y-117029000D01*
X141578000Y-117029000D02*
X139928000Y-117029000D01*
X141578000Y-134929000D02*
X141578000Y-117029000D01*
X137928000Y-117029000D02*
G75*
G03*
X139928000Y-117029000I1000000J0D01*
G01*
%TO.C,R1*%
X107192000Y-134854000D02*
X107882000Y-134854000D01*
X107882000Y-133134000D02*
X107882000Y-136574000D01*
X107882000Y-136574000D02*
X117122000Y-136574000D01*
X117122000Y-133134000D02*
X107882000Y-133134000D01*
X117122000Y-136574000D02*
X117122000Y-133134000D01*
X117812000Y-134854000D02*
X117122000Y-134854000D01*
%TO.C,RN1*%
X190904000Y-136777000D02*
X190904000Y-133977000D01*
X190904000Y-133977000D02*
X167704000Y-133977000D01*
X188194000Y-136777000D02*
X188194000Y-133977000D01*
X167704000Y-136777000D02*
X190904000Y-136777000D01*
X167704000Y-133977000D02*
X167704000Y-136777000D01*
%TO.C,C3*%
X112955000Y-40644199D02*
X112955000Y-41044199D01*
X113155000Y-40844199D02*
X112755000Y-40844199D01*
X113840000Y-42914000D02*
X112600000Y-42914000D01*
X110920000Y-42914000D02*
X109680000Y-42914000D01*
X113840000Y-42954000D02*
X112600000Y-42954000D01*
X110920000Y-42954000D02*
X109680000Y-42954000D01*
X113839000Y-42994000D02*
X112600000Y-42994000D01*
X110920000Y-42994000D02*
X109681000Y-42994000D01*
X113837000Y-43034000D02*
X112600000Y-43034000D01*
X110920000Y-43034000D02*
X109683000Y-43034000D01*
X113834000Y-43074000D02*
X112600000Y-43074000D01*
X110920000Y-43074000D02*
X109686000Y-43074000D01*
X113831000Y-43114000D02*
X112600000Y-43114000D01*
X110920000Y-43114000D02*
X109689000Y-43114000D01*
X113827000Y-43154000D02*
X112600000Y-43154000D01*
X110920000Y-43154000D02*
X109693000Y-43154000D01*
X113822000Y-43194000D02*
X112600000Y-43194000D01*
X110920000Y-43194000D02*
X109698000Y-43194000D01*
X113816000Y-43234000D02*
X112600000Y-43234000D01*
X110920000Y-43234000D02*
X109704000Y-43234000D01*
X113810000Y-43274000D02*
X112600000Y-43274000D01*
X110920000Y-43274000D02*
X109710000Y-43274000D01*
X113802000Y-43314000D02*
X112600000Y-43314000D01*
X110920000Y-43314000D02*
X109718000Y-43314000D01*
X113794000Y-43354000D02*
X112600000Y-43354000D01*
X110920000Y-43354000D02*
X109726000Y-43354000D01*
X113785000Y-43394000D02*
X112600000Y-43394000D01*
X110920000Y-43394000D02*
X109735000Y-43394000D01*
X113776000Y-43434000D02*
X112600000Y-43434000D01*
X110920000Y-43434000D02*
X109744000Y-43434000D01*
X113765000Y-43474000D02*
X112600000Y-43474000D01*
X110920000Y-43474000D02*
X109755000Y-43474000D01*
X113754000Y-43514000D02*
X112600000Y-43514000D01*
X110920000Y-43514000D02*
X109766000Y-43514000D01*
X113742000Y-43554000D02*
X112600000Y-43554000D01*
X110920000Y-43554000D02*
X109778000Y-43554000D01*
X113728000Y-43594000D02*
X112600000Y-43594000D01*
X110920000Y-43594000D02*
X109792000Y-43594000D01*
X113714000Y-43635000D02*
X112600000Y-43635000D01*
X110920000Y-43635000D02*
X109806000Y-43635000D01*
X113700000Y-43675000D02*
X112600000Y-43675000D01*
X110920000Y-43675000D02*
X109820000Y-43675000D01*
X113684000Y-43715000D02*
X112600000Y-43715000D01*
X110920000Y-43715000D02*
X109836000Y-43715000D01*
X113667000Y-43755000D02*
X112600000Y-43755000D01*
X110920000Y-43755000D02*
X109853000Y-43755000D01*
X113649000Y-43795000D02*
X112600000Y-43795000D01*
X110920000Y-43795000D02*
X109871000Y-43795000D01*
X113630000Y-43835000D02*
X112600000Y-43835000D01*
X110920000Y-43835000D02*
X109890000Y-43835000D01*
X113611000Y-43875000D02*
X112600000Y-43875000D01*
X110920000Y-43875000D02*
X109909000Y-43875000D01*
X113590000Y-43915000D02*
X112600000Y-43915000D01*
X110920000Y-43915000D02*
X109930000Y-43915000D01*
X113568000Y-43955000D02*
X112600000Y-43955000D01*
X110920000Y-43955000D02*
X109952000Y-43955000D01*
X113545000Y-43995000D02*
X112600000Y-43995000D01*
X110920000Y-43995000D02*
X109975000Y-43995000D01*
X113520000Y-44035000D02*
X112600000Y-44035000D01*
X110920000Y-44035000D02*
X110000000Y-44035000D01*
X113495000Y-44075000D02*
X112600000Y-44075000D01*
X110920000Y-44075000D02*
X110025000Y-44075000D01*
X113468000Y-44115000D02*
X112600000Y-44115000D01*
X110920000Y-44115000D02*
X110052000Y-44115000D01*
X113440000Y-44155000D02*
X112600000Y-44155000D01*
X110920000Y-44155000D02*
X110080000Y-44155000D01*
X113410000Y-44195000D02*
X112600000Y-44195000D01*
X110920000Y-44195000D02*
X110110000Y-44195000D01*
X113379000Y-44235000D02*
X112600000Y-44235000D01*
X110920000Y-44235000D02*
X110141000Y-44235000D01*
X113347000Y-44275000D02*
X112600000Y-44275000D01*
X110920000Y-44275000D02*
X110173000Y-44275000D01*
X113312000Y-44315000D02*
X112600000Y-44315000D01*
X110920000Y-44315000D02*
X110208000Y-44315000D01*
X113276000Y-44355000D02*
X112600000Y-44355000D01*
X110920000Y-44355000D02*
X110244000Y-44355000D01*
X113238000Y-44395000D02*
X112600000Y-44395000D01*
X110920000Y-44395000D02*
X110282000Y-44395000D01*
X113198000Y-44435000D02*
X112600000Y-44435000D01*
X110920000Y-44435000D02*
X110322000Y-44435000D01*
X113156000Y-44475000D02*
X112600000Y-44475000D01*
X110920000Y-44475000D02*
X110364000Y-44475000D01*
X113111000Y-44515000D02*
X110409000Y-44515000D01*
X113064000Y-44555000D02*
X110456000Y-44555000D01*
X113014000Y-44595000D02*
X110506000Y-44595000D01*
X112960000Y-44635000D02*
X110560000Y-44635000D01*
X112902000Y-44675000D02*
X110618000Y-44675000D01*
X112840000Y-44715000D02*
X110680000Y-44715000D01*
X112773000Y-44755000D02*
X110747000Y-44755000D01*
X112700000Y-44795000D02*
X110820000Y-44795000D01*
X112619000Y-44835000D02*
X110901000Y-44835000D01*
X112528000Y-44875000D02*
X110992000Y-44875000D01*
X112424000Y-44915000D02*
X111096000Y-44915000D01*
X112297000Y-44955000D02*
X111223000Y-44955000D01*
X112130000Y-44995000D02*
X111390000Y-44995000D01*
X113880000Y-42914000D02*
G75*
G03*
X113880000Y-42914000I-2120000J0D01*
G01*
%TO.C,C7*%
X128338000Y-102865000D02*
G75*
G03*
X128338000Y-102865000I-2120000J0D01*
G01*
%TO.C,U6*%
X187746000Y-91833000D02*
X157146000Y-91833000D01*
X157146000Y-91833000D02*
X157146000Y-104753000D01*
X187746000Y-97293000D02*
X187746000Y-91833000D01*
X187746000Y-104753000D02*
X187746000Y-99293000D01*
X157146000Y-104753000D02*
X187746000Y-104753000D01*
X187746000Y-97293000D02*
G75*
G03*
X187746000Y-99293000I0J-1000000D01*
G01*
%TO.C,U7*%
X188254000Y-116979000D02*
X162734000Y-116979000D01*
X162734000Y-116979000D02*
X162734000Y-122279000D01*
X188254000Y-118629000D02*
X188254000Y-116979000D01*
X188254000Y-122279000D02*
X188254000Y-120629000D01*
X162734000Y-122279000D02*
X188254000Y-122279000D01*
X188254000Y-118629000D02*
G75*
G03*
X188254000Y-120629000I0J-1000000D01*
G01*
%TO.C,D1*%
X153176000Y-131603000D02*
X153332000Y-131603000D01*
X155492000Y-131603000D02*
X155648000Y-131603000D01*
X153333392Y-128370666D02*
G75*
G03*
X153176485Y-131602999I1078608J-1672334D01*
G01*
X153332164Y-129001871D02*
G75*
G03*
X153332001Y-131083960I1079836J-1041129D01*
G01*
X155491999Y-131083960D02*
G75*
G03*
X155491836Y-129001871I-1079999J1040960D01*
G01*
X155647515Y-131602999D02*
G75*
G03*
X155490608Y-128370666I-1235515J1559999D01*
G01*
%TO.C,U5*%
X129460000Y-105515000D02*
X149900000Y-105515000D01*
X149900000Y-105515000D02*
X149900000Y-100215000D01*
X129460000Y-103865000D02*
X129460000Y-105515000D01*
X129460000Y-100215000D02*
X129460000Y-101865000D01*
X149900000Y-100215000D02*
X129460000Y-100215000D01*
X129460000Y-103865000D02*
G75*
G03*
X129460000Y-101865000I0J1000000D01*
G01*
%TO.C,C2*%
X123603000Y-122705600D02*
X123603000Y-123105600D01*
X123803000Y-122905600D02*
X123403000Y-122905600D01*
X124488000Y-124975401D02*
X120328000Y-124975401D01*
X124488000Y-125015401D02*
X120328000Y-125015401D01*
X124487000Y-125055401D02*
X120329000Y-125055401D01*
X124485000Y-125095401D02*
X120331000Y-125095401D01*
X124482000Y-125135401D02*
X120334000Y-125135401D01*
X124479000Y-125175401D02*
X123248000Y-125175401D01*
X121568000Y-125175401D02*
X120337000Y-125175401D01*
X124475000Y-125215401D02*
X123248000Y-125215401D01*
X121568000Y-125215401D02*
X120341000Y-125215401D01*
X124470000Y-125255401D02*
X123248000Y-125255401D01*
X121568000Y-125255401D02*
X120346000Y-125255401D01*
X124464000Y-125295401D02*
X123248000Y-125295401D01*
X121568000Y-125295401D02*
X120352000Y-125295401D01*
X124458000Y-125335401D02*
X123248000Y-125335401D01*
X121568000Y-125335401D02*
X120358000Y-125335401D01*
X124450000Y-125375401D02*
X123248000Y-125375401D01*
X121568000Y-125375401D02*
X120366000Y-125375401D01*
X124442000Y-125415401D02*
X123248000Y-125415401D01*
X121568000Y-125415401D02*
X120374000Y-125415401D01*
X124433000Y-125455401D02*
X123248000Y-125455401D01*
X121568000Y-125455401D02*
X120383000Y-125455401D01*
X124424000Y-125495401D02*
X123248000Y-125495401D01*
X121568000Y-125495401D02*
X120392000Y-125495401D01*
X124413000Y-125535401D02*
X123248000Y-125535401D01*
X121568000Y-125535401D02*
X120403000Y-125535401D01*
X124402000Y-125575401D02*
X123248000Y-125575401D01*
X121568000Y-125575401D02*
X120414000Y-125575401D01*
X124390000Y-125615401D02*
X123248000Y-125615401D01*
X121568000Y-125615401D02*
X120426000Y-125615401D01*
X124376000Y-125655401D02*
X123248000Y-125655401D01*
X121568000Y-125655401D02*
X120440000Y-125655401D01*
X124362000Y-125696401D02*
X123248000Y-125696401D01*
X121568000Y-125696401D02*
X120454000Y-125696401D01*
X124348000Y-125736401D02*
X123248000Y-125736401D01*
X121568000Y-125736401D02*
X120468000Y-125736401D01*
X124332000Y-125776401D02*
X123248000Y-125776401D01*
X121568000Y-125776401D02*
X120484000Y-125776401D01*
X124315000Y-125816401D02*
X123248000Y-125816401D01*
X121568000Y-125816401D02*
X120501000Y-125816401D01*
X124297000Y-125856401D02*
X123248000Y-125856401D01*
X121568000Y-125856401D02*
X120519000Y-125856401D01*
X124278000Y-125896401D02*
X123248000Y-125896401D01*
X121568000Y-125896401D02*
X120538000Y-125896401D01*
X124259000Y-125936401D02*
X123248000Y-125936401D01*
X121568000Y-125936401D02*
X120557000Y-125936401D01*
X124238000Y-125976401D02*
X123248000Y-125976401D01*
X121568000Y-125976401D02*
X120578000Y-125976401D01*
X124216000Y-126016401D02*
X123248000Y-126016401D01*
X121568000Y-126016401D02*
X120600000Y-126016401D01*
X124193000Y-126056401D02*
X123248000Y-126056401D01*
X121568000Y-126056401D02*
X120623000Y-126056401D01*
X124168000Y-126096401D02*
X123248000Y-126096401D01*
X121568000Y-126096401D02*
X120648000Y-126096401D01*
X124143000Y-126136401D02*
X123248000Y-126136401D01*
X121568000Y-126136401D02*
X120673000Y-126136401D01*
X124116000Y-126176401D02*
X123248000Y-126176401D01*
X121568000Y-126176401D02*
X120700000Y-126176401D01*
X124088000Y-126216401D02*
X123248000Y-126216401D01*
X121568000Y-126216401D02*
X120728000Y-126216401D01*
X124058000Y-126256401D02*
X123248000Y-126256401D01*
X121568000Y-126256401D02*
X120758000Y-126256401D01*
X124027000Y-126296401D02*
X123248000Y-126296401D01*
X121568000Y-126296401D02*
X120789000Y-126296401D01*
X123995000Y-126336401D02*
X123248000Y-126336401D01*
X121568000Y-126336401D02*
X120821000Y-126336401D01*
X123960000Y-126376401D02*
X123248000Y-126376401D01*
X121568000Y-126376401D02*
X120856000Y-126376401D01*
X123924000Y-126416401D02*
X123248000Y-126416401D01*
X121568000Y-126416401D02*
X120892000Y-126416401D01*
X123886000Y-126456401D02*
X123248000Y-126456401D01*
X121568000Y-126456401D02*
X120930000Y-126456401D01*
X123846000Y-126496401D02*
X123248000Y-126496401D01*
X121568000Y-126496401D02*
X120970000Y-126496401D01*
X123804000Y-126536401D02*
X123248000Y-126536401D01*
X121568000Y-126536401D02*
X121012000Y-126536401D01*
X123759000Y-126576401D02*
X123248000Y-126576401D01*
X121568000Y-126576401D02*
X121057000Y-126576401D01*
X123712000Y-126616401D02*
X123248000Y-126616401D01*
X121568000Y-126616401D02*
X121104000Y-126616401D01*
X123662000Y-126656401D02*
X123248000Y-126656401D01*
X121568000Y-126656401D02*
X121154000Y-126656401D01*
X123608000Y-126696401D02*
X123248000Y-126696401D01*
X121568000Y-126696401D02*
X121208000Y-126696401D01*
X123550000Y-126736401D02*
X123248000Y-126736401D01*
X121568000Y-126736401D02*
X121266000Y-126736401D01*
X123488000Y-126776401D02*
X123248000Y-126776401D01*
X121568000Y-126776401D02*
X121328000Y-126776401D01*
X123421000Y-126816401D02*
X121395000Y-126816401D01*
X123348000Y-126856401D02*
X121468000Y-126856401D01*
X123267000Y-126896401D02*
X121549000Y-126896401D01*
X123176000Y-126936401D02*
X121640000Y-126936401D01*
X123072000Y-126976401D02*
X121744000Y-126976401D01*
X122945000Y-127016401D02*
X121871000Y-127016401D01*
X122778000Y-127056401D02*
X122038000Y-127056401D01*
X124528000Y-124975401D02*
G75*
G03*
X124528000Y-124975401I-2120000J0D01*
G01*
%TO.C,C9*%
X192874000Y-119876000D02*
G75*
G03*
X192874000Y-119876000I-2120000J0D01*
G01*
%TO.C,R2*%
X117812000Y-130536000D02*
X117122000Y-130536000D01*
X117122000Y-132256000D02*
X117122000Y-128816000D01*
X117122000Y-128816000D02*
X107882000Y-128816000D01*
X107882000Y-132256000D02*
X117122000Y-132256000D01*
X107882000Y-128816000D02*
X107882000Y-132256000D01*
X107192000Y-130536000D02*
X107882000Y-130536000D01*
%TO.C,U2*%
X181302000Y-43138000D02*
X181302000Y-78818000D01*
X181302000Y-78818000D02*
X194222000Y-78818000D01*
X186762000Y-43138000D02*
X181302000Y-43138000D01*
X194222000Y-43138000D02*
X188762000Y-43138000D01*
X194222000Y-78818000D02*
X194222000Y-43138000D01*
X186762000Y-43138000D02*
G75*
G03*
X188762000Y-43138000I1000000J0D01*
G01*
%TO.C,D6*%
X182386000Y-131603000D02*
X182542000Y-131603000D01*
X184702000Y-131603000D02*
X184858000Y-131603000D01*
X182543392Y-128370666D02*
G75*
G03*
X182386485Y-131602999I1078608J-1672334D01*
G01*
X182542164Y-129001871D02*
G75*
G03*
X182542001Y-131083960I1079836J-1041129D01*
G01*
X184701999Y-131083960D02*
G75*
G03*
X184701836Y-129001871I-1079999J1040960D01*
G01*
X184857515Y-131602999D02*
G75*
G03*
X184700608Y-128370666I-1235515J1559999D01*
G01*
%TO.C,C6*%
X192620000Y-98552000D02*
G75*
G03*
X192620000Y-98552000I-2120000J0D01*
G01*
%TO.C,C10*%
X190080000Y-39866000D02*
G75*
G03*
X190080000Y-39866000I-2120000J0D01*
G01*
%TO.C,C8*%
X114368000Y-97536000D02*
G75*
G03*
X114368000Y-97536000I-2120000J0D01*
G01*
%TO.C,D5*%
X176544000Y-131603000D02*
X176700000Y-131603000D01*
X178860000Y-131603000D02*
X179016000Y-131603000D01*
X176701392Y-128370666D02*
G75*
G03*
X176544485Y-131602999I1078608J-1672334D01*
G01*
X176700164Y-129001871D02*
G75*
G03*
X176700001Y-131083960I1079836J-1041129D01*
G01*
X178859999Y-131083960D02*
G75*
G03*
X178859836Y-129001871I-1079999J1040960D01*
G01*
X179015515Y-131602999D02*
G75*
G03*
X178858608Y-128370666I-1235515J1559999D01*
G01*
%TO.C,D4*%
X170702000Y-131603000D02*
X170858000Y-131603000D01*
X173018000Y-131603000D02*
X173174000Y-131603000D01*
X170859392Y-128370666D02*
G75*
G03*
X170702485Y-131602999I1078608J-1672334D01*
G01*
X170858164Y-129001871D02*
G75*
G03*
X170858001Y-131083960I1079836J-1041129D01*
G01*
X173017999Y-131083960D02*
G75*
G03*
X173017836Y-129001871I-1079999J1040960D01*
G01*
X173173515Y-131602999D02*
G75*
G03*
X173016608Y-128370666I-1235515J1559999D01*
G01*
%TD*%
%LPC*%
D12*
%TO.C,C4*%
X129254000Y-93467000D03*
X127754000Y-93467000D03*
%TD*%
D13*
%TO.C,D8*%
X195306000Y-131059000D03*
D14*
X195306000Y-128519000D03*
%TD*%
D13*
%TO.C,D7*%
X189464000Y-131059000D03*
D14*
X189464000Y-128519000D03*
%TD*%
D15*
%TO.C,R4*%
X102850000Y-113787000D03*
D16*
X102850000Y-101087000D03*
%TD*%
D13*
%TO.C,D3*%
X166096000Y-131313000D03*
D14*
X166096000Y-128773000D03*
%TD*%
D17*
%TO.C,J1*%
X104914000Y-43183000D03*
D18*
X104914000Y-45203000D03*
D19*
X104914000Y-46433000D03*
D20*
X104914000Y-44183000D03*
D21*
X104914000Y-42163000D03*
D22*
X104914000Y-40933000D03*
D23*
X104834000Y-39363000D03*
X101034000Y-39363000D03*
X104834000Y-48003000D03*
X101034000Y-48003000D03*
%TD*%
D24*
%TO.C,U1*%
X121158000Y-40132000D03*
D25*
X121158000Y-42672000D03*
X121158000Y-45212000D03*
X121158000Y-47752000D03*
X121158000Y-50292000D03*
X121158000Y-52832000D03*
X121158000Y-55372000D03*
X121158000Y-57912000D03*
X121158000Y-60452000D03*
X121158000Y-62992000D03*
X121158000Y-65532000D03*
X121158000Y-68072000D03*
X121158000Y-70612000D03*
X121158000Y-73152000D03*
X121158000Y-75692000D03*
X121158000Y-78232000D03*
X121158000Y-80772000D03*
X121158000Y-83312000D03*
X121158000Y-85852000D03*
X121158000Y-88392000D03*
X136398000Y-88392000D03*
X136398000Y-85852000D03*
X136398000Y-83312000D03*
X136398000Y-80772000D03*
X136398000Y-78232000D03*
X136398000Y-75692000D03*
X136398000Y-73152000D03*
X136398000Y-70612000D03*
X136398000Y-68072000D03*
X136398000Y-65532000D03*
X136398000Y-62992000D03*
X136398000Y-60452000D03*
X136398000Y-57912000D03*
X136398000Y-55372000D03*
X136398000Y-52832000D03*
X136398000Y-50292000D03*
X136398000Y-47752000D03*
X136398000Y-45212000D03*
X136398000Y-42672000D03*
X136398000Y-40132000D03*
%TD*%
D26*
%TO.C,U4*%
X108438000Y-101849000D03*
D16*
X108438000Y-104389000D03*
X108438000Y-106929000D03*
X108438000Y-109469000D03*
X108438000Y-112009000D03*
X108438000Y-114549000D03*
X108438000Y-117089000D03*
X116058000Y-117089000D03*
X116058000Y-114549000D03*
X116058000Y-112009000D03*
X116058000Y-109469000D03*
X116058000Y-106929000D03*
X116058000Y-104389000D03*
X116058000Y-101849000D03*
%TD*%
D12*
%TO.C,C5*%
X139424000Y-113787000D03*
X137924000Y-113787000D03*
%TD*%
D27*
%TO.C,C1*%
X102596000Y-123975401D03*
D12*
X102596000Y-125975401D03*
%TD*%
%TO.C,C11*%
X161798000Y-39128000D03*
X161798000Y-40628000D03*
%TD*%
D28*
%TO.C,J2*%
X196576000Y-91181000D03*
D29*
X196576000Y-89911000D03*
X196576000Y-88641000D03*
X196576000Y-87371000D03*
%TD*%
D30*
%TO.C,Y1*%
X114952000Y-124440000D03*
X110052000Y-124440000D03*
%TD*%
D24*
%TO.C,U3*%
X154142000Y-44388000D03*
D25*
X154142000Y-46928000D03*
X154142000Y-49468000D03*
X154142000Y-52008000D03*
X154142000Y-54548000D03*
X154142000Y-57088000D03*
X154142000Y-59628000D03*
X154142000Y-62168000D03*
X154142000Y-64708000D03*
X154142000Y-67248000D03*
X154142000Y-69788000D03*
X154142000Y-72328000D03*
X154142000Y-74868000D03*
X154142000Y-77408000D03*
X169382000Y-77408000D03*
X169382000Y-74868000D03*
X169382000Y-72328000D03*
X169382000Y-69788000D03*
X169382000Y-67248000D03*
X169382000Y-64708000D03*
X169382000Y-62168000D03*
X169382000Y-59628000D03*
X169382000Y-57088000D03*
X169382000Y-54548000D03*
X169382000Y-52008000D03*
X169382000Y-49468000D03*
X169382000Y-46928000D03*
X169382000Y-44388000D03*
%TD*%
D13*
%TO.C,D2*%
X160254000Y-131313000D03*
D14*
X160254000Y-128773000D03*
%TD*%
D26*
%TO.C,U8*%
X135118000Y-118359000D03*
D16*
X135118000Y-120899000D03*
X135118000Y-123439000D03*
X135118000Y-125979000D03*
X135118000Y-128519000D03*
X135118000Y-131059000D03*
X135118000Y-133599000D03*
X142738000Y-133599000D03*
X142738000Y-131059000D03*
X142738000Y-128519000D03*
X142738000Y-125979000D03*
X142738000Y-123439000D03*
X142738000Y-120899000D03*
X142738000Y-118359000D03*
%TD*%
D15*
%TO.C,R1*%
X106152000Y-134854000D03*
D16*
X118852000Y-134854000D03*
%TD*%
D26*
%TO.C,RN1*%
X189464000Y-135377000D03*
D16*
X186924000Y-135377000D03*
X184384000Y-135377000D03*
X181844000Y-135377000D03*
X179304000Y-135377000D03*
X176764000Y-135377000D03*
X174224000Y-135377000D03*
X171684000Y-135377000D03*
X169144000Y-135377000D03*
%TD*%
D27*
%TO.C,C3*%
X111760000Y-42164000D03*
D12*
X111760000Y-43664000D03*
%TD*%
%TO.C,C7*%
X126218000Y-102115000D03*
X126218000Y-103615000D03*
%TD*%
D26*
%TO.C,U6*%
X186416000Y-90673000D03*
D16*
X183876000Y-90673000D03*
X181336000Y-90673000D03*
X178796000Y-90673000D03*
X176256000Y-90673000D03*
X173716000Y-90673000D03*
X171176000Y-90673000D03*
X168636000Y-90673000D03*
X166096000Y-90673000D03*
X163556000Y-90673000D03*
X161016000Y-90673000D03*
X158476000Y-90673000D03*
X158476000Y-105913000D03*
X161016000Y-105913000D03*
X163556000Y-105913000D03*
X166096000Y-105913000D03*
X168636000Y-105913000D03*
X171176000Y-105913000D03*
X173716000Y-105913000D03*
X176256000Y-105913000D03*
X178796000Y-105913000D03*
X181336000Y-105913000D03*
X183876000Y-105913000D03*
X186416000Y-105913000D03*
%TD*%
D26*
%TO.C,U7*%
X186924000Y-115819000D03*
D16*
X184384000Y-115819000D03*
X181844000Y-115819000D03*
X179304000Y-115819000D03*
X176764000Y-115819000D03*
X174224000Y-115819000D03*
X171684000Y-115819000D03*
X169144000Y-115819000D03*
X166604000Y-115819000D03*
X164064000Y-115819000D03*
X164064000Y-123439000D03*
X166604000Y-123439000D03*
X169144000Y-123439000D03*
X171684000Y-123439000D03*
X174224000Y-123439000D03*
X176764000Y-123439000D03*
X179304000Y-123439000D03*
X181844000Y-123439000D03*
X184384000Y-123439000D03*
X186924000Y-123439000D03*
%TD*%
D13*
%TO.C,D1*%
X154412000Y-131313000D03*
D14*
X154412000Y-128773000D03*
%TD*%
D26*
%TO.C,U5*%
X130790000Y-106675000D03*
D16*
X133330000Y-106675000D03*
X135870000Y-106675000D03*
X138410000Y-106675000D03*
X140950000Y-106675000D03*
X143490000Y-106675000D03*
X146030000Y-106675000D03*
X148570000Y-106675000D03*
X148570000Y-99055000D03*
X146030000Y-99055000D03*
X143490000Y-99055000D03*
X140950000Y-99055000D03*
X138410000Y-99055000D03*
X135870000Y-99055000D03*
X133330000Y-99055000D03*
X130790000Y-99055000D03*
%TD*%
D27*
%TO.C,C2*%
X122408000Y-123975401D03*
D12*
X122408000Y-125975401D03*
%TD*%
%TO.C,C9*%
X190754000Y-119126000D03*
X190754000Y-120626000D03*
%TD*%
D15*
%TO.C,R2*%
X118852000Y-130536000D03*
D16*
X106152000Y-130536000D03*
%TD*%
D26*
%TO.C,U2*%
X180142000Y-44468000D03*
D16*
X180142000Y-47008000D03*
X180142000Y-49548000D03*
X180142000Y-52088000D03*
X180142000Y-54628000D03*
X180142000Y-57168000D03*
X180142000Y-59708000D03*
X180142000Y-62248000D03*
X180142000Y-64788000D03*
X180142000Y-67328000D03*
X180142000Y-69868000D03*
X180142000Y-72408000D03*
X180142000Y-74948000D03*
X180142000Y-77488000D03*
X195382000Y-77488000D03*
X195382000Y-74948000D03*
X195382000Y-72408000D03*
X195382000Y-69868000D03*
X195382000Y-67328000D03*
X195382000Y-64788000D03*
X195382000Y-62248000D03*
X195382000Y-59708000D03*
X195382000Y-57168000D03*
X195382000Y-54628000D03*
X195382000Y-52088000D03*
X195382000Y-49548000D03*
X195382000Y-47008000D03*
X195382000Y-44468000D03*
%TD*%
D13*
%TO.C,D6*%
X183622000Y-131313000D03*
D14*
X183622000Y-128773000D03*
%TD*%
D12*
%TO.C,C6*%
X190500000Y-97802000D03*
X190500000Y-99302000D03*
%TD*%
%TO.C,C10*%
X187960000Y-39116000D03*
X187960000Y-40616000D03*
%TD*%
%TO.C,C8*%
X112998000Y-97536000D03*
X111498000Y-97536000D03*
%TD*%
D13*
%TO.C,D5*%
X177780000Y-131313000D03*
D14*
X177780000Y-128773000D03*
%TD*%
D13*
%TO.C,D4*%
X171938000Y-131313000D03*
D14*
X171938000Y-128773000D03*
%TD*%
%LPD*%
M02*
