%TF.GenerationSoftware,KiCad,Pcbnew,7.0.8*%
%TF.CreationDate,2023-10-09T18:20:10+02:00*%
%TF.ProjectId,Z80_SBC,5a38305f-5342-4432-9e6b-696361645f70,rev?*%
%TF.SameCoordinates,Original*%
%TF.FileFunction,Legend,Bot*%
%TF.FilePolarity,Positive*%
%FSLAX46Y46*%
G04 Gerber Fmt 4.6, Leading zero omitted, Abs format (unit mm)*
G04 Created by KiCad (PCBNEW 7.0.8) date 2023-10-09 18:20:10*
%MOMM*%
%LPD*%
G01*
G04 APERTURE LIST*
%ADD10C,0.150000*%
%ADD11R,1.800000X1.800000*%
%ADD12C,1.800000*%
%ADD13C,1.600000*%
%ADD14O,1.600000X1.600000*%
%ADD15O,1.700000X1.100000*%
%ADD16C,1.200000*%
%ADD17R,2.400000X1.600000*%
%ADD18O,2.400000X1.600000*%
%ADD19R,1.600000X1.600000*%
%ADD20R,1.200000X1.200000*%
%ADD21R,1.000000X1.000000*%
%ADD22O,1.000000X1.000000*%
%ADD23C,1.500000*%
%ADD24C,2.000000*%
G04 APERTURE END LIST*
D10*
X183400458Y-97671819D02*
X182733792Y-97671819D01*
X182733792Y-97671819D02*
X183400458Y-98671819D01*
X183400458Y-98671819D02*
X182733792Y-98671819D01*
X182209982Y-98100390D02*
X182305220Y-98052771D01*
X182305220Y-98052771D02*
X182352839Y-98005152D01*
X182352839Y-98005152D02*
X182400458Y-97909914D01*
X182400458Y-97909914D02*
X182400458Y-97862295D01*
X182400458Y-97862295D02*
X182352839Y-97767057D01*
X182352839Y-97767057D02*
X182305220Y-97719438D01*
X182305220Y-97719438D02*
X182209982Y-97671819D01*
X182209982Y-97671819D02*
X182019506Y-97671819D01*
X182019506Y-97671819D02*
X181924268Y-97719438D01*
X181924268Y-97719438D02*
X181876649Y-97767057D01*
X181876649Y-97767057D02*
X181829030Y-97862295D01*
X181829030Y-97862295D02*
X181829030Y-97909914D01*
X181829030Y-97909914D02*
X181876649Y-98005152D01*
X181876649Y-98005152D02*
X181924268Y-98052771D01*
X181924268Y-98052771D02*
X182019506Y-98100390D01*
X182019506Y-98100390D02*
X182209982Y-98100390D01*
X182209982Y-98100390D02*
X182305220Y-98148009D01*
X182305220Y-98148009D02*
X182352839Y-98195628D01*
X182352839Y-98195628D02*
X182400458Y-98290866D01*
X182400458Y-98290866D02*
X182400458Y-98481342D01*
X182400458Y-98481342D02*
X182352839Y-98576580D01*
X182352839Y-98576580D02*
X182305220Y-98624200D01*
X182305220Y-98624200D02*
X182209982Y-98671819D01*
X182209982Y-98671819D02*
X182019506Y-98671819D01*
X182019506Y-98671819D02*
X181924268Y-98624200D01*
X181924268Y-98624200D02*
X181876649Y-98576580D01*
X181876649Y-98576580D02*
X181829030Y-98481342D01*
X181829030Y-98481342D02*
X181829030Y-98290866D01*
X181829030Y-98290866D02*
X181876649Y-98195628D01*
X181876649Y-98195628D02*
X181924268Y-98148009D01*
X181924268Y-98148009D02*
X182019506Y-98100390D01*
X181209982Y-97671819D02*
X181114744Y-97671819D01*
X181114744Y-97671819D02*
X181019506Y-97719438D01*
X181019506Y-97719438D02*
X180971887Y-97767057D01*
X180971887Y-97767057D02*
X180924268Y-97862295D01*
X180924268Y-97862295D02*
X180876649Y-98052771D01*
X180876649Y-98052771D02*
X180876649Y-98290866D01*
X180876649Y-98290866D02*
X180924268Y-98481342D01*
X180924268Y-98481342D02*
X180971887Y-98576580D01*
X180971887Y-98576580D02*
X181019506Y-98624200D01*
X181019506Y-98624200D02*
X181114744Y-98671819D01*
X181114744Y-98671819D02*
X181209982Y-98671819D01*
X181209982Y-98671819D02*
X181305220Y-98624200D01*
X181305220Y-98624200D02*
X181352839Y-98576580D01*
X181352839Y-98576580D02*
X181400458Y-98481342D01*
X181400458Y-98481342D02*
X181448077Y-98290866D01*
X181448077Y-98290866D02*
X181448077Y-98052771D01*
X181448077Y-98052771D02*
X181400458Y-97862295D01*
X181400458Y-97862295D02*
X181352839Y-97767057D01*
X181352839Y-97767057D02*
X181305220Y-97719438D01*
X181305220Y-97719438D02*
X181209982Y-97671819D01*
X179733791Y-98624200D02*
X179590934Y-98671819D01*
X179590934Y-98671819D02*
X179352839Y-98671819D01*
X179352839Y-98671819D02*
X179257601Y-98624200D01*
X179257601Y-98624200D02*
X179209982Y-98576580D01*
X179209982Y-98576580D02*
X179162363Y-98481342D01*
X179162363Y-98481342D02*
X179162363Y-98386104D01*
X179162363Y-98386104D02*
X179209982Y-98290866D01*
X179209982Y-98290866D02*
X179257601Y-98243247D01*
X179257601Y-98243247D02*
X179352839Y-98195628D01*
X179352839Y-98195628D02*
X179543315Y-98148009D01*
X179543315Y-98148009D02*
X179638553Y-98100390D01*
X179638553Y-98100390D02*
X179686172Y-98052771D01*
X179686172Y-98052771D02*
X179733791Y-97957533D01*
X179733791Y-97957533D02*
X179733791Y-97862295D01*
X179733791Y-97862295D02*
X179686172Y-97767057D01*
X179686172Y-97767057D02*
X179638553Y-97719438D01*
X179638553Y-97719438D02*
X179543315Y-97671819D01*
X179543315Y-97671819D02*
X179305220Y-97671819D01*
X179305220Y-97671819D02*
X179162363Y-97719438D01*
X178733791Y-98671819D02*
X178733791Y-98005152D01*
X178733791Y-97671819D02*
X178781410Y-97719438D01*
X178781410Y-97719438D02*
X178733791Y-97767057D01*
X178733791Y-97767057D02*
X178686172Y-97719438D01*
X178686172Y-97719438D02*
X178733791Y-97671819D01*
X178733791Y-97671819D02*
X178733791Y-97767057D01*
X178257601Y-98005152D02*
X178257601Y-98671819D01*
X178257601Y-98100390D02*
X178209982Y-98052771D01*
X178209982Y-98052771D02*
X178114744Y-98005152D01*
X178114744Y-98005152D02*
X177971887Y-98005152D01*
X177971887Y-98005152D02*
X177876649Y-98052771D01*
X177876649Y-98052771D02*
X177829030Y-98148009D01*
X177829030Y-98148009D02*
X177829030Y-98671819D01*
X176924268Y-98005152D02*
X176924268Y-98814676D01*
X176924268Y-98814676D02*
X176971887Y-98909914D01*
X176971887Y-98909914D02*
X177019506Y-98957533D01*
X177019506Y-98957533D02*
X177114744Y-99005152D01*
X177114744Y-99005152D02*
X177257601Y-99005152D01*
X177257601Y-99005152D02*
X177352839Y-98957533D01*
X176924268Y-98624200D02*
X177019506Y-98671819D01*
X177019506Y-98671819D02*
X177209982Y-98671819D01*
X177209982Y-98671819D02*
X177305220Y-98624200D01*
X177305220Y-98624200D02*
X177352839Y-98576580D01*
X177352839Y-98576580D02*
X177400458Y-98481342D01*
X177400458Y-98481342D02*
X177400458Y-98195628D01*
X177400458Y-98195628D02*
X177352839Y-98100390D01*
X177352839Y-98100390D02*
X177305220Y-98052771D01*
X177305220Y-98052771D02*
X177209982Y-98005152D01*
X177209982Y-98005152D02*
X177019506Y-98005152D01*
X177019506Y-98005152D02*
X176924268Y-98052771D01*
X176305220Y-98671819D02*
X176400458Y-98624200D01*
X176400458Y-98624200D02*
X176448077Y-98528961D01*
X176448077Y-98528961D02*
X176448077Y-97671819D01*
X175543315Y-98624200D02*
X175638553Y-98671819D01*
X175638553Y-98671819D02*
X175829029Y-98671819D01*
X175829029Y-98671819D02*
X175924267Y-98624200D01*
X175924267Y-98624200D02*
X175971886Y-98528961D01*
X175971886Y-98528961D02*
X175971886Y-98148009D01*
X175971886Y-98148009D02*
X175924267Y-98052771D01*
X175924267Y-98052771D02*
X175829029Y-98005152D01*
X175829029Y-98005152D02*
X175638553Y-98005152D01*
X175638553Y-98005152D02*
X175543315Y-98052771D01*
X175543315Y-98052771D02*
X175495696Y-98148009D01*
X175495696Y-98148009D02*
X175495696Y-98243247D01*
X175495696Y-98243247D02*
X175971886Y-98338485D01*
X173971886Y-98148009D02*
X173829029Y-98195628D01*
X173829029Y-98195628D02*
X173781410Y-98243247D01*
X173781410Y-98243247D02*
X173733791Y-98338485D01*
X173733791Y-98338485D02*
X173733791Y-98481342D01*
X173733791Y-98481342D02*
X173781410Y-98576580D01*
X173781410Y-98576580D02*
X173829029Y-98624200D01*
X173829029Y-98624200D02*
X173924267Y-98671819D01*
X173924267Y-98671819D02*
X174305219Y-98671819D01*
X174305219Y-98671819D02*
X174305219Y-97671819D01*
X174305219Y-97671819D02*
X173971886Y-97671819D01*
X173971886Y-97671819D02*
X173876648Y-97719438D01*
X173876648Y-97719438D02*
X173829029Y-97767057D01*
X173829029Y-97767057D02*
X173781410Y-97862295D01*
X173781410Y-97862295D02*
X173781410Y-97957533D01*
X173781410Y-97957533D02*
X173829029Y-98052771D01*
X173829029Y-98052771D02*
X173876648Y-98100390D01*
X173876648Y-98100390D02*
X173971886Y-98148009D01*
X173971886Y-98148009D02*
X174305219Y-98148009D01*
X173162362Y-98671819D02*
X173257600Y-98624200D01*
X173257600Y-98624200D02*
X173305219Y-98576580D01*
X173305219Y-98576580D02*
X173352838Y-98481342D01*
X173352838Y-98481342D02*
X173352838Y-98195628D01*
X173352838Y-98195628D02*
X173305219Y-98100390D01*
X173305219Y-98100390D02*
X173257600Y-98052771D01*
X173257600Y-98052771D02*
X173162362Y-98005152D01*
X173162362Y-98005152D02*
X173019505Y-98005152D01*
X173019505Y-98005152D02*
X172924267Y-98052771D01*
X172924267Y-98052771D02*
X172876648Y-98100390D01*
X172876648Y-98100390D02*
X172829029Y-98195628D01*
X172829029Y-98195628D02*
X172829029Y-98481342D01*
X172829029Y-98481342D02*
X172876648Y-98576580D01*
X172876648Y-98576580D02*
X172924267Y-98624200D01*
X172924267Y-98624200D02*
X173019505Y-98671819D01*
X173019505Y-98671819D02*
X173162362Y-98671819D01*
X171971886Y-98671819D02*
X171971886Y-98148009D01*
X171971886Y-98148009D02*
X172019505Y-98052771D01*
X172019505Y-98052771D02*
X172114743Y-98005152D01*
X172114743Y-98005152D02*
X172305219Y-98005152D01*
X172305219Y-98005152D02*
X172400457Y-98052771D01*
X171971886Y-98624200D02*
X172067124Y-98671819D01*
X172067124Y-98671819D02*
X172305219Y-98671819D01*
X172305219Y-98671819D02*
X172400457Y-98624200D01*
X172400457Y-98624200D02*
X172448076Y-98528961D01*
X172448076Y-98528961D02*
X172448076Y-98433723D01*
X172448076Y-98433723D02*
X172400457Y-98338485D01*
X172400457Y-98338485D02*
X172305219Y-98290866D01*
X172305219Y-98290866D02*
X172067124Y-98290866D01*
X172067124Y-98290866D02*
X171971886Y-98243247D01*
X171495695Y-98671819D02*
X171495695Y-98005152D01*
X171495695Y-98195628D02*
X171448076Y-98100390D01*
X171448076Y-98100390D02*
X171400457Y-98052771D01*
X171400457Y-98052771D02*
X171305219Y-98005152D01*
X171305219Y-98005152D02*
X171209981Y-98005152D01*
X170448076Y-98671819D02*
X170448076Y-97671819D01*
X170448076Y-98624200D02*
X170543314Y-98671819D01*
X170543314Y-98671819D02*
X170733790Y-98671819D01*
X170733790Y-98671819D02*
X170829028Y-98624200D01*
X170829028Y-98624200D02*
X170876647Y-98576580D01*
X170876647Y-98576580D02*
X170924266Y-98481342D01*
X170924266Y-98481342D02*
X170924266Y-98195628D01*
X170924266Y-98195628D02*
X170876647Y-98100390D01*
X170876647Y-98100390D02*
X170829028Y-98052771D01*
X170829028Y-98052771D02*
X170733790Y-98005152D01*
X170733790Y-98005152D02*
X170543314Y-98005152D01*
X170543314Y-98005152D02*
X170448076Y-98052771D01*
X168638552Y-98576580D02*
X168686171Y-98624200D01*
X168686171Y-98624200D02*
X168829028Y-98671819D01*
X168829028Y-98671819D02*
X168924266Y-98671819D01*
X168924266Y-98671819D02*
X169067123Y-98624200D01*
X169067123Y-98624200D02*
X169162361Y-98528961D01*
X169162361Y-98528961D02*
X169209980Y-98433723D01*
X169209980Y-98433723D02*
X169257599Y-98243247D01*
X169257599Y-98243247D02*
X169257599Y-98100390D01*
X169257599Y-98100390D02*
X169209980Y-97909914D01*
X169209980Y-97909914D02*
X169162361Y-97814676D01*
X169162361Y-97814676D02*
X169067123Y-97719438D01*
X169067123Y-97719438D02*
X168924266Y-97671819D01*
X168924266Y-97671819D02*
X168829028Y-97671819D01*
X168829028Y-97671819D02*
X168686171Y-97719438D01*
X168686171Y-97719438D02*
X168638552Y-97767057D01*
X168067123Y-98671819D02*
X168162361Y-98624200D01*
X168162361Y-98624200D02*
X168209980Y-98576580D01*
X168209980Y-98576580D02*
X168257599Y-98481342D01*
X168257599Y-98481342D02*
X168257599Y-98195628D01*
X168257599Y-98195628D02*
X168209980Y-98100390D01*
X168209980Y-98100390D02*
X168162361Y-98052771D01*
X168162361Y-98052771D02*
X168067123Y-98005152D01*
X168067123Y-98005152D02*
X167924266Y-98005152D01*
X167924266Y-98005152D02*
X167829028Y-98052771D01*
X167829028Y-98052771D02*
X167781409Y-98100390D01*
X167781409Y-98100390D02*
X167733790Y-98195628D01*
X167733790Y-98195628D02*
X167733790Y-98481342D01*
X167733790Y-98481342D02*
X167781409Y-98576580D01*
X167781409Y-98576580D02*
X167829028Y-98624200D01*
X167829028Y-98624200D02*
X167924266Y-98671819D01*
X167924266Y-98671819D02*
X168067123Y-98671819D01*
X167305218Y-98671819D02*
X167305218Y-98005152D01*
X167305218Y-98100390D02*
X167257599Y-98052771D01*
X167257599Y-98052771D02*
X167162361Y-98005152D01*
X167162361Y-98005152D02*
X167019504Y-98005152D01*
X167019504Y-98005152D02*
X166924266Y-98052771D01*
X166924266Y-98052771D02*
X166876647Y-98148009D01*
X166876647Y-98148009D02*
X166876647Y-98671819D01*
X166876647Y-98148009D02*
X166829028Y-98052771D01*
X166829028Y-98052771D02*
X166733790Y-98005152D01*
X166733790Y-98005152D02*
X166590933Y-98005152D01*
X166590933Y-98005152D02*
X166495694Y-98052771D01*
X166495694Y-98052771D02*
X166448075Y-98148009D01*
X166448075Y-98148009D02*
X166448075Y-98671819D01*
X165971885Y-98005152D02*
X165971885Y-99005152D01*
X165971885Y-98052771D02*
X165876647Y-98005152D01*
X165876647Y-98005152D02*
X165686171Y-98005152D01*
X165686171Y-98005152D02*
X165590933Y-98052771D01*
X165590933Y-98052771D02*
X165543314Y-98100390D01*
X165543314Y-98100390D02*
X165495695Y-98195628D01*
X165495695Y-98195628D02*
X165495695Y-98481342D01*
X165495695Y-98481342D02*
X165543314Y-98576580D01*
X165543314Y-98576580D02*
X165590933Y-98624200D01*
X165590933Y-98624200D02*
X165686171Y-98671819D01*
X165686171Y-98671819D02*
X165876647Y-98671819D01*
X165876647Y-98671819D02*
X165971885Y-98624200D01*
X164638552Y-98005152D02*
X164638552Y-98671819D01*
X165067123Y-98005152D02*
X165067123Y-98528961D01*
X165067123Y-98528961D02*
X165019504Y-98624200D01*
X165019504Y-98624200D02*
X164924266Y-98671819D01*
X164924266Y-98671819D02*
X164781409Y-98671819D01*
X164781409Y-98671819D02*
X164686171Y-98624200D01*
X164686171Y-98624200D02*
X164638552Y-98576580D01*
X164305218Y-98005152D02*
X163924266Y-98005152D01*
X164162361Y-97671819D02*
X164162361Y-98528961D01*
X164162361Y-98528961D02*
X164114742Y-98624200D01*
X164114742Y-98624200D02*
X164019504Y-98671819D01*
X164019504Y-98671819D02*
X163924266Y-98671819D01*
X163209980Y-98624200D02*
X163305218Y-98671819D01*
X163305218Y-98671819D02*
X163495694Y-98671819D01*
X163495694Y-98671819D02*
X163590932Y-98624200D01*
X163590932Y-98624200D02*
X163638551Y-98528961D01*
X163638551Y-98528961D02*
X163638551Y-98148009D01*
X163638551Y-98148009D02*
X163590932Y-98052771D01*
X163590932Y-98052771D02*
X163495694Y-98005152D01*
X163495694Y-98005152D02*
X163305218Y-98005152D01*
X163305218Y-98005152D02*
X163209980Y-98052771D01*
X163209980Y-98052771D02*
X163162361Y-98148009D01*
X163162361Y-98148009D02*
X163162361Y-98243247D01*
X163162361Y-98243247D02*
X163638551Y-98338485D01*
X162733789Y-98671819D02*
X162733789Y-98005152D01*
X162733789Y-98195628D02*
X162686170Y-98100390D01*
X162686170Y-98100390D02*
X162638551Y-98052771D01*
X162638551Y-98052771D02*
X162543313Y-98005152D01*
X162543313Y-98005152D02*
X162448075Y-98005152D01*
X183162363Y-99710390D02*
X183257601Y-99662771D01*
X183257601Y-99662771D02*
X183305220Y-99615152D01*
X183305220Y-99615152D02*
X183352839Y-99519914D01*
X183352839Y-99519914D02*
X183352839Y-99472295D01*
X183352839Y-99472295D02*
X183305220Y-99377057D01*
X183305220Y-99377057D02*
X183257601Y-99329438D01*
X183257601Y-99329438D02*
X183162363Y-99281819D01*
X183162363Y-99281819D02*
X182971887Y-99281819D01*
X182971887Y-99281819D02*
X182876649Y-99329438D01*
X182876649Y-99329438D02*
X182829030Y-99377057D01*
X182829030Y-99377057D02*
X182781411Y-99472295D01*
X182781411Y-99472295D02*
X182781411Y-99519914D01*
X182781411Y-99519914D02*
X182829030Y-99615152D01*
X182829030Y-99615152D02*
X182876649Y-99662771D01*
X182876649Y-99662771D02*
X182971887Y-99710390D01*
X182971887Y-99710390D02*
X183162363Y-99710390D01*
X183162363Y-99710390D02*
X183257601Y-99758009D01*
X183257601Y-99758009D02*
X183305220Y-99805628D01*
X183305220Y-99805628D02*
X183352839Y-99900866D01*
X183352839Y-99900866D02*
X183352839Y-100091342D01*
X183352839Y-100091342D02*
X183305220Y-100186580D01*
X183305220Y-100186580D02*
X183257601Y-100234200D01*
X183257601Y-100234200D02*
X183162363Y-100281819D01*
X183162363Y-100281819D02*
X182971887Y-100281819D01*
X182971887Y-100281819D02*
X182876649Y-100234200D01*
X182876649Y-100234200D02*
X182829030Y-100186580D01*
X182829030Y-100186580D02*
X182781411Y-100091342D01*
X182781411Y-100091342D02*
X182781411Y-99900866D01*
X182781411Y-99900866D02*
X182829030Y-99805628D01*
X182829030Y-99805628D02*
X182876649Y-99758009D01*
X182876649Y-99758009D02*
X182971887Y-99710390D01*
X182352839Y-100281819D02*
X182352839Y-99281819D01*
X181781411Y-100281819D02*
X182209982Y-99710390D01*
X181781411Y-99281819D02*
X182352839Y-99853247D01*
X180019506Y-100281819D02*
X180352839Y-99805628D01*
X180590934Y-100281819D02*
X180590934Y-99281819D01*
X180590934Y-99281819D02*
X180209982Y-99281819D01*
X180209982Y-99281819D02*
X180114744Y-99329438D01*
X180114744Y-99329438D02*
X180067125Y-99377057D01*
X180067125Y-99377057D02*
X180019506Y-99472295D01*
X180019506Y-99472295D02*
X180019506Y-99615152D01*
X180019506Y-99615152D02*
X180067125Y-99710390D01*
X180067125Y-99710390D02*
X180114744Y-99758009D01*
X180114744Y-99758009D02*
X180209982Y-99805628D01*
X180209982Y-99805628D02*
X180590934Y-99805628D01*
X179400458Y-99281819D02*
X179209982Y-99281819D01*
X179209982Y-99281819D02*
X179114744Y-99329438D01*
X179114744Y-99329438D02*
X179019506Y-99424676D01*
X179019506Y-99424676D02*
X178971887Y-99615152D01*
X178971887Y-99615152D02*
X178971887Y-99948485D01*
X178971887Y-99948485D02*
X179019506Y-100138961D01*
X179019506Y-100138961D02*
X179114744Y-100234200D01*
X179114744Y-100234200D02*
X179209982Y-100281819D01*
X179209982Y-100281819D02*
X179400458Y-100281819D01*
X179400458Y-100281819D02*
X179495696Y-100234200D01*
X179495696Y-100234200D02*
X179590934Y-100138961D01*
X179590934Y-100138961D02*
X179638553Y-99948485D01*
X179638553Y-99948485D02*
X179638553Y-99615152D01*
X179638553Y-99615152D02*
X179590934Y-99424676D01*
X179590934Y-99424676D02*
X179495696Y-99329438D01*
X179495696Y-99329438D02*
X179400458Y-99281819D01*
X178543315Y-100281819D02*
X178543315Y-99281819D01*
X178543315Y-99281819D02*
X178209982Y-99996104D01*
X178209982Y-99996104D02*
X177876649Y-99281819D01*
X177876649Y-99281819D02*
X177876649Y-100281819D01*
X176686173Y-99234200D02*
X177543315Y-100519914D01*
X176448077Y-99281819D02*
X175829030Y-99281819D01*
X175829030Y-99281819D02*
X176162363Y-99662771D01*
X176162363Y-99662771D02*
X176019506Y-99662771D01*
X176019506Y-99662771D02*
X175924268Y-99710390D01*
X175924268Y-99710390D02*
X175876649Y-99758009D01*
X175876649Y-99758009D02*
X175829030Y-99853247D01*
X175829030Y-99853247D02*
X175829030Y-100091342D01*
X175829030Y-100091342D02*
X175876649Y-100186580D01*
X175876649Y-100186580D02*
X175924268Y-100234200D01*
X175924268Y-100234200D02*
X176019506Y-100281819D01*
X176019506Y-100281819D02*
X176305220Y-100281819D01*
X176305220Y-100281819D02*
X176400458Y-100234200D01*
X176400458Y-100234200D02*
X176448077Y-100186580D01*
X175448077Y-99377057D02*
X175400458Y-99329438D01*
X175400458Y-99329438D02*
X175305220Y-99281819D01*
X175305220Y-99281819D02*
X175067125Y-99281819D01*
X175067125Y-99281819D02*
X174971887Y-99329438D01*
X174971887Y-99329438D02*
X174924268Y-99377057D01*
X174924268Y-99377057D02*
X174876649Y-99472295D01*
X174876649Y-99472295D02*
X174876649Y-99567533D01*
X174876649Y-99567533D02*
X174924268Y-99710390D01*
X174924268Y-99710390D02*
X175495696Y-100281819D01*
X175495696Y-100281819D02*
X174876649Y-100281819D01*
X174448077Y-100281819D02*
X174448077Y-99281819D01*
X173876649Y-100281819D02*
X174305220Y-99710390D01*
X173876649Y-99281819D02*
X174448077Y-99853247D01*
X172114744Y-100281819D02*
X172448077Y-99805628D01*
X172686172Y-100281819D02*
X172686172Y-99281819D01*
X172686172Y-99281819D02*
X172305220Y-99281819D01*
X172305220Y-99281819D02*
X172209982Y-99329438D01*
X172209982Y-99329438D02*
X172162363Y-99377057D01*
X172162363Y-99377057D02*
X172114744Y-99472295D01*
X172114744Y-99472295D02*
X172114744Y-99615152D01*
X172114744Y-99615152D02*
X172162363Y-99710390D01*
X172162363Y-99710390D02*
X172209982Y-99758009D01*
X172209982Y-99758009D02*
X172305220Y-99805628D01*
X172305220Y-99805628D02*
X172686172Y-99805628D01*
X171733791Y-99996104D02*
X171257601Y-99996104D01*
X171829029Y-100281819D02*
X171495696Y-99281819D01*
X171495696Y-99281819D02*
X171162363Y-100281819D01*
X170829029Y-100281819D02*
X170829029Y-99281819D01*
X170829029Y-99281819D02*
X170495696Y-99996104D01*
X170495696Y-99996104D02*
X170162363Y-99281819D01*
X170162363Y-99281819D02*
X170162363Y-100281819D01*
X183305220Y-100891819D02*
X183305220Y-101701342D01*
X183305220Y-101701342D02*
X183257601Y-101796580D01*
X183257601Y-101796580D02*
X183209982Y-101844200D01*
X183209982Y-101844200D02*
X183114744Y-101891819D01*
X183114744Y-101891819D02*
X182924268Y-101891819D01*
X182924268Y-101891819D02*
X182829030Y-101844200D01*
X182829030Y-101844200D02*
X182781411Y-101796580D01*
X182781411Y-101796580D02*
X182733792Y-101701342D01*
X182733792Y-101701342D02*
X182733792Y-100891819D01*
X182305220Y-101844200D02*
X182162363Y-101891819D01*
X182162363Y-101891819D02*
X181924268Y-101891819D01*
X181924268Y-101891819D02*
X181829030Y-101844200D01*
X181829030Y-101844200D02*
X181781411Y-101796580D01*
X181781411Y-101796580D02*
X181733792Y-101701342D01*
X181733792Y-101701342D02*
X181733792Y-101606104D01*
X181733792Y-101606104D02*
X181781411Y-101510866D01*
X181781411Y-101510866D02*
X181829030Y-101463247D01*
X181829030Y-101463247D02*
X181924268Y-101415628D01*
X181924268Y-101415628D02*
X182114744Y-101368009D01*
X182114744Y-101368009D02*
X182209982Y-101320390D01*
X182209982Y-101320390D02*
X182257601Y-101272771D01*
X182257601Y-101272771D02*
X182305220Y-101177533D01*
X182305220Y-101177533D02*
X182305220Y-101082295D01*
X182305220Y-101082295D02*
X182257601Y-100987057D01*
X182257601Y-100987057D02*
X182209982Y-100939438D01*
X182209982Y-100939438D02*
X182114744Y-100891819D01*
X182114744Y-100891819D02*
X181876649Y-100891819D01*
X181876649Y-100891819D02*
X181733792Y-100939438D01*
X181352839Y-101606104D02*
X180876649Y-101606104D01*
X181448077Y-101891819D02*
X181114744Y-100891819D01*
X181114744Y-100891819D02*
X180781411Y-101891819D01*
X179876649Y-101891819D02*
X180209982Y-101415628D01*
X180448077Y-101891819D02*
X180448077Y-100891819D01*
X180448077Y-100891819D02*
X180067125Y-100891819D01*
X180067125Y-100891819D02*
X179971887Y-100939438D01*
X179971887Y-100939438D02*
X179924268Y-100987057D01*
X179924268Y-100987057D02*
X179876649Y-101082295D01*
X179876649Y-101082295D02*
X179876649Y-101225152D01*
X179876649Y-101225152D02*
X179924268Y-101320390D01*
X179924268Y-101320390D02*
X179971887Y-101368009D01*
X179971887Y-101368009D02*
X180067125Y-101415628D01*
X180067125Y-101415628D02*
X180448077Y-101415628D01*
X179590934Y-100891819D02*
X179019506Y-100891819D01*
X179305220Y-101891819D02*
X179305220Y-100891819D01*
X183352839Y-103454200D02*
X183209982Y-103501819D01*
X183209982Y-103501819D02*
X182971887Y-103501819D01*
X182971887Y-103501819D02*
X182876649Y-103454200D01*
X182876649Y-103454200D02*
X182829030Y-103406580D01*
X182829030Y-103406580D02*
X182781411Y-103311342D01*
X182781411Y-103311342D02*
X182781411Y-103216104D01*
X182781411Y-103216104D02*
X182829030Y-103120866D01*
X182829030Y-103120866D02*
X182876649Y-103073247D01*
X182876649Y-103073247D02*
X182971887Y-103025628D01*
X182971887Y-103025628D02*
X183162363Y-102978009D01*
X183162363Y-102978009D02*
X183257601Y-102930390D01*
X183257601Y-102930390D02*
X183305220Y-102882771D01*
X183305220Y-102882771D02*
X183352839Y-102787533D01*
X183352839Y-102787533D02*
X183352839Y-102692295D01*
X183352839Y-102692295D02*
X183305220Y-102597057D01*
X183305220Y-102597057D02*
X183257601Y-102549438D01*
X183257601Y-102549438D02*
X183162363Y-102501819D01*
X183162363Y-102501819D02*
X182924268Y-102501819D01*
X182924268Y-102501819D02*
X182781411Y-102549438D01*
X181971887Y-103454200D02*
X182067125Y-103501819D01*
X182067125Y-103501819D02*
X182257601Y-103501819D01*
X182257601Y-103501819D02*
X182352839Y-103454200D01*
X182352839Y-103454200D02*
X182400458Y-103358961D01*
X182400458Y-103358961D02*
X182400458Y-102978009D01*
X182400458Y-102978009D02*
X182352839Y-102882771D01*
X182352839Y-102882771D02*
X182257601Y-102835152D01*
X182257601Y-102835152D02*
X182067125Y-102835152D01*
X182067125Y-102835152D02*
X181971887Y-102882771D01*
X181971887Y-102882771D02*
X181924268Y-102978009D01*
X181924268Y-102978009D02*
X181924268Y-103073247D01*
X181924268Y-103073247D02*
X182400458Y-103168485D01*
X181495696Y-103501819D02*
X181495696Y-102501819D01*
X181495696Y-102882771D02*
X181400458Y-102835152D01*
X181400458Y-102835152D02*
X181209982Y-102835152D01*
X181209982Y-102835152D02*
X181114744Y-102882771D01*
X181114744Y-102882771D02*
X181067125Y-102930390D01*
X181067125Y-102930390D02*
X181019506Y-103025628D01*
X181019506Y-103025628D02*
X181019506Y-103311342D01*
X181019506Y-103311342D02*
X181067125Y-103406580D01*
X181067125Y-103406580D02*
X181114744Y-103454200D01*
X181114744Y-103454200D02*
X181209982Y-103501819D01*
X181209982Y-103501819D02*
X181400458Y-103501819D01*
X181400458Y-103501819D02*
X181495696Y-103454200D01*
X180162363Y-103501819D02*
X180162363Y-102978009D01*
X180162363Y-102978009D02*
X180209982Y-102882771D01*
X180209982Y-102882771D02*
X180305220Y-102835152D01*
X180305220Y-102835152D02*
X180495696Y-102835152D01*
X180495696Y-102835152D02*
X180590934Y-102882771D01*
X180162363Y-103454200D02*
X180257601Y-103501819D01*
X180257601Y-103501819D02*
X180495696Y-103501819D01*
X180495696Y-103501819D02*
X180590934Y-103454200D01*
X180590934Y-103454200D02*
X180638553Y-103358961D01*
X180638553Y-103358961D02*
X180638553Y-103263723D01*
X180638553Y-103263723D02*
X180590934Y-103168485D01*
X180590934Y-103168485D02*
X180495696Y-103120866D01*
X180495696Y-103120866D02*
X180257601Y-103120866D01*
X180257601Y-103120866D02*
X180162363Y-103073247D01*
X179733791Y-103454200D02*
X179638553Y-103501819D01*
X179638553Y-103501819D02*
X179448077Y-103501819D01*
X179448077Y-103501819D02*
X179352839Y-103454200D01*
X179352839Y-103454200D02*
X179305220Y-103358961D01*
X179305220Y-103358961D02*
X179305220Y-103311342D01*
X179305220Y-103311342D02*
X179352839Y-103216104D01*
X179352839Y-103216104D02*
X179448077Y-103168485D01*
X179448077Y-103168485D02*
X179590934Y-103168485D01*
X179590934Y-103168485D02*
X179686172Y-103120866D01*
X179686172Y-103120866D02*
X179733791Y-103025628D01*
X179733791Y-103025628D02*
X179733791Y-102978009D01*
X179733791Y-102978009D02*
X179686172Y-102882771D01*
X179686172Y-102882771D02*
X179590934Y-102835152D01*
X179590934Y-102835152D02*
X179448077Y-102835152D01*
X179448077Y-102835152D02*
X179352839Y-102882771D01*
X179019505Y-102835152D02*
X178638553Y-102835152D01*
X178876648Y-102501819D02*
X178876648Y-103358961D01*
X178876648Y-103358961D02*
X178829029Y-103454200D01*
X178829029Y-103454200D02*
X178733791Y-103501819D01*
X178733791Y-103501819D02*
X178638553Y-103501819D01*
X178305219Y-103501819D02*
X178305219Y-102835152D01*
X178305219Y-102501819D02*
X178352838Y-102549438D01*
X178352838Y-102549438D02*
X178305219Y-102597057D01*
X178305219Y-102597057D02*
X178257600Y-102549438D01*
X178257600Y-102549438D02*
X178305219Y-102501819D01*
X178305219Y-102501819D02*
X178305219Y-102597057D01*
X177829029Y-102835152D02*
X177829029Y-103692295D01*
X177829029Y-103692295D02*
X177876648Y-103787533D01*
X177876648Y-103787533D02*
X177971886Y-103835152D01*
X177971886Y-103835152D02*
X178019505Y-103835152D01*
X177829029Y-102501819D02*
X177876648Y-102549438D01*
X177876648Y-102549438D02*
X177829029Y-102597057D01*
X177829029Y-102597057D02*
X177781410Y-102549438D01*
X177781410Y-102549438D02*
X177829029Y-102501819D01*
X177829029Y-102501819D02*
X177829029Y-102597057D01*
X176924268Y-103501819D02*
X176924268Y-102978009D01*
X176924268Y-102978009D02*
X176971887Y-102882771D01*
X176971887Y-102882771D02*
X177067125Y-102835152D01*
X177067125Y-102835152D02*
X177257601Y-102835152D01*
X177257601Y-102835152D02*
X177352839Y-102882771D01*
X176924268Y-103454200D02*
X177019506Y-103501819D01*
X177019506Y-103501819D02*
X177257601Y-103501819D01*
X177257601Y-103501819D02*
X177352839Y-103454200D01*
X177352839Y-103454200D02*
X177400458Y-103358961D01*
X177400458Y-103358961D02*
X177400458Y-103263723D01*
X177400458Y-103263723D02*
X177352839Y-103168485D01*
X177352839Y-103168485D02*
X177257601Y-103120866D01*
X177257601Y-103120866D02*
X177019506Y-103120866D01*
X177019506Y-103120866D02*
X176924268Y-103073247D01*
X176448077Y-102835152D02*
X176448077Y-103501819D01*
X176448077Y-102930390D02*
X176400458Y-102882771D01*
X176400458Y-102882771D02*
X176305220Y-102835152D01*
X176305220Y-102835152D02*
X176162363Y-102835152D01*
X176162363Y-102835152D02*
X176067125Y-102882771D01*
X176067125Y-102882771D02*
X176019506Y-102978009D01*
X176019506Y-102978009D02*
X176019506Y-103501819D01*
X174781410Y-103501819D02*
X174781410Y-102501819D01*
X174781410Y-102501819D02*
X174448077Y-103216104D01*
X174448077Y-103216104D02*
X174114744Y-102501819D01*
X174114744Y-102501819D02*
X174114744Y-103501819D01*
X173209982Y-103501819D02*
X173209982Y-102978009D01*
X173209982Y-102978009D02*
X173257601Y-102882771D01*
X173257601Y-102882771D02*
X173352839Y-102835152D01*
X173352839Y-102835152D02*
X173543315Y-102835152D01*
X173543315Y-102835152D02*
X173638553Y-102882771D01*
X173209982Y-103454200D02*
X173305220Y-103501819D01*
X173305220Y-103501819D02*
X173543315Y-103501819D01*
X173543315Y-103501819D02*
X173638553Y-103454200D01*
X173638553Y-103454200D02*
X173686172Y-103358961D01*
X173686172Y-103358961D02*
X173686172Y-103263723D01*
X173686172Y-103263723D02*
X173638553Y-103168485D01*
X173638553Y-103168485D02*
X173543315Y-103120866D01*
X173543315Y-103120866D02*
X173305220Y-103120866D01*
X173305220Y-103120866D02*
X173209982Y-103073247D01*
X172733791Y-103501819D02*
X172733791Y-102835152D01*
X172733791Y-103025628D02*
X172686172Y-102930390D01*
X172686172Y-102930390D02*
X172638553Y-102882771D01*
X172638553Y-102882771D02*
X172543315Y-102835152D01*
X172543315Y-102835152D02*
X172448077Y-102835152D01*
X172257600Y-102835152D02*
X171876648Y-102835152D01*
X172114743Y-102501819D02*
X172114743Y-103358961D01*
X172114743Y-103358961D02*
X172067124Y-103454200D01*
X172067124Y-103454200D02*
X171971886Y-103501819D01*
X171971886Y-103501819D02*
X171876648Y-103501819D01*
X171543314Y-103501819D02*
X171543314Y-102835152D01*
X171543314Y-102501819D02*
X171590933Y-102549438D01*
X171590933Y-102549438D02*
X171543314Y-102597057D01*
X171543314Y-102597057D02*
X171495695Y-102549438D01*
X171495695Y-102549438D02*
X171543314Y-102501819D01*
X171543314Y-102501819D02*
X171543314Y-102597057D01*
X171067124Y-102835152D02*
X171067124Y-103501819D01*
X171067124Y-102930390D02*
X171019505Y-102882771D01*
X171019505Y-102882771D02*
X170924267Y-102835152D01*
X170924267Y-102835152D02*
X170781410Y-102835152D01*
X170781410Y-102835152D02*
X170686172Y-102882771D01*
X170686172Y-102882771D02*
X170638553Y-102978009D01*
X170638553Y-102978009D02*
X170638553Y-103501819D01*
X169733791Y-103454200D02*
X169829029Y-103501819D01*
X169829029Y-103501819D02*
X170019505Y-103501819D01*
X170019505Y-103501819D02*
X170114743Y-103454200D01*
X170114743Y-103454200D02*
X170162362Y-103406580D01*
X170162362Y-103406580D02*
X170209981Y-103311342D01*
X170209981Y-103311342D02*
X170209981Y-103025628D01*
X170209981Y-103025628D02*
X170162362Y-102930390D01*
X170162362Y-102930390D02*
X170114743Y-102882771D01*
X170114743Y-102882771D02*
X170019505Y-102835152D01*
X170019505Y-102835152D02*
X169829029Y-102835152D01*
X169829029Y-102835152D02*
X169733791Y-102882771D01*
X169305219Y-103501819D02*
X169305219Y-102835152D01*
X169305219Y-102501819D02*
X169352838Y-102549438D01*
X169352838Y-102549438D02*
X169305219Y-102597057D01*
X169305219Y-102597057D02*
X169257600Y-102549438D01*
X169257600Y-102549438D02*
X169305219Y-102501819D01*
X169305219Y-102501819D02*
X169305219Y-102597057D01*
X168400458Y-103454200D02*
X168495696Y-103501819D01*
X168495696Y-103501819D02*
X168686172Y-103501819D01*
X168686172Y-103501819D02*
X168781410Y-103454200D01*
X168781410Y-103454200D02*
X168829029Y-103406580D01*
X168829029Y-103406580D02*
X168876648Y-103311342D01*
X168876648Y-103311342D02*
X168876648Y-103025628D01*
X168876648Y-103025628D02*
X168829029Y-102930390D01*
X168829029Y-102930390D02*
X168781410Y-102882771D01*
X168781410Y-102882771D02*
X168686172Y-102835152D01*
X168686172Y-102835152D02*
X168495696Y-102835152D01*
X168495696Y-102835152D02*
X168400458Y-102882771D01*
X167924267Y-103454200D02*
X167924267Y-103501819D01*
X167924267Y-103501819D02*
X167971886Y-103597057D01*
X167971886Y-103597057D02*
X168019505Y-103644676D01*
X166781410Y-102597057D02*
X166733791Y-102549438D01*
X166733791Y-102549438D02*
X166638553Y-102501819D01*
X166638553Y-102501819D02*
X166400458Y-102501819D01*
X166400458Y-102501819D02*
X166305220Y-102549438D01*
X166305220Y-102549438D02*
X166257601Y-102597057D01*
X166257601Y-102597057D02*
X166209982Y-102692295D01*
X166209982Y-102692295D02*
X166209982Y-102787533D01*
X166209982Y-102787533D02*
X166257601Y-102930390D01*
X166257601Y-102930390D02*
X166829029Y-103501819D01*
X166829029Y-103501819D02*
X166209982Y-103501819D01*
X165590934Y-102501819D02*
X165495696Y-102501819D01*
X165495696Y-102501819D02*
X165400458Y-102549438D01*
X165400458Y-102549438D02*
X165352839Y-102597057D01*
X165352839Y-102597057D02*
X165305220Y-102692295D01*
X165305220Y-102692295D02*
X165257601Y-102882771D01*
X165257601Y-102882771D02*
X165257601Y-103120866D01*
X165257601Y-103120866D02*
X165305220Y-103311342D01*
X165305220Y-103311342D02*
X165352839Y-103406580D01*
X165352839Y-103406580D02*
X165400458Y-103454200D01*
X165400458Y-103454200D02*
X165495696Y-103501819D01*
X165495696Y-103501819D02*
X165590934Y-103501819D01*
X165590934Y-103501819D02*
X165686172Y-103454200D01*
X165686172Y-103454200D02*
X165733791Y-103406580D01*
X165733791Y-103406580D02*
X165781410Y-103311342D01*
X165781410Y-103311342D02*
X165829029Y-103120866D01*
X165829029Y-103120866D02*
X165829029Y-102882771D01*
X165829029Y-102882771D02*
X165781410Y-102692295D01*
X165781410Y-102692295D02*
X165733791Y-102597057D01*
X165733791Y-102597057D02*
X165686172Y-102549438D01*
X165686172Y-102549438D02*
X165590934Y-102501819D01*
X164876648Y-102597057D02*
X164829029Y-102549438D01*
X164829029Y-102549438D02*
X164733791Y-102501819D01*
X164733791Y-102501819D02*
X164495696Y-102501819D01*
X164495696Y-102501819D02*
X164400458Y-102549438D01*
X164400458Y-102549438D02*
X164352839Y-102597057D01*
X164352839Y-102597057D02*
X164305220Y-102692295D01*
X164305220Y-102692295D02*
X164305220Y-102787533D01*
X164305220Y-102787533D02*
X164352839Y-102930390D01*
X164352839Y-102930390D02*
X164924267Y-103501819D01*
X164924267Y-103501819D02*
X164305220Y-103501819D01*
X163971886Y-102501819D02*
X163352839Y-102501819D01*
X163352839Y-102501819D02*
X163686172Y-102882771D01*
X163686172Y-102882771D02*
X163543315Y-102882771D01*
X163543315Y-102882771D02*
X163448077Y-102930390D01*
X163448077Y-102930390D02*
X163400458Y-102978009D01*
X163400458Y-102978009D02*
X163352839Y-103073247D01*
X163352839Y-103073247D02*
X163352839Y-103311342D01*
X163352839Y-103311342D02*
X163400458Y-103406580D01*
X163400458Y-103406580D02*
X163448077Y-103454200D01*
X163448077Y-103454200D02*
X163543315Y-103501819D01*
X163543315Y-103501819D02*
X163829029Y-103501819D01*
X163829029Y-103501819D02*
X163924267Y-103454200D01*
X163924267Y-103454200D02*
X163971886Y-103406580D01*
%LPC*%
D11*
%TO.C,D8*%
X195306000Y-131059000D03*
D12*
X195306000Y-128519000D03*
%TD*%
D11*
%TO.C,D7*%
X189464000Y-131059000D03*
D12*
X189464000Y-128519000D03*
%TD*%
D13*
%TO.C,R4*%
X102850000Y-113787000D03*
D14*
X102850000Y-101087000D03*
%TD*%
D11*
%TO.C,D3*%
X166096000Y-131313000D03*
D12*
X166096000Y-128773000D03*
%TD*%
D15*
%TO.C,J1*%
X104834000Y-39363000D03*
X101034000Y-39363000D03*
X104834000Y-48003000D03*
X101034000Y-48003000D03*
%TD*%
D13*
%TO.C,R5*%
X103124000Y-76708000D03*
D14*
X103124000Y-89408000D03*
%TD*%
D16*
%TO.C,C4*%
X129516000Y-93472000D03*
X128016000Y-93472000D03*
%TD*%
D17*
%TO.C,U1*%
X121158000Y-40132000D03*
D18*
X121158000Y-42672000D03*
X121158000Y-45212000D03*
X121158000Y-47752000D03*
X121158000Y-50292000D03*
X121158000Y-52832000D03*
X121158000Y-55372000D03*
X121158000Y-57912000D03*
X121158000Y-60452000D03*
X121158000Y-62992000D03*
X121158000Y-65532000D03*
X121158000Y-68072000D03*
X121158000Y-70612000D03*
X121158000Y-73152000D03*
X121158000Y-75692000D03*
X121158000Y-78232000D03*
X121158000Y-80772000D03*
X121158000Y-83312000D03*
X121158000Y-85852000D03*
X121158000Y-88392000D03*
X136398000Y-88392000D03*
X136398000Y-85852000D03*
X136398000Y-83312000D03*
X136398000Y-80772000D03*
X136398000Y-78232000D03*
X136398000Y-75692000D03*
X136398000Y-73152000D03*
X136398000Y-70612000D03*
X136398000Y-68072000D03*
X136398000Y-65532000D03*
X136398000Y-62992000D03*
X136398000Y-60452000D03*
X136398000Y-57912000D03*
X136398000Y-55372000D03*
X136398000Y-52832000D03*
X136398000Y-50292000D03*
X136398000Y-47752000D03*
X136398000Y-45212000D03*
X136398000Y-42672000D03*
X136398000Y-40132000D03*
%TD*%
D19*
%TO.C,U4*%
X108438000Y-101849000D03*
D14*
X108438000Y-104389000D03*
X108438000Y-106929000D03*
X108438000Y-109469000D03*
X108438000Y-112009000D03*
X108438000Y-114549000D03*
X108438000Y-117089000D03*
X116058000Y-117089000D03*
X116058000Y-114549000D03*
X116058000Y-112009000D03*
X116058000Y-109469000D03*
X116058000Y-106929000D03*
X116058000Y-104389000D03*
X116058000Y-101849000D03*
%TD*%
D16*
%TO.C,C5*%
X139424000Y-113787000D03*
X137924000Y-113787000D03*
%TD*%
D20*
%TO.C,C1*%
X102596000Y-123975401D03*
D16*
X102596000Y-125975401D03*
%TD*%
%TO.C,C11*%
X161798000Y-39128000D03*
X161798000Y-40628000D03*
%TD*%
D21*
%TO.C,J2*%
X196576000Y-91181000D03*
D22*
X196576000Y-89911000D03*
X196576000Y-88641000D03*
X196576000Y-87371000D03*
%TD*%
D23*
%TO.C,Y1*%
X114952000Y-124440000D03*
X110052000Y-124440000D03*
%TD*%
D17*
%TO.C,U3*%
X154142000Y-44388000D03*
D18*
X154142000Y-46928000D03*
X154142000Y-49468000D03*
X154142000Y-52008000D03*
X154142000Y-54548000D03*
X154142000Y-57088000D03*
X154142000Y-59628000D03*
X154142000Y-62168000D03*
X154142000Y-64708000D03*
X154142000Y-67248000D03*
X154142000Y-69788000D03*
X154142000Y-72328000D03*
X154142000Y-74868000D03*
X154142000Y-77408000D03*
X169382000Y-77408000D03*
X169382000Y-74868000D03*
X169382000Y-72328000D03*
X169382000Y-69788000D03*
X169382000Y-67248000D03*
X169382000Y-64708000D03*
X169382000Y-62168000D03*
X169382000Y-59628000D03*
X169382000Y-57088000D03*
X169382000Y-54548000D03*
X169382000Y-52008000D03*
X169382000Y-49468000D03*
X169382000Y-46928000D03*
X169382000Y-44388000D03*
%TD*%
D11*
%TO.C,D2*%
X160254000Y-131313000D03*
D12*
X160254000Y-128773000D03*
%TD*%
D19*
%TO.C,U8*%
X135118000Y-118359000D03*
D14*
X135118000Y-120899000D03*
X135118000Y-123439000D03*
X135118000Y-125979000D03*
X135118000Y-128519000D03*
X135118000Y-131059000D03*
X135118000Y-133599000D03*
X142738000Y-133599000D03*
X142738000Y-131059000D03*
X142738000Y-128519000D03*
X142738000Y-125979000D03*
X142738000Y-123439000D03*
X142738000Y-120899000D03*
X142738000Y-118359000D03*
%TD*%
D13*
%TO.C,R1*%
X106152000Y-134854000D03*
D14*
X118852000Y-134854000D03*
%TD*%
D19*
%TO.C,RN1*%
X189464000Y-135377000D03*
D14*
X186924000Y-135377000D03*
X184384000Y-135377000D03*
X181844000Y-135377000D03*
X179304000Y-135377000D03*
X176764000Y-135377000D03*
X174224000Y-135377000D03*
X171684000Y-135377000D03*
X169144000Y-135377000D03*
%TD*%
D20*
%TO.C,C3*%
X111760000Y-42164000D03*
D16*
X111760000Y-43664000D03*
%TD*%
D24*
%TO.C,SW1*%
X106120000Y-72862000D03*
X99620000Y-72862000D03*
X106120000Y-68362000D03*
X99620000Y-68362000D03*
%TD*%
D16*
%TO.C,C7*%
X126218000Y-102115000D03*
X126218000Y-103615000D03*
%TD*%
D11*
%TO.C,D1*%
X154432000Y-131323000D03*
D12*
X154432000Y-128783000D03*
%TD*%
D13*
%TO.C,R3*%
X103632000Y-50800000D03*
D14*
X103632000Y-63500000D03*
%TD*%
D19*
%TO.C,U6*%
X186416000Y-90673000D03*
D14*
X183876000Y-90673000D03*
X181336000Y-90673000D03*
X178796000Y-90673000D03*
X176256000Y-90673000D03*
X173716000Y-90673000D03*
X171176000Y-90673000D03*
X168636000Y-90673000D03*
X166096000Y-90673000D03*
X163556000Y-90673000D03*
X161016000Y-90673000D03*
X158476000Y-90673000D03*
X158476000Y-105913000D03*
X161016000Y-105913000D03*
X163556000Y-105913000D03*
X166096000Y-105913000D03*
X168636000Y-105913000D03*
X171176000Y-105913000D03*
X173716000Y-105913000D03*
X176256000Y-105913000D03*
X178796000Y-105913000D03*
X181336000Y-105913000D03*
X183876000Y-105913000D03*
X186416000Y-105913000D03*
%TD*%
D19*
%TO.C,U7*%
X186924000Y-115819000D03*
D14*
X184384000Y-115819000D03*
X181844000Y-115819000D03*
X179304000Y-115819000D03*
X176764000Y-115819000D03*
X174224000Y-115819000D03*
X171684000Y-115819000D03*
X169144000Y-115819000D03*
X166604000Y-115819000D03*
X164064000Y-115819000D03*
X164064000Y-123439000D03*
X166604000Y-123439000D03*
X169144000Y-123439000D03*
X171684000Y-123439000D03*
X174224000Y-123439000D03*
X176764000Y-123439000D03*
X179304000Y-123439000D03*
X181844000Y-123439000D03*
X184384000Y-123439000D03*
X186924000Y-123439000D03*
%TD*%
D19*
%TO.C,U5*%
X130790000Y-106675000D03*
D14*
X133330000Y-106675000D03*
X135870000Y-106675000D03*
X138410000Y-106675000D03*
X140950000Y-106675000D03*
X143490000Y-106675000D03*
X146030000Y-106675000D03*
X148570000Y-106675000D03*
X148570000Y-99055000D03*
X146030000Y-99055000D03*
X143490000Y-99055000D03*
X140950000Y-99055000D03*
X138410000Y-99055000D03*
X135870000Y-99055000D03*
X133330000Y-99055000D03*
X130790000Y-99055000D03*
%TD*%
D20*
%TO.C,C2*%
X122408000Y-123975401D03*
D16*
X122408000Y-125975401D03*
%TD*%
%TO.C,C9*%
X190754000Y-119126000D03*
X190754000Y-120626000D03*
%TD*%
D13*
%TO.C,R2*%
X118852000Y-130536000D03*
D14*
X106152000Y-130536000D03*
%TD*%
D19*
%TO.C,U2*%
X180142000Y-44468000D03*
D14*
X180142000Y-47008000D03*
X180142000Y-49548000D03*
X180142000Y-52088000D03*
X180142000Y-54628000D03*
X180142000Y-57168000D03*
X180142000Y-59708000D03*
X180142000Y-62248000D03*
X180142000Y-64788000D03*
X180142000Y-67328000D03*
X180142000Y-69868000D03*
X180142000Y-72408000D03*
X180142000Y-74948000D03*
X180142000Y-77488000D03*
X195382000Y-77488000D03*
X195382000Y-74948000D03*
X195382000Y-72408000D03*
X195382000Y-69868000D03*
X195382000Y-67328000D03*
X195382000Y-64788000D03*
X195382000Y-62248000D03*
X195382000Y-59708000D03*
X195382000Y-57168000D03*
X195382000Y-54628000D03*
X195382000Y-52088000D03*
X195382000Y-49548000D03*
X195382000Y-47008000D03*
X195382000Y-44468000D03*
%TD*%
D11*
%TO.C,D6*%
X183622000Y-131313000D03*
D12*
X183622000Y-128773000D03*
%TD*%
D16*
%TO.C,C6*%
X190500000Y-97802000D03*
X190500000Y-99302000D03*
%TD*%
%TO.C,C10*%
X187960000Y-39116000D03*
X187960000Y-40616000D03*
%TD*%
%TO.C,C8*%
X112998000Y-97536000D03*
X111498000Y-97536000D03*
%TD*%
%TO.C,C12*%
X112776000Y-71144000D03*
X112776000Y-72644000D03*
%TD*%
D11*
%TO.C,D5*%
X177780000Y-131313000D03*
D12*
X177780000Y-128773000D03*
%TD*%
D11*
%TO.C,D9*%
X112776000Y-78232000D03*
D12*
X112776000Y-80772000D03*
%TD*%
D11*
%TO.C,D4*%
X171938000Y-131313000D03*
D12*
X171938000Y-128773000D03*
%TD*%
%LPD*%
M02*
