M48
; DRILL file {KiCad 7.0.8} date Mon Oct  9 18:20:37 2023
; FORMAT={-:-/ absolute / metric / decimal}
; #@! TF.CreationDate,2023-10-09T18:20:37+02:00
; #@! TF.GenerationSoftware,Kicad,Pcbnew,7.0.8
; #@! TF.FileFunction,Plated,1,2,PTH
FMAT,2
METRIC
; #@! TA.AperFunction,Plated,PTH,ViaDrill
T1C0.400
; #@! TA.AperFunction,Plated,PTH,ComponentDrill
T2C0.600
; #@! TA.AperFunction,Plated,PTH,ComponentDrill
T3C0.650
; #@! TA.AperFunction,Plated,PTH,ComponentDrill
T4C0.800
; #@! TA.AperFunction,Plated,PTH,ComponentDrill
T5C0.900
; #@! TA.AperFunction,Plated,PTH,ComponentDrill
T6C1.100
%
G90
G05
T1
X103.632Y-42.164
X103.632Y-45.212
X106.172Y-95.25
X110.998Y-109.982
X111.506Y-115.062
X114.3Y-116.84
X116.078Y-72.39
X116.078Y-98.806
X118.11Y-104.877
X118.364Y-110.159
X118.868Y-54.098
X119.38Y-103.886
X119.38Y-109.728
X119.38Y-114.554
X120.65Y-98.806
X120.904Y-104.902
X121.412Y-109.474
X122.682Y-109.474
X125.984Y-57.912
X125.984Y-110.236
X126.746Y-113.284
X127.254Y-76.962
X130.048Y-74.422
X130.81Y-94.996
X130.81Y-114.554
X131.064Y-70.866
X131.572Y-110.527
X132.334Y-67.564
X132.842Y-60.96
X132.842Y-95.758
X133.096Y-70.358
X133.35Y-68.58
X133.858Y-79.502
X136.906Y-108.458
X139.446Y-75.438
X139.7Y-42.418
X139.954Y-86.868
X140.462Y-39.878
X140.97Y-75.438
X142.24Y-39.878
X142.494Y-75.438
X142.494Y-87.884
X144.018Y-75.438
X144.272Y-83.312
X144.272Y-92.964
X145.288Y-54.61
X145.542Y-75.438
X146.05Y-85.09
X146.05Y-121.412
X147.32Y-53.594
X147.32Y-102.362
X147.32Y-110.159
X148.165Y-68.663
X148.59Y-72.027
X148.59Y-75.438
X148.844Y-109.982
X148.844Y-112.014
X150.622Y-78.486
X150.876Y-91.948
X150.876Y-93.726
X151.384Y-108.712
X152.87Y-110.494
X152.908Y-96.774
X153.412Y-92.46
X154.669Y-108.695
X154.686Y-94.234
X154.686Y-95.758
X156.101Y-39.007
X156.21Y-40.894
X156.718Y-45.72
X156.718Y-68.834
X156.718Y-111.76
X157.918Y-52.008
X158.387Y-67.248
X159.004Y-38.825
X159.438Y-49.464
X159.766Y-84.836
X160.02Y-45.72
X160.274Y-82.55
X160.32Y-85.668
X160.528Y-112.776
X160.962Y-46.924
X164.084Y-39.624
X165.604Y-46.478
X166.116Y-75.184
X166.116Y-84.836
X167.132Y-40.132
X167.132Y-68.834
X167.64Y-93.472
X167.894Y-83.82
X169.036Y-92.456
X170.676Y-96.278
X170.725Y-86.905
X170.942Y-39.878
X171.45Y-94.234
X171.704Y-79.502
X173.99Y-39.878
X176.784Y-38.862
X176.911Y-76.073
X181.102Y-79.116
X182.118Y-80.01
X182.88Y-81.026
X183.642Y-82.042
X184.15Y-83.058
X186.436Y-92.964
X188.976Y-57.404
T2
X102.596Y-123.975
X102.596Y-125.975
X111.498Y-97.536
X111.76Y-42.164
X111.76Y-43.664
X112.776Y-71.144
X112.776Y-72.644
X112.998Y-97.536
X122.408Y-123.975
X122.408Y-125.975
X126.218Y-102.115
X126.218Y-103.615
X128.016Y-93.472
X129.516Y-93.472
X137.924Y-113.787
X139.424Y-113.787
X161.798Y-39.128
X161.798Y-40.628
X187.96Y-39.116
X187.96Y-40.616
X190.5Y-97.802
X190.5Y-99.302
X190.754Y-119.126
X190.754Y-120.626
T3
X196.576Y-87.371
X196.576Y-88.641
X196.576Y-89.911
X196.576Y-91.181
T4
X102.85Y-101.087
X102.85Y-113.787
X103.124Y-76.708
X103.124Y-89.408
X103.632Y-50.8
X103.632Y-63.5
X106.152Y-130.536
X106.152Y-134.854
X108.438Y-101.849
X108.438Y-104.389
X108.438Y-106.929
X108.438Y-109.469
X108.438Y-112.009
X108.438Y-114.549
X108.438Y-117.089
X110.052Y-124.44
X114.952Y-124.44
X116.058Y-101.849
X116.058Y-104.389
X116.058Y-106.929
X116.058Y-109.469
X116.058Y-112.009
X116.058Y-114.549
X116.058Y-117.089
X118.852Y-130.536
X118.852Y-134.854
X121.158Y-40.132
X121.158Y-42.672
X121.158Y-45.212
X121.158Y-47.752
X121.158Y-50.292
X121.158Y-52.832
X121.158Y-55.372
X121.158Y-57.912
X121.158Y-60.452
X121.158Y-62.992
X121.158Y-65.532
X121.158Y-68.072
X121.158Y-70.612
X121.158Y-73.152
X121.158Y-75.692
X121.158Y-78.232
X121.158Y-80.772
X121.158Y-83.312
X121.158Y-85.852
X121.158Y-88.392
X130.79Y-99.055
X130.79Y-106.675
X133.33Y-99.055
X133.33Y-106.675
X135.118Y-118.359
X135.118Y-120.899
X135.118Y-123.439
X135.118Y-125.979
X135.118Y-128.519
X135.118Y-131.059
X135.118Y-133.599
X135.87Y-99.055
X135.87Y-106.675
X136.398Y-40.132
X136.398Y-42.672
X136.398Y-45.212
X136.398Y-47.752
X136.398Y-50.292
X136.398Y-52.832
X136.398Y-55.372
X136.398Y-57.912
X136.398Y-60.452
X136.398Y-62.992
X136.398Y-65.532
X136.398Y-68.072
X136.398Y-70.612
X136.398Y-73.152
X136.398Y-75.692
X136.398Y-78.232
X136.398Y-80.772
X136.398Y-83.312
X136.398Y-85.852
X136.398Y-88.392
X138.41Y-99.055
X138.41Y-106.675
X140.95Y-99.055
X140.95Y-106.675
X142.738Y-118.359
X142.738Y-120.899
X142.738Y-123.439
X142.738Y-125.979
X142.738Y-128.519
X142.738Y-131.059
X142.738Y-133.599
X143.49Y-99.055
X143.49Y-106.675
X146.03Y-99.055
X146.03Y-106.675
X148.57Y-99.055
X148.57Y-106.675
X154.142Y-44.388
X154.142Y-46.928
X154.142Y-49.468
X154.142Y-52.008
X154.142Y-54.548
X154.142Y-57.088
X154.142Y-59.628
X154.142Y-62.168
X154.142Y-64.708
X154.142Y-67.248
X154.142Y-69.788
X154.142Y-72.328
X154.142Y-74.868
X154.142Y-77.408
X158.476Y-90.673
X158.476Y-105.913
X161.016Y-90.673
X161.016Y-105.913
X163.556Y-90.673
X163.556Y-105.913
X164.064Y-115.819
X164.064Y-123.439
X166.096Y-90.673
X166.096Y-105.913
X166.604Y-115.819
X166.604Y-123.439
X168.636Y-90.673
X168.636Y-105.913
X169.144Y-115.819
X169.144Y-123.439
X169.144Y-135.377
X169.382Y-44.388
X169.382Y-46.928
X169.382Y-49.468
X169.382Y-52.008
X169.382Y-54.548
X169.382Y-57.088
X169.382Y-59.628
X169.382Y-62.168
X169.382Y-64.708
X169.382Y-67.248
X169.382Y-69.788
X169.382Y-72.328
X169.382Y-74.868
X169.382Y-77.408
X171.176Y-90.673
X171.176Y-105.913
X171.684Y-115.819
X171.684Y-123.439
X171.684Y-135.377
X173.716Y-90.673
X173.716Y-105.913
X174.224Y-115.819
X174.224Y-123.439
X174.224Y-135.377
X176.256Y-90.673
X176.256Y-105.913
X176.764Y-115.819
X176.764Y-123.439
X176.764Y-135.377
X178.796Y-90.673
X178.796Y-105.913
X179.304Y-115.819
X179.304Y-123.439
X179.304Y-135.377
X180.142Y-44.468
X180.142Y-47.008
X180.142Y-49.548
X180.142Y-52.088
X180.142Y-54.628
X180.142Y-57.168
X180.142Y-59.708
X180.142Y-62.248
X180.142Y-64.788
X180.142Y-67.328
X180.142Y-69.868
X180.142Y-72.408
X180.142Y-74.948
X180.142Y-77.488
X181.336Y-90.673
X181.336Y-105.913
X181.844Y-115.819
X181.844Y-123.439
X181.844Y-135.377
X183.876Y-90.673
X183.876Y-105.913
X184.384Y-115.819
X184.384Y-123.439
X184.384Y-135.377
X186.416Y-90.673
X186.416Y-105.913
X186.924Y-115.819
X186.924Y-123.439
X186.924Y-135.377
X189.464Y-135.377
X195.382Y-44.468
X195.382Y-47.008
X195.382Y-49.548
X195.382Y-52.088
X195.382Y-54.628
X195.382Y-57.168
X195.382Y-59.708
X195.382Y-62.248
X195.382Y-64.788
X195.382Y-67.328
X195.382Y-69.868
X195.382Y-72.408
X195.382Y-74.948
X195.382Y-77.488
T5
X112.776Y-78.232
X112.776Y-80.772
X154.432Y-128.783
X154.432Y-131.323
X160.254Y-128.773
X160.254Y-131.313
X166.096Y-128.773
X166.096Y-131.313
X171.938Y-128.773
X171.938Y-131.313
X177.78Y-128.773
X177.78Y-131.313
X183.622Y-128.773
X183.622Y-131.313
X189.464Y-128.519
X189.464Y-131.059
X195.306Y-128.519
X195.306Y-131.059
T6
X99.62Y-68.362
X99.62Y-72.862
X106.12Y-68.362
X106.12Y-72.862
T2
X101.334Y-39.363G85X100.734Y-39.363
G05
X101.334Y-48.003G85X100.734Y-48.003
G05
X105.134Y-39.363G85X104.534Y-39.363
G05
X105.134Y-48.003G85X104.534Y-48.003
G05
T0
M30
