%TF.GenerationSoftware,KiCad,Pcbnew,7.0.8*%
%TF.CreationDate,2023-10-09T15:43:32+02:00*%
%TF.ProjectId,Z80_SBC,5a38305f-5342-4432-9e6b-696361645f70,rev?*%
%TF.SameCoordinates,Original*%
%TF.FileFunction,Drillmap*%
%TF.FilePolarity,Positive*%
%FSLAX45Y45*%
G04 Gerber Fmt 4.5, Leading zero omitted, Abs format (unit mm)*
G04 Created by KiCad (PCBNEW 7.0.8) date 2023-10-09 15:43:32*
%MOMM*%
%LPD*%
G01*
G04 APERTURE LIST*
%ADD10C,0.100000*%
%ADD11C,0.200000*%
%ADD12C,0.040000*%
%ADD13C,0.060000*%
%ADD14C,0.065000*%
%ADD15C,0.080000*%
%ADD16C,0.090000*%
G04 APERTURE END LIST*
D10*
X9833400Y-3738900D02*
X19833400Y-3738900D01*
X19833400Y-13738900D01*
X9833400Y-13738900D01*
X9833400Y-3738900D01*
D11*
D12*
X10343200Y-4196400D02*
X10383200Y-4236400D01*
X10383200Y-4196400D02*
X10343200Y-4236400D01*
X10343200Y-4501200D02*
X10383200Y-4541200D01*
X10383200Y-4501200D02*
X10343200Y-4541200D01*
X10597200Y-9505000D02*
X10637200Y-9545000D01*
X10637200Y-9505000D02*
X10597200Y-9545000D01*
X11079800Y-10978200D02*
X11119800Y-11018200D01*
X11119800Y-10978200D02*
X11079800Y-11018200D01*
X11587800Y-9860600D02*
X11627800Y-9900600D01*
X11627800Y-9860600D02*
X11587800Y-9900600D01*
X11791000Y-10467700D02*
X11831000Y-10507700D01*
X11831000Y-10467700D02*
X11791000Y-10507700D01*
X11816400Y-10995950D02*
X11856400Y-11035950D01*
X11856400Y-10995950D02*
X11816400Y-11035950D01*
X11918000Y-10368600D02*
X11958000Y-10408600D01*
X11958000Y-10368600D02*
X11918000Y-10408600D01*
X11918000Y-10952800D02*
X11958000Y-10992800D01*
X11958000Y-10952800D02*
X11918000Y-10992800D01*
X11918000Y-11435400D02*
X11958000Y-11475400D01*
X11958000Y-11435400D02*
X11918000Y-11475400D01*
X12045000Y-9860600D02*
X12085000Y-9900600D01*
X12085000Y-9860600D02*
X12045000Y-9900600D01*
X12070400Y-10470200D02*
X12110400Y-10510200D01*
X12110400Y-10470200D02*
X12070400Y-10510200D01*
X12121200Y-10927400D02*
X12161200Y-10967400D01*
X12161200Y-10927400D02*
X12121200Y-10967400D01*
X12248200Y-10927400D02*
X12288200Y-10967400D01*
X12288200Y-10927400D02*
X12248200Y-10967400D01*
X12578400Y-5771200D02*
X12618400Y-5811200D01*
X12618400Y-5771200D02*
X12578400Y-5811200D01*
X12705400Y-7676200D02*
X12745400Y-7716200D01*
X12745400Y-7676200D02*
X12705400Y-7716200D01*
X13061000Y-9479600D02*
X13101000Y-9519600D01*
X13101000Y-9479600D02*
X13061000Y-9519600D01*
X13086400Y-7066600D02*
X13126400Y-7106600D01*
X13126400Y-7066600D02*
X13086400Y-7106600D01*
X13213400Y-6736400D02*
X13253400Y-6776400D01*
X13253400Y-6736400D02*
X13213400Y-6776400D01*
X13264200Y-6076000D02*
X13304200Y-6116000D01*
X13304200Y-6076000D02*
X13264200Y-6116000D01*
X13264200Y-9555800D02*
X13304200Y-9595800D01*
X13304200Y-9555800D02*
X13264200Y-9595800D01*
X13289600Y-7015800D02*
X13329600Y-7055800D01*
X13329600Y-7015800D02*
X13289600Y-7055800D01*
X13315000Y-6838000D02*
X13355000Y-6878000D01*
X13355000Y-6838000D02*
X13315000Y-6878000D01*
X13365800Y-7930200D02*
X13405800Y-7970200D01*
X13405800Y-7930200D02*
X13365800Y-7970200D01*
X13670600Y-10851200D02*
X13710600Y-10891200D01*
X13710600Y-10851200D02*
X13670600Y-10891200D01*
X13924600Y-7523800D02*
X13964600Y-7563800D01*
X13964600Y-7523800D02*
X13924600Y-7563800D01*
X13950000Y-4221800D02*
X13990000Y-4261800D01*
X13990000Y-4221800D02*
X13950000Y-4261800D01*
X13975400Y-8666800D02*
X14015400Y-8706800D01*
X14015400Y-8666800D02*
X13975400Y-8706800D01*
X14026200Y-3967800D02*
X14066200Y-4007800D01*
X14066200Y-3967800D02*
X14026200Y-4007800D01*
X14077000Y-7523800D02*
X14117000Y-7563800D01*
X14117000Y-7523800D02*
X14077000Y-7563800D01*
X14204000Y-3967800D02*
X14244000Y-4007800D01*
X14244000Y-3967800D02*
X14204000Y-4007800D01*
X14229400Y-7523800D02*
X14269400Y-7563800D01*
X14269400Y-7523800D02*
X14229400Y-7563800D01*
X14229400Y-8768400D02*
X14269400Y-8808400D01*
X14269400Y-8768400D02*
X14229400Y-8808400D01*
X14381800Y-7523800D02*
X14421800Y-7563800D01*
X14421800Y-7523800D02*
X14381800Y-7563800D01*
X14407200Y-8311200D02*
X14447200Y-8351200D01*
X14447200Y-8311200D02*
X14407200Y-8351200D01*
X14407200Y-9276400D02*
X14447200Y-9316400D01*
X14447200Y-9276400D02*
X14407200Y-9316400D01*
X14508800Y-5441000D02*
X14548800Y-5481000D01*
X14548800Y-5441000D02*
X14508800Y-5481000D01*
X14534200Y-7523800D02*
X14574200Y-7563800D01*
X14574200Y-7523800D02*
X14534200Y-7563800D01*
X14585000Y-8489000D02*
X14625000Y-8529000D01*
X14625000Y-8489000D02*
X14585000Y-8529000D01*
X14585000Y-12121200D02*
X14625000Y-12161200D01*
X14625000Y-12121200D02*
X14585000Y-12161200D01*
X14686600Y-6736400D02*
X14726600Y-6776400D01*
X14726600Y-6736400D02*
X14686600Y-6776400D01*
X14712000Y-5339400D02*
X14752000Y-5379400D01*
X14752000Y-5339400D02*
X14712000Y-5379400D01*
X14712000Y-10216200D02*
X14752000Y-10256200D01*
X14752000Y-10216200D02*
X14712000Y-10256200D01*
X14712000Y-10995950D02*
X14752000Y-11035950D01*
X14752000Y-10995950D02*
X14712000Y-11035950D01*
X14839000Y-7182700D02*
X14879000Y-7222700D01*
X14879000Y-7182700D02*
X14839000Y-7222700D01*
X14839000Y-7523800D02*
X14879000Y-7563800D01*
X14879000Y-7523800D02*
X14839000Y-7563800D01*
X14864400Y-10978200D02*
X14904400Y-11018200D01*
X14904400Y-10978200D02*
X14864400Y-11018200D01*
X14864400Y-11181400D02*
X14904400Y-11221400D01*
X14904400Y-11181400D02*
X14864400Y-11221400D01*
X15042200Y-7828600D02*
X15082200Y-7868600D01*
X15082200Y-7828600D02*
X15042200Y-7868600D01*
X15067600Y-9174800D02*
X15107600Y-9214800D01*
X15107600Y-9174800D02*
X15067600Y-9214800D01*
X15067600Y-9352600D02*
X15107600Y-9392600D01*
X15107600Y-9352600D02*
X15067600Y-9392600D01*
X15118400Y-10851200D02*
X15158400Y-10891200D01*
X15158400Y-10851200D02*
X15118400Y-10891200D01*
X15267001Y-11029439D02*
X15307001Y-11069439D01*
X15307001Y-11029439D02*
X15267001Y-11069439D01*
X15270800Y-9657400D02*
X15310800Y-9697400D01*
X15310800Y-9657400D02*
X15270800Y-9697400D01*
X15321170Y-9226030D02*
X15361170Y-9266030D01*
X15361170Y-9226030D02*
X15321170Y-9266030D01*
X15446920Y-10849520D02*
X15486920Y-10889520D01*
X15486920Y-10849520D02*
X15446920Y-10889520D01*
X15448600Y-9403400D02*
X15488600Y-9443400D01*
X15488600Y-9403400D02*
X15448600Y-9443400D01*
X15448600Y-9555800D02*
X15488600Y-9595800D01*
X15488600Y-9555800D02*
X15448600Y-9595800D01*
X15590100Y-3880700D02*
X15630100Y-3920700D01*
X15630100Y-3880700D02*
X15590100Y-3920700D01*
X15601000Y-4069400D02*
X15641000Y-4109400D01*
X15641000Y-4069400D02*
X15601000Y-4109400D01*
X15651800Y-4552000D02*
X15691800Y-4592000D01*
X15691800Y-4552000D02*
X15651800Y-4592000D01*
X15651800Y-6863400D02*
X15691800Y-6903400D01*
X15691800Y-6863400D02*
X15651800Y-6903400D01*
X15651800Y-11156000D02*
X15691800Y-11196000D01*
X15691800Y-11156000D02*
X15651800Y-11196000D01*
X15771800Y-5180800D02*
X15811800Y-5220800D01*
X15811800Y-5180800D02*
X15771800Y-5220800D01*
X15818700Y-6704800D02*
X15858700Y-6744800D01*
X15858700Y-6704800D02*
X15818700Y-6744800D01*
X15880400Y-3862450D02*
X15920400Y-3902450D01*
X15920400Y-3862450D02*
X15880400Y-3902450D01*
X15923770Y-4926370D02*
X15963770Y-4966370D01*
X15963770Y-4926370D02*
X15923770Y-4966370D01*
X15956600Y-8463600D02*
X15996600Y-8503600D01*
X15996600Y-8463600D02*
X15956600Y-8503600D01*
X15982000Y-4552000D02*
X16022000Y-4592000D01*
X16022000Y-4552000D02*
X15982000Y-4592000D01*
X16007400Y-8235000D02*
X16047400Y-8275000D01*
X16047400Y-8235000D02*
X16007400Y-8275000D01*
X16007400Y-8362000D02*
X16047400Y-8402000D01*
X16047400Y-8362000D02*
X16007400Y-8402000D01*
X16012042Y-8546764D02*
X16052042Y-8586764D01*
X16052042Y-8546764D02*
X16012042Y-8586764D01*
X16032800Y-11257600D02*
X16072800Y-11297600D01*
X16072800Y-11257600D02*
X16032800Y-11297600D01*
X16076170Y-4672370D02*
X16116170Y-4712370D01*
X16116170Y-4672370D02*
X16076170Y-4712370D01*
X16388400Y-3942400D02*
X16428400Y-3982400D01*
X16428400Y-3942400D02*
X16388400Y-3982400D01*
X16540370Y-4627770D02*
X16580370Y-4667770D01*
X16580370Y-4627770D02*
X16540370Y-4667770D01*
X16591600Y-7498400D02*
X16631600Y-7538400D01*
X16631600Y-7498400D02*
X16591600Y-7538400D01*
X16591600Y-8463600D02*
X16631600Y-8503600D01*
X16631600Y-8463600D02*
X16591600Y-8503600D01*
X16693200Y-3993200D02*
X16733200Y-4033200D01*
X16733200Y-3993200D02*
X16693200Y-4033200D01*
X16693200Y-6863400D02*
X16733200Y-6903400D01*
X16733200Y-6863400D02*
X16693200Y-6903400D01*
X16744000Y-9327200D02*
X16784000Y-9367200D01*
X16784000Y-9327200D02*
X16744000Y-9367200D01*
X16769400Y-8362000D02*
X16809400Y-8402000D01*
X16809400Y-8362000D02*
X16769400Y-8402000D01*
X16883650Y-9225600D02*
X16923650Y-9265600D01*
X16923650Y-9225600D02*
X16883650Y-9265600D01*
X17047620Y-9607780D02*
X17087620Y-9647780D01*
X17087620Y-9607780D02*
X17047620Y-9647780D01*
X17052500Y-8670500D02*
X17092500Y-8710500D01*
X17092500Y-8670500D02*
X17052500Y-8710500D01*
X17074200Y-3967800D02*
X17114200Y-4007800D01*
X17114200Y-3967800D02*
X17074200Y-4007800D01*
X17125000Y-9403400D02*
X17165000Y-9443400D01*
X17165000Y-9403400D02*
X17125000Y-9443400D01*
X17150400Y-7930200D02*
X17190400Y-7970200D01*
X17190400Y-7930200D02*
X17150400Y-7970200D01*
X17379000Y-3967800D02*
X17419000Y-4007800D01*
X17419000Y-3967800D02*
X17379000Y-4007800D01*
X17658400Y-3866200D02*
X17698400Y-3906200D01*
X17698400Y-3866200D02*
X17658400Y-3906200D01*
X17671100Y-7587300D02*
X17711100Y-7627300D01*
X17711100Y-7587300D02*
X17671100Y-7627300D01*
X18090200Y-7891600D02*
X18130200Y-7931600D01*
X18130200Y-7891600D02*
X18090200Y-7931600D01*
X18211891Y-7972998D02*
X18251891Y-8012998D01*
X18251891Y-7972998D02*
X18211891Y-8012998D01*
X18267150Y-8056283D02*
X18307150Y-8096283D01*
X18307150Y-8056283D02*
X18267150Y-8096283D01*
X18335075Y-8129606D02*
X18375075Y-8169606D01*
X18375075Y-8129606D02*
X18335075Y-8169606D01*
X18395000Y-8209600D02*
X18435000Y-8249600D01*
X18435000Y-8209600D02*
X18395000Y-8249600D01*
X18623600Y-9276400D02*
X18663600Y-9316400D01*
X18663600Y-9276400D02*
X18623600Y-9316400D01*
X18877600Y-5720400D02*
X18917600Y-5760400D01*
X18917600Y-5720400D02*
X18877600Y-5760400D01*
D13*
X10133400Y-3936300D02*
G75*
G03*
X10133400Y-3936300I-30000J0D01*
G01*
D11*
X10133400Y-3906300D02*
X10073400Y-3906300D01*
X10073400Y-3906300D02*
G75*
G03*
X10073400Y-3966300I0J-30000D01*
G01*
X10073400Y-3966300D02*
X10133400Y-3966300D01*
X10133400Y-3966300D02*
G75*
G03*
X10133400Y-3906300I0J30000D01*
G01*
D13*
X10133400Y-4800300D02*
G75*
G03*
X10133400Y-4800300I-30000J0D01*
G01*
D11*
X10133400Y-4770300D02*
X10073400Y-4770300D01*
X10073400Y-4770300D02*
G75*
G03*
X10073400Y-4830300I0J-30000D01*
G01*
X10073400Y-4830300D02*
X10133400Y-4830300D01*
X10133400Y-4830300D02*
G75*
G03*
X10133400Y-4770300I0J30000D01*
G01*
D13*
X10289600Y-12397540D02*
G75*
G03*
X10289600Y-12397540I-30000J0D01*
G01*
X10289600Y-12597540D02*
G75*
G03*
X10289600Y-12597540I-30000J0D01*
G01*
X10513400Y-3936300D02*
G75*
G03*
X10513400Y-3936300I-30000J0D01*
G01*
D11*
X10513400Y-3906300D02*
X10453400Y-3906300D01*
X10453400Y-3906300D02*
G75*
G03*
X10453400Y-3966300I0J-30000D01*
G01*
X10453400Y-3966300D02*
X10513400Y-3966300D01*
X10513400Y-3966300D02*
G75*
G03*
X10513400Y-3906300I0J30000D01*
G01*
D13*
X10513400Y-4800300D02*
G75*
G03*
X10513400Y-4800300I-30000J0D01*
G01*
D11*
X10513400Y-4770300D02*
X10453400Y-4770300D01*
X10453400Y-4770300D02*
G75*
G03*
X10453400Y-4830300I0J-30000D01*
G01*
X10453400Y-4830300D02*
X10513400Y-4830300D01*
X10513400Y-4830300D02*
G75*
G03*
X10513400Y-4770300I0J30000D01*
G01*
D13*
X11179800Y-9753600D02*
G75*
G03*
X11179800Y-9753600I-30000J0D01*
G01*
X11206000Y-4216400D02*
G75*
G03*
X11206000Y-4216400I-30000J0D01*
G01*
X11206000Y-4366400D02*
G75*
G03*
X11206000Y-4366400I-30000J0D01*
G01*
X11329800Y-9753600D02*
G75*
G03*
X11329800Y-9753600I-30000J0D01*
G01*
X12270800Y-12397540D02*
G75*
G03*
X12270800Y-12397540I-30000J0D01*
G01*
X12270800Y-12597540D02*
G75*
G03*
X12270800Y-12597540I-30000J0D01*
G01*
X12651800Y-10211500D02*
G75*
G03*
X12651800Y-10211500I-30000J0D01*
G01*
X12651800Y-10361500D02*
G75*
G03*
X12651800Y-10361500I-30000J0D01*
G01*
X12805400Y-9346700D02*
G75*
G03*
X12805400Y-9346700I-30000J0D01*
G01*
X12955400Y-9346700D02*
G75*
G03*
X12955400Y-9346700I-30000J0D01*
G01*
X13822400Y-11378700D02*
G75*
G03*
X13822400Y-11378700I-30000J0D01*
G01*
X13972400Y-11378700D02*
G75*
G03*
X13972400Y-11378700I-30000J0D01*
G01*
X16209800Y-3912800D02*
G75*
G03*
X16209800Y-3912800I-30000J0D01*
G01*
X16209800Y-4062800D02*
G75*
G03*
X16209800Y-4062800I-30000J0D01*
G01*
X18826000Y-3911600D02*
G75*
G03*
X18826000Y-3911600I-30000J0D01*
G01*
X18826000Y-4061600D02*
G75*
G03*
X18826000Y-4061600I-30000J0D01*
G01*
X19080000Y-9780200D02*
G75*
G03*
X19080000Y-9780200I-30000J0D01*
G01*
X19080000Y-9930200D02*
G75*
G03*
X19080000Y-9930200I-30000J0D01*
G01*
X19105400Y-11912600D02*
G75*
G03*
X19105400Y-11912600I-30000J0D01*
G01*
X19105400Y-12062600D02*
G75*
G03*
X19105400Y-12062600I-30000J0D01*
G01*
D14*
X19657600Y-8704600D02*
X19657600Y-8769600D01*
X19625100Y-8737100D02*
X19690100Y-8737100D01*
X19657600Y-8831600D02*
X19657600Y-8896600D01*
X19625100Y-8864100D02*
X19690100Y-8864100D01*
X19657600Y-8958600D02*
X19657600Y-9023600D01*
X19625100Y-8991100D02*
X19690100Y-8991100D01*
X19657600Y-9085600D02*
X19657600Y-9150600D01*
X19625100Y-9118100D02*
X19690100Y-9118100D01*
D15*
X10313285Y-10136985D02*
X10313285Y-10080416D01*
X10256716Y-10080416D01*
X10256716Y-10136985D01*
X10313285Y-10136985D01*
X10313285Y-11406984D02*
X10313285Y-11350415D01*
X10256716Y-11350415D01*
X10256716Y-11406984D01*
X10313285Y-11406984D01*
X10643485Y-13081884D02*
X10643485Y-13025315D01*
X10586916Y-13025315D01*
X10586916Y-13081884D01*
X10643485Y-13081884D01*
X10643485Y-13513684D02*
X10643485Y-13457115D01*
X10586916Y-13457115D01*
X10586916Y-13513684D01*
X10643485Y-13513684D01*
X10872085Y-10213185D02*
X10872085Y-10156616D01*
X10815516Y-10156616D01*
X10815516Y-10213185D01*
X10872085Y-10213185D01*
X10872085Y-10467185D02*
X10872085Y-10410616D01*
X10815516Y-10410616D01*
X10815516Y-10467185D01*
X10872085Y-10467185D01*
X10872085Y-10721185D02*
X10872085Y-10664616D01*
X10815516Y-10664616D01*
X10815516Y-10721185D01*
X10872085Y-10721185D01*
X10872085Y-10975185D02*
X10872085Y-10918616D01*
X10815516Y-10918616D01*
X10815516Y-10975185D01*
X10872085Y-10975185D01*
X10872085Y-11229184D02*
X10872085Y-11172616D01*
X10815516Y-11172616D01*
X10815516Y-11229184D01*
X10872085Y-11229184D01*
X10872085Y-11483184D02*
X10872085Y-11426615D01*
X10815516Y-11426615D01*
X10815516Y-11483184D01*
X10872085Y-11483184D01*
X10872085Y-11737184D02*
X10872085Y-11680615D01*
X10815516Y-11680615D01*
X10815516Y-11737184D01*
X10872085Y-11737184D01*
X11033485Y-12472284D02*
X11033485Y-12415715D01*
X10976916Y-12415715D01*
X10976916Y-12472284D01*
X11033485Y-12472284D01*
X11523484Y-12472284D02*
X11523484Y-12415715D01*
X11466915Y-12415715D01*
X11466915Y-12472284D01*
X11523484Y-12472284D01*
X11634084Y-10213185D02*
X11634084Y-10156616D01*
X11577515Y-10156616D01*
X11577515Y-10213185D01*
X11634084Y-10213185D01*
X11634084Y-10467185D02*
X11634084Y-10410616D01*
X11577515Y-10410616D01*
X11577515Y-10467185D01*
X11634084Y-10467185D01*
X11634084Y-10721185D02*
X11634084Y-10664616D01*
X11577515Y-10664616D01*
X11577515Y-10721185D01*
X11634084Y-10721185D01*
X11634084Y-10975185D02*
X11634084Y-10918616D01*
X11577515Y-10918616D01*
X11577515Y-10975185D01*
X11634084Y-10975185D01*
X11634084Y-11229184D02*
X11634084Y-11172616D01*
X11577515Y-11172616D01*
X11577515Y-11229184D01*
X11634084Y-11229184D01*
X11634084Y-11483184D02*
X11634084Y-11426615D01*
X11577515Y-11426615D01*
X11577515Y-11483184D01*
X11634084Y-11483184D01*
X11634084Y-11737184D02*
X11634084Y-11680615D01*
X11577515Y-11680615D01*
X11577515Y-11737184D01*
X11634084Y-11737184D01*
X11913484Y-13081884D02*
X11913484Y-13025315D01*
X11856915Y-13025315D01*
X11856915Y-13081884D01*
X11913484Y-13081884D01*
X11913484Y-13513684D02*
X11913484Y-13457115D01*
X11856915Y-13457115D01*
X11856915Y-13513684D01*
X11913484Y-13513684D01*
X12144084Y-4041484D02*
X12144084Y-3984915D01*
X12087515Y-3984915D01*
X12087515Y-4041484D01*
X12144084Y-4041484D01*
X12144084Y-4295485D02*
X12144084Y-4238916D01*
X12087515Y-4238916D01*
X12087515Y-4295485D01*
X12144084Y-4295485D01*
X12144084Y-4549485D02*
X12144084Y-4492916D01*
X12087515Y-4492916D01*
X12087515Y-4549485D01*
X12144084Y-4549485D01*
X12144084Y-4803485D02*
X12144084Y-4746916D01*
X12087515Y-4746916D01*
X12087515Y-4803485D01*
X12144084Y-4803485D01*
X12144084Y-5057485D02*
X12144084Y-5000916D01*
X12087515Y-5000916D01*
X12087515Y-5057485D01*
X12144084Y-5057485D01*
X12144084Y-5311485D02*
X12144084Y-5254916D01*
X12087515Y-5254916D01*
X12087515Y-5311485D01*
X12144084Y-5311485D01*
X12144084Y-5565485D02*
X12144084Y-5508916D01*
X12087515Y-5508916D01*
X12087515Y-5565485D01*
X12144084Y-5565485D01*
X12144084Y-5819484D02*
X12144084Y-5762915D01*
X12087515Y-5762915D01*
X12087515Y-5819484D01*
X12144084Y-5819484D01*
X12144084Y-6073484D02*
X12144084Y-6016915D01*
X12087515Y-6016915D01*
X12087515Y-6073484D01*
X12144084Y-6073484D01*
X12144084Y-6327484D02*
X12144084Y-6270915D01*
X12087515Y-6270915D01*
X12087515Y-6327484D01*
X12144084Y-6327484D01*
X12144084Y-6581484D02*
X12144084Y-6524915D01*
X12087515Y-6524915D01*
X12087515Y-6581484D01*
X12144084Y-6581484D01*
X12144084Y-6835484D02*
X12144084Y-6778915D01*
X12087515Y-6778915D01*
X12087515Y-6835484D01*
X12144084Y-6835484D01*
X12144084Y-7089484D02*
X12144084Y-7032915D01*
X12087515Y-7032915D01*
X12087515Y-7089484D01*
X12144084Y-7089484D01*
X12144084Y-7343484D02*
X12144084Y-7286915D01*
X12087515Y-7286915D01*
X12087515Y-7343484D01*
X12144084Y-7343484D01*
X12144084Y-7597484D02*
X12144084Y-7540915D01*
X12087515Y-7540915D01*
X12087515Y-7597484D01*
X12144084Y-7597484D01*
X12144084Y-7851484D02*
X12144084Y-7794915D01*
X12087515Y-7794915D01*
X12087515Y-7851484D01*
X12144084Y-7851484D01*
X12144084Y-8105484D02*
X12144084Y-8048915D01*
X12087515Y-8048915D01*
X12087515Y-8105484D01*
X12144084Y-8105484D01*
X12144084Y-8359484D02*
X12144084Y-8302915D01*
X12087515Y-8302915D01*
X12087515Y-8359484D01*
X12144084Y-8359484D01*
X12144084Y-8613485D02*
X12144084Y-8556916D01*
X12087515Y-8556916D01*
X12087515Y-8613485D01*
X12144084Y-8613485D01*
X12144084Y-8867485D02*
X12144084Y-8810916D01*
X12087515Y-8810916D01*
X12087515Y-8867485D01*
X12144084Y-8867485D01*
X13107284Y-9933785D02*
X13107284Y-9877216D01*
X13050715Y-9877216D01*
X13050715Y-9933785D01*
X13107284Y-9933785D01*
X13107284Y-10695785D02*
X13107284Y-10639216D01*
X13050715Y-10639216D01*
X13050715Y-10695785D01*
X13107284Y-10695785D01*
X13361284Y-9933785D02*
X13361284Y-9877216D01*
X13304715Y-9877216D01*
X13304715Y-9933785D01*
X13361284Y-9933785D01*
X13361284Y-10695785D02*
X13361284Y-10639216D01*
X13304715Y-10639216D01*
X13304715Y-10695785D01*
X13361284Y-10695785D01*
X13540084Y-11864184D02*
X13540084Y-11807615D01*
X13483515Y-11807615D01*
X13483515Y-11864184D01*
X13540084Y-11864184D01*
X13540084Y-12118184D02*
X13540084Y-12061615D01*
X13483515Y-12061615D01*
X13483515Y-12118184D01*
X13540084Y-12118184D01*
X13540084Y-12372184D02*
X13540084Y-12315615D01*
X13483515Y-12315615D01*
X13483515Y-12372184D01*
X13540084Y-12372184D01*
X13540084Y-12626184D02*
X13540084Y-12569615D01*
X13483515Y-12569615D01*
X13483515Y-12626184D01*
X13540084Y-12626184D01*
X13540084Y-12880184D02*
X13540084Y-12823615D01*
X13483515Y-12823615D01*
X13483515Y-12880184D01*
X13540084Y-12880184D01*
X13540084Y-13134184D02*
X13540084Y-13077615D01*
X13483515Y-13077615D01*
X13483515Y-13134184D01*
X13540084Y-13134184D01*
X13540084Y-13388184D02*
X13540084Y-13331615D01*
X13483515Y-13331615D01*
X13483515Y-13388184D01*
X13540084Y-13388184D01*
X13615284Y-9933785D02*
X13615284Y-9877216D01*
X13558715Y-9877216D01*
X13558715Y-9933785D01*
X13615284Y-9933785D01*
X13615284Y-10695785D02*
X13615284Y-10639216D01*
X13558715Y-10639216D01*
X13558715Y-10695785D01*
X13615284Y-10695785D01*
X13668084Y-4041484D02*
X13668084Y-3984915D01*
X13611515Y-3984915D01*
X13611515Y-4041484D01*
X13668084Y-4041484D01*
X13668084Y-4295485D02*
X13668084Y-4238916D01*
X13611515Y-4238916D01*
X13611515Y-4295485D01*
X13668084Y-4295485D01*
X13668084Y-4549485D02*
X13668084Y-4492916D01*
X13611515Y-4492916D01*
X13611515Y-4549485D01*
X13668084Y-4549485D01*
X13668084Y-4803485D02*
X13668084Y-4746916D01*
X13611515Y-4746916D01*
X13611515Y-4803485D01*
X13668084Y-4803485D01*
X13668084Y-5057485D02*
X13668084Y-5000916D01*
X13611515Y-5000916D01*
X13611515Y-5057485D01*
X13668084Y-5057485D01*
X13668084Y-5311485D02*
X13668084Y-5254916D01*
X13611515Y-5254916D01*
X13611515Y-5311485D01*
X13668084Y-5311485D01*
X13668084Y-5565485D02*
X13668084Y-5508916D01*
X13611515Y-5508916D01*
X13611515Y-5565485D01*
X13668084Y-5565485D01*
X13668084Y-5819484D02*
X13668084Y-5762915D01*
X13611515Y-5762915D01*
X13611515Y-5819484D01*
X13668084Y-5819484D01*
X13668084Y-6073484D02*
X13668084Y-6016915D01*
X13611515Y-6016915D01*
X13611515Y-6073484D01*
X13668084Y-6073484D01*
X13668084Y-6327484D02*
X13668084Y-6270915D01*
X13611515Y-6270915D01*
X13611515Y-6327484D01*
X13668084Y-6327484D01*
X13668084Y-6581484D02*
X13668084Y-6524915D01*
X13611515Y-6524915D01*
X13611515Y-6581484D01*
X13668084Y-6581484D01*
X13668084Y-6835484D02*
X13668084Y-6778915D01*
X13611515Y-6778915D01*
X13611515Y-6835484D01*
X13668084Y-6835484D01*
X13668084Y-7089484D02*
X13668084Y-7032915D01*
X13611515Y-7032915D01*
X13611515Y-7089484D01*
X13668084Y-7089484D01*
X13668084Y-7343484D02*
X13668084Y-7286915D01*
X13611515Y-7286915D01*
X13611515Y-7343484D01*
X13668084Y-7343484D01*
X13668084Y-7597484D02*
X13668084Y-7540915D01*
X13611515Y-7540915D01*
X13611515Y-7597484D01*
X13668084Y-7597484D01*
X13668084Y-7851484D02*
X13668084Y-7794915D01*
X13611515Y-7794915D01*
X13611515Y-7851484D01*
X13668084Y-7851484D01*
X13668084Y-8105484D02*
X13668084Y-8048915D01*
X13611515Y-8048915D01*
X13611515Y-8105484D01*
X13668084Y-8105484D01*
X13668084Y-8359484D02*
X13668084Y-8302915D01*
X13611515Y-8302915D01*
X13611515Y-8359484D01*
X13668084Y-8359484D01*
X13668084Y-8613485D02*
X13668084Y-8556916D01*
X13611515Y-8556916D01*
X13611515Y-8613485D01*
X13668084Y-8613485D01*
X13668084Y-8867485D02*
X13668084Y-8810916D01*
X13611515Y-8810916D01*
X13611515Y-8867485D01*
X13668084Y-8867485D01*
X13869284Y-9933785D02*
X13869284Y-9877216D01*
X13812715Y-9877216D01*
X13812715Y-9933785D01*
X13869284Y-9933785D01*
X13869284Y-10695785D02*
X13869284Y-10639216D01*
X13812715Y-10639216D01*
X13812715Y-10695785D01*
X13869284Y-10695785D01*
X14123284Y-9933785D02*
X14123284Y-9877216D01*
X14066715Y-9877216D01*
X14066715Y-9933785D01*
X14123284Y-9933785D01*
X14123284Y-10695785D02*
X14123284Y-10639216D01*
X14066715Y-10639216D01*
X14066715Y-10695785D01*
X14123284Y-10695785D01*
X14302084Y-11864184D02*
X14302084Y-11807615D01*
X14245515Y-11807615D01*
X14245515Y-11864184D01*
X14302084Y-11864184D01*
X14302084Y-12118184D02*
X14302084Y-12061615D01*
X14245515Y-12061615D01*
X14245515Y-12118184D01*
X14302084Y-12118184D01*
X14302084Y-12372184D02*
X14302084Y-12315615D01*
X14245515Y-12315615D01*
X14245515Y-12372184D01*
X14302084Y-12372184D01*
X14302084Y-12626184D02*
X14302084Y-12569615D01*
X14245515Y-12569615D01*
X14245515Y-12626184D01*
X14302084Y-12626184D01*
X14302084Y-12880184D02*
X14302084Y-12823615D01*
X14245515Y-12823615D01*
X14245515Y-12880184D01*
X14302084Y-12880184D01*
X14302084Y-13134184D02*
X14302084Y-13077615D01*
X14245515Y-13077615D01*
X14245515Y-13134184D01*
X14302084Y-13134184D01*
X14302084Y-13388184D02*
X14302084Y-13331615D01*
X14245515Y-13331615D01*
X14245515Y-13388184D01*
X14302084Y-13388184D01*
X14377284Y-9933785D02*
X14377284Y-9877216D01*
X14320715Y-9877216D01*
X14320715Y-9933785D01*
X14377284Y-9933785D01*
X14377284Y-10695785D02*
X14377284Y-10639216D01*
X14320715Y-10639216D01*
X14320715Y-10695785D01*
X14377284Y-10695785D01*
X14631284Y-9933785D02*
X14631284Y-9877216D01*
X14574715Y-9877216D01*
X14574715Y-9933785D01*
X14631284Y-9933785D01*
X14631284Y-10695785D02*
X14631284Y-10639216D01*
X14574715Y-10639216D01*
X14574715Y-10695785D01*
X14631284Y-10695785D01*
X14885284Y-9933785D02*
X14885284Y-9877216D01*
X14828715Y-9877216D01*
X14828715Y-9933785D01*
X14885284Y-9933785D01*
X14885284Y-10695785D02*
X14885284Y-10639216D01*
X14828715Y-10639216D01*
X14828715Y-10695785D01*
X14885284Y-10695785D01*
X15442484Y-4467085D02*
X15442484Y-4410516D01*
X15385915Y-4410516D01*
X15385915Y-4467085D01*
X15442484Y-4467085D01*
X15442484Y-4721085D02*
X15442484Y-4664516D01*
X15385915Y-4664516D01*
X15385915Y-4721085D01*
X15442484Y-4721085D01*
X15442484Y-4975085D02*
X15442484Y-4918516D01*
X15385915Y-4918516D01*
X15385915Y-4975085D01*
X15442484Y-4975085D01*
X15442484Y-5229085D02*
X15442484Y-5172516D01*
X15385915Y-5172516D01*
X15385915Y-5229085D01*
X15442484Y-5229085D01*
X15442484Y-5483085D02*
X15442484Y-5426516D01*
X15385915Y-5426516D01*
X15385915Y-5483085D01*
X15442484Y-5483085D01*
X15442484Y-5737084D02*
X15442484Y-5680515D01*
X15385915Y-5680515D01*
X15385915Y-5737084D01*
X15442484Y-5737084D01*
X15442484Y-5991084D02*
X15442484Y-5934515D01*
X15385915Y-5934515D01*
X15385915Y-5991084D01*
X15442484Y-5991084D01*
X15442484Y-6245084D02*
X15442484Y-6188515D01*
X15385915Y-6188515D01*
X15385915Y-6245084D01*
X15442484Y-6245084D01*
X15442484Y-6499084D02*
X15442484Y-6442515D01*
X15385915Y-6442515D01*
X15385915Y-6499084D01*
X15442484Y-6499084D01*
X15442484Y-6753084D02*
X15442484Y-6696515D01*
X15385915Y-6696515D01*
X15385915Y-6753084D01*
X15442484Y-6753084D01*
X15442484Y-7007084D02*
X15442484Y-6950515D01*
X15385915Y-6950515D01*
X15385915Y-7007084D01*
X15442484Y-7007084D01*
X15442484Y-7261084D02*
X15442484Y-7204515D01*
X15385915Y-7204515D01*
X15385915Y-7261084D01*
X15442484Y-7261084D01*
X15442484Y-7515084D02*
X15442484Y-7458515D01*
X15385915Y-7458515D01*
X15385915Y-7515084D01*
X15442484Y-7515084D01*
X15442484Y-7769084D02*
X15442484Y-7712515D01*
X15385915Y-7712515D01*
X15385915Y-7769084D01*
X15442484Y-7769084D01*
X15875884Y-9095585D02*
X15875884Y-9039016D01*
X15819315Y-9039016D01*
X15819315Y-9095585D01*
X15875884Y-9095585D01*
X15875884Y-10619585D02*
X15875884Y-10563016D01*
X15819315Y-10563016D01*
X15819315Y-10619585D01*
X15875884Y-10619585D01*
X16129884Y-9095585D02*
X16129884Y-9039016D01*
X16073315Y-9039016D01*
X16073315Y-9095585D01*
X16129884Y-9095585D01*
X16129884Y-10619585D02*
X16129884Y-10563016D01*
X16073315Y-10563016D01*
X16073315Y-10619585D01*
X16129884Y-10619585D01*
X16383884Y-9095585D02*
X16383884Y-9039016D01*
X16327315Y-9039016D01*
X16327315Y-9095585D01*
X16383884Y-9095585D01*
X16383884Y-10619585D02*
X16383884Y-10563016D01*
X16327315Y-10563016D01*
X16327315Y-10619585D01*
X16383884Y-10619585D01*
X16434684Y-11610184D02*
X16434684Y-11553615D01*
X16378115Y-11553615D01*
X16378115Y-11610184D01*
X16434684Y-11610184D01*
X16434684Y-12372184D02*
X16434684Y-12315615D01*
X16378115Y-12315615D01*
X16378115Y-12372184D01*
X16434684Y-12372184D01*
X16637884Y-9095585D02*
X16637884Y-9039016D01*
X16581315Y-9039016D01*
X16581315Y-9095585D01*
X16637884Y-9095585D01*
X16637884Y-10619585D02*
X16637884Y-10563016D01*
X16581315Y-10563016D01*
X16581315Y-10619585D01*
X16637884Y-10619585D01*
X16688684Y-11610184D02*
X16688684Y-11553615D01*
X16632115Y-11553615D01*
X16632115Y-11610184D01*
X16688684Y-11610184D01*
X16688684Y-12372184D02*
X16688684Y-12315615D01*
X16632115Y-12315615D01*
X16632115Y-12372184D01*
X16688684Y-12372184D01*
X16891885Y-9095585D02*
X16891885Y-9039016D01*
X16835316Y-9039016D01*
X16835316Y-9095585D01*
X16891885Y-9095585D01*
X16891885Y-10619585D02*
X16891885Y-10563016D01*
X16835316Y-10563016D01*
X16835316Y-10619585D01*
X16891885Y-10619585D01*
X16942685Y-11610184D02*
X16942685Y-11553615D01*
X16886116Y-11553615D01*
X16886116Y-11610184D01*
X16942685Y-11610184D01*
X16942685Y-12372184D02*
X16942685Y-12315615D01*
X16886116Y-12315615D01*
X16886116Y-12372184D01*
X16942685Y-12372184D01*
X16942685Y-13565984D02*
X16942685Y-13509415D01*
X16886116Y-13509415D01*
X16886116Y-13565984D01*
X16942685Y-13565984D01*
X16966485Y-4467085D02*
X16966485Y-4410516D01*
X16909916Y-4410516D01*
X16909916Y-4467085D01*
X16966485Y-4467085D01*
X16966485Y-4721085D02*
X16966485Y-4664516D01*
X16909916Y-4664516D01*
X16909916Y-4721085D01*
X16966485Y-4721085D01*
X16966485Y-4975085D02*
X16966485Y-4918516D01*
X16909916Y-4918516D01*
X16909916Y-4975085D01*
X16966485Y-4975085D01*
X16966485Y-5229085D02*
X16966485Y-5172516D01*
X16909916Y-5172516D01*
X16909916Y-5229085D01*
X16966485Y-5229085D01*
X16966485Y-5483085D02*
X16966485Y-5426516D01*
X16909916Y-5426516D01*
X16909916Y-5483085D01*
X16966485Y-5483085D01*
X16966485Y-5737084D02*
X16966485Y-5680515D01*
X16909916Y-5680515D01*
X16909916Y-5737084D01*
X16966485Y-5737084D01*
X16966485Y-5991084D02*
X16966485Y-5934515D01*
X16909916Y-5934515D01*
X16909916Y-5991084D01*
X16966485Y-5991084D01*
X16966485Y-6245084D02*
X16966485Y-6188515D01*
X16909916Y-6188515D01*
X16909916Y-6245084D01*
X16966485Y-6245084D01*
X16966485Y-6499084D02*
X16966485Y-6442515D01*
X16909916Y-6442515D01*
X16909916Y-6499084D01*
X16966485Y-6499084D01*
X16966485Y-6753084D02*
X16966485Y-6696515D01*
X16909916Y-6696515D01*
X16909916Y-6753084D01*
X16966485Y-6753084D01*
X16966485Y-7007084D02*
X16966485Y-6950515D01*
X16909916Y-6950515D01*
X16909916Y-7007084D01*
X16966485Y-7007084D01*
X16966485Y-7261084D02*
X16966485Y-7204515D01*
X16909916Y-7204515D01*
X16909916Y-7261084D01*
X16966485Y-7261084D01*
X16966485Y-7515084D02*
X16966485Y-7458515D01*
X16909916Y-7458515D01*
X16909916Y-7515084D01*
X16966485Y-7515084D01*
X16966485Y-7769084D02*
X16966485Y-7712515D01*
X16909916Y-7712515D01*
X16909916Y-7769084D01*
X16966485Y-7769084D01*
X17145885Y-9095585D02*
X17145885Y-9039016D01*
X17089316Y-9039016D01*
X17089316Y-9095585D01*
X17145885Y-9095585D01*
X17145885Y-10619585D02*
X17145885Y-10563016D01*
X17089316Y-10563016D01*
X17089316Y-10619585D01*
X17145885Y-10619585D01*
X17196685Y-11610184D02*
X17196685Y-11553615D01*
X17140116Y-11553615D01*
X17140116Y-11610184D01*
X17196685Y-11610184D01*
X17196685Y-12372184D02*
X17196685Y-12315615D01*
X17140116Y-12315615D01*
X17140116Y-12372184D01*
X17196685Y-12372184D01*
X17196685Y-13565984D02*
X17196685Y-13509415D01*
X17140116Y-13509415D01*
X17140116Y-13565984D01*
X17196685Y-13565984D01*
X17399885Y-9095585D02*
X17399885Y-9039016D01*
X17343316Y-9039016D01*
X17343316Y-9095585D01*
X17399885Y-9095585D01*
X17399885Y-10619585D02*
X17399885Y-10563016D01*
X17343316Y-10563016D01*
X17343316Y-10619585D01*
X17399885Y-10619585D01*
X17450685Y-11610184D02*
X17450685Y-11553615D01*
X17394116Y-11553615D01*
X17394116Y-11610184D01*
X17450685Y-11610184D01*
X17450685Y-12372184D02*
X17450685Y-12315615D01*
X17394116Y-12315615D01*
X17394116Y-12372184D01*
X17450685Y-12372184D01*
X17450685Y-13565984D02*
X17450685Y-13509415D01*
X17394116Y-13509415D01*
X17394116Y-13565984D01*
X17450685Y-13565984D01*
X17653885Y-9095585D02*
X17653885Y-9039016D01*
X17597316Y-9039016D01*
X17597316Y-9095585D01*
X17653885Y-9095585D01*
X17653885Y-10619585D02*
X17653885Y-10563016D01*
X17597316Y-10563016D01*
X17597316Y-10619585D01*
X17653885Y-10619585D01*
X17704685Y-11610184D02*
X17704685Y-11553615D01*
X17648116Y-11553615D01*
X17648116Y-11610184D01*
X17704685Y-11610184D01*
X17704685Y-12372184D02*
X17704685Y-12315615D01*
X17648116Y-12315615D01*
X17648116Y-12372184D01*
X17704685Y-12372184D01*
X17704685Y-13565984D02*
X17704685Y-13509415D01*
X17648116Y-13509415D01*
X17648116Y-13565984D01*
X17704685Y-13565984D01*
X17907885Y-9095585D02*
X17907885Y-9039016D01*
X17851316Y-9039016D01*
X17851316Y-9095585D01*
X17907885Y-9095585D01*
X17907885Y-10619585D02*
X17907885Y-10563016D01*
X17851316Y-10563016D01*
X17851316Y-10619585D01*
X17907885Y-10619585D01*
X17958685Y-11610184D02*
X17958685Y-11553615D01*
X17902116Y-11553615D01*
X17902116Y-11610184D01*
X17958685Y-11610184D01*
X17958685Y-12372184D02*
X17958685Y-12315615D01*
X17902116Y-12315615D01*
X17902116Y-12372184D01*
X17958685Y-12372184D01*
X17958685Y-13565984D02*
X17958685Y-13509415D01*
X17902116Y-13509415D01*
X17902116Y-13565984D01*
X17958685Y-13565984D01*
X18042485Y-4475085D02*
X18042485Y-4418516D01*
X17985916Y-4418516D01*
X17985916Y-4475085D01*
X18042485Y-4475085D01*
X18042485Y-4729085D02*
X18042485Y-4672516D01*
X17985916Y-4672516D01*
X17985916Y-4729085D01*
X18042485Y-4729085D01*
X18042485Y-4983085D02*
X18042485Y-4926516D01*
X17985916Y-4926516D01*
X17985916Y-4983085D01*
X18042485Y-4983085D01*
X18042485Y-5237085D02*
X18042485Y-5180516D01*
X17985916Y-5180516D01*
X17985916Y-5237085D01*
X18042485Y-5237085D01*
X18042485Y-5491085D02*
X18042485Y-5434516D01*
X17985916Y-5434516D01*
X17985916Y-5491085D01*
X18042485Y-5491085D01*
X18042485Y-5745084D02*
X18042485Y-5688515D01*
X17985916Y-5688515D01*
X17985916Y-5745084D01*
X18042485Y-5745084D01*
X18042485Y-5999084D02*
X18042485Y-5942515D01*
X17985916Y-5942515D01*
X17985916Y-5999084D01*
X18042485Y-5999084D01*
X18042485Y-6253084D02*
X18042485Y-6196515D01*
X17985916Y-6196515D01*
X17985916Y-6253084D01*
X18042485Y-6253084D01*
X18042485Y-6507084D02*
X18042485Y-6450515D01*
X17985916Y-6450515D01*
X17985916Y-6507084D01*
X18042485Y-6507084D01*
X18042485Y-6761084D02*
X18042485Y-6704515D01*
X17985916Y-6704515D01*
X17985916Y-6761084D01*
X18042485Y-6761084D01*
X18042485Y-7015084D02*
X18042485Y-6958515D01*
X17985916Y-6958515D01*
X17985916Y-7015084D01*
X18042485Y-7015084D01*
X18042485Y-7269084D02*
X18042485Y-7212515D01*
X17985916Y-7212515D01*
X17985916Y-7269084D01*
X18042485Y-7269084D01*
X18042485Y-7523084D02*
X18042485Y-7466515D01*
X17985916Y-7466515D01*
X17985916Y-7523084D01*
X18042485Y-7523084D01*
X18042485Y-7777084D02*
X18042485Y-7720515D01*
X17985916Y-7720515D01*
X17985916Y-7777084D01*
X18042485Y-7777084D01*
X18161885Y-9095585D02*
X18161885Y-9039016D01*
X18105316Y-9039016D01*
X18105316Y-9095585D01*
X18161885Y-9095585D01*
X18161885Y-10619585D02*
X18161885Y-10563016D01*
X18105316Y-10563016D01*
X18105316Y-10619585D01*
X18161885Y-10619585D01*
X18212685Y-11610184D02*
X18212685Y-11553615D01*
X18156116Y-11553615D01*
X18156116Y-11610184D01*
X18212685Y-11610184D01*
X18212685Y-12372184D02*
X18212685Y-12315615D01*
X18156116Y-12315615D01*
X18156116Y-12372184D01*
X18212685Y-12372184D01*
X18212685Y-13565984D02*
X18212685Y-13509415D01*
X18156116Y-13509415D01*
X18156116Y-13565984D01*
X18212685Y-13565984D01*
X18415885Y-9095585D02*
X18415885Y-9039016D01*
X18359316Y-9039016D01*
X18359316Y-9095585D01*
X18415885Y-9095585D01*
X18415885Y-10619585D02*
X18415885Y-10563016D01*
X18359316Y-10563016D01*
X18359316Y-10619585D01*
X18415885Y-10619585D01*
X18466685Y-11610184D02*
X18466685Y-11553615D01*
X18410116Y-11553615D01*
X18410116Y-11610184D01*
X18466685Y-11610184D01*
X18466685Y-12372184D02*
X18466685Y-12315615D01*
X18410116Y-12315615D01*
X18410116Y-12372184D01*
X18466685Y-12372184D01*
X18466685Y-13565984D02*
X18466685Y-13509415D01*
X18410116Y-13509415D01*
X18410116Y-13565984D01*
X18466685Y-13565984D01*
X18669885Y-9095585D02*
X18669885Y-9039016D01*
X18613316Y-9039016D01*
X18613316Y-9095585D01*
X18669885Y-9095585D01*
X18669885Y-10619585D02*
X18669885Y-10563016D01*
X18613316Y-10563016D01*
X18613316Y-10619585D01*
X18669885Y-10619585D01*
X18720685Y-11610184D02*
X18720685Y-11553615D01*
X18664116Y-11553615D01*
X18664116Y-11610184D01*
X18720685Y-11610184D01*
X18720685Y-12372184D02*
X18720685Y-12315615D01*
X18664116Y-12315615D01*
X18664116Y-12372184D01*
X18720685Y-12372184D01*
X18720685Y-13565984D02*
X18720685Y-13509415D01*
X18664116Y-13509415D01*
X18664116Y-13565984D01*
X18720685Y-13565984D01*
X18974685Y-13565984D02*
X18974685Y-13509415D01*
X18918116Y-13509415D01*
X18918116Y-13565984D01*
X18974685Y-13565984D01*
X19566485Y-4475085D02*
X19566485Y-4418516D01*
X19509916Y-4418516D01*
X19509916Y-4475085D01*
X19566485Y-4475085D01*
X19566485Y-4729085D02*
X19566485Y-4672516D01*
X19509916Y-4672516D01*
X19509916Y-4729085D01*
X19566485Y-4729085D01*
X19566485Y-4983085D02*
X19566485Y-4926516D01*
X19509916Y-4926516D01*
X19509916Y-4983085D01*
X19566485Y-4983085D01*
X19566485Y-5237085D02*
X19566485Y-5180516D01*
X19509916Y-5180516D01*
X19509916Y-5237085D01*
X19566485Y-5237085D01*
X19566485Y-5491085D02*
X19566485Y-5434516D01*
X19509916Y-5434516D01*
X19509916Y-5491085D01*
X19566485Y-5491085D01*
X19566485Y-5745084D02*
X19566485Y-5688515D01*
X19509916Y-5688515D01*
X19509916Y-5745084D01*
X19566485Y-5745084D01*
X19566485Y-5999084D02*
X19566485Y-5942515D01*
X19509916Y-5942515D01*
X19509916Y-5999084D01*
X19566485Y-5999084D01*
X19566485Y-6253084D02*
X19566485Y-6196515D01*
X19509916Y-6196515D01*
X19509916Y-6253084D01*
X19566485Y-6253084D01*
X19566485Y-6507084D02*
X19566485Y-6450515D01*
X19509916Y-6450515D01*
X19509916Y-6507084D01*
X19566485Y-6507084D01*
X19566485Y-6761084D02*
X19566485Y-6704515D01*
X19509916Y-6704515D01*
X19509916Y-6761084D01*
X19566485Y-6761084D01*
X19566485Y-7015084D02*
X19566485Y-6958515D01*
X19509916Y-6958515D01*
X19509916Y-7015084D01*
X19566485Y-7015084D01*
X19566485Y-7269084D02*
X19566485Y-7212515D01*
X19509916Y-7212515D01*
X19509916Y-7269084D01*
X19566485Y-7269084D01*
X19566485Y-7523084D02*
X19566485Y-7466515D01*
X19509916Y-7466515D01*
X19509916Y-7523084D01*
X19566485Y-7523084D01*
X19566485Y-7777084D02*
X19566485Y-7720515D01*
X19509916Y-7720515D01*
X19509916Y-7777084D01*
X19566485Y-7777084D01*
D16*
X15441200Y-12922300D02*
X15486200Y-12877300D01*
X15441200Y-12832300D01*
X15396200Y-12877300D01*
X15441200Y-12922300D01*
X15441200Y-13176300D02*
X15486200Y-13131300D01*
X15441200Y-13086300D01*
X15396200Y-13131300D01*
X15441200Y-13176300D01*
X16025400Y-12922300D02*
X16070400Y-12877300D01*
X16025400Y-12832300D01*
X15980400Y-12877300D01*
X16025400Y-12922300D01*
X16025400Y-13176300D02*
X16070400Y-13131300D01*
X16025400Y-13086300D01*
X15980400Y-13131300D01*
X16025400Y-13176300D01*
X16609600Y-12922300D02*
X16654600Y-12877300D01*
X16609600Y-12832300D01*
X16564600Y-12877300D01*
X16609600Y-12922300D01*
X16609600Y-13176300D02*
X16654600Y-13131300D01*
X16609600Y-13086300D01*
X16564600Y-13131300D01*
X16609600Y-13176300D01*
X17193800Y-12922300D02*
X17238800Y-12877300D01*
X17193800Y-12832300D01*
X17148800Y-12877300D01*
X17193800Y-12922300D01*
X17193800Y-13176300D02*
X17238800Y-13131300D01*
X17193800Y-13086300D01*
X17148800Y-13131300D01*
X17193800Y-13176300D01*
X17778000Y-12922300D02*
X17823000Y-12877300D01*
X17778000Y-12832300D01*
X17733000Y-12877300D01*
X17778000Y-12922300D01*
X17778000Y-13176300D02*
X17823000Y-13131300D01*
X17778000Y-13086300D01*
X17733000Y-13131300D01*
X17778000Y-13176300D01*
X18362200Y-12922300D02*
X18407200Y-12877300D01*
X18362200Y-12832300D01*
X18317200Y-12877300D01*
X18362200Y-12922300D01*
X18362200Y-13176300D02*
X18407200Y-13131300D01*
X18362200Y-13086300D01*
X18317200Y-13131300D01*
X18362200Y-13176300D01*
X18946400Y-12896900D02*
X18991400Y-12851900D01*
X18946400Y-12806900D01*
X18901400Y-12851900D01*
X18946400Y-12896900D01*
X18946400Y-13150900D02*
X18991400Y-13105900D01*
X18946400Y-13060900D01*
X18901400Y-13105900D01*
X18946400Y-13150900D01*
X19530600Y-12896900D02*
X19575600Y-12851900D01*
X19530600Y-12806900D01*
X19485600Y-12851900D01*
X19530600Y-12896900D01*
X19530600Y-13150900D02*
X19575600Y-13105900D01*
X19530600Y-13060900D01*
X19485600Y-13105900D01*
X19530600Y-13150900D01*
D11*
X10089177Y-14055384D02*
X10089177Y-13855384D01*
X10089177Y-13855384D02*
X10136796Y-13855384D01*
X10136796Y-13855384D02*
X10165367Y-13864908D01*
X10165367Y-13864908D02*
X10184415Y-13883955D01*
X10184415Y-13883955D02*
X10193939Y-13903003D01*
X10193939Y-13903003D02*
X10203463Y-13941098D01*
X10203463Y-13941098D02*
X10203463Y-13969669D01*
X10203463Y-13969669D02*
X10193939Y-14007765D01*
X10193939Y-14007765D02*
X10184415Y-14026812D01*
X10184415Y-14026812D02*
X10165367Y-14045860D01*
X10165367Y-14045860D02*
X10136796Y-14055384D01*
X10136796Y-14055384D02*
X10089177Y-14055384D01*
X10289177Y-14055384D02*
X10289177Y-13922050D01*
X10289177Y-13960146D02*
X10298701Y-13941098D01*
X10298701Y-13941098D02*
X10308224Y-13931574D01*
X10308224Y-13931574D02*
X10327272Y-13922050D01*
X10327272Y-13922050D02*
X10346320Y-13922050D01*
X10412986Y-14055384D02*
X10412986Y-13922050D01*
X10412986Y-13855384D02*
X10403463Y-13864908D01*
X10403463Y-13864908D02*
X10412986Y-13874431D01*
X10412986Y-13874431D02*
X10422510Y-13864908D01*
X10422510Y-13864908D02*
X10412986Y-13855384D01*
X10412986Y-13855384D02*
X10412986Y-13874431D01*
X10536796Y-14055384D02*
X10517748Y-14045860D01*
X10517748Y-14045860D02*
X10508224Y-14026812D01*
X10508224Y-14026812D02*
X10508224Y-13855384D01*
X10641558Y-14055384D02*
X10622510Y-14045860D01*
X10622510Y-14045860D02*
X10612986Y-14026812D01*
X10612986Y-14026812D02*
X10612986Y-13855384D01*
X10870129Y-14055384D02*
X10870129Y-13855384D01*
X10870129Y-13855384D02*
X10936796Y-13998241D01*
X10936796Y-13998241D02*
X11003463Y-13855384D01*
X11003463Y-13855384D02*
X11003463Y-14055384D01*
X11184415Y-14055384D02*
X11184415Y-13950622D01*
X11184415Y-13950622D02*
X11174891Y-13931574D01*
X11174891Y-13931574D02*
X11155844Y-13922050D01*
X11155844Y-13922050D02*
X11117748Y-13922050D01*
X11117748Y-13922050D02*
X11098701Y-13931574D01*
X11184415Y-14045860D02*
X11165367Y-14055384D01*
X11165367Y-14055384D02*
X11117748Y-14055384D01*
X11117748Y-14055384D02*
X11098701Y-14045860D01*
X11098701Y-14045860D02*
X11089177Y-14026812D01*
X11089177Y-14026812D02*
X11089177Y-14007765D01*
X11089177Y-14007765D02*
X11098701Y-13988717D01*
X11098701Y-13988717D02*
X11117748Y-13979193D01*
X11117748Y-13979193D02*
X11165367Y-13979193D01*
X11165367Y-13979193D02*
X11184415Y-13969669D01*
X11279653Y-13922050D02*
X11279653Y-14122050D01*
X11279653Y-13931574D02*
X11298701Y-13922050D01*
X11298701Y-13922050D02*
X11336796Y-13922050D01*
X11336796Y-13922050D02*
X11355843Y-13931574D01*
X11355843Y-13931574D02*
X11365367Y-13941098D01*
X11365367Y-13941098D02*
X11374891Y-13960146D01*
X11374891Y-13960146D02*
X11374891Y-14017288D01*
X11374891Y-14017288D02*
X11365367Y-14036336D01*
X11365367Y-14036336D02*
X11355843Y-14045860D01*
X11355843Y-14045860D02*
X11336796Y-14055384D01*
X11336796Y-14055384D02*
X11298701Y-14055384D01*
X11298701Y-14055384D02*
X11279653Y-14045860D01*
X11460605Y-14036336D02*
X11470129Y-14045860D01*
X11470129Y-14045860D02*
X11460605Y-14055384D01*
X11460605Y-14055384D02*
X11451082Y-14045860D01*
X11451082Y-14045860D02*
X11460605Y-14036336D01*
X11460605Y-14036336D02*
X11460605Y-14055384D01*
X11460605Y-13931574D02*
X11470129Y-13941098D01*
X11470129Y-13941098D02*
X11460605Y-13950622D01*
X11460605Y-13950622D02*
X11451082Y-13941098D01*
X11451082Y-13941098D02*
X11460605Y-13931574D01*
X11460605Y-13931574D02*
X11460605Y-13950622D01*
D12*
X9788400Y-14363900D02*
X9828400Y-14403900D01*
X9828400Y-14363900D02*
X9788400Y-14403900D01*
D11*
X10127272Y-14275384D02*
X10146320Y-14275384D01*
X10146320Y-14275384D02*
X10165367Y-14284908D01*
X10165367Y-14284908D02*
X10174891Y-14294431D01*
X10174891Y-14294431D02*
X10184415Y-14313479D01*
X10184415Y-14313479D02*
X10193939Y-14351574D01*
X10193939Y-14351574D02*
X10193939Y-14399193D01*
X10193939Y-14399193D02*
X10184415Y-14437288D01*
X10184415Y-14437288D02*
X10174891Y-14456336D01*
X10174891Y-14456336D02*
X10165367Y-14465860D01*
X10165367Y-14465860D02*
X10146320Y-14475384D01*
X10146320Y-14475384D02*
X10127272Y-14475384D01*
X10127272Y-14475384D02*
X10108224Y-14465860D01*
X10108224Y-14465860D02*
X10098701Y-14456336D01*
X10098701Y-14456336D02*
X10089177Y-14437288D01*
X10089177Y-14437288D02*
X10079653Y-14399193D01*
X10079653Y-14399193D02*
X10079653Y-14351574D01*
X10079653Y-14351574D02*
X10089177Y-14313479D01*
X10089177Y-14313479D02*
X10098701Y-14294431D01*
X10098701Y-14294431D02*
X10108224Y-14284908D01*
X10108224Y-14284908D02*
X10127272Y-14275384D01*
X10279653Y-14456336D02*
X10289177Y-14465860D01*
X10289177Y-14465860D02*
X10279653Y-14475384D01*
X10279653Y-14475384D02*
X10270129Y-14465860D01*
X10270129Y-14465860D02*
X10279653Y-14456336D01*
X10279653Y-14456336D02*
X10279653Y-14475384D01*
X10460605Y-14342050D02*
X10460605Y-14475384D01*
X10412986Y-14265860D02*
X10365367Y-14408717D01*
X10365367Y-14408717D02*
X10489177Y-14408717D01*
X10603463Y-14275384D02*
X10622510Y-14275384D01*
X10622510Y-14275384D02*
X10641558Y-14284908D01*
X10641558Y-14284908D02*
X10651082Y-14294431D01*
X10651082Y-14294431D02*
X10660605Y-14313479D01*
X10660605Y-14313479D02*
X10670129Y-14351574D01*
X10670129Y-14351574D02*
X10670129Y-14399193D01*
X10670129Y-14399193D02*
X10660605Y-14437288D01*
X10660605Y-14437288D02*
X10651082Y-14456336D01*
X10651082Y-14456336D02*
X10641558Y-14465860D01*
X10641558Y-14465860D02*
X10622510Y-14475384D01*
X10622510Y-14475384D02*
X10603463Y-14475384D01*
X10603463Y-14475384D02*
X10584415Y-14465860D01*
X10584415Y-14465860D02*
X10574891Y-14456336D01*
X10574891Y-14456336D02*
X10565367Y-14437288D01*
X10565367Y-14437288D02*
X10555844Y-14399193D01*
X10555844Y-14399193D02*
X10555844Y-14351574D01*
X10555844Y-14351574D02*
X10565367Y-14313479D01*
X10565367Y-14313479D02*
X10574891Y-14294431D01*
X10574891Y-14294431D02*
X10584415Y-14284908D01*
X10584415Y-14284908D02*
X10603463Y-14275384D01*
X10793939Y-14275384D02*
X10812986Y-14275384D01*
X10812986Y-14275384D02*
X10832034Y-14284908D01*
X10832034Y-14284908D02*
X10841558Y-14294431D01*
X10841558Y-14294431D02*
X10851082Y-14313479D01*
X10851082Y-14313479D02*
X10860605Y-14351574D01*
X10860605Y-14351574D02*
X10860605Y-14399193D01*
X10860605Y-14399193D02*
X10851082Y-14437288D01*
X10851082Y-14437288D02*
X10841558Y-14456336D01*
X10841558Y-14456336D02*
X10832034Y-14465860D01*
X10832034Y-14465860D02*
X10812986Y-14475384D01*
X10812986Y-14475384D02*
X10793939Y-14475384D01*
X10793939Y-14475384D02*
X10774891Y-14465860D01*
X10774891Y-14465860D02*
X10765367Y-14456336D01*
X10765367Y-14456336D02*
X10755844Y-14437288D01*
X10755844Y-14437288D02*
X10746320Y-14399193D01*
X10746320Y-14399193D02*
X10746320Y-14351574D01*
X10746320Y-14351574D02*
X10755844Y-14313479D01*
X10755844Y-14313479D02*
X10765367Y-14294431D01*
X10765367Y-14294431D02*
X10774891Y-14284908D01*
X10774891Y-14284908D02*
X10793939Y-14275384D01*
X10946320Y-14475384D02*
X10946320Y-14342050D01*
X10946320Y-14361098D02*
X10955844Y-14351574D01*
X10955844Y-14351574D02*
X10974891Y-14342050D01*
X10974891Y-14342050D02*
X11003463Y-14342050D01*
X11003463Y-14342050D02*
X11022510Y-14351574D01*
X11022510Y-14351574D02*
X11032034Y-14370622D01*
X11032034Y-14370622D02*
X11032034Y-14475384D01*
X11032034Y-14370622D02*
X11041558Y-14351574D01*
X11041558Y-14351574D02*
X11060605Y-14342050D01*
X11060605Y-14342050D02*
X11089177Y-14342050D01*
X11089177Y-14342050D02*
X11108225Y-14351574D01*
X11108225Y-14351574D02*
X11117748Y-14370622D01*
X11117748Y-14370622D02*
X11117748Y-14475384D01*
X11212986Y-14475384D02*
X11212986Y-14342050D01*
X11212986Y-14361098D02*
X11222510Y-14351574D01*
X11222510Y-14351574D02*
X11241558Y-14342050D01*
X11241558Y-14342050D02*
X11270129Y-14342050D01*
X11270129Y-14342050D02*
X11289177Y-14351574D01*
X11289177Y-14351574D02*
X11298701Y-14370622D01*
X11298701Y-14370622D02*
X11298701Y-14475384D01*
X11298701Y-14370622D02*
X11308224Y-14351574D01*
X11308224Y-14351574D02*
X11327272Y-14342050D01*
X11327272Y-14342050D02*
X11355843Y-14342050D01*
X11355843Y-14342050D02*
X11374891Y-14351574D01*
X11374891Y-14351574D02*
X11384415Y-14370622D01*
X11384415Y-14370622D02*
X11384415Y-14475384D01*
X11774891Y-14265860D02*
X11603463Y-14523003D01*
X12032034Y-14275384D02*
X12051082Y-14275384D01*
X12051082Y-14275384D02*
X12070129Y-14284908D01*
X12070129Y-14284908D02*
X12079653Y-14294431D01*
X12079653Y-14294431D02*
X12089177Y-14313479D01*
X12089177Y-14313479D02*
X12098701Y-14351574D01*
X12098701Y-14351574D02*
X12098701Y-14399193D01*
X12098701Y-14399193D02*
X12089177Y-14437288D01*
X12089177Y-14437288D02*
X12079653Y-14456336D01*
X12079653Y-14456336D02*
X12070129Y-14465860D01*
X12070129Y-14465860D02*
X12051082Y-14475384D01*
X12051082Y-14475384D02*
X12032034Y-14475384D01*
X12032034Y-14475384D02*
X12012986Y-14465860D01*
X12012986Y-14465860D02*
X12003463Y-14456336D01*
X12003463Y-14456336D02*
X11993939Y-14437288D01*
X11993939Y-14437288D02*
X11984415Y-14399193D01*
X11984415Y-14399193D02*
X11984415Y-14351574D01*
X11984415Y-14351574D02*
X11993939Y-14313479D01*
X11993939Y-14313479D02*
X12003463Y-14294431D01*
X12003463Y-14294431D02*
X12012986Y-14284908D01*
X12012986Y-14284908D02*
X12032034Y-14275384D01*
X12184415Y-14456336D02*
X12193939Y-14465860D01*
X12193939Y-14465860D02*
X12184415Y-14475384D01*
X12184415Y-14475384D02*
X12174891Y-14465860D01*
X12174891Y-14465860D02*
X12184415Y-14456336D01*
X12184415Y-14456336D02*
X12184415Y-14475384D01*
X12317748Y-14275384D02*
X12336796Y-14275384D01*
X12336796Y-14275384D02*
X12355844Y-14284908D01*
X12355844Y-14284908D02*
X12365367Y-14294431D01*
X12365367Y-14294431D02*
X12374891Y-14313479D01*
X12374891Y-14313479D02*
X12384415Y-14351574D01*
X12384415Y-14351574D02*
X12384415Y-14399193D01*
X12384415Y-14399193D02*
X12374891Y-14437288D01*
X12374891Y-14437288D02*
X12365367Y-14456336D01*
X12365367Y-14456336D02*
X12355844Y-14465860D01*
X12355844Y-14465860D02*
X12336796Y-14475384D01*
X12336796Y-14475384D02*
X12317748Y-14475384D01*
X12317748Y-14475384D02*
X12298701Y-14465860D01*
X12298701Y-14465860D02*
X12289177Y-14456336D01*
X12289177Y-14456336D02*
X12279653Y-14437288D01*
X12279653Y-14437288D02*
X12270129Y-14399193D01*
X12270129Y-14399193D02*
X12270129Y-14351574D01*
X12270129Y-14351574D02*
X12279653Y-14313479D01*
X12279653Y-14313479D02*
X12289177Y-14294431D01*
X12289177Y-14294431D02*
X12298701Y-14284908D01*
X12298701Y-14284908D02*
X12317748Y-14275384D01*
X12574891Y-14475384D02*
X12460606Y-14475384D01*
X12517748Y-14475384D02*
X12517748Y-14275384D01*
X12517748Y-14275384D02*
X12498701Y-14303955D01*
X12498701Y-14303955D02*
X12479653Y-14323003D01*
X12479653Y-14323003D02*
X12460606Y-14332527D01*
X12755844Y-14275384D02*
X12660606Y-14275384D01*
X12660606Y-14275384D02*
X12651082Y-14370622D01*
X12651082Y-14370622D02*
X12660606Y-14361098D01*
X12660606Y-14361098D02*
X12679653Y-14351574D01*
X12679653Y-14351574D02*
X12727272Y-14351574D01*
X12727272Y-14351574D02*
X12746320Y-14361098D01*
X12746320Y-14361098D02*
X12755844Y-14370622D01*
X12755844Y-14370622D02*
X12765367Y-14389669D01*
X12765367Y-14389669D02*
X12765367Y-14437288D01*
X12765367Y-14437288D02*
X12755844Y-14456336D01*
X12755844Y-14456336D02*
X12746320Y-14465860D01*
X12746320Y-14465860D02*
X12727272Y-14475384D01*
X12727272Y-14475384D02*
X12679653Y-14475384D01*
X12679653Y-14475384D02*
X12660606Y-14465860D01*
X12660606Y-14465860D02*
X12651082Y-14456336D01*
X12832034Y-14275384D02*
X12965367Y-14275384D01*
X12965367Y-14275384D02*
X12879653Y-14475384D01*
X13032034Y-14275384D02*
X13032034Y-14313479D01*
X13108225Y-14275384D02*
X13108225Y-14313479D01*
X13403463Y-14551574D02*
X13393939Y-14542050D01*
X13393939Y-14542050D02*
X13374891Y-14513479D01*
X13374891Y-14513479D02*
X13365368Y-14494431D01*
X13365368Y-14494431D02*
X13355844Y-14465860D01*
X13355844Y-14465860D02*
X13346320Y-14418241D01*
X13346320Y-14418241D02*
X13346320Y-14380146D01*
X13346320Y-14380146D02*
X13355844Y-14332527D01*
X13355844Y-14332527D02*
X13365368Y-14303955D01*
X13365368Y-14303955D02*
X13374891Y-14284908D01*
X13374891Y-14284908D02*
X13393939Y-14256336D01*
X13393939Y-14256336D02*
X13403463Y-14246812D01*
X13489177Y-14475384D02*
X13527272Y-14475384D01*
X13527272Y-14475384D02*
X13546320Y-14465860D01*
X13546320Y-14465860D02*
X13555844Y-14456336D01*
X13555844Y-14456336D02*
X13574891Y-14427765D01*
X13574891Y-14427765D02*
X13584415Y-14389669D01*
X13584415Y-14389669D02*
X13584415Y-14313479D01*
X13584415Y-14313479D02*
X13574891Y-14294431D01*
X13574891Y-14294431D02*
X13565368Y-14284908D01*
X13565368Y-14284908D02*
X13546320Y-14275384D01*
X13546320Y-14275384D02*
X13508225Y-14275384D01*
X13508225Y-14275384D02*
X13489177Y-14284908D01*
X13489177Y-14284908D02*
X13479653Y-14294431D01*
X13479653Y-14294431D02*
X13470129Y-14313479D01*
X13470129Y-14313479D02*
X13470129Y-14361098D01*
X13470129Y-14361098D02*
X13479653Y-14380146D01*
X13479653Y-14380146D02*
X13489177Y-14389669D01*
X13489177Y-14389669D02*
X13508225Y-14399193D01*
X13508225Y-14399193D02*
X13546320Y-14399193D01*
X13546320Y-14399193D02*
X13565368Y-14389669D01*
X13565368Y-14389669D02*
X13574891Y-14380146D01*
X13574891Y-14380146D02*
X13584415Y-14361098D01*
X13698701Y-14361098D02*
X13679653Y-14351574D01*
X13679653Y-14351574D02*
X13670129Y-14342050D01*
X13670129Y-14342050D02*
X13660606Y-14323003D01*
X13660606Y-14323003D02*
X13660606Y-14313479D01*
X13660606Y-14313479D02*
X13670129Y-14294431D01*
X13670129Y-14294431D02*
X13679653Y-14284908D01*
X13679653Y-14284908D02*
X13698701Y-14275384D01*
X13698701Y-14275384D02*
X13736796Y-14275384D01*
X13736796Y-14275384D02*
X13755844Y-14284908D01*
X13755844Y-14284908D02*
X13765368Y-14294431D01*
X13765368Y-14294431D02*
X13774891Y-14313479D01*
X13774891Y-14313479D02*
X13774891Y-14323003D01*
X13774891Y-14323003D02*
X13765368Y-14342050D01*
X13765368Y-14342050D02*
X13755844Y-14351574D01*
X13755844Y-14351574D02*
X13736796Y-14361098D01*
X13736796Y-14361098D02*
X13698701Y-14361098D01*
X13698701Y-14361098D02*
X13679653Y-14370622D01*
X13679653Y-14370622D02*
X13670129Y-14380146D01*
X13670129Y-14380146D02*
X13660606Y-14399193D01*
X13660606Y-14399193D02*
X13660606Y-14437288D01*
X13660606Y-14437288D02*
X13670129Y-14456336D01*
X13670129Y-14456336D02*
X13679653Y-14465860D01*
X13679653Y-14465860D02*
X13698701Y-14475384D01*
X13698701Y-14475384D02*
X13736796Y-14475384D01*
X13736796Y-14475384D02*
X13755844Y-14465860D01*
X13755844Y-14465860D02*
X13765368Y-14456336D01*
X13765368Y-14456336D02*
X13774891Y-14437288D01*
X13774891Y-14437288D02*
X13774891Y-14399193D01*
X13774891Y-14399193D02*
X13765368Y-14380146D01*
X13765368Y-14380146D02*
X13755844Y-14370622D01*
X13755844Y-14370622D02*
X13736796Y-14361098D01*
X14012987Y-14475384D02*
X14012987Y-14275384D01*
X14098701Y-14475384D02*
X14098701Y-14370622D01*
X14098701Y-14370622D02*
X14089177Y-14351574D01*
X14089177Y-14351574D02*
X14070130Y-14342050D01*
X14070130Y-14342050D02*
X14041558Y-14342050D01*
X14041558Y-14342050D02*
X14022510Y-14351574D01*
X14022510Y-14351574D02*
X14012987Y-14361098D01*
X14222510Y-14475384D02*
X14203463Y-14465860D01*
X14203463Y-14465860D02*
X14193939Y-14456336D01*
X14193939Y-14456336D02*
X14184415Y-14437288D01*
X14184415Y-14437288D02*
X14184415Y-14380146D01*
X14184415Y-14380146D02*
X14193939Y-14361098D01*
X14193939Y-14361098D02*
X14203463Y-14351574D01*
X14203463Y-14351574D02*
X14222510Y-14342050D01*
X14222510Y-14342050D02*
X14251082Y-14342050D01*
X14251082Y-14342050D02*
X14270130Y-14351574D01*
X14270130Y-14351574D02*
X14279653Y-14361098D01*
X14279653Y-14361098D02*
X14289177Y-14380146D01*
X14289177Y-14380146D02*
X14289177Y-14437288D01*
X14289177Y-14437288D02*
X14279653Y-14456336D01*
X14279653Y-14456336D02*
X14270130Y-14465860D01*
X14270130Y-14465860D02*
X14251082Y-14475384D01*
X14251082Y-14475384D02*
X14222510Y-14475384D01*
X14403463Y-14475384D02*
X14384415Y-14465860D01*
X14384415Y-14465860D02*
X14374891Y-14446812D01*
X14374891Y-14446812D02*
X14374891Y-14275384D01*
X14555844Y-14465860D02*
X14536796Y-14475384D01*
X14536796Y-14475384D02*
X14498701Y-14475384D01*
X14498701Y-14475384D02*
X14479653Y-14465860D01*
X14479653Y-14465860D02*
X14470130Y-14446812D01*
X14470130Y-14446812D02*
X14470130Y-14370622D01*
X14470130Y-14370622D02*
X14479653Y-14351574D01*
X14479653Y-14351574D02*
X14498701Y-14342050D01*
X14498701Y-14342050D02*
X14536796Y-14342050D01*
X14536796Y-14342050D02*
X14555844Y-14351574D01*
X14555844Y-14351574D02*
X14565368Y-14370622D01*
X14565368Y-14370622D02*
X14565368Y-14389669D01*
X14565368Y-14389669D02*
X14470130Y-14408717D01*
X14641558Y-14465860D02*
X14660606Y-14475384D01*
X14660606Y-14475384D02*
X14698701Y-14475384D01*
X14698701Y-14475384D02*
X14717749Y-14465860D01*
X14717749Y-14465860D02*
X14727272Y-14446812D01*
X14727272Y-14446812D02*
X14727272Y-14437288D01*
X14727272Y-14437288D02*
X14717749Y-14418241D01*
X14717749Y-14418241D02*
X14698701Y-14408717D01*
X14698701Y-14408717D02*
X14670130Y-14408717D01*
X14670130Y-14408717D02*
X14651082Y-14399193D01*
X14651082Y-14399193D02*
X14641558Y-14380146D01*
X14641558Y-14380146D02*
X14641558Y-14370622D01*
X14641558Y-14370622D02*
X14651082Y-14351574D01*
X14651082Y-14351574D02*
X14670130Y-14342050D01*
X14670130Y-14342050D02*
X14698701Y-14342050D01*
X14698701Y-14342050D02*
X14717749Y-14351574D01*
X14793939Y-14551574D02*
X14803463Y-14542050D01*
X14803463Y-14542050D02*
X14822511Y-14513479D01*
X14822511Y-14513479D02*
X14832034Y-14494431D01*
X14832034Y-14494431D02*
X14841558Y-14465860D01*
X14841558Y-14465860D02*
X14851082Y-14418241D01*
X14851082Y-14418241D02*
X14851082Y-14380146D01*
X14851082Y-14380146D02*
X14841558Y-14332527D01*
X14841558Y-14332527D02*
X14832034Y-14303955D01*
X14832034Y-14303955D02*
X14822511Y-14284908D01*
X14822511Y-14284908D02*
X14803463Y-14256336D01*
X14803463Y-14256336D02*
X14793939Y-14246812D01*
D13*
X9828400Y-14647900D02*
G75*
G03*
X9828400Y-14647900I-30000J0D01*
G01*
D11*
X10127272Y-14539384D02*
X10146320Y-14539384D01*
X10146320Y-14539384D02*
X10165367Y-14548908D01*
X10165367Y-14548908D02*
X10174891Y-14558431D01*
X10174891Y-14558431D02*
X10184415Y-14577479D01*
X10184415Y-14577479D02*
X10193939Y-14615574D01*
X10193939Y-14615574D02*
X10193939Y-14663193D01*
X10193939Y-14663193D02*
X10184415Y-14701288D01*
X10184415Y-14701288D02*
X10174891Y-14720336D01*
X10174891Y-14720336D02*
X10165367Y-14729860D01*
X10165367Y-14729860D02*
X10146320Y-14739384D01*
X10146320Y-14739384D02*
X10127272Y-14739384D01*
X10127272Y-14739384D02*
X10108224Y-14729860D01*
X10108224Y-14729860D02*
X10098701Y-14720336D01*
X10098701Y-14720336D02*
X10089177Y-14701288D01*
X10089177Y-14701288D02*
X10079653Y-14663193D01*
X10079653Y-14663193D02*
X10079653Y-14615574D01*
X10079653Y-14615574D02*
X10089177Y-14577479D01*
X10089177Y-14577479D02*
X10098701Y-14558431D01*
X10098701Y-14558431D02*
X10108224Y-14548908D01*
X10108224Y-14548908D02*
X10127272Y-14539384D01*
X10279653Y-14720336D02*
X10289177Y-14729860D01*
X10289177Y-14729860D02*
X10279653Y-14739384D01*
X10279653Y-14739384D02*
X10270129Y-14729860D01*
X10270129Y-14729860D02*
X10279653Y-14720336D01*
X10279653Y-14720336D02*
X10279653Y-14739384D01*
X10460605Y-14539384D02*
X10422510Y-14539384D01*
X10422510Y-14539384D02*
X10403463Y-14548908D01*
X10403463Y-14548908D02*
X10393939Y-14558431D01*
X10393939Y-14558431D02*
X10374891Y-14587003D01*
X10374891Y-14587003D02*
X10365367Y-14625098D01*
X10365367Y-14625098D02*
X10365367Y-14701288D01*
X10365367Y-14701288D02*
X10374891Y-14720336D01*
X10374891Y-14720336D02*
X10384415Y-14729860D01*
X10384415Y-14729860D02*
X10403463Y-14739384D01*
X10403463Y-14739384D02*
X10441558Y-14739384D01*
X10441558Y-14739384D02*
X10460605Y-14729860D01*
X10460605Y-14729860D02*
X10470129Y-14720336D01*
X10470129Y-14720336D02*
X10479653Y-14701288D01*
X10479653Y-14701288D02*
X10479653Y-14653669D01*
X10479653Y-14653669D02*
X10470129Y-14634622D01*
X10470129Y-14634622D02*
X10460605Y-14625098D01*
X10460605Y-14625098D02*
X10441558Y-14615574D01*
X10441558Y-14615574D02*
X10403463Y-14615574D01*
X10403463Y-14615574D02*
X10384415Y-14625098D01*
X10384415Y-14625098D02*
X10374891Y-14634622D01*
X10374891Y-14634622D02*
X10365367Y-14653669D01*
X10603463Y-14539384D02*
X10622510Y-14539384D01*
X10622510Y-14539384D02*
X10641558Y-14548908D01*
X10641558Y-14548908D02*
X10651082Y-14558431D01*
X10651082Y-14558431D02*
X10660605Y-14577479D01*
X10660605Y-14577479D02*
X10670129Y-14615574D01*
X10670129Y-14615574D02*
X10670129Y-14663193D01*
X10670129Y-14663193D02*
X10660605Y-14701288D01*
X10660605Y-14701288D02*
X10651082Y-14720336D01*
X10651082Y-14720336D02*
X10641558Y-14729860D01*
X10641558Y-14729860D02*
X10622510Y-14739384D01*
X10622510Y-14739384D02*
X10603463Y-14739384D01*
X10603463Y-14739384D02*
X10584415Y-14729860D01*
X10584415Y-14729860D02*
X10574891Y-14720336D01*
X10574891Y-14720336D02*
X10565367Y-14701288D01*
X10565367Y-14701288D02*
X10555844Y-14663193D01*
X10555844Y-14663193D02*
X10555844Y-14615574D01*
X10555844Y-14615574D02*
X10565367Y-14577479D01*
X10565367Y-14577479D02*
X10574891Y-14558431D01*
X10574891Y-14558431D02*
X10584415Y-14548908D01*
X10584415Y-14548908D02*
X10603463Y-14539384D01*
X10793939Y-14539384D02*
X10812986Y-14539384D01*
X10812986Y-14539384D02*
X10832034Y-14548908D01*
X10832034Y-14548908D02*
X10841558Y-14558431D01*
X10841558Y-14558431D02*
X10851082Y-14577479D01*
X10851082Y-14577479D02*
X10860605Y-14615574D01*
X10860605Y-14615574D02*
X10860605Y-14663193D01*
X10860605Y-14663193D02*
X10851082Y-14701288D01*
X10851082Y-14701288D02*
X10841558Y-14720336D01*
X10841558Y-14720336D02*
X10832034Y-14729860D01*
X10832034Y-14729860D02*
X10812986Y-14739384D01*
X10812986Y-14739384D02*
X10793939Y-14739384D01*
X10793939Y-14739384D02*
X10774891Y-14729860D01*
X10774891Y-14729860D02*
X10765367Y-14720336D01*
X10765367Y-14720336D02*
X10755844Y-14701288D01*
X10755844Y-14701288D02*
X10746320Y-14663193D01*
X10746320Y-14663193D02*
X10746320Y-14615574D01*
X10746320Y-14615574D02*
X10755844Y-14577479D01*
X10755844Y-14577479D02*
X10765367Y-14558431D01*
X10765367Y-14558431D02*
X10774891Y-14548908D01*
X10774891Y-14548908D02*
X10793939Y-14539384D01*
X10946320Y-14739384D02*
X10946320Y-14606050D01*
X10946320Y-14625098D02*
X10955844Y-14615574D01*
X10955844Y-14615574D02*
X10974891Y-14606050D01*
X10974891Y-14606050D02*
X11003463Y-14606050D01*
X11003463Y-14606050D02*
X11022510Y-14615574D01*
X11022510Y-14615574D02*
X11032034Y-14634622D01*
X11032034Y-14634622D02*
X11032034Y-14739384D01*
X11032034Y-14634622D02*
X11041558Y-14615574D01*
X11041558Y-14615574D02*
X11060605Y-14606050D01*
X11060605Y-14606050D02*
X11089177Y-14606050D01*
X11089177Y-14606050D02*
X11108225Y-14615574D01*
X11108225Y-14615574D02*
X11117748Y-14634622D01*
X11117748Y-14634622D02*
X11117748Y-14739384D01*
X11212986Y-14739384D02*
X11212986Y-14606050D01*
X11212986Y-14625098D02*
X11222510Y-14615574D01*
X11222510Y-14615574D02*
X11241558Y-14606050D01*
X11241558Y-14606050D02*
X11270129Y-14606050D01*
X11270129Y-14606050D02*
X11289177Y-14615574D01*
X11289177Y-14615574D02*
X11298701Y-14634622D01*
X11298701Y-14634622D02*
X11298701Y-14739384D01*
X11298701Y-14634622D02*
X11308224Y-14615574D01*
X11308224Y-14615574D02*
X11327272Y-14606050D01*
X11327272Y-14606050D02*
X11355843Y-14606050D01*
X11355843Y-14606050D02*
X11374891Y-14615574D01*
X11374891Y-14615574D02*
X11384415Y-14634622D01*
X11384415Y-14634622D02*
X11384415Y-14739384D01*
X11774891Y-14529860D02*
X11603463Y-14787003D01*
X12032034Y-14539384D02*
X12051082Y-14539384D01*
X12051082Y-14539384D02*
X12070129Y-14548908D01*
X12070129Y-14548908D02*
X12079653Y-14558431D01*
X12079653Y-14558431D02*
X12089177Y-14577479D01*
X12089177Y-14577479D02*
X12098701Y-14615574D01*
X12098701Y-14615574D02*
X12098701Y-14663193D01*
X12098701Y-14663193D02*
X12089177Y-14701288D01*
X12089177Y-14701288D02*
X12079653Y-14720336D01*
X12079653Y-14720336D02*
X12070129Y-14729860D01*
X12070129Y-14729860D02*
X12051082Y-14739384D01*
X12051082Y-14739384D02*
X12032034Y-14739384D01*
X12032034Y-14739384D02*
X12012986Y-14729860D01*
X12012986Y-14729860D02*
X12003463Y-14720336D01*
X12003463Y-14720336D02*
X11993939Y-14701288D01*
X11993939Y-14701288D02*
X11984415Y-14663193D01*
X11984415Y-14663193D02*
X11984415Y-14615574D01*
X11984415Y-14615574D02*
X11993939Y-14577479D01*
X11993939Y-14577479D02*
X12003463Y-14558431D01*
X12003463Y-14558431D02*
X12012986Y-14548908D01*
X12012986Y-14548908D02*
X12032034Y-14539384D01*
X12184415Y-14720336D02*
X12193939Y-14729860D01*
X12193939Y-14729860D02*
X12184415Y-14739384D01*
X12184415Y-14739384D02*
X12174891Y-14729860D01*
X12174891Y-14729860D02*
X12184415Y-14720336D01*
X12184415Y-14720336D02*
X12184415Y-14739384D01*
X12317748Y-14539384D02*
X12336796Y-14539384D01*
X12336796Y-14539384D02*
X12355844Y-14548908D01*
X12355844Y-14548908D02*
X12365367Y-14558431D01*
X12365367Y-14558431D02*
X12374891Y-14577479D01*
X12374891Y-14577479D02*
X12384415Y-14615574D01*
X12384415Y-14615574D02*
X12384415Y-14663193D01*
X12384415Y-14663193D02*
X12374891Y-14701288D01*
X12374891Y-14701288D02*
X12365367Y-14720336D01*
X12365367Y-14720336D02*
X12355844Y-14729860D01*
X12355844Y-14729860D02*
X12336796Y-14739384D01*
X12336796Y-14739384D02*
X12317748Y-14739384D01*
X12317748Y-14739384D02*
X12298701Y-14729860D01*
X12298701Y-14729860D02*
X12289177Y-14720336D01*
X12289177Y-14720336D02*
X12279653Y-14701288D01*
X12279653Y-14701288D02*
X12270129Y-14663193D01*
X12270129Y-14663193D02*
X12270129Y-14615574D01*
X12270129Y-14615574D02*
X12279653Y-14577479D01*
X12279653Y-14577479D02*
X12289177Y-14558431D01*
X12289177Y-14558431D02*
X12298701Y-14548908D01*
X12298701Y-14548908D02*
X12317748Y-14539384D01*
X12460606Y-14558431D02*
X12470129Y-14548908D01*
X12470129Y-14548908D02*
X12489177Y-14539384D01*
X12489177Y-14539384D02*
X12536796Y-14539384D01*
X12536796Y-14539384D02*
X12555844Y-14548908D01*
X12555844Y-14548908D02*
X12565367Y-14558431D01*
X12565367Y-14558431D02*
X12574891Y-14577479D01*
X12574891Y-14577479D02*
X12574891Y-14596527D01*
X12574891Y-14596527D02*
X12565367Y-14625098D01*
X12565367Y-14625098D02*
X12451082Y-14739384D01*
X12451082Y-14739384D02*
X12574891Y-14739384D01*
X12641558Y-14539384D02*
X12765367Y-14539384D01*
X12765367Y-14539384D02*
X12698701Y-14615574D01*
X12698701Y-14615574D02*
X12727272Y-14615574D01*
X12727272Y-14615574D02*
X12746320Y-14625098D01*
X12746320Y-14625098D02*
X12755844Y-14634622D01*
X12755844Y-14634622D02*
X12765367Y-14653669D01*
X12765367Y-14653669D02*
X12765367Y-14701288D01*
X12765367Y-14701288D02*
X12755844Y-14720336D01*
X12755844Y-14720336D02*
X12746320Y-14729860D01*
X12746320Y-14729860D02*
X12727272Y-14739384D01*
X12727272Y-14739384D02*
X12670129Y-14739384D01*
X12670129Y-14739384D02*
X12651082Y-14729860D01*
X12651082Y-14729860D02*
X12641558Y-14720336D01*
X12936796Y-14539384D02*
X12898701Y-14539384D01*
X12898701Y-14539384D02*
X12879653Y-14548908D01*
X12879653Y-14548908D02*
X12870129Y-14558431D01*
X12870129Y-14558431D02*
X12851082Y-14587003D01*
X12851082Y-14587003D02*
X12841558Y-14625098D01*
X12841558Y-14625098D02*
X12841558Y-14701288D01*
X12841558Y-14701288D02*
X12851082Y-14720336D01*
X12851082Y-14720336D02*
X12860606Y-14729860D01*
X12860606Y-14729860D02*
X12879653Y-14739384D01*
X12879653Y-14739384D02*
X12917748Y-14739384D01*
X12917748Y-14739384D02*
X12936796Y-14729860D01*
X12936796Y-14729860D02*
X12946320Y-14720336D01*
X12946320Y-14720336D02*
X12955844Y-14701288D01*
X12955844Y-14701288D02*
X12955844Y-14653669D01*
X12955844Y-14653669D02*
X12946320Y-14634622D01*
X12946320Y-14634622D02*
X12936796Y-14625098D01*
X12936796Y-14625098D02*
X12917748Y-14615574D01*
X12917748Y-14615574D02*
X12879653Y-14615574D01*
X12879653Y-14615574D02*
X12860606Y-14625098D01*
X12860606Y-14625098D02*
X12851082Y-14634622D01*
X12851082Y-14634622D02*
X12841558Y-14653669D01*
X13032034Y-14539384D02*
X13032034Y-14577479D01*
X13108225Y-14539384D02*
X13108225Y-14577479D01*
X13403463Y-14815574D02*
X13393939Y-14806050D01*
X13393939Y-14806050D02*
X13374891Y-14777479D01*
X13374891Y-14777479D02*
X13365368Y-14758431D01*
X13365368Y-14758431D02*
X13355844Y-14729860D01*
X13355844Y-14729860D02*
X13346320Y-14682241D01*
X13346320Y-14682241D02*
X13346320Y-14644146D01*
X13346320Y-14644146D02*
X13355844Y-14596527D01*
X13355844Y-14596527D02*
X13365368Y-14567955D01*
X13365368Y-14567955D02*
X13374891Y-14548908D01*
X13374891Y-14548908D02*
X13393939Y-14520336D01*
X13393939Y-14520336D02*
X13403463Y-14510812D01*
X13470129Y-14558431D02*
X13479653Y-14548908D01*
X13479653Y-14548908D02*
X13498701Y-14539384D01*
X13498701Y-14539384D02*
X13546320Y-14539384D01*
X13546320Y-14539384D02*
X13565368Y-14548908D01*
X13565368Y-14548908D02*
X13574891Y-14558431D01*
X13574891Y-14558431D02*
X13584415Y-14577479D01*
X13584415Y-14577479D02*
X13584415Y-14596527D01*
X13584415Y-14596527D02*
X13574891Y-14625098D01*
X13574891Y-14625098D02*
X13460606Y-14739384D01*
X13460606Y-14739384D02*
X13584415Y-14739384D01*
X13660606Y-14558431D02*
X13670129Y-14548908D01*
X13670129Y-14548908D02*
X13689177Y-14539384D01*
X13689177Y-14539384D02*
X13736796Y-14539384D01*
X13736796Y-14539384D02*
X13755844Y-14548908D01*
X13755844Y-14548908D02*
X13765368Y-14558431D01*
X13765368Y-14558431D02*
X13774891Y-14577479D01*
X13774891Y-14577479D02*
X13774891Y-14596527D01*
X13774891Y-14596527D02*
X13765368Y-14625098D01*
X13765368Y-14625098D02*
X13651082Y-14739384D01*
X13651082Y-14739384D02*
X13774891Y-14739384D01*
X14012987Y-14739384D02*
X14012987Y-14539384D01*
X14098701Y-14739384D02*
X14098701Y-14634622D01*
X14098701Y-14634622D02*
X14089177Y-14615574D01*
X14089177Y-14615574D02*
X14070130Y-14606050D01*
X14070130Y-14606050D02*
X14041558Y-14606050D01*
X14041558Y-14606050D02*
X14022510Y-14615574D01*
X14022510Y-14615574D02*
X14012987Y-14625098D01*
X14222510Y-14739384D02*
X14203463Y-14729860D01*
X14203463Y-14729860D02*
X14193939Y-14720336D01*
X14193939Y-14720336D02*
X14184415Y-14701288D01*
X14184415Y-14701288D02*
X14184415Y-14644146D01*
X14184415Y-14644146D02*
X14193939Y-14625098D01*
X14193939Y-14625098D02*
X14203463Y-14615574D01*
X14203463Y-14615574D02*
X14222510Y-14606050D01*
X14222510Y-14606050D02*
X14251082Y-14606050D01*
X14251082Y-14606050D02*
X14270130Y-14615574D01*
X14270130Y-14615574D02*
X14279653Y-14625098D01*
X14279653Y-14625098D02*
X14289177Y-14644146D01*
X14289177Y-14644146D02*
X14289177Y-14701288D01*
X14289177Y-14701288D02*
X14279653Y-14720336D01*
X14279653Y-14720336D02*
X14270130Y-14729860D01*
X14270130Y-14729860D02*
X14251082Y-14739384D01*
X14251082Y-14739384D02*
X14222510Y-14739384D01*
X14403463Y-14739384D02*
X14384415Y-14729860D01*
X14384415Y-14729860D02*
X14374891Y-14710812D01*
X14374891Y-14710812D02*
X14374891Y-14539384D01*
X14555844Y-14729860D02*
X14536796Y-14739384D01*
X14536796Y-14739384D02*
X14498701Y-14739384D01*
X14498701Y-14739384D02*
X14479653Y-14729860D01*
X14479653Y-14729860D02*
X14470130Y-14710812D01*
X14470130Y-14710812D02*
X14470130Y-14634622D01*
X14470130Y-14634622D02*
X14479653Y-14615574D01*
X14479653Y-14615574D02*
X14498701Y-14606050D01*
X14498701Y-14606050D02*
X14536796Y-14606050D01*
X14536796Y-14606050D02*
X14555844Y-14615574D01*
X14555844Y-14615574D02*
X14565368Y-14634622D01*
X14565368Y-14634622D02*
X14565368Y-14653669D01*
X14565368Y-14653669D02*
X14470130Y-14672717D01*
X14641558Y-14729860D02*
X14660606Y-14739384D01*
X14660606Y-14739384D02*
X14698701Y-14739384D01*
X14698701Y-14739384D02*
X14717749Y-14729860D01*
X14717749Y-14729860D02*
X14727272Y-14710812D01*
X14727272Y-14710812D02*
X14727272Y-14701288D01*
X14727272Y-14701288D02*
X14717749Y-14682241D01*
X14717749Y-14682241D02*
X14698701Y-14672717D01*
X14698701Y-14672717D02*
X14670130Y-14672717D01*
X14670130Y-14672717D02*
X14651082Y-14663193D01*
X14651082Y-14663193D02*
X14641558Y-14644146D01*
X14641558Y-14644146D02*
X14641558Y-14634622D01*
X14641558Y-14634622D02*
X14651082Y-14615574D01*
X14651082Y-14615574D02*
X14670130Y-14606050D01*
X14670130Y-14606050D02*
X14698701Y-14606050D01*
X14698701Y-14606050D02*
X14717749Y-14615574D01*
X14965368Y-14663193D02*
X15117749Y-14663193D01*
X15041558Y-14739384D02*
X15041558Y-14587003D01*
X15451082Y-14606050D02*
X15451082Y-14739384D01*
X15403463Y-14529860D02*
X15355844Y-14672717D01*
X15355844Y-14672717D02*
X15479653Y-14672717D01*
X15698701Y-14729860D02*
X15717749Y-14739384D01*
X15717749Y-14739384D02*
X15755844Y-14739384D01*
X15755844Y-14739384D02*
X15774892Y-14729860D01*
X15774892Y-14729860D02*
X15784415Y-14710812D01*
X15784415Y-14710812D02*
X15784415Y-14701288D01*
X15784415Y-14701288D02*
X15774892Y-14682241D01*
X15774892Y-14682241D02*
X15755844Y-14672717D01*
X15755844Y-14672717D02*
X15727273Y-14672717D01*
X15727273Y-14672717D02*
X15708225Y-14663193D01*
X15708225Y-14663193D02*
X15698701Y-14644146D01*
X15698701Y-14644146D02*
X15698701Y-14634622D01*
X15698701Y-14634622D02*
X15708225Y-14615574D01*
X15708225Y-14615574D02*
X15727273Y-14606050D01*
X15727273Y-14606050D02*
X15755844Y-14606050D01*
X15755844Y-14606050D02*
X15774892Y-14615574D01*
X15898701Y-14739384D02*
X15879654Y-14729860D01*
X15879654Y-14729860D02*
X15870130Y-14710812D01*
X15870130Y-14710812D02*
X15870130Y-14539384D01*
X16003463Y-14739384D02*
X15984415Y-14729860D01*
X15984415Y-14729860D02*
X15974892Y-14720336D01*
X15974892Y-14720336D02*
X15965368Y-14701288D01*
X15965368Y-14701288D02*
X15965368Y-14644146D01*
X15965368Y-14644146D02*
X15974892Y-14625098D01*
X15974892Y-14625098D02*
X15984415Y-14615574D01*
X15984415Y-14615574D02*
X16003463Y-14606050D01*
X16003463Y-14606050D02*
X16032035Y-14606050D01*
X16032035Y-14606050D02*
X16051082Y-14615574D01*
X16051082Y-14615574D02*
X16060606Y-14625098D01*
X16060606Y-14625098D02*
X16070130Y-14644146D01*
X16070130Y-14644146D02*
X16070130Y-14701288D01*
X16070130Y-14701288D02*
X16060606Y-14720336D01*
X16060606Y-14720336D02*
X16051082Y-14729860D01*
X16051082Y-14729860D02*
X16032035Y-14739384D01*
X16032035Y-14739384D02*
X16003463Y-14739384D01*
X16127273Y-14606050D02*
X16203463Y-14606050D01*
X16155844Y-14539384D02*
X16155844Y-14710812D01*
X16155844Y-14710812D02*
X16165368Y-14729860D01*
X16165368Y-14729860D02*
X16184415Y-14739384D01*
X16184415Y-14739384D02*
X16203463Y-14739384D01*
X16260606Y-14729860D02*
X16279654Y-14739384D01*
X16279654Y-14739384D02*
X16317749Y-14739384D01*
X16317749Y-14739384D02*
X16336796Y-14729860D01*
X16336796Y-14729860D02*
X16346320Y-14710812D01*
X16346320Y-14710812D02*
X16346320Y-14701288D01*
X16346320Y-14701288D02*
X16336796Y-14682241D01*
X16336796Y-14682241D02*
X16317749Y-14672717D01*
X16317749Y-14672717D02*
X16289177Y-14672717D01*
X16289177Y-14672717D02*
X16270130Y-14663193D01*
X16270130Y-14663193D02*
X16260606Y-14644146D01*
X16260606Y-14644146D02*
X16260606Y-14634622D01*
X16260606Y-14634622D02*
X16270130Y-14615574D01*
X16270130Y-14615574D02*
X16289177Y-14606050D01*
X16289177Y-14606050D02*
X16317749Y-14606050D01*
X16317749Y-14606050D02*
X16336796Y-14615574D01*
X16412987Y-14815574D02*
X16422511Y-14806050D01*
X16422511Y-14806050D02*
X16441558Y-14777479D01*
X16441558Y-14777479D02*
X16451082Y-14758431D01*
X16451082Y-14758431D02*
X16460606Y-14729860D01*
X16460606Y-14729860D02*
X16470130Y-14682241D01*
X16470130Y-14682241D02*
X16470130Y-14644146D01*
X16470130Y-14644146D02*
X16460606Y-14596527D01*
X16460606Y-14596527D02*
X16451082Y-14567955D01*
X16451082Y-14567955D02*
X16441558Y-14548908D01*
X16441558Y-14548908D02*
X16422511Y-14520336D01*
X16422511Y-14520336D02*
X16412987Y-14510812D01*
D14*
X9795900Y-14879400D02*
X9795900Y-14944400D01*
X9763400Y-14911900D02*
X9828400Y-14911900D01*
D11*
X10127272Y-14803384D02*
X10146320Y-14803384D01*
X10146320Y-14803384D02*
X10165367Y-14812908D01*
X10165367Y-14812908D02*
X10174891Y-14822431D01*
X10174891Y-14822431D02*
X10184415Y-14841479D01*
X10184415Y-14841479D02*
X10193939Y-14879574D01*
X10193939Y-14879574D02*
X10193939Y-14927193D01*
X10193939Y-14927193D02*
X10184415Y-14965288D01*
X10184415Y-14965288D02*
X10174891Y-14984336D01*
X10174891Y-14984336D02*
X10165367Y-14993860D01*
X10165367Y-14993860D02*
X10146320Y-15003384D01*
X10146320Y-15003384D02*
X10127272Y-15003384D01*
X10127272Y-15003384D02*
X10108224Y-14993860D01*
X10108224Y-14993860D02*
X10098701Y-14984336D01*
X10098701Y-14984336D02*
X10089177Y-14965288D01*
X10089177Y-14965288D02*
X10079653Y-14927193D01*
X10079653Y-14927193D02*
X10079653Y-14879574D01*
X10079653Y-14879574D02*
X10089177Y-14841479D01*
X10089177Y-14841479D02*
X10098701Y-14822431D01*
X10098701Y-14822431D02*
X10108224Y-14812908D01*
X10108224Y-14812908D02*
X10127272Y-14803384D01*
X10279653Y-14984336D02*
X10289177Y-14993860D01*
X10289177Y-14993860D02*
X10279653Y-15003384D01*
X10279653Y-15003384D02*
X10270129Y-14993860D01*
X10270129Y-14993860D02*
X10279653Y-14984336D01*
X10279653Y-14984336D02*
X10279653Y-15003384D01*
X10460605Y-14803384D02*
X10422510Y-14803384D01*
X10422510Y-14803384D02*
X10403463Y-14812908D01*
X10403463Y-14812908D02*
X10393939Y-14822431D01*
X10393939Y-14822431D02*
X10374891Y-14851003D01*
X10374891Y-14851003D02*
X10365367Y-14889098D01*
X10365367Y-14889098D02*
X10365367Y-14965288D01*
X10365367Y-14965288D02*
X10374891Y-14984336D01*
X10374891Y-14984336D02*
X10384415Y-14993860D01*
X10384415Y-14993860D02*
X10403463Y-15003384D01*
X10403463Y-15003384D02*
X10441558Y-15003384D01*
X10441558Y-15003384D02*
X10460605Y-14993860D01*
X10460605Y-14993860D02*
X10470129Y-14984336D01*
X10470129Y-14984336D02*
X10479653Y-14965288D01*
X10479653Y-14965288D02*
X10479653Y-14917669D01*
X10479653Y-14917669D02*
X10470129Y-14898622D01*
X10470129Y-14898622D02*
X10460605Y-14889098D01*
X10460605Y-14889098D02*
X10441558Y-14879574D01*
X10441558Y-14879574D02*
X10403463Y-14879574D01*
X10403463Y-14879574D02*
X10384415Y-14889098D01*
X10384415Y-14889098D02*
X10374891Y-14898622D01*
X10374891Y-14898622D02*
X10365367Y-14917669D01*
X10660605Y-14803384D02*
X10565367Y-14803384D01*
X10565367Y-14803384D02*
X10555844Y-14898622D01*
X10555844Y-14898622D02*
X10565367Y-14889098D01*
X10565367Y-14889098D02*
X10584415Y-14879574D01*
X10584415Y-14879574D02*
X10632034Y-14879574D01*
X10632034Y-14879574D02*
X10651082Y-14889098D01*
X10651082Y-14889098D02*
X10660605Y-14898622D01*
X10660605Y-14898622D02*
X10670129Y-14917669D01*
X10670129Y-14917669D02*
X10670129Y-14965288D01*
X10670129Y-14965288D02*
X10660605Y-14984336D01*
X10660605Y-14984336D02*
X10651082Y-14993860D01*
X10651082Y-14993860D02*
X10632034Y-15003384D01*
X10632034Y-15003384D02*
X10584415Y-15003384D01*
X10584415Y-15003384D02*
X10565367Y-14993860D01*
X10565367Y-14993860D02*
X10555844Y-14984336D01*
X10793939Y-14803384D02*
X10812986Y-14803384D01*
X10812986Y-14803384D02*
X10832034Y-14812908D01*
X10832034Y-14812908D02*
X10841558Y-14822431D01*
X10841558Y-14822431D02*
X10851082Y-14841479D01*
X10851082Y-14841479D02*
X10860605Y-14879574D01*
X10860605Y-14879574D02*
X10860605Y-14927193D01*
X10860605Y-14927193D02*
X10851082Y-14965288D01*
X10851082Y-14965288D02*
X10841558Y-14984336D01*
X10841558Y-14984336D02*
X10832034Y-14993860D01*
X10832034Y-14993860D02*
X10812986Y-15003384D01*
X10812986Y-15003384D02*
X10793939Y-15003384D01*
X10793939Y-15003384D02*
X10774891Y-14993860D01*
X10774891Y-14993860D02*
X10765367Y-14984336D01*
X10765367Y-14984336D02*
X10755844Y-14965288D01*
X10755844Y-14965288D02*
X10746320Y-14927193D01*
X10746320Y-14927193D02*
X10746320Y-14879574D01*
X10746320Y-14879574D02*
X10755844Y-14841479D01*
X10755844Y-14841479D02*
X10765367Y-14822431D01*
X10765367Y-14822431D02*
X10774891Y-14812908D01*
X10774891Y-14812908D02*
X10793939Y-14803384D01*
X10946320Y-15003384D02*
X10946320Y-14870050D01*
X10946320Y-14889098D02*
X10955844Y-14879574D01*
X10955844Y-14879574D02*
X10974891Y-14870050D01*
X10974891Y-14870050D02*
X11003463Y-14870050D01*
X11003463Y-14870050D02*
X11022510Y-14879574D01*
X11022510Y-14879574D02*
X11032034Y-14898622D01*
X11032034Y-14898622D02*
X11032034Y-15003384D01*
X11032034Y-14898622D02*
X11041558Y-14879574D01*
X11041558Y-14879574D02*
X11060605Y-14870050D01*
X11060605Y-14870050D02*
X11089177Y-14870050D01*
X11089177Y-14870050D02*
X11108225Y-14879574D01*
X11108225Y-14879574D02*
X11117748Y-14898622D01*
X11117748Y-14898622D02*
X11117748Y-15003384D01*
X11212986Y-15003384D02*
X11212986Y-14870050D01*
X11212986Y-14889098D02*
X11222510Y-14879574D01*
X11222510Y-14879574D02*
X11241558Y-14870050D01*
X11241558Y-14870050D02*
X11270129Y-14870050D01*
X11270129Y-14870050D02*
X11289177Y-14879574D01*
X11289177Y-14879574D02*
X11298701Y-14898622D01*
X11298701Y-14898622D02*
X11298701Y-15003384D01*
X11298701Y-14898622D02*
X11308224Y-14879574D01*
X11308224Y-14879574D02*
X11327272Y-14870050D01*
X11327272Y-14870050D02*
X11355843Y-14870050D01*
X11355843Y-14870050D02*
X11374891Y-14879574D01*
X11374891Y-14879574D02*
X11384415Y-14898622D01*
X11384415Y-14898622D02*
X11384415Y-15003384D01*
X11774891Y-14793860D02*
X11603463Y-15051003D01*
X12032034Y-14803384D02*
X12051082Y-14803384D01*
X12051082Y-14803384D02*
X12070129Y-14812908D01*
X12070129Y-14812908D02*
X12079653Y-14822431D01*
X12079653Y-14822431D02*
X12089177Y-14841479D01*
X12089177Y-14841479D02*
X12098701Y-14879574D01*
X12098701Y-14879574D02*
X12098701Y-14927193D01*
X12098701Y-14927193D02*
X12089177Y-14965288D01*
X12089177Y-14965288D02*
X12079653Y-14984336D01*
X12079653Y-14984336D02*
X12070129Y-14993860D01*
X12070129Y-14993860D02*
X12051082Y-15003384D01*
X12051082Y-15003384D02*
X12032034Y-15003384D01*
X12032034Y-15003384D02*
X12012986Y-14993860D01*
X12012986Y-14993860D02*
X12003463Y-14984336D01*
X12003463Y-14984336D02*
X11993939Y-14965288D01*
X11993939Y-14965288D02*
X11984415Y-14927193D01*
X11984415Y-14927193D02*
X11984415Y-14879574D01*
X11984415Y-14879574D02*
X11993939Y-14841479D01*
X11993939Y-14841479D02*
X12003463Y-14822431D01*
X12003463Y-14822431D02*
X12012986Y-14812908D01*
X12012986Y-14812908D02*
X12032034Y-14803384D01*
X12184415Y-14984336D02*
X12193939Y-14993860D01*
X12193939Y-14993860D02*
X12184415Y-15003384D01*
X12184415Y-15003384D02*
X12174891Y-14993860D01*
X12174891Y-14993860D02*
X12184415Y-14984336D01*
X12184415Y-14984336D02*
X12184415Y-15003384D01*
X12317748Y-14803384D02*
X12336796Y-14803384D01*
X12336796Y-14803384D02*
X12355844Y-14812908D01*
X12355844Y-14812908D02*
X12365367Y-14822431D01*
X12365367Y-14822431D02*
X12374891Y-14841479D01*
X12374891Y-14841479D02*
X12384415Y-14879574D01*
X12384415Y-14879574D02*
X12384415Y-14927193D01*
X12384415Y-14927193D02*
X12374891Y-14965288D01*
X12374891Y-14965288D02*
X12365367Y-14984336D01*
X12365367Y-14984336D02*
X12355844Y-14993860D01*
X12355844Y-14993860D02*
X12336796Y-15003384D01*
X12336796Y-15003384D02*
X12317748Y-15003384D01*
X12317748Y-15003384D02*
X12298701Y-14993860D01*
X12298701Y-14993860D02*
X12289177Y-14984336D01*
X12289177Y-14984336D02*
X12279653Y-14965288D01*
X12279653Y-14965288D02*
X12270129Y-14927193D01*
X12270129Y-14927193D02*
X12270129Y-14879574D01*
X12270129Y-14879574D02*
X12279653Y-14841479D01*
X12279653Y-14841479D02*
X12289177Y-14822431D01*
X12289177Y-14822431D02*
X12298701Y-14812908D01*
X12298701Y-14812908D02*
X12317748Y-14803384D01*
X12460606Y-14822431D02*
X12470129Y-14812908D01*
X12470129Y-14812908D02*
X12489177Y-14803384D01*
X12489177Y-14803384D02*
X12536796Y-14803384D01*
X12536796Y-14803384D02*
X12555844Y-14812908D01*
X12555844Y-14812908D02*
X12565367Y-14822431D01*
X12565367Y-14822431D02*
X12574891Y-14841479D01*
X12574891Y-14841479D02*
X12574891Y-14860527D01*
X12574891Y-14860527D02*
X12565367Y-14889098D01*
X12565367Y-14889098D02*
X12451082Y-15003384D01*
X12451082Y-15003384D02*
X12574891Y-15003384D01*
X12755844Y-14803384D02*
X12660606Y-14803384D01*
X12660606Y-14803384D02*
X12651082Y-14898622D01*
X12651082Y-14898622D02*
X12660606Y-14889098D01*
X12660606Y-14889098D02*
X12679653Y-14879574D01*
X12679653Y-14879574D02*
X12727272Y-14879574D01*
X12727272Y-14879574D02*
X12746320Y-14889098D01*
X12746320Y-14889098D02*
X12755844Y-14898622D01*
X12755844Y-14898622D02*
X12765367Y-14917669D01*
X12765367Y-14917669D02*
X12765367Y-14965288D01*
X12765367Y-14965288D02*
X12755844Y-14984336D01*
X12755844Y-14984336D02*
X12746320Y-14993860D01*
X12746320Y-14993860D02*
X12727272Y-15003384D01*
X12727272Y-15003384D02*
X12679653Y-15003384D01*
X12679653Y-15003384D02*
X12660606Y-14993860D01*
X12660606Y-14993860D02*
X12651082Y-14984336D01*
X12936796Y-14803384D02*
X12898701Y-14803384D01*
X12898701Y-14803384D02*
X12879653Y-14812908D01*
X12879653Y-14812908D02*
X12870129Y-14822431D01*
X12870129Y-14822431D02*
X12851082Y-14851003D01*
X12851082Y-14851003D02*
X12841558Y-14889098D01*
X12841558Y-14889098D02*
X12841558Y-14965288D01*
X12841558Y-14965288D02*
X12851082Y-14984336D01*
X12851082Y-14984336D02*
X12860606Y-14993860D01*
X12860606Y-14993860D02*
X12879653Y-15003384D01*
X12879653Y-15003384D02*
X12917748Y-15003384D01*
X12917748Y-15003384D02*
X12936796Y-14993860D01*
X12936796Y-14993860D02*
X12946320Y-14984336D01*
X12946320Y-14984336D02*
X12955844Y-14965288D01*
X12955844Y-14965288D02*
X12955844Y-14917669D01*
X12955844Y-14917669D02*
X12946320Y-14898622D01*
X12946320Y-14898622D02*
X12936796Y-14889098D01*
X12936796Y-14889098D02*
X12917748Y-14879574D01*
X12917748Y-14879574D02*
X12879653Y-14879574D01*
X12879653Y-14879574D02*
X12860606Y-14889098D01*
X12860606Y-14889098D02*
X12851082Y-14898622D01*
X12851082Y-14898622D02*
X12841558Y-14917669D01*
X13032034Y-14803384D02*
X13032034Y-14841479D01*
X13108225Y-14803384D02*
X13108225Y-14841479D01*
X13403463Y-15079574D02*
X13393939Y-15070050D01*
X13393939Y-15070050D02*
X13374891Y-15041479D01*
X13374891Y-15041479D02*
X13365368Y-15022431D01*
X13365368Y-15022431D02*
X13355844Y-14993860D01*
X13355844Y-14993860D02*
X13346320Y-14946241D01*
X13346320Y-14946241D02*
X13346320Y-14908146D01*
X13346320Y-14908146D02*
X13355844Y-14860527D01*
X13355844Y-14860527D02*
X13365368Y-14831955D01*
X13365368Y-14831955D02*
X13374891Y-14812908D01*
X13374891Y-14812908D02*
X13393939Y-14784336D01*
X13393939Y-14784336D02*
X13403463Y-14774812D01*
X13565368Y-14870050D02*
X13565368Y-15003384D01*
X13517748Y-14793860D02*
X13470129Y-14936717D01*
X13470129Y-14936717D02*
X13593939Y-14936717D01*
X13822510Y-15003384D02*
X13822510Y-14803384D01*
X13908225Y-15003384D02*
X13908225Y-14898622D01*
X13908225Y-14898622D02*
X13898701Y-14879574D01*
X13898701Y-14879574D02*
X13879653Y-14870050D01*
X13879653Y-14870050D02*
X13851082Y-14870050D01*
X13851082Y-14870050D02*
X13832034Y-14879574D01*
X13832034Y-14879574D02*
X13822510Y-14889098D01*
X14032034Y-15003384D02*
X14012987Y-14993860D01*
X14012987Y-14993860D02*
X14003463Y-14984336D01*
X14003463Y-14984336D02*
X13993939Y-14965288D01*
X13993939Y-14965288D02*
X13993939Y-14908146D01*
X13993939Y-14908146D02*
X14003463Y-14889098D01*
X14003463Y-14889098D02*
X14012987Y-14879574D01*
X14012987Y-14879574D02*
X14032034Y-14870050D01*
X14032034Y-14870050D02*
X14060606Y-14870050D01*
X14060606Y-14870050D02*
X14079653Y-14879574D01*
X14079653Y-14879574D02*
X14089177Y-14889098D01*
X14089177Y-14889098D02*
X14098701Y-14908146D01*
X14098701Y-14908146D02*
X14098701Y-14965288D01*
X14098701Y-14965288D02*
X14089177Y-14984336D01*
X14089177Y-14984336D02*
X14079653Y-14993860D01*
X14079653Y-14993860D02*
X14060606Y-15003384D01*
X14060606Y-15003384D02*
X14032034Y-15003384D01*
X14212987Y-15003384D02*
X14193939Y-14993860D01*
X14193939Y-14993860D02*
X14184415Y-14974812D01*
X14184415Y-14974812D02*
X14184415Y-14803384D01*
X14365368Y-14993860D02*
X14346320Y-15003384D01*
X14346320Y-15003384D02*
X14308225Y-15003384D01*
X14308225Y-15003384D02*
X14289177Y-14993860D01*
X14289177Y-14993860D02*
X14279653Y-14974812D01*
X14279653Y-14974812D02*
X14279653Y-14898622D01*
X14279653Y-14898622D02*
X14289177Y-14879574D01*
X14289177Y-14879574D02*
X14308225Y-14870050D01*
X14308225Y-14870050D02*
X14346320Y-14870050D01*
X14346320Y-14870050D02*
X14365368Y-14879574D01*
X14365368Y-14879574D02*
X14374891Y-14898622D01*
X14374891Y-14898622D02*
X14374891Y-14917669D01*
X14374891Y-14917669D02*
X14279653Y-14936717D01*
X14451082Y-14993860D02*
X14470130Y-15003384D01*
X14470130Y-15003384D02*
X14508225Y-15003384D01*
X14508225Y-15003384D02*
X14527272Y-14993860D01*
X14527272Y-14993860D02*
X14536796Y-14974812D01*
X14536796Y-14974812D02*
X14536796Y-14965288D01*
X14536796Y-14965288D02*
X14527272Y-14946241D01*
X14527272Y-14946241D02*
X14508225Y-14936717D01*
X14508225Y-14936717D02*
X14479653Y-14936717D01*
X14479653Y-14936717D02*
X14460606Y-14927193D01*
X14460606Y-14927193D02*
X14451082Y-14908146D01*
X14451082Y-14908146D02*
X14451082Y-14898622D01*
X14451082Y-14898622D02*
X14460606Y-14879574D01*
X14460606Y-14879574D02*
X14479653Y-14870050D01*
X14479653Y-14870050D02*
X14508225Y-14870050D01*
X14508225Y-14870050D02*
X14527272Y-14879574D01*
X14603463Y-15079574D02*
X14612987Y-15070050D01*
X14612987Y-15070050D02*
X14632034Y-15041479D01*
X14632034Y-15041479D02*
X14641558Y-15022431D01*
X14641558Y-15022431D02*
X14651082Y-14993860D01*
X14651082Y-14993860D02*
X14660606Y-14946241D01*
X14660606Y-14946241D02*
X14660606Y-14908146D01*
X14660606Y-14908146D02*
X14651082Y-14860527D01*
X14651082Y-14860527D02*
X14641558Y-14831955D01*
X14641558Y-14831955D02*
X14632034Y-14812908D01*
X14632034Y-14812908D02*
X14612987Y-14784336D01*
X14612987Y-14784336D02*
X14603463Y-14774812D01*
D15*
X9816685Y-15204184D02*
X9816685Y-15147615D01*
X9760116Y-15147615D01*
X9760116Y-15204184D01*
X9816685Y-15204184D01*
D11*
X10127272Y-15067384D02*
X10146320Y-15067384D01*
X10146320Y-15067384D02*
X10165367Y-15076908D01*
X10165367Y-15076908D02*
X10174891Y-15086431D01*
X10174891Y-15086431D02*
X10184415Y-15105479D01*
X10184415Y-15105479D02*
X10193939Y-15143574D01*
X10193939Y-15143574D02*
X10193939Y-15191193D01*
X10193939Y-15191193D02*
X10184415Y-15229288D01*
X10184415Y-15229288D02*
X10174891Y-15248336D01*
X10174891Y-15248336D02*
X10165367Y-15257860D01*
X10165367Y-15257860D02*
X10146320Y-15267384D01*
X10146320Y-15267384D02*
X10127272Y-15267384D01*
X10127272Y-15267384D02*
X10108224Y-15257860D01*
X10108224Y-15257860D02*
X10098701Y-15248336D01*
X10098701Y-15248336D02*
X10089177Y-15229288D01*
X10089177Y-15229288D02*
X10079653Y-15191193D01*
X10079653Y-15191193D02*
X10079653Y-15143574D01*
X10079653Y-15143574D02*
X10089177Y-15105479D01*
X10089177Y-15105479D02*
X10098701Y-15086431D01*
X10098701Y-15086431D02*
X10108224Y-15076908D01*
X10108224Y-15076908D02*
X10127272Y-15067384D01*
X10279653Y-15248336D02*
X10289177Y-15257860D01*
X10289177Y-15257860D02*
X10279653Y-15267384D01*
X10279653Y-15267384D02*
X10270129Y-15257860D01*
X10270129Y-15257860D02*
X10279653Y-15248336D01*
X10279653Y-15248336D02*
X10279653Y-15267384D01*
X10403463Y-15153098D02*
X10384415Y-15143574D01*
X10384415Y-15143574D02*
X10374891Y-15134050D01*
X10374891Y-15134050D02*
X10365367Y-15115003D01*
X10365367Y-15115003D02*
X10365367Y-15105479D01*
X10365367Y-15105479D02*
X10374891Y-15086431D01*
X10374891Y-15086431D02*
X10384415Y-15076908D01*
X10384415Y-15076908D02*
X10403463Y-15067384D01*
X10403463Y-15067384D02*
X10441558Y-15067384D01*
X10441558Y-15067384D02*
X10460605Y-15076908D01*
X10460605Y-15076908D02*
X10470129Y-15086431D01*
X10470129Y-15086431D02*
X10479653Y-15105479D01*
X10479653Y-15105479D02*
X10479653Y-15115003D01*
X10479653Y-15115003D02*
X10470129Y-15134050D01*
X10470129Y-15134050D02*
X10460605Y-15143574D01*
X10460605Y-15143574D02*
X10441558Y-15153098D01*
X10441558Y-15153098D02*
X10403463Y-15153098D01*
X10403463Y-15153098D02*
X10384415Y-15162622D01*
X10384415Y-15162622D02*
X10374891Y-15172146D01*
X10374891Y-15172146D02*
X10365367Y-15191193D01*
X10365367Y-15191193D02*
X10365367Y-15229288D01*
X10365367Y-15229288D02*
X10374891Y-15248336D01*
X10374891Y-15248336D02*
X10384415Y-15257860D01*
X10384415Y-15257860D02*
X10403463Y-15267384D01*
X10403463Y-15267384D02*
X10441558Y-15267384D01*
X10441558Y-15267384D02*
X10460605Y-15257860D01*
X10460605Y-15257860D02*
X10470129Y-15248336D01*
X10470129Y-15248336D02*
X10479653Y-15229288D01*
X10479653Y-15229288D02*
X10479653Y-15191193D01*
X10479653Y-15191193D02*
X10470129Y-15172146D01*
X10470129Y-15172146D02*
X10460605Y-15162622D01*
X10460605Y-15162622D02*
X10441558Y-15153098D01*
X10603463Y-15067384D02*
X10622510Y-15067384D01*
X10622510Y-15067384D02*
X10641558Y-15076908D01*
X10641558Y-15076908D02*
X10651082Y-15086431D01*
X10651082Y-15086431D02*
X10660605Y-15105479D01*
X10660605Y-15105479D02*
X10670129Y-15143574D01*
X10670129Y-15143574D02*
X10670129Y-15191193D01*
X10670129Y-15191193D02*
X10660605Y-15229288D01*
X10660605Y-15229288D02*
X10651082Y-15248336D01*
X10651082Y-15248336D02*
X10641558Y-15257860D01*
X10641558Y-15257860D02*
X10622510Y-15267384D01*
X10622510Y-15267384D02*
X10603463Y-15267384D01*
X10603463Y-15267384D02*
X10584415Y-15257860D01*
X10584415Y-15257860D02*
X10574891Y-15248336D01*
X10574891Y-15248336D02*
X10565367Y-15229288D01*
X10565367Y-15229288D02*
X10555844Y-15191193D01*
X10555844Y-15191193D02*
X10555844Y-15143574D01*
X10555844Y-15143574D02*
X10565367Y-15105479D01*
X10565367Y-15105479D02*
X10574891Y-15086431D01*
X10574891Y-15086431D02*
X10584415Y-15076908D01*
X10584415Y-15076908D02*
X10603463Y-15067384D01*
X10793939Y-15067384D02*
X10812986Y-15067384D01*
X10812986Y-15067384D02*
X10832034Y-15076908D01*
X10832034Y-15076908D02*
X10841558Y-15086431D01*
X10841558Y-15086431D02*
X10851082Y-15105479D01*
X10851082Y-15105479D02*
X10860605Y-15143574D01*
X10860605Y-15143574D02*
X10860605Y-15191193D01*
X10860605Y-15191193D02*
X10851082Y-15229288D01*
X10851082Y-15229288D02*
X10841558Y-15248336D01*
X10841558Y-15248336D02*
X10832034Y-15257860D01*
X10832034Y-15257860D02*
X10812986Y-15267384D01*
X10812986Y-15267384D02*
X10793939Y-15267384D01*
X10793939Y-15267384D02*
X10774891Y-15257860D01*
X10774891Y-15257860D02*
X10765367Y-15248336D01*
X10765367Y-15248336D02*
X10755844Y-15229288D01*
X10755844Y-15229288D02*
X10746320Y-15191193D01*
X10746320Y-15191193D02*
X10746320Y-15143574D01*
X10746320Y-15143574D02*
X10755844Y-15105479D01*
X10755844Y-15105479D02*
X10765367Y-15086431D01*
X10765367Y-15086431D02*
X10774891Y-15076908D01*
X10774891Y-15076908D02*
X10793939Y-15067384D01*
X10946320Y-15267384D02*
X10946320Y-15134050D01*
X10946320Y-15153098D02*
X10955844Y-15143574D01*
X10955844Y-15143574D02*
X10974891Y-15134050D01*
X10974891Y-15134050D02*
X11003463Y-15134050D01*
X11003463Y-15134050D02*
X11022510Y-15143574D01*
X11022510Y-15143574D02*
X11032034Y-15162622D01*
X11032034Y-15162622D02*
X11032034Y-15267384D01*
X11032034Y-15162622D02*
X11041558Y-15143574D01*
X11041558Y-15143574D02*
X11060605Y-15134050D01*
X11060605Y-15134050D02*
X11089177Y-15134050D01*
X11089177Y-15134050D02*
X11108225Y-15143574D01*
X11108225Y-15143574D02*
X11117748Y-15162622D01*
X11117748Y-15162622D02*
X11117748Y-15267384D01*
X11212986Y-15267384D02*
X11212986Y-15134050D01*
X11212986Y-15153098D02*
X11222510Y-15143574D01*
X11222510Y-15143574D02*
X11241558Y-15134050D01*
X11241558Y-15134050D02*
X11270129Y-15134050D01*
X11270129Y-15134050D02*
X11289177Y-15143574D01*
X11289177Y-15143574D02*
X11298701Y-15162622D01*
X11298701Y-15162622D02*
X11298701Y-15267384D01*
X11298701Y-15162622D02*
X11308224Y-15143574D01*
X11308224Y-15143574D02*
X11327272Y-15134050D01*
X11327272Y-15134050D02*
X11355843Y-15134050D01*
X11355843Y-15134050D02*
X11374891Y-15143574D01*
X11374891Y-15143574D02*
X11384415Y-15162622D01*
X11384415Y-15162622D02*
X11384415Y-15267384D01*
X11774891Y-15057860D02*
X11603463Y-15315003D01*
X12032034Y-15067384D02*
X12051082Y-15067384D01*
X12051082Y-15067384D02*
X12070129Y-15076908D01*
X12070129Y-15076908D02*
X12079653Y-15086431D01*
X12079653Y-15086431D02*
X12089177Y-15105479D01*
X12089177Y-15105479D02*
X12098701Y-15143574D01*
X12098701Y-15143574D02*
X12098701Y-15191193D01*
X12098701Y-15191193D02*
X12089177Y-15229288D01*
X12089177Y-15229288D02*
X12079653Y-15248336D01*
X12079653Y-15248336D02*
X12070129Y-15257860D01*
X12070129Y-15257860D02*
X12051082Y-15267384D01*
X12051082Y-15267384D02*
X12032034Y-15267384D01*
X12032034Y-15267384D02*
X12012986Y-15257860D01*
X12012986Y-15257860D02*
X12003463Y-15248336D01*
X12003463Y-15248336D02*
X11993939Y-15229288D01*
X11993939Y-15229288D02*
X11984415Y-15191193D01*
X11984415Y-15191193D02*
X11984415Y-15143574D01*
X11984415Y-15143574D02*
X11993939Y-15105479D01*
X11993939Y-15105479D02*
X12003463Y-15086431D01*
X12003463Y-15086431D02*
X12012986Y-15076908D01*
X12012986Y-15076908D02*
X12032034Y-15067384D01*
X12184415Y-15248336D02*
X12193939Y-15257860D01*
X12193939Y-15257860D02*
X12184415Y-15267384D01*
X12184415Y-15267384D02*
X12174891Y-15257860D01*
X12174891Y-15257860D02*
X12184415Y-15248336D01*
X12184415Y-15248336D02*
X12184415Y-15267384D01*
X12317748Y-15067384D02*
X12336796Y-15067384D01*
X12336796Y-15067384D02*
X12355844Y-15076908D01*
X12355844Y-15076908D02*
X12365367Y-15086431D01*
X12365367Y-15086431D02*
X12374891Y-15105479D01*
X12374891Y-15105479D02*
X12384415Y-15143574D01*
X12384415Y-15143574D02*
X12384415Y-15191193D01*
X12384415Y-15191193D02*
X12374891Y-15229288D01*
X12374891Y-15229288D02*
X12365367Y-15248336D01*
X12365367Y-15248336D02*
X12355844Y-15257860D01*
X12355844Y-15257860D02*
X12336796Y-15267384D01*
X12336796Y-15267384D02*
X12317748Y-15267384D01*
X12317748Y-15267384D02*
X12298701Y-15257860D01*
X12298701Y-15257860D02*
X12289177Y-15248336D01*
X12289177Y-15248336D02*
X12279653Y-15229288D01*
X12279653Y-15229288D02*
X12270129Y-15191193D01*
X12270129Y-15191193D02*
X12270129Y-15143574D01*
X12270129Y-15143574D02*
X12279653Y-15105479D01*
X12279653Y-15105479D02*
X12289177Y-15086431D01*
X12289177Y-15086431D02*
X12298701Y-15076908D01*
X12298701Y-15076908D02*
X12317748Y-15067384D01*
X12451082Y-15067384D02*
X12574891Y-15067384D01*
X12574891Y-15067384D02*
X12508225Y-15143574D01*
X12508225Y-15143574D02*
X12536796Y-15143574D01*
X12536796Y-15143574D02*
X12555844Y-15153098D01*
X12555844Y-15153098D02*
X12565367Y-15162622D01*
X12565367Y-15162622D02*
X12574891Y-15181669D01*
X12574891Y-15181669D02*
X12574891Y-15229288D01*
X12574891Y-15229288D02*
X12565367Y-15248336D01*
X12565367Y-15248336D02*
X12555844Y-15257860D01*
X12555844Y-15257860D02*
X12536796Y-15267384D01*
X12536796Y-15267384D02*
X12479653Y-15267384D01*
X12479653Y-15267384D02*
X12460606Y-15257860D01*
X12460606Y-15257860D02*
X12451082Y-15248336D01*
X12765367Y-15267384D02*
X12651082Y-15267384D01*
X12708225Y-15267384D02*
X12708225Y-15067384D01*
X12708225Y-15067384D02*
X12689177Y-15095955D01*
X12689177Y-15095955D02*
X12670129Y-15115003D01*
X12670129Y-15115003D02*
X12651082Y-15124527D01*
X12946320Y-15067384D02*
X12851082Y-15067384D01*
X12851082Y-15067384D02*
X12841558Y-15162622D01*
X12841558Y-15162622D02*
X12851082Y-15153098D01*
X12851082Y-15153098D02*
X12870129Y-15143574D01*
X12870129Y-15143574D02*
X12917748Y-15143574D01*
X12917748Y-15143574D02*
X12936796Y-15153098D01*
X12936796Y-15153098D02*
X12946320Y-15162622D01*
X12946320Y-15162622D02*
X12955844Y-15181669D01*
X12955844Y-15181669D02*
X12955844Y-15229288D01*
X12955844Y-15229288D02*
X12946320Y-15248336D01*
X12946320Y-15248336D02*
X12936796Y-15257860D01*
X12936796Y-15257860D02*
X12917748Y-15267384D01*
X12917748Y-15267384D02*
X12870129Y-15267384D01*
X12870129Y-15267384D02*
X12851082Y-15257860D01*
X12851082Y-15257860D02*
X12841558Y-15248336D01*
X13032034Y-15067384D02*
X13032034Y-15105479D01*
X13108225Y-15067384D02*
X13108225Y-15105479D01*
X13403463Y-15343574D02*
X13393939Y-15334050D01*
X13393939Y-15334050D02*
X13374891Y-15305479D01*
X13374891Y-15305479D02*
X13365368Y-15286431D01*
X13365368Y-15286431D02*
X13355844Y-15257860D01*
X13355844Y-15257860D02*
X13346320Y-15210241D01*
X13346320Y-15210241D02*
X13346320Y-15172146D01*
X13346320Y-15172146D02*
X13355844Y-15124527D01*
X13355844Y-15124527D02*
X13365368Y-15095955D01*
X13365368Y-15095955D02*
X13374891Y-15076908D01*
X13374891Y-15076908D02*
X13393939Y-15048336D01*
X13393939Y-15048336D02*
X13403463Y-15038812D01*
X13470129Y-15086431D02*
X13479653Y-15076908D01*
X13479653Y-15076908D02*
X13498701Y-15067384D01*
X13498701Y-15067384D02*
X13546320Y-15067384D01*
X13546320Y-15067384D02*
X13565368Y-15076908D01*
X13565368Y-15076908D02*
X13574891Y-15086431D01*
X13574891Y-15086431D02*
X13584415Y-15105479D01*
X13584415Y-15105479D02*
X13584415Y-15124527D01*
X13584415Y-15124527D02*
X13574891Y-15153098D01*
X13574891Y-15153098D02*
X13460606Y-15267384D01*
X13460606Y-15267384D02*
X13584415Y-15267384D01*
X13708225Y-15067384D02*
X13727272Y-15067384D01*
X13727272Y-15067384D02*
X13746320Y-15076908D01*
X13746320Y-15076908D02*
X13755844Y-15086431D01*
X13755844Y-15086431D02*
X13765368Y-15105479D01*
X13765368Y-15105479D02*
X13774891Y-15143574D01*
X13774891Y-15143574D02*
X13774891Y-15191193D01*
X13774891Y-15191193D02*
X13765368Y-15229288D01*
X13765368Y-15229288D02*
X13755844Y-15248336D01*
X13755844Y-15248336D02*
X13746320Y-15257860D01*
X13746320Y-15257860D02*
X13727272Y-15267384D01*
X13727272Y-15267384D02*
X13708225Y-15267384D01*
X13708225Y-15267384D02*
X13689177Y-15257860D01*
X13689177Y-15257860D02*
X13679653Y-15248336D01*
X13679653Y-15248336D02*
X13670129Y-15229288D01*
X13670129Y-15229288D02*
X13660606Y-15191193D01*
X13660606Y-15191193D02*
X13660606Y-15143574D01*
X13660606Y-15143574D02*
X13670129Y-15105479D01*
X13670129Y-15105479D02*
X13679653Y-15086431D01*
X13679653Y-15086431D02*
X13689177Y-15076908D01*
X13689177Y-15076908D02*
X13708225Y-15067384D01*
X13965368Y-15267384D02*
X13851082Y-15267384D01*
X13908225Y-15267384D02*
X13908225Y-15067384D01*
X13908225Y-15067384D02*
X13889177Y-15095955D01*
X13889177Y-15095955D02*
X13870129Y-15115003D01*
X13870129Y-15115003D02*
X13851082Y-15124527D01*
X14203463Y-15267384D02*
X14203463Y-15067384D01*
X14289177Y-15267384D02*
X14289177Y-15162622D01*
X14289177Y-15162622D02*
X14279653Y-15143574D01*
X14279653Y-15143574D02*
X14260606Y-15134050D01*
X14260606Y-15134050D02*
X14232034Y-15134050D01*
X14232034Y-15134050D02*
X14212987Y-15143574D01*
X14212987Y-15143574D02*
X14203463Y-15153098D01*
X14412987Y-15267384D02*
X14393939Y-15257860D01*
X14393939Y-15257860D02*
X14384415Y-15248336D01*
X14384415Y-15248336D02*
X14374891Y-15229288D01*
X14374891Y-15229288D02*
X14374891Y-15172146D01*
X14374891Y-15172146D02*
X14384415Y-15153098D01*
X14384415Y-15153098D02*
X14393939Y-15143574D01*
X14393939Y-15143574D02*
X14412987Y-15134050D01*
X14412987Y-15134050D02*
X14441558Y-15134050D01*
X14441558Y-15134050D02*
X14460606Y-15143574D01*
X14460606Y-15143574D02*
X14470130Y-15153098D01*
X14470130Y-15153098D02*
X14479653Y-15172146D01*
X14479653Y-15172146D02*
X14479653Y-15229288D01*
X14479653Y-15229288D02*
X14470130Y-15248336D01*
X14470130Y-15248336D02*
X14460606Y-15257860D01*
X14460606Y-15257860D02*
X14441558Y-15267384D01*
X14441558Y-15267384D02*
X14412987Y-15267384D01*
X14593939Y-15267384D02*
X14574891Y-15257860D01*
X14574891Y-15257860D02*
X14565368Y-15238812D01*
X14565368Y-15238812D02*
X14565368Y-15067384D01*
X14746320Y-15257860D02*
X14727272Y-15267384D01*
X14727272Y-15267384D02*
X14689177Y-15267384D01*
X14689177Y-15267384D02*
X14670130Y-15257860D01*
X14670130Y-15257860D02*
X14660606Y-15238812D01*
X14660606Y-15238812D02*
X14660606Y-15162622D01*
X14660606Y-15162622D02*
X14670130Y-15143574D01*
X14670130Y-15143574D02*
X14689177Y-15134050D01*
X14689177Y-15134050D02*
X14727272Y-15134050D01*
X14727272Y-15134050D02*
X14746320Y-15143574D01*
X14746320Y-15143574D02*
X14755844Y-15162622D01*
X14755844Y-15162622D02*
X14755844Y-15181669D01*
X14755844Y-15181669D02*
X14660606Y-15200717D01*
X14832034Y-15257860D02*
X14851082Y-15267384D01*
X14851082Y-15267384D02*
X14889177Y-15267384D01*
X14889177Y-15267384D02*
X14908225Y-15257860D01*
X14908225Y-15257860D02*
X14917749Y-15238812D01*
X14917749Y-15238812D02*
X14917749Y-15229288D01*
X14917749Y-15229288D02*
X14908225Y-15210241D01*
X14908225Y-15210241D02*
X14889177Y-15200717D01*
X14889177Y-15200717D02*
X14860606Y-15200717D01*
X14860606Y-15200717D02*
X14841558Y-15191193D01*
X14841558Y-15191193D02*
X14832034Y-15172146D01*
X14832034Y-15172146D02*
X14832034Y-15162622D01*
X14832034Y-15162622D02*
X14841558Y-15143574D01*
X14841558Y-15143574D02*
X14860606Y-15134050D01*
X14860606Y-15134050D02*
X14889177Y-15134050D01*
X14889177Y-15134050D02*
X14908225Y-15143574D01*
X14984415Y-15343574D02*
X14993939Y-15334050D01*
X14993939Y-15334050D02*
X15012987Y-15305479D01*
X15012987Y-15305479D02*
X15022511Y-15286431D01*
X15022511Y-15286431D02*
X15032034Y-15257860D01*
X15032034Y-15257860D02*
X15041558Y-15210241D01*
X15041558Y-15210241D02*
X15041558Y-15172146D01*
X15041558Y-15172146D02*
X15032034Y-15124527D01*
X15032034Y-15124527D02*
X15022511Y-15095955D01*
X15022511Y-15095955D02*
X15012987Y-15076908D01*
X15012987Y-15076908D02*
X14993939Y-15048336D01*
X14993939Y-15048336D02*
X14984415Y-15038812D01*
D16*
X9783400Y-15484900D02*
X9828400Y-15439900D01*
X9783400Y-15394900D01*
X9738400Y-15439900D01*
X9783400Y-15484900D01*
D11*
X10127272Y-15331384D02*
X10146320Y-15331384D01*
X10146320Y-15331384D02*
X10165367Y-15340908D01*
X10165367Y-15340908D02*
X10174891Y-15350431D01*
X10174891Y-15350431D02*
X10184415Y-15369479D01*
X10184415Y-15369479D02*
X10193939Y-15407574D01*
X10193939Y-15407574D02*
X10193939Y-15455193D01*
X10193939Y-15455193D02*
X10184415Y-15493288D01*
X10184415Y-15493288D02*
X10174891Y-15512336D01*
X10174891Y-15512336D02*
X10165367Y-15521860D01*
X10165367Y-15521860D02*
X10146320Y-15531384D01*
X10146320Y-15531384D02*
X10127272Y-15531384D01*
X10127272Y-15531384D02*
X10108224Y-15521860D01*
X10108224Y-15521860D02*
X10098701Y-15512336D01*
X10098701Y-15512336D02*
X10089177Y-15493288D01*
X10089177Y-15493288D02*
X10079653Y-15455193D01*
X10079653Y-15455193D02*
X10079653Y-15407574D01*
X10079653Y-15407574D02*
X10089177Y-15369479D01*
X10089177Y-15369479D02*
X10098701Y-15350431D01*
X10098701Y-15350431D02*
X10108224Y-15340908D01*
X10108224Y-15340908D02*
X10127272Y-15331384D01*
X10279653Y-15512336D02*
X10289177Y-15521860D01*
X10289177Y-15521860D02*
X10279653Y-15531384D01*
X10279653Y-15531384D02*
X10270129Y-15521860D01*
X10270129Y-15521860D02*
X10279653Y-15512336D01*
X10279653Y-15512336D02*
X10279653Y-15531384D01*
X10384415Y-15531384D02*
X10422510Y-15531384D01*
X10422510Y-15531384D02*
X10441558Y-15521860D01*
X10441558Y-15521860D02*
X10451082Y-15512336D01*
X10451082Y-15512336D02*
X10470129Y-15483765D01*
X10470129Y-15483765D02*
X10479653Y-15445669D01*
X10479653Y-15445669D02*
X10479653Y-15369479D01*
X10479653Y-15369479D02*
X10470129Y-15350431D01*
X10470129Y-15350431D02*
X10460605Y-15340908D01*
X10460605Y-15340908D02*
X10441558Y-15331384D01*
X10441558Y-15331384D02*
X10403463Y-15331384D01*
X10403463Y-15331384D02*
X10384415Y-15340908D01*
X10384415Y-15340908D02*
X10374891Y-15350431D01*
X10374891Y-15350431D02*
X10365367Y-15369479D01*
X10365367Y-15369479D02*
X10365367Y-15417098D01*
X10365367Y-15417098D02*
X10374891Y-15436146D01*
X10374891Y-15436146D02*
X10384415Y-15445669D01*
X10384415Y-15445669D02*
X10403463Y-15455193D01*
X10403463Y-15455193D02*
X10441558Y-15455193D01*
X10441558Y-15455193D02*
X10460605Y-15445669D01*
X10460605Y-15445669D02*
X10470129Y-15436146D01*
X10470129Y-15436146D02*
X10479653Y-15417098D01*
X10603463Y-15331384D02*
X10622510Y-15331384D01*
X10622510Y-15331384D02*
X10641558Y-15340908D01*
X10641558Y-15340908D02*
X10651082Y-15350431D01*
X10651082Y-15350431D02*
X10660605Y-15369479D01*
X10660605Y-15369479D02*
X10670129Y-15407574D01*
X10670129Y-15407574D02*
X10670129Y-15455193D01*
X10670129Y-15455193D02*
X10660605Y-15493288D01*
X10660605Y-15493288D02*
X10651082Y-15512336D01*
X10651082Y-15512336D02*
X10641558Y-15521860D01*
X10641558Y-15521860D02*
X10622510Y-15531384D01*
X10622510Y-15531384D02*
X10603463Y-15531384D01*
X10603463Y-15531384D02*
X10584415Y-15521860D01*
X10584415Y-15521860D02*
X10574891Y-15512336D01*
X10574891Y-15512336D02*
X10565367Y-15493288D01*
X10565367Y-15493288D02*
X10555844Y-15455193D01*
X10555844Y-15455193D02*
X10555844Y-15407574D01*
X10555844Y-15407574D02*
X10565367Y-15369479D01*
X10565367Y-15369479D02*
X10574891Y-15350431D01*
X10574891Y-15350431D02*
X10584415Y-15340908D01*
X10584415Y-15340908D02*
X10603463Y-15331384D01*
X10793939Y-15331384D02*
X10812986Y-15331384D01*
X10812986Y-15331384D02*
X10832034Y-15340908D01*
X10832034Y-15340908D02*
X10841558Y-15350431D01*
X10841558Y-15350431D02*
X10851082Y-15369479D01*
X10851082Y-15369479D02*
X10860605Y-15407574D01*
X10860605Y-15407574D02*
X10860605Y-15455193D01*
X10860605Y-15455193D02*
X10851082Y-15493288D01*
X10851082Y-15493288D02*
X10841558Y-15512336D01*
X10841558Y-15512336D02*
X10832034Y-15521860D01*
X10832034Y-15521860D02*
X10812986Y-15531384D01*
X10812986Y-15531384D02*
X10793939Y-15531384D01*
X10793939Y-15531384D02*
X10774891Y-15521860D01*
X10774891Y-15521860D02*
X10765367Y-15512336D01*
X10765367Y-15512336D02*
X10755844Y-15493288D01*
X10755844Y-15493288D02*
X10746320Y-15455193D01*
X10746320Y-15455193D02*
X10746320Y-15407574D01*
X10746320Y-15407574D02*
X10755844Y-15369479D01*
X10755844Y-15369479D02*
X10765367Y-15350431D01*
X10765367Y-15350431D02*
X10774891Y-15340908D01*
X10774891Y-15340908D02*
X10793939Y-15331384D01*
X10946320Y-15531384D02*
X10946320Y-15398050D01*
X10946320Y-15417098D02*
X10955844Y-15407574D01*
X10955844Y-15407574D02*
X10974891Y-15398050D01*
X10974891Y-15398050D02*
X11003463Y-15398050D01*
X11003463Y-15398050D02*
X11022510Y-15407574D01*
X11022510Y-15407574D02*
X11032034Y-15426622D01*
X11032034Y-15426622D02*
X11032034Y-15531384D01*
X11032034Y-15426622D02*
X11041558Y-15407574D01*
X11041558Y-15407574D02*
X11060605Y-15398050D01*
X11060605Y-15398050D02*
X11089177Y-15398050D01*
X11089177Y-15398050D02*
X11108225Y-15407574D01*
X11108225Y-15407574D02*
X11117748Y-15426622D01*
X11117748Y-15426622D02*
X11117748Y-15531384D01*
X11212986Y-15531384D02*
X11212986Y-15398050D01*
X11212986Y-15417098D02*
X11222510Y-15407574D01*
X11222510Y-15407574D02*
X11241558Y-15398050D01*
X11241558Y-15398050D02*
X11270129Y-15398050D01*
X11270129Y-15398050D02*
X11289177Y-15407574D01*
X11289177Y-15407574D02*
X11298701Y-15426622D01*
X11298701Y-15426622D02*
X11298701Y-15531384D01*
X11298701Y-15426622D02*
X11308224Y-15407574D01*
X11308224Y-15407574D02*
X11327272Y-15398050D01*
X11327272Y-15398050D02*
X11355843Y-15398050D01*
X11355843Y-15398050D02*
X11374891Y-15407574D01*
X11374891Y-15407574D02*
X11384415Y-15426622D01*
X11384415Y-15426622D02*
X11384415Y-15531384D01*
X11774891Y-15321860D02*
X11603463Y-15579003D01*
X12032034Y-15331384D02*
X12051082Y-15331384D01*
X12051082Y-15331384D02*
X12070129Y-15340908D01*
X12070129Y-15340908D02*
X12079653Y-15350431D01*
X12079653Y-15350431D02*
X12089177Y-15369479D01*
X12089177Y-15369479D02*
X12098701Y-15407574D01*
X12098701Y-15407574D02*
X12098701Y-15455193D01*
X12098701Y-15455193D02*
X12089177Y-15493288D01*
X12089177Y-15493288D02*
X12079653Y-15512336D01*
X12079653Y-15512336D02*
X12070129Y-15521860D01*
X12070129Y-15521860D02*
X12051082Y-15531384D01*
X12051082Y-15531384D02*
X12032034Y-15531384D01*
X12032034Y-15531384D02*
X12012986Y-15521860D01*
X12012986Y-15521860D02*
X12003463Y-15512336D01*
X12003463Y-15512336D02*
X11993939Y-15493288D01*
X11993939Y-15493288D02*
X11984415Y-15455193D01*
X11984415Y-15455193D02*
X11984415Y-15407574D01*
X11984415Y-15407574D02*
X11993939Y-15369479D01*
X11993939Y-15369479D02*
X12003463Y-15350431D01*
X12003463Y-15350431D02*
X12012986Y-15340908D01*
X12012986Y-15340908D02*
X12032034Y-15331384D01*
X12184415Y-15512336D02*
X12193939Y-15521860D01*
X12193939Y-15521860D02*
X12184415Y-15531384D01*
X12184415Y-15531384D02*
X12174891Y-15521860D01*
X12174891Y-15521860D02*
X12184415Y-15512336D01*
X12184415Y-15512336D02*
X12184415Y-15531384D01*
X12317748Y-15331384D02*
X12336796Y-15331384D01*
X12336796Y-15331384D02*
X12355844Y-15340908D01*
X12355844Y-15340908D02*
X12365367Y-15350431D01*
X12365367Y-15350431D02*
X12374891Y-15369479D01*
X12374891Y-15369479D02*
X12384415Y-15407574D01*
X12384415Y-15407574D02*
X12384415Y-15455193D01*
X12384415Y-15455193D02*
X12374891Y-15493288D01*
X12374891Y-15493288D02*
X12365367Y-15512336D01*
X12365367Y-15512336D02*
X12355844Y-15521860D01*
X12355844Y-15521860D02*
X12336796Y-15531384D01*
X12336796Y-15531384D02*
X12317748Y-15531384D01*
X12317748Y-15531384D02*
X12298701Y-15521860D01*
X12298701Y-15521860D02*
X12289177Y-15512336D01*
X12289177Y-15512336D02*
X12279653Y-15493288D01*
X12279653Y-15493288D02*
X12270129Y-15455193D01*
X12270129Y-15455193D02*
X12270129Y-15407574D01*
X12270129Y-15407574D02*
X12279653Y-15369479D01*
X12279653Y-15369479D02*
X12289177Y-15350431D01*
X12289177Y-15350431D02*
X12298701Y-15340908D01*
X12298701Y-15340908D02*
X12317748Y-15331384D01*
X12451082Y-15331384D02*
X12574891Y-15331384D01*
X12574891Y-15331384D02*
X12508225Y-15407574D01*
X12508225Y-15407574D02*
X12536796Y-15407574D01*
X12536796Y-15407574D02*
X12555844Y-15417098D01*
X12555844Y-15417098D02*
X12565367Y-15426622D01*
X12565367Y-15426622D02*
X12574891Y-15445669D01*
X12574891Y-15445669D02*
X12574891Y-15493288D01*
X12574891Y-15493288D02*
X12565367Y-15512336D01*
X12565367Y-15512336D02*
X12555844Y-15521860D01*
X12555844Y-15521860D02*
X12536796Y-15531384D01*
X12536796Y-15531384D02*
X12479653Y-15531384D01*
X12479653Y-15531384D02*
X12460606Y-15521860D01*
X12460606Y-15521860D02*
X12451082Y-15512336D01*
X12755844Y-15331384D02*
X12660606Y-15331384D01*
X12660606Y-15331384D02*
X12651082Y-15426622D01*
X12651082Y-15426622D02*
X12660606Y-15417098D01*
X12660606Y-15417098D02*
X12679653Y-15407574D01*
X12679653Y-15407574D02*
X12727272Y-15407574D01*
X12727272Y-15407574D02*
X12746320Y-15417098D01*
X12746320Y-15417098D02*
X12755844Y-15426622D01*
X12755844Y-15426622D02*
X12765367Y-15445669D01*
X12765367Y-15445669D02*
X12765367Y-15493288D01*
X12765367Y-15493288D02*
X12755844Y-15512336D01*
X12755844Y-15512336D02*
X12746320Y-15521860D01*
X12746320Y-15521860D02*
X12727272Y-15531384D01*
X12727272Y-15531384D02*
X12679653Y-15531384D01*
X12679653Y-15531384D02*
X12660606Y-15521860D01*
X12660606Y-15521860D02*
X12651082Y-15512336D01*
X12936796Y-15398050D02*
X12936796Y-15531384D01*
X12889177Y-15321860D02*
X12841558Y-15464717D01*
X12841558Y-15464717D02*
X12965367Y-15464717D01*
X13032034Y-15331384D02*
X13032034Y-15369479D01*
X13108225Y-15331384D02*
X13108225Y-15369479D01*
X13403463Y-15607574D02*
X13393939Y-15598050D01*
X13393939Y-15598050D02*
X13374891Y-15569479D01*
X13374891Y-15569479D02*
X13365368Y-15550431D01*
X13365368Y-15550431D02*
X13355844Y-15521860D01*
X13355844Y-15521860D02*
X13346320Y-15474241D01*
X13346320Y-15474241D02*
X13346320Y-15436146D01*
X13346320Y-15436146D02*
X13355844Y-15388527D01*
X13355844Y-15388527D02*
X13365368Y-15359955D01*
X13365368Y-15359955D02*
X13374891Y-15340908D01*
X13374891Y-15340908D02*
X13393939Y-15312336D01*
X13393939Y-15312336D02*
X13403463Y-15302812D01*
X13584415Y-15531384D02*
X13470129Y-15531384D01*
X13527272Y-15531384D02*
X13527272Y-15331384D01*
X13527272Y-15331384D02*
X13508225Y-15359955D01*
X13508225Y-15359955D02*
X13489177Y-15379003D01*
X13489177Y-15379003D02*
X13470129Y-15388527D01*
X13755844Y-15331384D02*
X13717748Y-15331384D01*
X13717748Y-15331384D02*
X13698701Y-15340908D01*
X13698701Y-15340908D02*
X13689177Y-15350431D01*
X13689177Y-15350431D02*
X13670129Y-15379003D01*
X13670129Y-15379003D02*
X13660606Y-15417098D01*
X13660606Y-15417098D02*
X13660606Y-15493288D01*
X13660606Y-15493288D02*
X13670129Y-15512336D01*
X13670129Y-15512336D02*
X13679653Y-15521860D01*
X13679653Y-15521860D02*
X13698701Y-15531384D01*
X13698701Y-15531384D02*
X13736796Y-15531384D01*
X13736796Y-15531384D02*
X13755844Y-15521860D01*
X13755844Y-15521860D02*
X13765368Y-15512336D01*
X13765368Y-15512336D02*
X13774891Y-15493288D01*
X13774891Y-15493288D02*
X13774891Y-15445669D01*
X13774891Y-15445669D02*
X13765368Y-15426622D01*
X13765368Y-15426622D02*
X13755844Y-15417098D01*
X13755844Y-15417098D02*
X13736796Y-15407574D01*
X13736796Y-15407574D02*
X13698701Y-15407574D01*
X13698701Y-15407574D02*
X13679653Y-15417098D01*
X13679653Y-15417098D02*
X13670129Y-15426622D01*
X13670129Y-15426622D02*
X13660606Y-15445669D01*
X14012987Y-15531384D02*
X14012987Y-15331384D01*
X14098701Y-15531384D02*
X14098701Y-15426622D01*
X14098701Y-15426622D02*
X14089177Y-15407574D01*
X14089177Y-15407574D02*
X14070130Y-15398050D01*
X14070130Y-15398050D02*
X14041558Y-15398050D01*
X14041558Y-15398050D02*
X14022510Y-15407574D01*
X14022510Y-15407574D02*
X14012987Y-15417098D01*
X14222510Y-15531384D02*
X14203463Y-15521860D01*
X14203463Y-15521860D02*
X14193939Y-15512336D01*
X14193939Y-15512336D02*
X14184415Y-15493288D01*
X14184415Y-15493288D02*
X14184415Y-15436146D01*
X14184415Y-15436146D02*
X14193939Y-15417098D01*
X14193939Y-15417098D02*
X14203463Y-15407574D01*
X14203463Y-15407574D02*
X14222510Y-15398050D01*
X14222510Y-15398050D02*
X14251082Y-15398050D01*
X14251082Y-15398050D02*
X14270130Y-15407574D01*
X14270130Y-15407574D02*
X14279653Y-15417098D01*
X14279653Y-15417098D02*
X14289177Y-15436146D01*
X14289177Y-15436146D02*
X14289177Y-15493288D01*
X14289177Y-15493288D02*
X14279653Y-15512336D01*
X14279653Y-15512336D02*
X14270130Y-15521860D01*
X14270130Y-15521860D02*
X14251082Y-15531384D01*
X14251082Y-15531384D02*
X14222510Y-15531384D01*
X14403463Y-15531384D02*
X14384415Y-15521860D01*
X14384415Y-15521860D02*
X14374891Y-15502812D01*
X14374891Y-15502812D02*
X14374891Y-15331384D01*
X14555844Y-15521860D02*
X14536796Y-15531384D01*
X14536796Y-15531384D02*
X14498701Y-15531384D01*
X14498701Y-15531384D02*
X14479653Y-15521860D01*
X14479653Y-15521860D02*
X14470130Y-15502812D01*
X14470130Y-15502812D02*
X14470130Y-15426622D01*
X14470130Y-15426622D02*
X14479653Y-15407574D01*
X14479653Y-15407574D02*
X14498701Y-15398050D01*
X14498701Y-15398050D02*
X14536796Y-15398050D01*
X14536796Y-15398050D02*
X14555844Y-15407574D01*
X14555844Y-15407574D02*
X14565368Y-15426622D01*
X14565368Y-15426622D02*
X14565368Y-15445669D01*
X14565368Y-15445669D02*
X14470130Y-15464717D01*
X14641558Y-15521860D02*
X14660606Y-15531384D01*
X14660606Y-15531384D02*
X14698701Y-15531384D01*
X14698701Y-15531384D02*
X14717749Y-15521860D01*
X14717749Y-15521860D02*
X14727272Y-15502812D01*
X14727272Y-15502812D02*
X14727272Y-15493288D01*
X14727272Y-15493288D02*
X14717749Y-15474241D01*
X14717749Y-15474241D02*
X14698701Y-15464717D01*
X14698701Y-15464717D02*
X14670130Y-15464717D01*
X14670130Y-15464717D02*
X14651082Y-15455193D01*
X14651082Y-15455193D02*
X14641558Y-15436146D01*
X14641558Y-15436146D02*
X14641558Y-15426622D01*
X14641558Y-15426622D02*
X14651082Y-15407574D01*
X14651082Y-15407574D02*
X14670130Y-15398050D01*
X14670130Y-15398050D02*
X14698701Y-15398050D01*
X14698701Y-15398050D02*
X14717749Y-15407574D01*
X14793939Y-15607574D02*
X14803463Y-15598050D01*
X14803463Y-15598050D02*
X14822511Y-15569479D01*
X14822511Y-15569479D02*
X14832034Y-15550431D01*
X14832034Y-15550431D02*
X14841558Y-15521860D01*
X14841558Y-15521860D02*
X14851082Y-15474241D01*
X14851082Y-15474241D02*
X14851082Y-15436146D01*
X14851082Y-15436146D02*
X14841558Y-15388527D01*
X14841558Y-15388527D02*
X14832034Y-15359955D01*
X14832034Y-15359955D02*
X14822511Y-15340908D01*
X14822511Y-15340908D02*
X14803463Y-15312336D01*
X14803463Y-15312336D02*
X14793939Y-15302812D01*
M02*
