%TF.GenerationSoftware,KiCad,Pcbnew,7.0.8*%
%TF.CreationDate,2023-10-09T15:43:32+02:00*%
%TF.ProjectId,Z80_SBC,5a38305f-5342-4432-9e6b-696361645f70,rev?*%
%TF.SameCoordinates,Original*%
%TF.FileFunction,Drillmap*%
%TF.FilePolarity,Positive*%
%FSLAX45Y45*%
G04 Gerber Fmt 4.5, Leading zero omitted, Abs format (unit mm)*
G04 Created by KiCad (PCBNEW 7.0.8) date 2023-10-09 15:43:32*
%MOMM*%
%LPD*%
G01*
G04 APERTURE LIST*
%ADD10C,0.100000*%
%ADD11C,0.200000*%
G04 APERTURE END LIST*
D10*
X9833400Y-3738900D02*
X19833400Y-3738900D01*
X19833400Y-13738900D01*
X9833400Y-13738900D01*
X9833400Y-3738900D01*
D11*
X10089177Y-14055384D02*
X10089177Y-13855384D01*
X10089177Y-13855384D02*
X10136796Y-13855384D01*
X10136796Y-13855384D02*
X10165367Y-13864908D01*
X10165367Y-13864908D02*
X10184415Y-13883955D01*
X10184415Y-13883955D02*
X10193939Y-13903003D01*
X10193939Y-13903003D02*
X10203463Y-13941098D01*
X10203463Y-13941098D02*
X10203463Y-13969669D01*
X10203463Y-13969669D02*
X10193939Y-14007765D01*
X10193939Y-14007765D02*
X10184415Y-14026812D01*
X10184415Y-14026812D02*
X10165367Y-14045860D01*
X10165367Y-14045860D02*
X10136796Y-14055384D01*
X10136796Y-14055384D02*
X10089177Y-14055384D01*
X10289177Y-14055384D02*
X10289177Y-13922050D01*
X10289177Y-13960146D02*
X10298701Y-13941098D01*
X10298701Y-13941098D02*
X10308224Y-13931574D01*
X10308224Y-13931574D02*
X10327272Y-13922050D01*
X10327272Y-13922050D02*
X10346320Y-13922050D01*
X10412986Y-14055384D02*
X10412986Y-13922050D01*
X10412986Y-13855384D02*
X10403463Y-13864908D01*
X10403463Y-13864908D02*
X10412986Y-13874431D01*
X10412986Y-13874431D02*
X10422510Y-13864908D01*
X10422510Y-13864908D02*
X10412986Y-13855384D01*
X10412986Y-13855384D02*
X10412986Y-13874431D01*
X10536796Y-14055384D02*
X10517748Y-14045860D01*
X10517748Y-14045860D02*
X10508224Y-14026812D01*
X10508224Y-14026812D02*
X10508224Y-13855384D01*
X10641558Y-14055384D02*
X10622510Y-14045860D01*
X10622510Y-14045860D02*
X10612986Y-14026812D01*
X10612986Y-14026812D02*
X10612986Y-13855384D01*
X10870129Y-14055384D02*
X10870129Y-13855384D01*
X10870129Y-13855384D02*
X10936796Y-13998241D01*
X10936796Y-13998241D02*
X11003463Y-13855384D01*
X11003463Y-13855384D02*
X11003463Y-14055384D01*
X11184415Y-14055384D02*
X11184415Y-13950622D01*
X11184415Y-13950622D02*
X11174891Y-13931574D01*
X11174891Y-13931574D02*
X11155844Y-13922050D01*
X11155844Y-13922050D02*
X11117748Y-13922050D01*
X11117748Y-13922050D02*
X11098701Y-13931574D01*
X11184415Y-14045860D02*
X11165367Y-14055384D01*
X11165367Y-14055384D02*
X11117748Y-14055384D01*
X11117748Y-14055384D02*
X11098701Y-14045860D01*
X11098701Y-14045860D02*
X11089177Y-14026812D01*
X11089177Y-14026812D02*
X11089177Y-14007765D01*
X11089177Y-14007765D02*
X11098701Y-13988717D01*
X11098701Y-13988717D02*
X11117748Y-13979193D01*
X11117748Y-13979193D02*
X11165367Y-13979193D01*
X11165367Y-13979193D02*
X11184415Y-13969669D01*
X11279653Y-13922050D02*
X11279653Y-14122050D01*
X11279653Y-13931574D02*
X11298701Y-13922050D01*
X11298701Y-13922050D02*
X11336796Y-13922050D01*
X11336796Y-13922050D02*
X11355843Y-13931574D01*
X11355843Y-13931574D02*
X11365367Y-13941098D01*
X11365367Y-13941098D02*
X11374891Y-13960146D01*
X11374891Y-13960146D02*
X11374891Y-14017288D01*
X11374891Y-14017288D02*
X11365367Y-14036336D01*
X11365367Y-14036336D02*
X11355843Y-14045860D01*
X11355843Y-14045860D02*
X11336796Y-14055384D01*
X11336796Y-14055384D02*
X11298701Y-14055384D01*
X11298701Y-14055384D02*
X11279653Y-14045860D01*
X11460605Y-14036336D02*
X11470129Y-14045860D01*
X11470129Y-14045860D02*
X11460605Y-14055384D01*
X11460605Y-14055384D02*
X11451082Y-14045860D01*
X11451082Y-14045860D02*
X11460605Y-14036336D01*
X11460605Y-14036336D02*
X11460605Y-14055384D01*
X11460605Y-13931574D02*
X11470129Y-13941098D01*
X11470129Y-13941098D02*
X11460605Y-13950622D01*
X11460605Y-13950622D02*
X11451082Y-13941098D01*
X11451082Y-13941098D02*
X11460605Y-13931574D01*
X11460605Y-13931574D02*
X11460605Y-13950622D01*
M02*
