%TF.GenerationSoftware,KiCad,Pcbnew,7.0.8*%
%TF.CreationDate,2023-10-09T18:20:10+02:00*%
%TF.ProjectId,Z80_SBC,5a38305f-5342-4432-9e6b-696361645f70,rev?*%
%TF.SameCoordinates,Original*%
%TF.FileFunction,Soldermask,Bot*%
%TF.FilePolarity,Negative*%
%FSLAX46Y46*%
G04 Gerber Fmt 4.6, Leading zero omitted, Abs format (unit mm)*
G04 Created by KiCad (PCBNEW 7.0.8) date 2023-10-09 18:20:10*
%MOMM*%
%LPD*%
G01*
G04 APERTURE LIST*
%ADD10R,1.800000X1.800000*%
%ADD11C,1.800000*%
%ADD12C,1.600000*%
%ADD13O,1.600000X1.600000*%
%ADD14O,1.700000X1.100000*%
%ADD15C,1.200000*%
%ADD16R,2.400000X1.600000*%
%ADD17O,2.400000X1.600000*%
%ADD18R,1.600000X1.600000*%
%ADD19R,1.200000X1.200000*%
%ADD20R,1.000000X1.000000*%
%ADD21O,1.000000X1.000000*%
%ADD22C,1.500000*%
%ADD23C,2.000000*%
G04 APERTURE END LIST*
D10*
%TO.C,D8*%
X195306000Y-131059000D03*
D11*
X195306000Y-128519000D03*
%TD*%
D10*
%TO.C,D7*%
X189464000Y-131059000D03*
D11*
X189464000Y-128519000D03*
%TD*%
D12*
%TO.C,R4*%
X102850000Y-113787000D03*
D13*
X102850000Y-101087000D03*
%TD*%
D10*
%TO.C,D3*%
X166096000Y-131313000D03*
D11*
X166096000Y-128773000D03*
%TD*%
D14*
%TO.C,J1*%
X104834000Y-39363000D03*
X101034000Y-39363000D03*
X104834000Y-48003000D03*
X101034000Y-48003000D03*
%TD*%
D12*
%TO.C,R5*%
X103124000Y-76708000D03*
D13*
X103124000Y-89408000D03*
%TD*%
D15*
%TO.C,C4*%
X129516000Y-93472000D03*
X128016000Y-93472000D03*
%TD*%
D16*
%TO.C,U1*%
X121158000Y-40132000D03*
D17*
X121158000Y-42672000D03*
X121158000Y-45212000D03*
X121158000Y-47752000D03*
X121158000Y-50292000D03*
X121158000Y-52832000D03*
X121158000Y-55372000D03*
X121158000Y-57912000D03*
X121158000Y-60452000D03*
X121158000Y-62992000D03*
X121158000Y-65532000D03*
X121158000Y-68072000D03*
X121158000Y-70612000D03*
X121158000Y-73152000D03*
X121158000Y-75692000D03*
X121158000Y-78232000D03*
X121158000Y-80772000D03*
X121158000Y-83312000D03*
X121158000Y-85852000D03*
X121158000Y-88392000D03*
X136398000Y-88392000D03*
X136398000Y-85852000D03*
X136398000Y-83312000D03*
X136398000Y-80772000D03*
X136398000Y-78232000D03*
X136398000Y-75692000D03*
X136398000Y-73152000D03*
X136398000Y-70612000D03*
X136398000Y-68072000D03*
X136398000Y-65532000D03*
X136398000Y-62992000D03*
X136398000Y-60452000D03*
X136398000Y-57912000D03*
X136398000Y-55372000D03*
X136398000Y-52832000D03*
X136398000Y-50292000D03*
X136398000Y-47752000D03*
X136398000Y-45212000D03*
X136398000Y-42672000D03*
X136398000Y-40132000D03*
%TD*%
D18*
%TO.C,U4*%
X108438000Y-101849000D03*
D13*
X108438000Y-104389000D03*
X108438000Y-106929000D03*
X108438000Y-109469000D03*
X108438000Y-112009000D03*
X108438000Y-114549000D03*
X108438000Y-117089000D03*
X116058000Y-117089000D03*
X116058000Y-114549000D03*
X116058000Y-112009000D03*
X116058000Y-109469000D03*
X116058000Y-106929000D03*
X116058000Y-104389000D03*
X116058000Y-101849000D03*
%TD*%
D15*
%TO.C,C5*%
X139424000Y-113787000D03*
X137924000Y-113787000D03*
%TD*%
D19*
%TO.C,C1*%
X102596000Y-123975401D03*
D15*
X102596000Y-125975401D03*
%TD*%
%TO.C,C11*%
X161798000Y-39128000D03*
X161798000Y-40628000D03*
%TD*%
D20*
%TO.C,J2*%
X196576000Y-91181000D03*
D21*
X196576000Y-89911000D03*
X196576000Y-88641000D03*
X196576000Y-87371000D03*
%TD*%
D22*
%TO.C,Y1*%
X114952000Y-124440000D03*
X110052000Y-124440000D03*
%TD*%
D16*
%TO.C,U3*%
X154142000Y-44388000D03*
D17*
X154142000Y-46928000D03*
X154142000Y-49468000D03*
X154142000Y-52008000D03*
X154142000Y-54548000D03*
X154142000Y-57088000D03*
X154142000Y-59628000D03*
X154142000Y-62168000D03*
X154142000Y-64708000D03*
X154142000Y-67248000D03*
X154142000Y-69788000D03*
X154142000Y-72328000D03*
X154142000Y-74868000D03*
X154142000Y-77408000D03*
X169382000Y-77408000D03*
X169382000Y-74868000D03*
X169382000Y-72328000D03*
X169382000Y-69788000D03*
X169382000Y-67248000D03*
X169382000Y-64708000D03*
X169382000Y-62168000D03*
X169382000Y-59628000D03*
X169382000Y-57088000D03*
X169382000Y-54548000D03*
X169382000Y-52008000D03*
X169382000Y-49468000D03*
X169382000Y-46928000D03*
X169382000Y-44388000D03*
%TD*%
D10*
%TO.C,D2*%
X160254000Y-131313000D03*
D11*
X160254000Y-128773000D03*
%TD*%
D18*
%TO.C,U8*%
X135118000Y-118359000D03*
D13*
X135118000Y-120899000D03*
X135118000Y-123439000D03*
X135118000Y-125979000D03*
X135118000Y-128519000D03*
X135118000Y-131059000D03*
X135118000Y-133599000D03*
X142738000Y-133599000D03*
X142738000Y-131059000D03*
X142738000Y-128519000D03*
X142738000Y-125979000D03*
X142738000Y-123439000D03*
X142738000Y-120899000D03*
X142738000Y-118359000D03*
%TD*%
D12*
%TO.C,R1*%
X106152000Y-134854000D03*
D13*
X118852000Y-134854000D03*
%TD*%
D18*
%TO.C,RN1*%
X189464000Y-135377000D03*
D13*
X186924000Y-135377000D03*
X184384000Y-135377000D03*
X181844000Y-135377000D03*
X179304000Y-135377000D03*
X176764000Y-135377000D03*
X174224000Y-135377000D03*
X171684000Y-135377000D03*
X169144000Y-135377000D03*
%TD*%
D19*
%TO.C,C3*%
X111760000Y-42164000D03*
D15*
X111760000Y-43664000D03*
%TD*%
D23*
%TO.C,SW1*%
X106120000Y-72862000D03*
X99620000Y-72862000D03*
X106120000Y-68362000D03*
X99620000Y-68362000D03*
%TD*%
D15*
%TO.C,C7*%
X126218000Y-102115000D03*
X126218000Y-103615000D03*
%TD*%
D10*
%TO.C,D1*%
X154432000Y-131323000D03*
D11*
X154432000Y-128783000D03*
%TD*%
D12*
%TO.C,R3*%
X103632000Y-50800000D03*
D13*
X103632000Y-63500000D03*
%TD*%
D18*
%TO.C,U6*%
X186416000Y-90673000D03*
D13*
X183876000Y-90673000D03*
X181336000Y-90673000D03*
X178796000Y-90673000D03*
X176256000Y-90673000D03*
X173716000Y-90673000D03*
X171176000Y-90673000D03*
X168636000Y-90673000D03*
X166096000Y-90673000D03*
X163556000Y-90673000D03*
X161016000Y-90673000D03*
X158476000Y-90673000D03*
X158476000Y-105913000D03*
X161016000Y-105913000D03*
X163556000Y-105913000D03*
X166096000Y-105913000D03*
X168636000Y-105913000D03*
X171176000Y-105913000D03*
X173716000Y-105913000D03*
X176256000Y-105913000D03*
X178796000Y-105913000D03*
X181336000Y-105913000D03*
X183876000Y-105913000D03*
X186416000Y-105913000D03*
%TD*%
D18*
%TO.C,U7*%
X186924000Y-115819000D03*
D13*
X184384000Y-115819000D03*
X181844000Y-115819000D03*
X179304000Y-115819000D03*
X176764000Y-115819000D03*
X174224000Y-115819000D03*
X171684000Y-115819000D03*
X169144000Y-115819000D03*
X166604000Y-115819000D03*
X164064000Y-115819000D03*
X164064000Y-123439000D03*
X166604000Y-123439000D03*
X169144000Y-123439000D03*
X171684000Y-123439000D03*
X174224000Y-123439000D03*
X176764000Y-123439000D03*
X179304000Y-123439000D03*
X181844000Y-123439000D03*
X184384000Y-123439000D03*
X186924000Y-123439000D03*
%TD*%
D18*
%TO.C,U5*%
X130790000Y-106675000D03*
D13*
X133330000Y-106675000D03*
X135870000Y-106675000D03*
X138410000Y-106675000D03*
X140950000Y-106675000D03*
X143490000Y-106675000D03*
X146030000Y-106675000D03*
X148570000Y-106675000D03*
X148570000Y-99055000D03*
X146030000Y-99055000D03*
X143490000Y-99055000D03*
X140950000Y-99055000D03*
X138410000Y-99055000D03*
X135870000Y-99055000D03*
X133330000Y-99055000D03*
X130790000Y-99055000D03*
%TD*%
D19*
%TO.C,C2*%
X122408000Y-123975401D03*
D15*
X122408000Y-125975401D03*
%TD*%
%TO.C,C9*%
X190754000Y-119126000D03*
X190754000Y-120626000D03*
%TD*%
D12*
%TO.C,R2*%
X118852000Y-130536000D03*
D13*
X106152000Y-130536000D03*
%TD*%
D18*
%TO.C,U2*%
X180142000Y-44468000D03*
D13*
X180142000Y-47008000D03*
X180142000Y-49548000D03*
X180142000Y-52088000D03*
X180142000Y-54628000D03*
X180142000Y-57168000D03*
X180142000Y-59708000D03*
X180142000Y-62248000D03*
X180142000Y-64788000D03*
X180142000Y-67328000D03*
X180142000Y-69868000D03*
X180142000Y-72408000D03*
X180142000Y-74948000D03*
X180142000Y-77488000D03*
X195382000Y-77488000D03*
X195382000Y-74948000D03*
X195382000Y-72408000D03*
X195382000Y-69868000D03*
X195382000Y-67328000D03*
X195382000Y-64788000D03*
X195382000Y-62248000D03*
X195382000Y-59708000D03*
X195382000Y-57168000D03*
X195382000Y-54628000D03*
X195382000Y-52088000D03*
X195382000Y-49548000D03*
X195382000Y-47008000D03*
X195382000Y-44468000D03*
%TD*%
D10*
%TO.C,D6*%
X183622000Y-131313000D03*
D11*
X183622000Y-128773000D03*
%TD*%
D15*
%TO.C,C6*%
X190500000Y-97802000D03*
X190500000Y-99302000D03*
%TD*%
%TO.C,C10*%
X187960000Y-39116000D03*
X187960000Y-40616000D03*
%TD*%
%TO.C,C8*%
X112998000Y-97536000D03*
X111498000Y-97536000D03*
%TD*%
%TO.C,C12*%
X112776000Y-71144000D03*
X112776000Y-72644000D03*
%TD*%
D10*
%TO.C,D5*%
X177780000Y-131313000D03*
D11*
X177780000Y-128773000D03*
%TD*%
D10*
%TO.C,D9*%
X112776000Y-78232000D03*
D11*
X112776000Y-80772000D03*
%TD*%
D10*
%TO.C,D4*%
X171938000Y-131313000D03*
D11*
X171938000Y-128773000D03*
%TD*%
M02*
